<svg xmlns="http://www.w3.org/2000/svg" xmlns:xlink="http://www.w3.org/1999/xlink" x="0" y="0" width="661.8181762695312" height="166.81817626953125" style="
        width:661.8181762695312px;
        height:166.81817626953125px;
        background: transparent;
        fill: none;
">
        
        
        <svg xmlns="http://www.w3.org/2000/svg" class="role-diagram-draw-area"><g class="shapes-region" style="stroke: black; fill: none;"><g class="grouped-shape"><g class="composite-shape"><path class="real" d=" M25.5,44.5 L235.5,44.5 L235.5,128.5 L25.5,128.5 Z" style="stroke-width: 1; stroke: none; stroke-opacity: 1; fill: none; fill-opacity: 1;"/><path class="real" d=" M25.5,44.5 L25.5,128.5 M39.5,44.5 L39.5,128.5 M53.5,44.5 L53.5,128.5 M67.5,44.5 L67.5,128.5 M81.5,44.5 L81.5,128.5 M95.5,44.5 L95.5,128.5 M109.5,44.5 L109.5,128.5 M123.5,44.5 L123.5,128.5 M137.5,44.5 L137.5,128.5 M151.5,44.5 L151.5,128.5 M165.5,44.5 L165.5,128.5 M179.5,44.5 L179.5,128.5 M193.5,44.5 L193.5,128.5 M207.5,44.5 L207.5,128.5 M221.5,44.5 L221.5,128.5 M235.5,44.5 L235.5,128.5" style="stroke-width: 1; stroke: rgb(128, 128, 128); stroke-opacity: 1; fill: none; fill-opacity: 1;"/><path class="real" d=" M25.5,44.5 L235.5,44.5 M25.5,58.5 L235.5,58.5 M25.5,72.5 L235.5,72.5 M25.5,86.5 L235.5,86.5 M25.5,100.5 L235.5,100.5 M25.5,114.5 L235.5,114.5 M25.5,128.5 L235.5,128.5" style="stroke-width: 1; stroke: rgb(128, 128, 128); stroke-opacity: 1; fill: none; fill-opacity: 1;"/><path class="real" d=" " style="stroke-width: 1; stroke: rgb(128, 128, 128); stroke-opacity: 1; fill: none; fill-opacity: 1;"/></g><g class="arrow-line"><path class="connection real" stroke-dasharray="" d="  M25.5,128.5 L235.5,128.5" style="stroke: rgb(128, 128, 128); stroke-opacity: 1; stroke-width: 1; fill: none; fill-opacity: 1;"/></g><g class="arrow-line"><path class="connection real" stroke-dasharray="" d="  M235.5,128.5 L235.5,44.5" style="stroke: rgb(128, 128, 128); stroke-opacity: 1; stroke-width: 1; fill: none; fill-opacity: 1;"/></g></g><g class="arrow-line"><path class="connection real" stroke-dasharray="" d="  M25.5,34 L25.5,128.5" style="stroke: rgb(0, 0, 0); stroke-width: 1; fill: none; fill-opacity: 1;"/><g stroke="none" fill="#000" transform="matrix(6.123233995736766e-17,1,-1,6.123233995736766e-17,25.5,31)" style="stroke: none; fill: rgb(0, 0, 0); stroke-width: 1;"><path d=" M5.36,-2.57 L0,0 L5.36,2.57 Z"/></g></g><g class="arrow-line"><path class="connection real" stroke-dasharray="" d="  M25.5,128.5 L247.5,128.5" style="stroke: rgb(0, 0, 0); stroke-opacity: 1; stroke-width: 1; fill: none; fill-opacity: 1;"/><g stroke="none" fill="rgb(0,0,0)" fill-opacity="1" transform="matrix(-1,1.2246467991473532e-16,-1.2246467991473532e-16,-1,250.49999999999997,128.50000000000003)" style="stroke: none; fill: rgb(0, 0, 0); stroke-width: 1;"><path d=" M5.36,-2.57 L0,0 L5.36,2.57 Z"/></g></g><g class="arrow-line"><path class="connection real" stroke-dasharray="" d="  M95.5,122.5 L95.5,133.5" style="stroke: rgb(0, 0, 0); stroke-width: 1; fill: none; fill-opacity: 1;"/></g><g class="arrow-line"><path class="connection real" stroke-dasharray="" d="  M29.5,58.5 L20.5,58.5" style="stroke: rgb(0, 0, 0); stroke-width: 1; fill: none; fill-opacity: 1;"/></g><g class="composite-shape"><path class="real" d=" M93.49,119.51 C93.49,118.4 94.39,117.5 95.5,117.5 C96.61,117.5 97.51,118.4 97.51,119.51 C97.51,120.62 96.61,121.52 95.5,121.52 C94.39,121.52 93.49,120.62 93.49,119.51 Z" style="stroke-width: 1; stroke: rgb(0, 0, 0); fill: none; fill-opacity: 1;"/></g><g class="composite-shape"><path class="real" d=" M93.49,105.51 C93.49,104.4 94.39,103.5 95.5,103.5 C96.61,103.5 97.51,104.4 97.51,105.51 C97.51,106.62 96.61,107.52 95.5,107.52 C94.39,107.52 93.49,106.62 93.49,105.51 Z" style="stroke-width: 1; stroke: rgb(0, 0, 0); fill: none; fill-opacity: 1;"/></g><g class="composite-shape"><path class="real" d=" M93.5,84.5 C93.5,83.39 94.4,82.49 95.51,82.49 C96.62,82.49 97.52,83.39 97.52,84.5 C97.52,85.61 96.62,86.51 95.51,86.51 C94.4,86.51 93.5,85.61 93.5,84.5 Z" style="stroke-width: 1; stroke: rgb(0, 0, 0); fill: none; fill-opacity: 1;"/></g><g class="arrow-line"><path class="connection real" stroke-dasharray="" d="  M25.5,58.5 C34.02,60.37 88.02,92.37 229.52,112.87" style="stroke: rgb(0, 0, 0); stroke-width: 1; fill: none; fill-opacity: 1;"/></g><g class="arrow-line"><path class="connection real" stroke-dasharray="" d="  M25.5,58.5 C30.52,63.37 57.52,114.37 200.02,126.87" style="stroke: rgb(0, 0, 0); stroke-width: 1; fill: none; fill-opacity: 1;"/></g><g class="arrow-line"><path class="connection real" stroke-dasharray="" d="  M25.5,58.5 C30.52,75.87 59,126 151.5,128.5" style="stroke: rgb(0, 0, 0); stroke-width: 1; fill: none; fill-opacity: 1;"/></g><g/></g><g/><g/><g/></svg>
        <svg xmlns="http://www.w3.org/2000/svg" xmlns:xlink="http://www.w3.org/1999/xlink" width="660" height="165" style="width:660px;height:165px;font-family:Asana-Math, Asana;background:transparent;"><g><g><g><g transform="matrix(1,0,0,1,27.94744873046875,27.851690673828124)"><path transform="matrix(0.0119,0,0,-0.0119,0,0)" d="M151 -172C151 -95 175 -59 228 -59C257 -59 285 -67 324 -88L469 -164C529 -195 547 -201 587 -201C662 -201 698 -158 708 -61L683 -61C677 -115 655 -140 615 -140C598 -140 579 -135 553 -125L317 -29C292 -19 274 -15 251 -15C177 -15 126 -66 126 -142C126 -144 126 -151 127 -159ZM748 425C748 603 644 706 464 706C227 706 53 523 53 272C53 83 147 -18 323 -18C595 -18 748 207 748 425ZM660 409C660 221 571 24 360 24C216 24 141 110 141 277C141 425 199 664 433 664C549 664 660 610 660 409Z" stroke="rgb(0,0,0)" stroke-opacity="1" stroke-width="8" fill="rgb(0,0,0)" fill-opacity="1"></path></g></g></g></g><g><g><g><g transform="matrix(1,0,0,1,251.94598388671875,132.85169067382813)"><path transform="matrix(0.0119,0,0,-0.0119,0,0)" d="M125 390L69 107C68 99 56 61 56 31C56 6 67 -9 86 -9C121 -9 156 11 234 74L265 99L255 117L210 86C181 66 161 56 150 56C141 56 136 64 136 76C136 102 150 183 179 328L192 390L299 390L310 440C272 436 238 434 200 434C216 528 227 577 245 631L234 646C214 634 187 622 156 610L131 440C87 419 61 408 43 403L41 390Z" stroke="rgb(0,0,0)" stroke-opacity="1" stroke-width="8" fill="rgb(0,0,0)" fill-opacity="1"></path></g></g></g></g><g><g><g><g transform="matrix(1,0,0,1,89.95025634765625,146.85028686523438)"><path transform="matrix(0.0119,0,0,-0.0119,0,0)" d="M16 23L16 -3C203 -3 203 0 239 0C275 0 275 -3 468 -3L468 82C353 77 307 81 122 77L304 270C401 373 431 428 431 503C431 618 353 689 226 689C154 689 105 669 56 619L39 483L68 483L81 529C97 587 133 612 200 612C286 612 341 558 341 473C341 398 299 324 186 204ZM779 148C774 97 768 62 757 16C795 -2 829 -11 864 -11C913 -11 959 7 1010 47C1061 87 1082 124 1082 174C1082 228 1050 257 976 271L933 279C873 290 854 307 854 348C854 401 899 442 956 442C997 442 1035 424 1051 397L1051 342L1074 342C1078 377 1082 404 1093 455C1054 474 1026 482 993 482C941 482 880 452 832 404C806 377 795 352 795 316C795 260 826 228 892 215L955 203C999 195 1015 177 1015 138C1015 73 969 29 898 29C863 29 832 40 804 64L804 148Z" stroke="rgb(0,0,0)" stroke-opacity="1" stroke-width="8" fill="rgb(0,0,0)" fill-opacity="1"></path></g></g></g></g><g><g><g><g transform="matrix(1,0,0,1,2.947418212890625,60.8488525390625)"><path transform="matrix(0.0119,0,0,-0.0119,0,0)" d="M151 -172C151 -95 175 -59 228 -59C257 -59 285 -67 324 -88L469 -164C529 -195 547 -201 587 -201C662 -201 698 -158 708 -61L683 -61C677 -115 655 -140 615 -140C598 -140 579 -135 553 -125L317 -29C292 -19 274 -15 251 -15C177 -15 126 -66 126 -142C126 -144 126 -151 127 -159ZM748 425C748 603 644 706 464 706C227 706 53 523 53 272C53 83 147 -18 323 -18C595 -18 748 207 748 425ZM660 409C660 221 571 24 360 24C216 24 141 110 141 277C141 425 199 664 433 664C549 664 660 610 660 409Z" stroke="rgb(0,0,0)" stroke-opacity="1" stroke-width="8" fill="rgb(0,0,0)" fill-opacity="1"></path></g></g><g><g><g><g><g transform="matrix(1,0,0,1,12.549713134765625,62.94648559570312)"><path transform="matrix(0.00833,0,0,-0.00833,0,0)" d="M17 152C17 46 62 -11 145 -11C200 -11 260 15 305 57C367 116 411 230 411 331C411 425 361 482 278 482C174 482 17 382 17 152ZM241 444C302 444 335 399 335 315C335 219 304 113 260 60C242 39 216 27 185 27C127 27 93 72 93 151C93 264 132 387 181 427C194 438 217 444 241 444Z" stroke="rgb(0,0,0)" stroke-opacity="1" stroke-width="8" fill="rgb(0,0,0)" fill-opacity="1"></path></g></g></g></g></g></g></g></svg>
</svg>
