<svg xmlns="http://www.w3.org/2000/svg" xmlns:xlink="http://www.w3.org/1999/xlink" x="0" y="0" width="338.4263610839844" height="103.26451110839844" style="
        width:338.4263610839844px;
        height:103.26451110839844px;
        background: transparent;
        fill: none;
">
        
        
        <svg xmlns="http://www.w3.org/2000/svg" class="role-diagram-draw-area"><g class="shapes-region" style="stroke: black; fill: none;"><g class="composite-shape"><path class="real" d=" M60,11.24 L180,11.24 L180,72.44 L60,72.44 Z" style="stroke-width: 2; stroke: rgb(0, 0, 0); fill: none; fill-opacity: 1;"/></g><g class="arrow-line"><path class="connection real" stroke-dasharray="" d="  M104.67,72.51 L107.67,72.51" style="stroke: rgb(0, 0, 0); stroke-width: 1; fill: none; fill-opacity: 1;"/><g stroke="none" fill="#000" transform="matrix(-1,1.2246467991473532e-16,-1.2246467991473532e-16,-1,110.66666412353514,72.50706481933595)" style="stroke: none; fill: rgb(0, 0, 0); stroke-width: 1;"><path d=" M8.93,-4.29 L0,0 L8.93,4.29 Z"/></g></g><g class="arrow-line"><path class="connection real" stroke-dasharray="" d="  M62,81.84 L176,81.84" style="stroke: rgb(0, 0, 0); stroke-width: 1; fill: none; fill-opacity: 1;"/><g stroke="none" fill="#000" transform="matrix(-1,1.2246467991473532e-16,-1.2246467991473532e-16,-1,179,81.84040069580078)" style="stroke: none; fill: rgb(0, 0, 0); stroke-width: 1;"><path d=" M5.36,-2.57 L0,0 L5.36,2.57 Z"/></g><g stroke="none" fill="#000" transform="matrix(1,0,0,1,59,81.84040069580078)" style="stroke: none; fill: rgb(0, 0, 0); stroke-width: 1;"><path d=" M5.36,-2.57 L0,0 L5.36,2.57 Z"/></g></g><g class="arrow-line"><path class="connection real" stroke-dasharray="" d="  M189,68.84 L189,14.84" style="stroke: rgb(0, 0, 0); stroke-width: 1; fill: none; fill-opacity: 1;"/><g stroke="none" fill="#000" transform="matrix(3.061616997868383e-16,1,-1,3.061616997868383e-16,189,11.840400695800781)" style="stroke: none; fill: rgb(0, 0, 0); stroke-width: 1;"><path d=" M5.36,-2.57 L0,0 L5.36,2.57 Z"/></g><g stroke="none" fill="#000" transform="matrix(-1.8369701987210297e-16,-1,1,-1.8369701987210297e-16,189,71.84040069580078)" style="stroke: none; fill: rgb(0, 0, 0); stroke-width: 1;"><path d=" M5.36,-2.57 L0,0 L5.36,2.57 Z"/></g></g><g/></g><g/><g/><g/></svg>
        <svg xmlns="http://www.w3.org/2000/svg" xmlns:xlink="http://www.w3.org/1999/xlink" width="336.9977722167969" height="101.8359375" style="width:336.9977722167969px;height:101.8359375px;font-family:Asana-Math, Asana;background:transparent;"><g><g><g><g transform="matrix(1,0,0,1,98.71090698242188,56.860496520996094)"><path transform="matrix(0.017,0,0,-0.017,0,0)" d="M103 664L150 662C174 661 185 653 185 636C185 629 179 576 176 559L104 125C89 36 86 31 46 28L10 25L7 -3L39 -3L133 0L227 -3L259 -3L262 25L210 28C184 30 174 37 174 57C174 63 175 74 176 78L265 613C272 652 277 657 316 661L351 664L354 692L248 689C231 689 213 689 170 690L106 692Z" stroke="rgb(0,0,0)" stroke-opacity="1" stroke-width="0" fill="rgb(0,0,0)" fill-opacity="1"></path></g></g><g><g><g><g><g transform="matrix(1,0,0,1,104.86605834960938,60.22032012939453)"><path transform="matrix(0.0119,0,0,-0.0119,0,0)" d="M17 152C17 46 62 -11 145 -11C200 -11 260 15 305 57C367 116 411 230 411 331C411 425 361 482 278 482C174 482 17 382 17 152ZM241 444C302 444 335 399 335 315C335 219 304 113 260 60C242 39 216 27 185 27C127 27 93 72 93 151C93 264 132 387 181 427C194 438 217 444 241 444Z" stroke="rgb(0,0,0)" stroke-opacity="1" stroke-width="0" fill="rgb(0,0,0)" fill-opacity="1"></path></g></g></g></g></g></g></g><g><g><g><g transform="matrix(1,0,0,1,193.71090698242188,44.79419860839844)"><path transform="matrix(0.0136,0,0,-0.0136,0,0)" d="M131 331C152 512 241 611 421 665L379 689C283 657 242 637 191 593C88 506 32 384 32 247C32 82 112 -20 241 -20C371 -20 468 83 468 219C468 334 399 409 293 409C216 409 184 370 131 331ZM255 349C331 349 382 283 382 184C382 80 331 13 254 13C169 13 123 86 123 220C123 255 127 274 138 291C160 325 207 349 255 349ZM848 664L851 692L737 689C721 689 703 689 660 690L596 692L593 664L640 662C664 661 675 653 675 635L580 55C576 37 564 30 520 23L515 -3L556 -2C587 -1 649 0 669 0C669 0 966 -1 966 -1C966 -1 999 0 999 0C998 25 1009 103 1022 165L991 165L974 103C965 71 956 54 947 49C934 44 870 39 803 39C754 39 727 40 661 46C664 64 755 605 755 613C762 651 769 658 806 661Z" stroke="rgb(0,0,0)" stroke-opacity="1" stroke-width="0" fill="rgb(0,0,0)" fill-opacity="1"></path></g></g><g><g><g><g><g transform="matrix(1,0,0,1,208.45425415039062,47.55572082519531)"><path transform="matrix(0.009519999999999999,0,0,-0.009519999999999999,0,0)" d="M17 152C17 46 62 -11 145 -11C200 -11 260 15 305 57C367 116 411 230 411 331C411 425 361 482 278 482C174 482 17 382 17 152ZM241 444C302 444 335 399 335 315C335 219 304 113 260 60C242 39 216 27 185 27C127 27 93 72 93 151C93 264 132 387 181 427C194 438 217 444 241 444Z" stroke="rgb(0,0,0)" stroke-opacity="1" stroke-width="0" fill="rgb(0,0,0)" fill-opacity="1"></path></g></g></g></g></g></g></g><g><g><g><g transform="matrix(1,0,0,1,106.70761108398438,96.79755554199218)"><path transform="matrix(0.0136,0,0,-0.0136,0,0)" d="M418 -3L418 27L366 30C311 33 301 44 301 96L301 700L60 598L67 548L217 614L217 96C217 44 206 33 152 30L96 27L96 -3C250 0 250 0 261 0C292 0 402 -3 418 -3ZM515 23L515 -3C702 -3 702 0 738 0C774 0 774 -3 967 -3L967 82C852 77 806 81 621 77L803 270C900 373 930 428 930 503C930 618 852 689 725 689C653 689 604 669 555 619L538 483L567 483L580 529C596 587 632 612 699 612C785 612 840 558 840 473C840 398 798 324 685 204ZM1347 664L1350 692L1236 689C1220 689 1202 689 1159 690L1095 692L1092 664L1139 662C1163 661 1174 653 1174 635L1079 55C1075 37 1063 30 1019 23L1014 -3L1055 -2C1086 -1 1148 0 1168 0C1168 0 1465 -1 1465 -1C1465 -1 1498 0 1498 0C1497 25 1508 103 1521 165L1490 165L1473 103C1464 71 1455 54 1446 49C1433 44 1369 39 1302 39C1253 39 1226 40 1160 46C1163 64 1254 605 1254 613C1261 651 1268 658 1305 661Z" stroke="rgb(0,0,0)" stroke-opacity="1" stroke-width="0" fill="rgb(0,0,0)" fill-opacity="1"></path></g></g><g><g><g><g><g transform="matrix(1,0,0,1,128.23660278320312,99.5590625)"><path transform="matrix(0.009519999999999999,0,0,-0.009519999999999999,0,0)" d="M17 152C17 46 62 -11 145 -11C200 -11 260 15 305 57C367 116 411 230 411 331C411 425 361 482 278 482C174 482 17 382 17 152ZM241 444C302 444 335 399 335 315C335 219 304 113 260 60C242 39 216 27 185 27C127 27 93 72 93 151C93 264 132 387 181 427C194 438 217 444 241 444Z" stroke="rgb(0,0,0)" stroke-opacity="1" stroke-width="0" fill="rgb(0,0,0)" fill-opacity="1"></path></g></g></g></g></g></g></g></svg>
</svg>
