<svg xmlns="http://www.w3.org/2000/svg" xmlns:xlink="http://www.w3.org/1999/xlink" x="0" y="0" width="661.5" height="288.4921875" style="
        width:661.5px;
        height:288.4921875px;
        background: transparent;
        fill: none;
">
        
        
        <svg xmlns="http://www.w3.org/2000/svg" class="role-diagram-draw-area"><g class="shapes-region" style="stroke: black; fill: none;"><g class="composite-shape"><path class="real" d=" M101.67,160 C101.67,215.23 83.38,260 60.83,260 C38.28,260 20,215.23 20,160 C20,104.77 38.28,60 60.83,60 C83.38,60 101.67,104.77 101.67,160 Z" style="stroke-width: 5; stroke: rgb(128, 128, 128); stroke-opacity: 1; fill: none; fill-opacity: 1;"/></g><g class="composite-shape"><path class="real" d=" M85.33,160 C85.33,193.14 74.36,220 60.83,220 C47.3,220 36.33,193.14 36.33,160 C36.33,126.86 47.3,100 60.83,100 C74.36,100 85.33,126.86 85.33,160 Z" style="stroke-width: 5; stroke: rgb(128, 128, 128); stroke-opacity: 1; fill: none; fill-opacity: 1;"/></g><g class="arrow-line"><path class="connection real" stroke-dasharray="" d="  M580.4,259.9 L60.83,260" style="stroke: rgb(128, 128, 128); stroke-opacity: 1; stroke-width: 5; fill: none; fill-opacity: 1;"/></g><g class="arrow-line"><path class="connection real" stroke-dasharray="" d="  M580.35,59.92 L62.87,60" style="stroke: rgb(128, 128, 128); stroke-opacity: 1; stroke-width: 5; fill: none; fill-opacity: 1;"/></g><g class="arrow-line"><path class="connection real" stroke-dasharray="" d="  M94.67,220 L60.83,220" style="stroke: rgb(128, 128, 128); stroke-opacity: 1; stroke-width: 5; fill: none; fill-opacity: 1;"/></g><g class="arrow-line"><path class="connection real" stroke-dasharray="3.375 4.0200000000000005" d="  M574.67,220 L94.67,220" style="stroke: rgb(155, 155, 155); stroke-opacity: 1; stroke-width: 3; fill: none; fill-opacity: 1;"/></g><g class="arrow-line"><path class="connection real" stroke-dasharray="3.375 4.0200000000000005" d="  M572.57,100.04 L94.67,100" style="stroke: rgb(155, 155, 155); stroke-opacity: 1; stroke-width: 3; fill: none; fill-opacity: 1;"/></g><g class="arrow-line"><path class="connection real" stroke-dasharray="" d="  M94.67,100 L60.83,100" style="stroke: rgb(128, 128, 128); stroke-opacity: 1; stroke-width: 4; fill: none; fill-opacity: 1;"/></g><g class="composite-shape"><path class="real" d=" M575.95,100.04 C590.34,101.23 601.83,127.62 601.83,160 C601.83,193.14 589.79,220 574.94,220 C574.85,220 574.76,220 574.67,220 L574.94,160 Z" style="stroke-width: 3; stroke: none; stroke-opacity: 1; fill: none; fill-opacity: 1; stroke-dasharray: 3.375, 4.02;"/><path class="real" d=" M575.95,100.04 C590.34,101.23 601.83,127.62 601.83,160 C601.83,193.14 589.79,220 574.94,220 C574.85,220 574.76,220 574.67,220" style="stroke-width: 3; stroke: rgb(155, 155, 155); stroke-opacity: 1; fill: none; fill-opacity: 1; stroke-dasharray: 3.375, 4.02;"/></g><g class="composite-shape"><path class="real" d=" M580.35,59.92 C602.69,60.51 620.73,105.05 620.73,159.91 C620.73,214.73 602.72,259.24 580.4,259.9 L579.9,159.91 Z" style="stroke-width: 5; stroke: none; stroke-opacity: 1; fill: none; fill-opacity: 1;"/><path class="real" d=" M580.35,59.92 C602.69,60.51 620.73,105.05 620.73,159.91 C620.73,214.73 602.72,259.24 580.4,259.9" style="stroke-width: 5; stroke: rgb(128, 128, 128); stroke-opacity: 1; fill: none; fill-opacity: 1;"/></g><g class="arrow-line"><path class="connection real" stroke-dasharray="" d="  M60.83,160 L40.92,198.23" style="stroke: rgb(0, 0, 0); stroke-width: 1; fill: none; fill-opacity: 1;"/><g stroke="#000" transform="matrix(0.46190341879681274,-0.8869302293325085,0.8869302293325085,0.46190341879681274,40,200)" style="stroke: rgb(0, 0, 0); stroke-width: 1;"><path d=" M10.93,-3.29 Q4.96,-0.45 0,0 Q4.96,0.45 10.93,3.29"/></g></g><g class="arrow-line"><path class="connection real" stroke-dasharray="" d="  M60.83,160 L24.91,148.6" style="stroke: rgb(0, 0, 0); stroke-width: 1; fill: none; fill-opacity: 1;"/><g stroke="#000" transform="matrix(0.9531906677929469,0.3023698907504447,-0.3023698907504447,0.9531906677929469,23.000000000000004,148)" style="stroke: rgb(0, 0, 0); stroke-width: 1;"><path d=" M10.93,-3.29 Q4.96,-0.45 0,0 Q4.96,0.45 10.93,3.29"/></g></g><g class="arrow-line"><path class="connection real" stroke-dasharray="" d="  M63.67,40 L589.67,40" style="stroke: rgb(0, 0, 0); stroke-width: 1; fill: none; fill-opacity: 1;"/><g stroke="#000" transform="matrix(-1,1.2246467991473532e-16,-1.2246467991473532e-16,-1,591.6666633333334,40)" style="stroke: rgb(0, 0, 0); stroke-width: 1;"><path d=" M10.93,-3.29 Q4.96,-0.45 0,0 Q4.96,0.45 10.93,3.29"/></g><g stroke="#000" transform="matrix(1,0,0,1,61.66666333333342,40)" style="stroke: rgb(0, 0, 0); stroke-width: 1;"><path d=" M10.93,-3.29 Q4.96,-0.45 0,0 Q4.96,0.45 10.93,3.29"/></g></g><g/></g><g/><g/><g/></svg>
        <svg xmlns="http://www.w3.org/2000/svg" xmlns:xlink="http://www.w3.org/1999/xlink" width="660" height="286.9921875" style="width:660px;height:286.9921875px;font-family:Asana-Math, Asana;background:transparent;"><g><g><g><g transform="matrix(1,0,0,1,44.748046875,150.74609375)"><path transform="matrix(0.017,0,0,-0.017,0,0)" d="M235 722L223 733C171 707 135 698 63 691L59 670L107 670C131 670 141 663 141 646C141 639 140 628 139 622L38 71C37 68 37 64 37 61C37 22 85 -11 140 -11C177 -11 228 8 271 39C367 107 433 244 433 376C433 414 424 453 412 468C405 477 392 482 377 482C353 482 323 474 295 460C244 433 211 403 149 324ZM322 424C348 424 361 401 361 352C361 288 340 202 310 137C277 68 237 36 183 36C137 36 112 59 112 101C112 135 127 276 208 361C241 395 293 424 322 424Z" stroke="rgb(0,0,0)" stroke-opacity="1" stroke-width="0" fill="rgb(0,0,0)" fill-opacity="1"></path></g></g></g></g><g><g><g><g transform="matrix(1,0,0,1,60.41015625,189.74609375)"><path transform="matrix(0.017,0,0,-0.017,0,0)" d="M271 204L242 77C238 60 236 42 236 26C236 4 245 -9 260 -9C283 -9 324 17 406 85L399 106C375 86 346 59 324 59C315 59 309 68 309 82C309 87 309 90 310 93L402 472L392 481L359 463C318 478 301 482 274 482C246 482 226 477 199 464C137 433 104 403 79 354C35 265 4 145 4 67C4 23 19 -11 38 -11C75 -11 155 41 271 204ZM319 414C297 305 278 253 244 201C187 117 126 59 94 59C82 59 76 72 76 99C76 163 104 280 139 360C163 415 186 433 234 433C257 433 275 429 319 414Z" stroke="rgb(0,0,0)" stroke-opacity="1" stroke-width="0" fill="rgb(0,0,0)" fill-opacity="1"></path></g></g></g></g><g><g><g><g transform="matrix(1,0,0,1,309.41015625,26.75)"><path transform="matrix(0.017,0,0,-0.017,0,0)" d="M349 664L352 692L238 689C222 689 204 689 161 690L97 692L94 664L141 662C165 661 176 653 176 635L81 55C77 37 65 30 21 23L16 -3L57 -2C88 -1 150 0 170 0C170 0 467 -1 467 -1C467 -1 500 0 500 0C499 25 510 103 523 165L492 165L475 103C466 71 457 54 448 49C435 44 371 39 304 39C255 39 228 40 162 46C165 64 256 605 256 613C263 651 270 658 307 661Z" stroke="rgb(0,0,0)" stroke-opacity="1" stroke-width="0" fill="rgb(0,0,0)" fill-opacity="1"></path></g></g></g></g></svg>
</svg>
