<svg xmlns="http://www.w3.org/2000/svg" xmlns:xlink="http://www.w3.org/1999/xlink" x="0" y="0" width="401.49609375" height="120.498046875" style="
        width:401.49609375px;
        height:120.498046875px;
        background: transparent;
        fill: none;
">
        
        
        <svg xmlns="http://www.w3.org/2000/svg" class="role-diagram-draw-area"><g class="shapes-region" style="stroke: black; fill: none;"><g class="grouped-shape"><g class="grouped-shape"><g class="composite-shape"><path class="real" d=" M25.5,65.65 C25.5,43.83 43.18,26.15 65,26.15 C86.82,26.15 104.5,43.83 104.5,65.65 C104.5,87.47 86.82,105.15 65,105.15 C43.18,105.15 25.5,87.47 25.5,65.65 Z" style="stroke-width: 1; stroke: rgb(0, 0, 0); fill: none; fill-opacity: 1;"/></g><g class="arrow-line"><path class="connection real" stroke-dasharray="" d="  M29,82.14 L27.95,78.99" style="stroke: rgb(0, 0, 0); stroke-width: 1; fill: none; fill-opacity: 1;"/><g stroke="none" fill="#000" transform="matrix(0.3161458239738065,0.9487106081329137,-0.9487106081329137,0.3161458239738065,27,76.14453125)" style="stroke: none; fill: rgb(0, 0, 0); stroke-width: 1;"><path d=" M8.93,-4.29 L0,0 L8.93,4.29 Z"/></g></g></g><g class="arrow-line"><path class="connection real" stroke-dasharray="" d="  M67,26.15" style="stroke: rgb(0, 0, 0); stroke-width: 1; fill: none; fill-opacity: 1;"/><g stroke="none" fill="#000" transform="matrix(-1,1.2246467991473532e-16,-1.2246467991473532e-16,-1,69,26.14999771118164)" style="stroke: none; fill: rgb(0, 0, 0); stroke-width: 1;"><path d=" M8.93,-4.29 L0,0 L8.93,4.29 Z"/></g></g><g class="arrow-line"><path class="connection real" stroke-dasharray="" d="  M101,82.15 L99.54,84.57" style="stroke: rgb(0, 0, 0); stroke-width: 1; fill: none; fill-opacity: 1;"/><g stroke="none" fill="#000" transform="matrix(0.5148884631499584,-0.8572571787480545,0.8572571787480545,0.5148884631499584,98,87.14453125)" style="stroke: none; fill: rgb(0, 0, 0); stroke-width: 1;"><path d=" M8.93,-4.29 L0,0 L8.93,4.29 Z"/></g></g></g><g/></g><g/><g/><g/></svg>
        <svg xmlns="http://www.w3.org/2000/svg" xmlns:xlink="http://www.w3.org/1999/xlink" width="399.99609375" height="118.998046875" style="width:399.99609375px;height:118.998046875px;font-family:Asana-Math, Asana;background:transparent;"><g><g><g><g><g><g><g transform="matrix(1,0,0,1,13.74609375,92.75)"><path transform="matrix(0.017,0,0,-0.017,0,0)" d="M240 722L228 733C176 707 140 698 68 691L64 670L112 670C136 670 146 663 146 646C146 638 145 629 144 622L96 354C82 279 66 210 14 1L23 -9L90 8L113 132C122 180 146 225 180 259C249 59 281 -9 306 -9C319 -9 343 4 387 35L433 67L425 86L382 62C368 54 361 52 353 52C343 52 336 58 327 75C292 139 270 193 231 316L245 330C306 391 352 416 402 416C410 416 421 414 438 410L455 473C437 479 419 482 407 482C341 482 258 405 133 230Z" stroke="rgb(0,0,0)" stroke-opacity="1" stroke-width="0" fill="rgb(0,0,0)" fill-opacity="1"></path></g></g></g></g><svg x="13.06610107421875" overflow="visible" y="69.75" height="9" width="6.796875"><polyline points="0.00,8.06 3.40,5.79 6.80,8.06" style="fill:none;fill-opacity:1;stroke-width:1px;stroke:rgb(0,0,0);stroke-opacity:1;"></polyline></svg></g></g></g><g><g><g><g><g><g><g transform="matrix(1,0,0,1,110.748046875,91.75390625)"><path transform="matrix(0.017,0,0,-0.017,0,0)" d="M138 351L38 -144C27 -196 9 -231 -9 -231C-23 -231 -41 -225 -62 -212L-70 -269C-60 -274 -47 -276 -32 -276C8 -276 48 -233 84 -152C104 -107 118 -57 146 70L222 420C226 438 228 451 228 457C228 473 219 482 203 482C181 482 144 461 69 408L41 388L48 368C85 391 120 414 127 414C137 414 145 404 145 391C145 382 138 356 138 351Z" stroke="rgb(0,0,0)" stroke-opacity="1" stroke-width="0" fill="rgb(0,0,0)" fill-opacity="1"></path></g></g></g></g><svg x="110.748046875" overflow="visible" y="72.75" height="9" width="5.09765625"><polyline points="0.00,8.06 2.55,6.36 5.10,8.06" style="fill:none;fill-opacity:1;stroke-width:1px;stroke:rgb(0,0,0);stroke-opacity:1;"></polyline></svg></g></g></g><g><g><g><g><g><g><g transform="matrix(1,0,0,1,59.748046875,19.75390625)"><path transform="matrix(0.017,0,0,-0.017,0,0)" d="M51 30C51 6 62 -9 81 -9C107 -9 143 12 241 85L231 103L205 86C176 67 153 56 144 56C137 56 131 66 131 76C131 86 133 95 138 116L215 420C219 437 221 448 221 456C221 473 212 482 196 482C174 482 137 461 62 408L34 388L41 368L73 389C110 412 113 414 120 414C130 414 138 404 138 391C138 371 51 85 51 30Z" stroke="rgb(0,0,0)" stroke-opacity="1" stroke-width="0" fill="rgb(0,0,0)" fill-opacity="1"></path></g></g></g></g><svg x="59.748046875" overflow="visible" y="0.75" height="9" width="5.09765625"><polyline points="0.00,8.06 2.55,6.36 5.10,8.06" style="fill:none;fill-opacity:1;stroke-width:1px;stroke:rgb(0,0,0);stroke-opacity:1;"></polyline></svg></g></g></g></svg>
</svg>
