<svg xmlns="http://www.w3.org/2000/svg" xmlns:xlink="http://www.w3.org/1999/xlink" x="0" y="0" width="192" height="128" style="
        width:192px;
        height:128px;
        background: transparent;
        fill: none;
">
        
        
        <svg xmlns="http://www.w3.org/2000/svg" class="role-diagram-draw-area"><g class="shapes-region" style="stroke: black; fill: none;"><g class="arrow-line"><path class="connection real" stroke-dasharray="" d="  M159.85,100 L159.85,80" style="stroke: rgb(0, 0, 0); stroke-width: 1; fill: none; fill-opacity: 1;"/></g><g class="arrow-line"><path class="connection real" stroke-dasharray="" d="  M30,20 L160,20" style="stroke: rgb(0, 0, 0); stroke-width: 1; fill: none; fill-opacity: 1;"/></g><g class="arrow-line"><path class="connection real" stroke-dasharray="" d="  M30,100 L160,100" style="stroke: rgb(0, 0, 0); stroke-width: 1; fill: none; fill-opacity: 1;"/></g><g class="arrow-line"><path class="connection real" stroke-dasharray="" d="  M159.85,20 L159.85,40" style="stroke: rgb(0, 0, 0); stroke-width: 1; fill: none; fill-opacity: 1;"/></g><g class="composite-shape"><g class="real" style="stroke-width: 1; stroke: rgb(0, 0, 0); fill: none; fill-opacity: 1;"><path d=" M160.01,79.96 L159.98,72.77 L149.99,71.21 L169.95,67.93 L149.96,64.81 L169.93,61.54 L149.93,58.42 L169.9,55.14 L149.91,52.03 L169.87,48.75 L159.88,47.19 L159.85,40" style="fill: none;"/></g></g><g class="arrow-line"><path class="connection real" stroke-dasharray="" d="  M29.85,100 L29.85,80" style="stroke: rgb(0, 0, 0); stroke-width: 1; fill: none; fill-opacity: 1;"/></g><g class="arrow-line"><path class="connection real" stroke-dasharray="" d="  M29.85,20 L29.85,40" style="stroke: rgb(0, 0, 0); stroke-width: 1; fill: none; fill-opacity: 1;"/></g><g class="composite-shape"><g class="real" style="stroke-width: 1; stroke: rgb(0, 0, 0); fill: none; fill-opacity: 1;"><path d=" M30.01,79.96 L29.98,72.77 L19.99,71.21 L39.95,67.93 L19.96,64.81 L39.93,61.54 L19.93,58.42 L39.9,55.14 L19.91,52.03 L39.87,48.75 L29.88,47.19 L29.85,40" style="fill: none;"/></g></g><g class="arrow-line"><path class="connection real" stroke-dasharray="" d="  M60.44,43.8 L80.77,43.8" style="stroke: rgb(0, 0, 0); stroke-width: 1; fill: none; fill-opacity: 1;"/></g><g class="arrow-line"><path class="connection real" stroke-dasharray="" d="  M65.46,49.3 L75.62,49.3" style="stroke: rgb(0, 0, 0); stroke-width: 2; fill: none; fill-opacity: 1;"/></g><g class="arrow-line"><path class="connection real" stroke-dasharray="" d="  M70,20 L70,43.12" style="stroke: rgb(0, 0, 0); stroke-width: 1; fill: none; fill-opacity: 1;"/></g><g class="composite-shape"><g class="real" style="stroke-width: 1; stroke: rgb(0, 0, 0); fill: none; fill-opacity: 1;"><path d=" M70.54,83.22 L70.52,79.64 L65.54,78.86 L75.49,77.23 L65.53,75.67 L75.48,74.04 L65.51,72.48 L75.47,70.85 L65.5,69.3 L75.45,67.66 L70.47,66.89 L70.46,63.3" style="fill: none;"/></g></g><g class="arrow-line"><path class="connection real" stroke-dasharray="" d="  M70.46,63.3 L70.46,49.3" style="stroke: rgb(0, 0, 0); stroke-width: 1; fill: none; fill-opacity: 1;"/></g><g class="arrow-line"><path class="connection real" stroke-dasharray="" d="  M70.54,83.22 L70.6,100.12" style="stroke: rgb(0, 0, 0); stroke-width: 1; fill: none; fill-opacity: 1;"/></g><g class="arrow-line"><path class="connection real" stroke-dasharray="" d="  M100,43.8 L120.33,43.8" style="stroke: rgb(0, 0, 0); stroke-width: 1; fill: none; fill-opacity: 1;"/></g><g class="arrow-line"><path class="connection real" stroke-dasharray="" d="  M105.02,49.3 L115.18,49.3" style="stroke: rgb(0, 0, 0); stroke-width: 2; fill: none; fill-opacity: 1;"/></g><g class="arrow-line"><path class="connection real" stroke-dasharray="" d="  M109.56,20 L109.56,43.12" style="stroke: rgb(0, 0, 0); stroke-width: 1; fill: none; fill-opacity: 1;"/></g><g class="composite-shape"><g class="real" style="stroke-width: 1; stroke: rgb(0, 0, 0); fill: none; fill-opacity: 1;"><path d=" M110.1,83.22 L110.08,79.64 L105.1,78.86 L115.05,77.23 L105.09,75.67 L115.04,74.04 L105.07,72.48 L115.03,70.85 L105.06,69.3 L115.01,67.66 L110.03,66.89 L110.02,63.3" style="fill: none;"/></g></g><g class="arrow-line"><path class="connection real" stroke-dasharray="" d="  M110.02,63.3 L110.02,49.3" style="stroke: rgb(0, 0, 0); stroke-width: 1; fill: none; fill-opacity: 1;"/></g><g class="arrow-line"><path class="connection real" stroke-dasharray="" d="  M110.1,83.22 L110.16,100.12" style="stroke: rgb(0, 0, 0); stroke-width: 1; fill: none; fill-opacity: 1;"/></g><g/></g><g/><g/><g/></svg>
        <svg xmlns="http://www.w3.org/2000/svg" xmlns:xlink="http://www.w3.org/1999/xlink" width="190" height="126" style="width:190px;height:126px;font-family:Asana-Math, Asana;background:transparent;"><g><g><g><g transform="matrix(1,0,0,1,78.5,41.1)"><path transform="matrix(0.0136,0,0,-0.0136,0,0)" d="M459 292C492 271 504 228 504 181C504 84 452 15 348 15C236 15 143 93 143 214C143 241 152 266 165 286C211 356 306 367 395 367C418 367 431 387 433 408L428 412C412 403 394 400 374 400C300 400 168 441 168 549C168 614 259 653 321 653C383 653 463 610 480 542C481 539 481 536 481 533C481 523 477 513 469 508L477 507C496 507 553 557 553 579C553 605 500 635 480 645C426 673 366 683 312 683C218 683 78 651 78 551C78 447 155 415 230 392C123 370 32 314 32 205C32 51 153 -18 293 -18C419 -18 581 14 581 153C581 232 528 292 459 292Z" stroke="rgb(0,0,0)" stroke-opacity="1" stroke-width="8" fill="rgb(0,0,0)" fill-opacity="1"></path></g></g><g><g><g><g><g transform="matrix(1,0,0,1,87.3125,43.496562499999996)"><path transform="matrix(0.009519999999999999,0,0,-0.009519999999999999,0,0)" d="M17 152C17 46 62 -11 145 -11C200 -11 260 15 305 57C367 116 411 230 411 331C411 425 361 482 278 482C174 482 17 382 17 152ZM241 444C302 444 335 399 335 315C335 219 304 113 260 60C242 39 216 27 185 27C127 27 93 72 93 151C93 264 132 387 181 427C194 438 217 444 241 444Z" stroke="rgb(0,0,0)" stroke-opacity="1" stroke-width="8" fill="rgb(0,0,0)" fill-opacity="1"></path></g></g></g></g></g></g></g><g><g><g><g transform="matrix(1,0,0,1,117.0546875,41.1)"><path transform="matrix(0.0136,0,0,-0.0136,0,0)" d="M459 292C492 271 504 228 504 181C504 84 452 15 348 15C236 15 143 93 143 214C143 241 152 266 165 286C211 356 306 367 395 367C418 367 431 387 433 408L428 412C412 403 394 400 374 400C300 400 168 441 168 549C168 614 259 653 321 653C383 653 463 610 480 542C481 539 481 536 481 533C481 523 477 513 469 508L477 507C496 507 553 557 553 579C553 605 500 635 480 645C426 673 366 683 312 683C218 683 78 651 78 551C78 447 155 415 230 392C123 370 32 314 32 205C32 51 153 -18 293 -18C419 -18 581 14 581 153C581 232 528 292 459 292Z" stroke="rgb(0,0,0)" stroke-opacity="1" stroke-width="8" fill="rgb(0,0,0)" fill-opacity="1"></path></g></g><g><g><g><g><g transform="matrix(1,0,0,1,125.8671875,43.496562499999996)"><path transform="matrix(0.009519999999999999,0,0,-0.009519999999999999,0,0)" d="M418 -3L418 27L366 30C311 33 301 44 301 96L301 700L60 598L67 548L217 614L217 96C217 44 206 33 152 30L96 27L96 -3C250 0 250 0 261 0C292 0 402 -3 418 -3Z" stroke="rgb(0,0,0)" stroke-opacity="1" stroke-width="8" fill="rgb(0,0,0)" fill-opacity="1"></path></g></g></g></g></g></g></g><g><g><g><g transform="matrix(1,0,0,1,77.9609375,84.94375)"><path transform="matrix(0.0136,0,0,-0.0136,0,0)" d="M368 365C371 403 376 435 384 476C373 481 369 482 364 482C333 482 302 458 266 407C227 351 188 291 172 256L204 408C208 425 210 438 210 450C210 470 202 482 187 482C166 482 128 461 54 408L26 388L33 368L65 389C93 407 104 412 113 412C123 412 130 403 130 390C130 332 87 126 47 -2L57 -9C72 -4 88 -1 111 4L124 6L150 126C168 209 191 262 235 319C269 363 296 384 318 384C333 384 343 379 354 365Z" stroke="rgb(0,0,0)" stroke-opacity="1" stroke-width="8" fill="rgb(0,0,0)" fill-opacity="1"></path></g></g></g></g><g><g><g><g transform="matrix(1,0,0,1,118.5,85.1)"><path transform="matrix(0.0136,0,0,-0.0136,0,0)" d="M368 365C371 403 376 435 384 476C373 481 369 482 364 482C333 482 302 458 266 407C227 351 188 291 172 256L204 408C208 425 210 438 210 450C210 470 202 482 187 482C166 482 128 461 54 408L26 388L33 368L65 389C93 407 104 412 113 412C123 412 130 403 130 390C130 332 87 126 47 -2L57 -9C72 -4 88 -1 111 4L124 6L150 126C168 209 191 262 235 319C269 363 296 384 318 384C333 384 343 379 354 365Z" stroke="rgb(0,0,0)" stroke-opacity="1" stroke-width="8" fill="rgb(0,0,0)" fill-opacity="1"></path></g></g></g></g><g><g><g><g transform="matrix(1,0,0,1,8.5,83.1)"><path transform="matrix(0.0136,0,0,-0.0136,0,0)" d="M105 664L161 662C185 661 196 653 196 635C196 621 192 589 187 559L112 125C96 34 94 32 54 28L13 25L9 -3L51 -2C98 0 117 0 141 0L238 -3L264 -3L267 25L218 28C191 30 182 38 182 58C182 67 183 76 186 93L287 648C316 654 336 656 363 656C450 656 496 617 496 543C496 448 418 378 314 378L270 378L267 367C401 172 432 124 507 -3C507 -3 592 0 592 0C593 0 607 -1 626 -3L639 -3L639 24C599 29 588 37 559 79L375 354C430 364 459 376 495 402C553 444 584 499 584 560C584 646 520 693 409 691L108 691Z" stroke="rgb(0,0,0)" stroke-opacity="1" stroke-width="8" fill="rgb(0,0,0)" fill-opacity="1"></path></g></g><g><g><g></g></g></g></g></g><g><g><g><g transform="matrix(1,0,0,1,171.5,83.1)"><path transform="matrix(0.0136,0,0,-0.0136,0,0)" d="M105 664L161 662C185 661 196 653 196 635C196 621 192 589 187 559L112 125C96 34 94 32 54 28L13 25L9 -3L51 -2C98 0 117 0 141 0L238 -3L264 -3L267 25L218 28C191 30 182 38 182 58C182 67 183 76 186 93L287 648C316 654 336 656 363 656C450 656 496 617 496 543C496 448 418 378 314 378L270 378L267 367C401 172 432 124 507 -3C507 -3 592 0 592 0C593 0 607 -1 626 -3L639 -3L639 24C599 29 588 37 559 79L375 354C430 364 459 376 495 402C553 444 584 499 584 560C584 646 520 693 409 691L108 691Z" stroke="rgb(0,0,0)" stroke-opacity="1" stroke-width="8" fill="rgb(0,0,0)" fill-opacity="1"></path></g></g><g><g><g></g></g></g></g></g></svg>
</svg>
