<svg xmlns="http://www.w3.org/2000/svg" xmlns:xlink="http://www.w3.org/1999/xlink" x="0" y="0" width="662" height="152" style="
        width:662px;
        height:152px;
        background: transparent;
        fill: none;
">
        
        
        <svg xmlns="http://www.w3.org/2000/svg" class="role-diagram-draw-area"><g class="shapes-region" style="stroke: black; fill: none;"><g class="arrow-line"><path class="connection real" stroke-dasharray="" d="  M23,54.14 L23,24.5" style="stroke: rgb(0, 0, 0); stroke-width: 1; fill: none; fill-opacity: 1;"/><g stroke="none" fill="#000" transform="matrix(3.061616997868383e-16,1,-1,3.061616997868383e-16,23,21.5)" style="stroke: none; fill: rgb(0, 0, 0); stroke-width: 1;"><path d=" M8.93,-4.29 L0,0 L8.93,4.29 Z"/></g></g><g class="arrow-line"><path class="connection real" stroke-dasharray="" d="  M175.5,25.5 L175.5,51" style="stroke: rgb(0, 0, 0); stroke-width: 1; fill: none; fill-opacity: 1;"/><g stroke="none" fill="#000" transform="matrix(-1.8369701987210297e-16,-1,1,-1.8369701987210297e-16,175.5,54)" style="stroke: none; fill: rgb(0, 0, 0); stroke-width: 1;"><path d=" M8.93,-4.29 L0,0 L8.93,4.29 Z"/></g></g><g class="arrow-line"><path class="connection real" stroke-dasharray="" d="  M361.5,54.14 L333.36,54.14" style="stroke: rgb(0, 0, 0); stroke-width: 1; fill: none; fill-opacity: 1;"/><g stroke="none" fill="#000" transform="matrix(1,-2.4492935982947064e-16,2.4492935982947064e-16,1,330.35713958740234,54.142852783203125)" style="stroke: none; fill: rgb(0, 0, 0); stroke-width: 1;"><path d=" M8.93,-4.29 L0,0 L8.93,4.29 Z"/></g></g><g class="arrow-line"><path class="connection real" stroke-dasharray="" d="  M32.5,124 L61.5,124.45" style="stroke: rgb(0, 0, 0); stroke-width: 1; fill: none; fill-opacity: 1;"/><g stroke="none" fill="#000" transform="matrix(-0.9998766324816606,-0.015707317311820464,0.015707317311820464,-0.9998766324816606,64.5,124.5)" style="stroke: none; fill: rgb(0, 0, 0); stroke-width: 1;"><path d=" M8.93,-4.29 L0,0 L8.93,4.29 Z"/></g></g><g class="grouped-shape"><g class="composite-shape axis2d" style="stroke-width: 1; stroke: rgb(0, 0, 0);"><path class="real" d=" M440.93,34.5 L465.31,34.5 M443.37,14.42 L443.37,36.73"/><path d=" M458.31,29.5 L465.31,34.5 L458.31,39.5"/><path d=" M438.37,21.42 L443.37,14.42 L448.37,21.42"/><path d=""/><g style="fill: rgb(0, 0, 0); fill-opacity: 1; font-size: 11px; font-weight: normal; text-anchor: end; stroke: none; font-family: Times;"/></g></g><g class="grouped-shape"><g class="arrow-line"><path class="connection real" stroke-dasharray="" d="  M53,55 L85,55" style="stroke: rgb(0, 0, 0); stroke-width: 1; fill: none; fill-opacity: 1;"/><g stroke="#000" transform="matrix(-1,1.2246467991473532e-16,-1.2246467991473532e-16,-1,87,55.00000000000001)" style="stroke: rgb(0, 0, 0); stroke-width: 1;"><path d=" M10.93,-3.29 Q4.96,-0.45 0,0 Q4.96,0.45 10.93,3.29"/></g></g></g><g class="grouped-shape"><g class="arrow-line"><path class="connection real" stroke-dasharray="" d="  M205,53 L237,53" style="stroke: rgb(0, 0, 0); stroke-width: 1; fill: none; fill-opacity: 1;"/><g stroke="#000" transform="matrix(-1,1.2246467991473532e-16,-1.2246467991473532e-16,-1,239,53)" style="stroke: rgb(0, 0, 0); stroke-width: 1;"><path d=" M10.93,-3.29 Q4.96,-0.45 0,0 Q4.96,0.45 10.93,3.29"/></g></g></g><g class="grouped-shape"><g class="arrow-line"><path class="connection real" stroke-dasharray="" d="  M371,54 L403,54" style="stroke: rgb(0, 0, 0); stroke-width: 1; fill: none; fill-opacity: 1;"/><g stroke="#000" transform="matrix(-1,1.2246467991473532e-16,-1.2246467991473532e-16,-1,405,53.99999999999999)" style="stroke: rgb(0, 0, 0); stroke-width: 1;"><path d=" M10.93,-3.29 Q4.96,-0.45 0,0 Q4.96,0.45 10.93,3.29"/></g></g></g><g class="grouped-shape"><g class="arrow-line"><path class="connection real" stroke-dasharray="" d="  M71,125 L103,125" style="stroke: rgb(0, 0, 0); stroke-width: 1; fill: none; fill-opacity: 1;"/><g stroke="#000" transform="matrix(-1,1.2246467991473532e-16,-1.2246467991473532e-16,-1,104.99999999999999,125.00000000000001)" style="stroke: rgb(0, 0, 0); stroke-width: 1;"><path d=" M10.93,-3.29 Q4.96,-0.45 0,0 Q4.96,0.45 10.93,3.29"/></g></g></g><g class="grouped-shape"><g class="arrow-line"><path class="connection real" stroke-dasharray="" d="  M201,125 L233,125" style="stroke: rgb(0, 0, 0); stroke-width: 1; fill: none; fill-opacity: 1;"/><g stroke="#000" transform="matrix(-1,1.2246467991473532e-16,-1.2246467991473532e-16,-1,234.99999999999997,125)" style="stroke: rgb(0, 0, 0); stroke-width: 1;"><path d=" M10.93,-3.29 Q4.96,-0.45 0,0 Q4.96,0.45 10.93,3.29"/></g></g></g><g class="grouped-shape"><g class="arrow-line"><path class="connection real" stroke-dasharray="" d="  M341,124 L373,124" style="stroke: rgb(0, 0, 0); stroke-width: 1; fill: none; fill-opacity: 1;"/><g stroke="#000" transform="matrix(-1,1.2246467991473532e-16,-1.2246467991473532e-16,-1,375,123.99999999999999)" style="stroke: rgb(0, 0, 0); stroke-width: 1;"><path d=" M10.93,-3.29 Q4.96,-0.45 0,0 Q4.96,0.45 10.93,3.29"/></g></g></g><g/></g><g/><g/><g/></svg>
        <svg xmlns="http://www.w3.org/2000/svg" xmlns:xlink="http://www.w3.org/1999/xlink" width="660" height="150" style="width:660px;height:150px;font-family:Asana-Math, Asana;background:transparent;"><g><g><g><text x="286" y="42.140625" style="white-space:pre;stroke:none;fill:rgb(0,0,0);fill-opacity:1;font-size:15px;font-family:Arial, Helvetica, sans-serif;font-weight:400;font-style:normal;dominant-baseline:text-before-edge;text-decoration:none solid rgb(0, 0, 0);">c.</text></g></g></g><g><g><g><text x="151" y="115.140625" style="white-space:pre;stroke:none;fill:rgb(0,0,0);fill-opacity:1;font-size:15px;font-family:Arial, Helvetica, sans-serif;font-weight:400;font-style:normal;dominant-baseline:text-before-edge;text-decoration:none solid rgb(0, 0, 0);">e.</text></g></g></g><g><g><g><text x="289" y="118.140625" style="white-space:pre;stroke:none;fill:rgb(0,0,0);fill-opacity:1;font-size:15px;font-family:Arial, Helvetica, sans-serif;font-weight:400;font-style:normal;dominant-baseline:text-before-edge;text-decoration:none solid rgb(0, 0, 0);">f.</text></g></g></g><g><g><g><g transform="matrix(1,0,0,1,184.3984375,129.6953125)"><path transform="matrix(0.017,0,0,-0.017,0,0)" d="M652 271C652 445 509 587 335 587C160 587 18 445 18 271C18 96 160 -46 335 -46C509 -46 652 96 652 271ZM604 271C604 122 482 1 335 1C186 1 65 122 65 271C65 419 186 540 335 540C482 540 604 419 604 271ZM393 271C393 301 365 329 334 329C304 329 277 301 277 271C277 241 303 213 334 213C366 213 393 241 393 271Z" stroke="rgb(0,0,0)" stroke-opacity="1" stroke-width="8" fill="rgb(0,0,0)" fill-opacity="1"></path></g></g></g></g><g><g><g><g transform="matrix(1,0,0,1,321.3984375,129.6953125)"><path transform="matrix(0.017,0,0,-0.017,0,0)" d="M652 271C652 445 509 587 335 587C160 587 18 445 18 271C18 96 160 -46 335 -46C509 -46 652 96 652 271ZM507 477L335 304L162 477C208 516 269 540 335 540C400 540 460 516 507 477ZM604 271C604 205 580 144 541 98L368 271L541 443C580 397 604 336 604 271ZM301 271L128 98C89 144 65 205 65 271C65 336 89 397 128 443ZM507 64C460 25 400 1 335 1C269 1 208 25 162 64L335 237Z" stroke="rgb(0,0,0)" stroke-opacity="1" stroke-width="8" fill="rgb(0,0,0)" fill-opacity="1"></path></g></g></g></g><g><g><g><g transform="matrix(1,0,0,1,19,14.5)"><path transform="matrix(0.017,0,0,-0.017,0,0)" d="M539 431L539 459C479 457 461 456 445 456C429 456 411 457 351 459L351 431L392 429C408 428 416 419 416 403C416 387 409 360 397 330C385 301 331 167 293 84L174 372C168 386 165 399 165 410C165 421 174 428 190 429L239 431L239 459C141 456 141 456 122 456C103 456 55 457 6 459L6 431L40 429C55 427 60 421 71 396L243 -7L293 -7L452 362C474 409 488 427 508 429Z" stroke="rgb(0,0,0)" stroke-opacity="1" stroke-width="24" fill="rgb(0,0,0)" fill-opacity="1"></path></g></g></g></g><g><g><g><g transform="matrix(1,0,0,1,170,19.5)"><path transform="matrix(0.017,0,0,-0.017,0,0)" d="M539 431L539 459C479 457 461 456 445 456C429 456 411 457 351 459L351 431L392 429C408 428 416 419 416 403C416 387 409 360 397 330C385 301 331 167 293 84L174 372C168 386 165 399 165 410C165 421 174 428 190 429L239 431L239 459C141 456 141 456 122 456C103 456 55 457 6 459L6 431L40 429C55 427 60 421 71 396L243 -7L293 -7L452 362C474 409 488 427 508 429Z" stroke="rgb(0,0,0)" stroke-opacity="1" stroke-width="24" fill="rgb(0,0,0)" fill-opacity="1"></path></g></g></g></g><g><g><g><g transform="matrix(1,0,0,1,314,58.5)"><path transform="matrix(0.017,0,0,-0.017,0,0)" d="M539 431L539 459C479 457 461 456 445 456C429 456 411 457 351 459L351 431L392 429C408 428 416 419 416 403C416 387 409 360 397 330C385 301 331 167 293 84L174 372C168 386 165 399 165 410C165 421 174 428 190 429L239 431L239 459C141 456 141 456 122 456C103 456 55 457 6 459L6 431L40 429C55 427 60 421 71 396L243 -7L293 -7L452 362C474 409 488 427 508 429Z" stroke="rgb(0,0,0)" stroke-opacity="1" stroke-width="24" fill="rgb(0,0,0)" fill-opacity="1"></path></g></g></g></g><g><g><g><g transform="matrix(1,0,0,1,20,127.5)"><path transform="matrix(0.017,0,0,-0.017,0,0)" d="M539 431L539 459C479 457 461 456 445 456C429 456 411 457 351 459L351 431L392 429C408 428 416 419 416 403C416 387 409 360 397 330C385 301 331 167 293 84L174 372C168 386 165 399 165 410C165 421 174 428 190 429L239 431L239 459C141 456 141 456 122 456C103 456 55 457 6 459L6 431L40 429C55 427 60 421 71 396L243 -7L293 -7L452 362C474 409 488 427 508 429Z" stroke="rgb(0,0,0)" stroke-opacity="1" stroke-width="24" fill="rgb(0,0,0)" fill-opacity="1"></path></g></g></g></g><g><g><g><g transform="matrix(1,0,0,1,172,128.5)"><path transform="matrix(0.017,0,0,-0.017,0,0)" d="M539 431L539 459C479 457 461 456 445 456C429 456 411 457 351 459L351 431L392 429C408 428 416 419 416 403C416 387 409 360 397 330C385 301 331 167 293 84L174 372C168 386 165 399 165 410C165 421 174 428 190 429L239 431L239 459C141 456 141 456 122 456C103 456 55 457 6 459L6 431L40 429C55 427 60 421 71 396L243 -7L293 -7L452 362C474 409 488 427 508 429Z" stroke="rgb(0,0,0)" stroke-opacity="1" stroke-width="24" fill="rgb(0,0,0)" fill-opacity="1"></path></g></g></g></g><g><g><g><g transform="matrix(1,0,0,1,309,129.5)"><path transform="matrix(0.017,0,0,-0.017,0,0)" d="M539 431L539 459C479 457 461 456 445 456C429 456 411 457 351 459L351 431L392 429C408 428 416 419 416 403C416 387 409 360 397 330C385 301 331 167 293 84L174 372C168 386 165 399 165 410C165 421 174 428 190 429L239 431L239 459C141 456 141 456 122 456C103 456 55 457 6 459L6 431L40 429C55 427 60 421 71 396L243 -7L293 -7L452 362C474 409 488 427 508 429Z" stroke="rgb(0,0,0)" stroke-opacity="1" stroke-width="24" fill="rgb(0,0,0)" fill-opacity="1"></path></g></g></g></g><g><g><g><g transform="matrix(1,0,0,1,381,129.5)"><path transform="matrix(0.017,0,0,-0.017,0,0)" d="M298 -3C508 -3 576 134 576 228C576 279 556 320 518 347C480 375 446 384 369 390C418 400 441 409 469 428C517 461 542 504 542 556C542 644 479 692 363 692L338 692C199 689 199 689 184 689C165 689 165 689 26 692L26 662L62 659C109 655 113 648 113 569L113 95C113 58 105 36 91 30L65 20L65 -3C134 -1 155 0 174 0C199 0 261 -3 298 -3ZM208 362C247 364 256 364 275 364C410 364 473 315 473 208C473 102 404 39 285 39C256 39 233 41 208 47ZM208 644C234 650 257 652 289 652C396 652 443 616 443 533C443 446 383 399 269 399C252 399 239 399 208 401Z" stroke="rgb(0,0,0)" stroke-opacity="1" stroke-width="24" fill="rgb(0,0,0)" fill-opacity="1"></path></g></g></g></g><g><g><g><g transform="matrix(1,0,0,1,241,130.5)"><path transform="matrix(0.017,0,0,-0.017,0,0)" d="M298 -3C508 -3 576 134 576 228C576 279 556 320 518 347C480 375 446 384 369 390C418 400 441 409 469 428C517 461 542 504 542 556C542 644 479 692 363 692L338 692C199 689 199 689 184 689C165 689 165 689 26 692L26 662L62 659C109 655 113 648 113 569L113 95C113 58 105 36 91 30L65 20L65 -3C134 -1 155 0 174 0C199 0 261 -3 298 -3ZM208 362C247 364 256 364 275 364C410 364 473 315 473 208C473 102 404 39 285 39C256 39 233 41 208 47ZM208 644C234 650 257 652 289 652C396 652 443 616 443 533C443 446 383 399 269 399C252 399 239 399 208 401Z" stroke="rgb(0,0,0)" stroke-opacity="1" stroke-width="24" fill="rgb(0,0,0)" fill-opacity="1"></path></g></g></g></g><g><g><g><g transform="matrix(1,0,0,1,111,130.5)"><path transform="matrix(0.017,0,0,-0.017,0,0)" d="M298 -3C508 -3 576 134 576 228C576 279 556 320 518 347C480 375 446 384 369 390C418 400 441 409 469 428C517 461 542 504 542 556C542 644 479 692 363 692L338 692C199 689 199 689 184 689C165 689 165 689 26 692L26 662L62 659C109 655 113 648 113 569L113 95C113 58 105 36 91 30L65 20L65 -3C134 -1 155 0 174 0C199 0 261 -3 298 -3ZM208 362C247 364 256 364 275 364C410 364 473 315 473 208C473 102 404 39 285 39C256 39 233 41 208 47ZM208 644C234 650 257 652 289 652C396 652 443 616 443 533C443 446 383 399 269 399C252 399 239 399 208 401Z" stroke="rgb(0,0,0)" stroke-opacity="1" stroke-width="24" fill="rgb(0,0,0)" fill-opacity="1"></path></g></g></g></g><g><g><g><g transform="matrix(1,0,0,1,411,59.5)"><path transform="matrix(0.017,0,0,-0.017,0,0)" d="M298 -3C508 -3 576 134 576 228C576 279 556 320 518 347C480 375 446 384 369 390C418 400 441 409 469 428C517 461 542 504 542 556C542 644 479 692 363 692L338 692C199 689 199 689 184 689C165 689 165 689 26 692L26 662L62 659C109 655 113 648 113 569L113 95C113 58 105 36 91 30L65 20L65 -3C134 -1 155 0 174 0C199 0 261 -3 298 -3ZM208 362C247 364 256 364 275 364C410 364 473 315 473 208C473 102 404 39 285 39C256 39 233 41 208 47ZM208 644C234 650 257 652 289 652C396 652 443 616 443 533C443 446 383 399 269 399C252 399 239 399 208 401Z" stroke="rgb(0,0,0)" stroke-opacity="1" stroke-width="24" fill="rgb(0,0,0)" fill-opacity="1"></path></g></g></g></g><g><g><g><g transform="matrix(1,0,0,1,245,58.5)"><path transform="matrix(0.017,0,0,-0.017,0,0)" d="M298 -3C508 -3 576 134 576 228C576 279 556 320 518 347C480 375 446 384 369 390C418 400 441 409 469 428C517 461 542 504 542 556C542 644 479 692 363 692L338 692C199 689 199 689 184 689C165 689 165 689 26 692L26 662L62 659C109 655 113 648 113 569L113 95C113 58 105 36 91 30L65 20L65 -3C134 -1 155 0 174 0C199 0 261 -3 298 -3ZM208 362C247 364 256 364 275 364C410 364 473 315 473 208C473 102 404 39 285 39C256 39 233 41 208 47ZM208 644C234 650 257 652 289 652C396 652 443 616 443 533C443 446 383 399 269 399C252 399 239 399 208 401Z" stroke="rgb(0,0,0)" stroke-opacity="1" stroke-width="24" fill="rgb(0,0,0)" fill-opacity="1"></path></g></g></g></g><g><g><g><g transform="matrix(1,0,0,1,93,60.5)"><path transform="matrix(0.017,0,0,-0.017,0,0)" d="M298 -3C508 -3 576 134 576 228C576 279 556 320 518 347C480 375 446 384 369 390C418 400 441 409 469 428C517 461 542 504 542 556C542 644 479 692 363 692L338 692C199 689 199 689 184 689C165 689 165 689 26 692L26 662L62 659C109 655 113 648 113 569L113 95C113 58 105 36 91 30L65 20L65 -3C134 -1 155 0 174 0C199 0 261 -3 298 -3ZM208 362C247 364 256 364 275 364C410 364 473 315 473 208C473 102 404 39 285 39C256 39 233 41 208 47ZM208 644C234 650 257 652 289 652C396 652 443 616 443 533C443 446 383 399 269 399C252 399 239 399 208 401Z" stroke="rgb(0,0,0)" stroke-opacity="1" stroke-width="24" fill="rgb(0,0,0)" fill-opacity="1"></path></g></g></g></g><g><g><g><g transform="matrix(1,0,0,1,445.4765625,9.165625)"><path transform="matrix(0.0119,0,0,-0.0119,0,0)" d="M-7 -180C-8 -187 -8 -193 -8 -198C-8 -241 29 -276 74 -276C180 -276 290 -152 349 33L490 473L479 482C450 471 427 465 405 463L370 331C358 284 323 211 290 162C255 111 206 67 184 67C172 67 163 90 164 115L180 322C182 353 184 391 184 419C184 464 177 482 160 482C147 482 133 475 85 442L3 386L14 368L64 398C69 401 80 410 89 410C103 410 111 391 111 358C111 357 111 351 110 343L93 100L92 60C92 18 110 -11 135 -11C172 -11 256 74 331 187L282 16C231 -161 181 -234 111 -234C76 -234 49 -207 49 -172C49 -167 50 -159 51 -150L41 -146Z" stroke="rgb(0,0,0)" stroke-opacity="1" stroke-width="8" fill="rgb(0,0,0)" fill-opacity="1"></path></g></g></g></g><g><g><g><g transform="matrix(1,0,0,1,468.0078125,37.165625)"><path transform="matrix(0.0119,0,0,-0.0119,0,0)" d="M9 1C24 -7 40 -11 52 -11C85 -11 124 18 155 65L231 182L242 113C255 28 278 -11 314 -11C336 -11 368 6 400 35L449 79L440 98C404 68 379 53 363 53C348 53 335 63 325 83C316 102 305 139 300 168L282 269L317 318C364 383 391 406 422 406C438 406 450 398 455 383L469 387L484 472C472 479 463 482 454 482C414 482 374 446 312 354L275 299L269 347C257 446 230 482 171 482C145 482 123 474 114 461L56 378L73 368C103 402 123 416 142 416C175 416 197 375 214 277L225 215L185 153C142 86 108 54 80 54C65 54 54 58 52 63L41 91L21 88C21 53 13 27 9 1Z" stroke="rgb(0,0,0)" stroke-opacity="1" stroke-width="8" fill="rgb(0,0,0)" fill-opacity="1"></path></g></g></g></g><g><g><g><text x="3" y="113.140625" style="white-space:pre;stroke:none;fill:rgb(0,0,0);fill-opacity:1;font-size:15px;font-family:Arial, Helvetica, sans-serif;font-weight:400;font-style:normal;dominant-baseline:text-before-edge;text-decoration:none solid rgb(0, 0, 0);">d.</text></g></g></g><g><g><g><text x="149" y="35.140625" style="white-space:pre;stroke:none;fill:rgb(0,0,0);fill-opacity:1;font-size:15px;font-family:Arial, Helvetica, sans-serif;font-weight:400;font-style:normal;dominant-baseline:text-before-edge;text-decoration:none solid rgb(0, 0, 0);">b.</text></g></g></g><g><g><g><text x="2" y="42.140625" style="white-space:pre;stroke:none;fill:rgb(0,0,0);fill-opacity:1;font-size:15px;font-family:Arial, Helvetica, sans-serif;font-weight:400;font-style:normal;dominant-baseline:text-before-edge;text-decoration:none solid rgb(0, 0, 0);">a.</text></g></g></g></svg>
</svg>
