<svg xmlns="http://www.w3.org/2000/svg" xmlns:xlink="http://www.w3.org/1999/xlink" x="0" y="0" width="662" height="184" style="
        width:662px;
        height:184px;
        background: transparent;
        fill: none;
">
        
        
        <svg xmlns="http://www.w3.org/2000/svg" class="role-diagram-draw-area"><g class="shapes-region" style="stroke: black; fill: none;"><g class="grouped-shape"><g class="arrow-line"><path class="connection real" stroke-dasharray="" d="  M25,143 L25,73" style="stroke: rgb(0, 0, 0); stroke-width: 3; fill: rgb(155, 155, 155); fill-opacity: 0.2;"/></g><g class="arrow-line"><path class="connection real" stroke-dasharray="" d="  M65,33 L25,73" style="stroke: rgb(0, 0, 0); stroke-width: 3; fill: rgb(155, 155, 155); fill-opacity: 0.2;"/></g><g class="arrow-line"><path class="connection real" stroke-dasharray="" d="  M65,33 L65,103" style="stroke: rgb(0, 0, 0); stroke-width: 3; fill: rgb(155, 155, 155); fill-opacity: 0.2;"/></g><g class="arrow-line"><path class="connection real" stroke-dasharray="" d="  M25,143 L65,103" style="stroke: rgb(0, 0, 0); stroke-width: 3; fill: rgb(155, 155, 155); fill-opacity: 0.2;"/></g></g><g class="arrow-line"><path class="connection real" stroke-dasharray="" d="  M65,103 L6.41,161.59" style="stroke: rgb(0, 0, 0); stroke-width: 1; fill: none; fill-opacity: 1;"/><g stroke="#000" transform="matrix(0.7071067811865474,-0.7071067811865477,0.7071067811865477,0.7071067811865474,5,163)" style="stroke: rgb(0, 0, 0); stroke-width: 1;"><path d=" M10.93,-3.29 Q4.96,-0.45 0,0 Q4.96,0.45 10.93,3.29"/></g></g><g class="arrow-line"><path class="connection real" stroke-dasharray="" d="  M65,103 L163,103" style="stroke: rgb(0, 0, 0); stroke-width: 1; fill: none; fill-opacity: 1;"/><g stroke="#000" transform="matrix(-1,1.2246467991473532e-16,-1.2246467991473532e-16,-1,165,103.00000000000001)" style="stroke: rgb(0, 0, 0); stroke-width: 1;"><path d=" M10.93,-3.29 Q4.96,-0.45 0,0 Q4.96,0.45 10.93,3.29"/></g></g><g class="arrow-line"><path class="connection real" stroke-dasharray="" d="  M65,103 L65,15" style="stroke: rgb(0, 0, 0); stroke-width: 1; fill: none; fill-opacity: 1;"/><g stroke="#000" transform="matrix(3.061616997868383e-16,1,-1,3.061616997868383e-16,65,13)" style="stroke: rgb(0, 0, 0); stroke-width: 1;"><path d=" M10.93,-3.29 Q4.96,-0.45 0,0 Q4.96,0.45 10.93,3.29"/></g></g><g class="grouped-shape"><g class="composite-shape"><path class="real" d=" M63.98,130.33 C56.83,130.1 50.3,127.81 45.16,124.15 L64.84,103.73 Z" style="stroke-width: 1; stroke: rgb(0, 0, 0); fill: rgb(155, 155, 155); fill-opacity: 1;"/></g><g class="arrow-line"><path class="connection real" stroke-dasharray="" d="  M45.16,124.15 C49.01,126.17 51.14,129.04 61.02,130.09" style="stroke: rgb(0, 0, 0); stroke-width: 1; fill: rgb(155, 155, 155); fill-opacity: 1;"/><g stroke="none" fill="#000" transform="matrix(-0.9981981810026931,-0.06000326193562043,0.06000326193562043,-0.9981981810026931,63.98488798588456,130.33241983690607)" style="stroke: none; fill: rgb(0, 0, 0); stroke-width: 1;"><path d=" M8.93,-4.29 L0,0 L8.93,4.29 Z"/></g></g></g><g class="arrow-line"><path class="connection real" stroke-dasharray="" d="  M46.5,85.57 L76.5,85.57" style="stroke: rgb(33, 211, 68); stroke-opacity: 1; stroke-width: 1; fill: none; fill-opacity: 1;"/><g stroke="none" fill="rgb(33,211,68)" fill-opacity="1" transform="matrix(-1,1.2246467991473532e-16,-1.2246467991473532e-16,-1,79.49999999999999,85.57142639160158)" style="stroke: none; fill: rgb(33, 211, 68); stroke-width: 1;"><path d=" M8.93,-4.29 L0,0 L8.93,4.29 Z"/></g></g><g class="composite-shape"><path class="real" d=" M46.5,75.57 L55.5,75.57 L55.5,85.57" style="stroke-width: 1; stroke: rgb(0, 0, 0); fill: none; fill-opacity: 1;"/></g><g class="arrow-line"><path class="connection real" stroke-dasharray="" d="  M143,64 L198.5,64" style="stroke: rgb(0, 0, 255); stroke-opacity: 1; stroke-width: 2; fill: none; fill-opacity: 1;"/><g stroke="none" fill="rgb(0,0,255)" fill-opacity="1" transform="matrix(-1,1.2246467991473532e-16,-1.2246467991473532e-16,-1,202.5,63.99999999999999)" style="stroke: none; fill: rgb(0, 0, 255); stroke-width: 2;"><path d=" M11.61,-5.58 L0,0 L11.61,5.58 Z"/></g></g><g/></g><g/><g/><g/></svg>
        <svg xmlns="http://www.w3.org/2000/svg" xmlns:xlink="http://www.w3.org/1999/xlink" width="660" height="182" style="width:660px;height:182px;font-family:Asana-Math, Asana;background:transparent;"><g><g><g><g transform="matrix(1,0,0,1,17,171)"><path transform="matrix(0.017,0,0,-0.017,0,0)" d="M9 1C24 -7 40 -11 52 -11C85 -11 124 18 155 65L231 182L242 113C255 28 278 -11 314 -11C336 -11 368 6 400 35L449 79L440 98C404 68 379 53 363 53C348 53 335 63 325 83C316 102 305 139 300 168L282 269L317 318C364 383 391 406 422 406C438 406 450 398 455 383L469 387L484 472C472 479 463 482 454 482C414 482 374 446 312 354L275 299L269 347C257 446 230 482 171 482C145 482 123 474 114 461L56 378L73 368C103 402 123 416 142 416C175 416 197 375 214 277L225 215L185 153C142 86 108 54 80 54C65 54 54 58 52 63L41 91L21 88C21 53 13 27 9 1Z" stroke="rgb(0,0,0)" stroke-opacity="1" stroke-width="8" fill="rgb(0,0,0)" fill-opacity="1"></path></g></g></g></g><g><g><g><g transform="matrix(1,0,0,1,149,121)"><path transform="matrix(0.017,0,0,-0.017,0,0)" d="M-7 -180C-8 -187 -8 -193 -8 -198C-8 -241 29 -276 74 -276C180 -276 290 -152 349 33L490 473L479 482C450 471 427 465 405 463L370 331C358 284 323 211 290 162C255 111 206 67 184 67C172 67 163 90 164 115L180 322C182 353 184 391 184 419C184 464 177 482 160 482C147 482 133 475 85 442L3 386L14 368L64 398C69 401 80 410 89 410C103 410 111 391 111 358C111 357 111 351 110 343L93 100L92 60C92 18 110 -11 135 -11C172 -11 256 74 331 187L282 16C231 -161 181 -234 111 -234C76 -234 49 -207 49 -172C49 -167 50 -159 51 -150L41 -146Z" stroke="rgb(0,0,0)" stroke-opacity="1" stroke-width="8" fill="rgb(0,0,0)" fill-opacity="1"></path></g></g></g></g><g><g><g><g transform="matrix(1,0,0,1,72.25,19.729171752929688)"><path transform="matrix(0.017,0,0,-0.017,0,0)" d="M322 -11C334 -11 343 -9 372 -1C383 61 391 95 402 142L380 142L358 82C352 64 340 57 319 57C307 57 291 59 270 64L252 68C219 75 185 80 166 80C134 80 107 74 71 59L410 441L416 473L407 482L384 459C374 449 364 445 350 445C316 445 264 453 216 466L198 471C170 478 150 482 136 482C119 482 99 479 75 472L43 350L64 350L94 408C111 412 120 413 133 413C174 413 206 398 259 398C295 398 319 404 352 421L-1 21L8 -6C37 17 64 26 99 26C162 26 253 -11 322 -11Z" stroke="rgb(0,0,0)" stroke-opacity="1" stroke-width="8" fill="rgb(0,0,0)" fill-opacity="1"></path></g></g></g></g><g><g><g><g transform="matrix(1,0,0,1,137,46)"><path transform="matrix(0.017,0,0,-0.017,0,0)" d="M298 -3C508 -3 576 134 576 228C576 279 556 320 518 347C480 375 446 384 369 390C418 400 441 409 469 428C517 461 542 504 542 556C542 644 479 692 363 692L338 692C199 689 199 689 184 689C165 689 165 689 26 692L26 662L62 659C109 655 113 648 113 569L113 95C113 58 105 36 91 30L65 20L65 -3C134 -1 155 0 174 0C199 0 261 -3 298 -3ZM208 362C247 364 256 364 275 364C410 364 473 315 473 208C473 102 404 39 285 39C256 39 233 41 208 47ZM208 644C234 650 257 652 289 652C396 652 443 616 443 533C443 446 383 399 269 399C252 399 239 399 208 401Z" stroke="rgb(0,0,0)" stroke-opacity="1" stroke-width="24" fill="rgb(0,0,0)" fill-opacity="1"></path></g></g><g><g><g><g><g transform="matrix(1,0,0,1,147.88018798828125,48.670843505859374)"><path transform="matrix(0.0119,0,0,-0.0119,0,0)" d="M250 -20C315 -20 405 18 417 36L437 70L424 80C360 42 337 33 294 33C229 33 175 62 147 111C128 144 121 172 119 230C140 227 170 226 204 226C290 226 399 234 446 244C447 258 448 267 448 279C448 394 374 469 262 469C225 469 180 464 140 440C58 392 26 323 26 219C26 25 161 -20 250 -20ZM359 267C335 264 284 261 233 261C190 261 147 264 121 270C121 317 125 339 138 365C159 409 202 436 250 436C283 436 309 423 327 396C349 363 356 334 359 267ZM766 254L908 420C914 427 925 431 942 431L956 431L956 459L874 459L750 284L674 400C659 422 648 435 614 469L498 449L503 423L524 421C542 420 564 406 574 392L694 218L545 42C538 33 525 27 515 27L498 27L498 0L584 0L718 192L851 -3C903 0 903 0 912 0C922 0 922 0 974 -3L974 27L949 30C937 31 925 39 914 54ZM1091 382L1091 94C1091 20 1124 -12 1201 -12C1224 -12 1248 -7 1254 0L1302 53L1289 70C1264 56 1249 51 1230 51C1191 51 1175 71 1175 120L1175 382L1303 382L1312 436L1175 430L1175 468C1175 510 1178 546 1186 610L1174 621C1150 606 1120 593 1089 583C1092 553 1093 534 1093 504L1093 434L1015 399L1015 378Z" stroke="rgb(0,0,0)" stroke-opacity="1" stroke-width="8" fill="rgb(0,0,0)" fill-opacity="1"></path></g></g></g></g></g><g><g transform="matrix(1,0,0,1,169.67706298828125,46)"><path transform="matrix(0.017,0,0,-0.017,0,0)" d="M604 347L604 406L65 406L65 347ZM604 134L604 193L65 193L65 134Z" stroke="rgb(0,0,0)" stroke-opacity="1" stroke-width="8" fill="rgb(0,0,0)" fill-opacity="1"></path></g></g><g><g transform="matrix(1,0,0,1,186.1353759765625,46)"><path transform="matrix(0.017,0,0,-0.017,0,0)" d="M543 227C543 337 459 353 377 365C434 385 459 397 490 425C536 464 559 511 559 562C559 644 501 692 401 692C399 692 389 692 374 691L311 690C299 689 263 689 251 689C232 689 201 690 152 691L100 692L97 664L150 662C174 661 185 653 185 635C185 621 181 589 176 559L89 55C85 37 73 30 31 23L26 -3L63 -2C90 0 105 0 117 0C128 0 154 -1 180 -2L217 -3L237 -4C256 -5 269 -6 277 -6C392 -6 543 87 543 227ZM166 41L217 340L302 340C405 340 455 298 455 211C455 108 382 34 282 34C228 34 207 38 166 41ZM352 655C433 655 473 619 473 544C473 439 399 376 275 376L223 376L272 650C288 650 329 655 352 655Z" stroke="rgb(0,0,0)" stroke-opacity="1" stroke-width="8" fill="rgb(0,0,0)" fill-opacity="1"></path></g></g><g><g><g><g><g transform="matrix(1,0,0,1,197.015625,49.004171752929686)"><path transform="matrix(0.0119,0,0,-0.0119,0,0)" d="M17 152C17 46 62 -11 145 -11C200 -11 260 15 305 57C367 116 411 230 411 331C411 425 361 482 278 482C174 482 17 382 17 152ZM241 444C302 444 335 399 335 315C335 219 304 113 260 60C242 39 216 27 185 27C127 27 93 72 93 151C93 264 132 387 181 427C194 438 217 444 241 444Z" stroke="rgb(0,0,0)" stroke-opacity="1" stroke-width="8" fill="rgb(0,0,0)" fill-opacity="1"></path></g></g></g></g></g><g><g><g><g><g transform="matrix(1,0,0,1,203.30206298828125,46)"><path transform="matrix(0.017,0,0,-0.017,0,0)" d="M138 351L38 -144C27 -196 9 -231 -9 -231C-23 -231 -41 -225 -62 -212L-70 -269C-60 -274 -47 -276 -32 -276C8 -276 48 -233 84 -152C104 -107 118 -57 146 70L222 420C226 438 228 451 228 457C228 473 219 482 203 482C181 482 144 461 69 408L41 388L48 368C85 391 120 414 127 414C137 414 145 404 145 391C145 382 138 356 138 351Z" stroke="rgb(0,0,0)" stroke-opacity="1" stroke-width="24" fill="rgb(0,0,0)" fill-opacity="1"></path></g></g></g></g><svg x="203.30206298828125" overflow="visible" y="27" height="9" width="5.098958492279053"><polyline points="0.00,8.06 2.55,6.36 5.10,8.06" style="fill:none;fill-opacity:1;stroke-width:1px;stroke:rgb(0,0,0);stroke-opacity:1;"></polyline></svg></g></g></g><g><g><g><g transform="matrix(1,0,0,1,42.5625,146.234375)"><path transform="matrix(0.017,0,0,-0.017,0,0)" d="M622 285C624 428 505 474 382 473C398 548 407 624 432 699L432 705C418 700 404 693 389 684L354 473C184 474 30 367 27 185C24 37 142 -8 268 -16L229 -289C249 -282 267 -274 282 -261C283 -179 288 -98 299 -16C481 -3 618 87 622 285ZM539 273C537 130 451 11 301 6L377 449C487 447 541 380 539 273ZM349 449L270 5C155 14 106 73 108 187C111 336 196 444 349 449Z" stroke="rgb(0,0,0)" stroke-opacity="1" stroke-width="8" fill="rgb(0,0,0)" fill-opacity="1"></path></g></g></g></g><g><g><g><g><g><g><g transform="matrix(1,0,0,1,85,88)"><path transform="matrix(0.017,0,0,-0.017,0,0)" d="M410 -3C471 0 472 0 489 0C503 0 503 0 572 -3L572 27L531 30C497 32 494 38 494 102L494 295C494 412 439 469 327 469C290 469 269 462 248 444L172 378L172 465L163 469C112 448 60 434 7 428L7 400L44 400C84 400 88 393 88 327L88 102C88 39 85 32 51 30L6 27L6 -3C74 -1 101 0 130 0C159 0 186 -1 254 -3L254 27L209 30C175 32 172 39 172 102L172 314C172 359 238 408 299 408C366 408 410 358 410 281Z" stroke="rgb(0,0,0)" stroke-opacity="1" stroke-width="24" fill="rgb(0,0,0)" fill-opacity="1"></path></g></g></g></g><svg x="85" overflow="visible" y="69" height="9" width="9.880208969116211"><polyline points="0.00,8.06 4.94,4.76 9.88,8.06" style="fill:none;fill-opacity:1;stroke-width:1px;stroke:rgb(0,0,0);stroke-opacity:1;"></polyline></svg></g></g></g></svg>
</svg>
