<svg xmlns="http://www.w3.org/2000/svg" xmlns:xlink="http://www.w3.org/1999/xlink" x="0" y="0" width="162" height="167" style="
        width:162px;
        height:167px;
        background: transparent;
        fill: none;
">
        
        
        <svg xmlns="http://www.w3.org/2000/svg" class="role-diagram-draw-area"><g class="shapes-region" style="stroke: black; fill: none;"><g class="composite-shape"><g class="real" style="stroke-width: 1; stroke: rgb(0, 0, 0); fill: none; fill-opacity: 1;"><path d=" M30,40 L37.2,40 L38.8,30 L42,50 L45.2,30 L48.4,50 L51.6,30 L54.8,50 L58,30 L61.2,50 L62.8,40 L70,40" style="fill: none;"/></g></g><g class="arrow-line"><path class="connection real" stroke-dasharray="" d="  M70,40 L90,40" style="stroke: rgb(0, 0, 0); stroke-width: 1; fill: none; fill-opacity: 1;"/></g><g class="arrow-line"><path class="connection real" stroke-dasharray="" d="  M90,100 L90,130" style="stroke: rgb(0, 0, 0); stroke-width: 1; fill: none; fill-opacity: 1;"/></g><g class="arrow-line"><path class="connection real" stroke-dasharray="" d="  M70,130 L90,130" style="stroke: rgb(0, 0, 0); stroke-width: 1; fill: none; fill-opacity: 1;"/></g><g class="arrow-line"><path class="connection real" stroke-dasharray="" d="  M10,40 L30,40" style="stroke: rgb(0, 0, 0); stroke-width: 1; fill: none; fill-opacity: 1;"/></g><g class="arrow-line"><path class="connection real" stroke-dasharray="" d="  M10,130 L70,130" style="stroke: rgb(0, 0, 0); stroke-width: 1; fill: none; fill-opacity: 1;"/></g><g class="arrow-line"><path class="connection real" stroke-dasharray="" d="  M10,40 L10,130" style="stroke: rgb(0, 0, 0); stroke-width: 1; fill: none; fill-opacity: 1;"/></g><g class="arrow-line"><path class="connection real" stroke-dasharray="" d="  M80,77 L100,77" style="stroke: rgb(0, 0, 0); stroke-width: 1; fill: none; fill-opacity: 1;"/></g><g class="arrow-line"><path class="connection real" stroke-dasharray="" d="  M85,81 L95,81" style="stroke: rgb(0, 0, 0); stroke-width: 2; fill: none; fill-opacity: 1;"/></g><g class="arrow-line"><path class="connection real" stroke-dasharray="" d="  M90,81 L90,100" style="stroke: rgb(0, 0, 0); stroke-width: 1; fill: none; fill-opacity: 1;"/></g><g class="arrow-line"><path class="connection real" stroke-dasharray="" d="  M90,43 L90,77" style="stroke: rgb(0, 0, 0); stroke-width: 1; fill: none; fill-opacity: 1;"/><g stroke="none" fill="#000" transform="matrix(6.123233995736766e-17,1,-1,6.123233995736766e-17,90,40)" style="stroke: none; fill: rgb(0, 0, 0); stroke-width: 1;"><path d=" M8.93,-4.29 L0,0 L8.93,4.29 Z"/></g></g><g/></g><g/><g/><g/></svg>
        <svg xmlns="http://www.w3.org/2000/svg" xmlns:xlink="http://www.w3.org/1999/xlink" width="160" height="165" style="width:160px;height:165px;font-family:Asana-Math, Asana;background:transparent;"><g><g><g><g transform="matrix(1,0,0,1,40,23)"><path transform="matrix(0.017,0,0,-0.017,0,0)" d="M16 23L16 -3C203 -3 203 0 239 0C275 0 275 -3 468 -3L468 82C353 77 307 81 122 77L304 270C401 373 431 428 431 503C431 618 353 689 226 689C154 689 105 669 56 619L39 483L68 483L81 529C97 587 133 612 200 612C286 612 341 558 341 473C341 398 299 324 186 204ZM604 664L660 662C684 661 695 653 695 635C695 621 691 589 686 559L611 125C595 34 593 32 553 28L512 25L508 -3L550 -2C597 0 616 0 640 0L737 -3L763 -3L766 25L717 28C690 30 681 38 681 58C681 67 682 76 685 93L786 648C815 654 835 656 862 656C949 656 995 617 995 543C995 448 917 378 813 378L769 378L766 367C900 172 931 124 1006 -3C1006 -3 1091 0 1091 0C1092 0 1106 -1 1125 -3L1138 -3L1138 24C1098 29 1087 37 1058 79L874 354C929 364 958 376 994 402C1052 444 1083 499 1083 560C1083 646 1019 693 908 691L607 691Z" stroke="rgb(0,0,0)" stroke-opacity="1" stroke-width="8" fill="rgb(0,0,0)" fill-opacity="1"></path></g></g></g></g><g><g><g><g transform="matrix(1,0,0,1,104,86)"><path transform="matrix(0.017,0,0,-0.017,0,0)" d="M459 292C492 271 504 228 504 181C504 84 452 15 348 15C236 15 143 93 143 214C143 241 152 266 165 286C211 356 306 367 395 367C418 367 431 387 433 408L428 412C412 403 394 400 374 400C300 400 168 441 168 549C168 614 259 653 321 653C383 653 463 610 480 542C481 539 481 536 481 533C481 523 477 513 469 508L477 507C496 507 553 557 553 579C553 605 500 635 480 645C426 673 366 683 312 683C218 683 78 651 78 551C78 447 155 415 230 392C123 370 32 314 32 205C32 51 153 -18 293 -18C419 -18 581 14 581 153C581 232 528 292 459 292Z" stroke="rgb(0,0,0)" stroke-opacity="1" stroke-width="8" fill="rgb(0,0,0)" fill-opacity="1"></path></g></g></g></g><g><g><g><g transform="matrix(1,0,0,1,106,51)"><path transform="matrix(0.017,0,0,-0.017,0,0)" d="M103 664L150 662C174 661 185 653 185 636C185 629 179 576 176 559L104 125C89 36 86 31 46 28L10 25L7 -3L39 -3L133 0L227 -3L259 -3L262 25L210 28C184 30 174 37 174 57C174 63 175 74 176 78L265 613C272 652 277 657 316 661L351 664L354 692L248 689C231 689 213 689 170 690L106 692Z" stroke="rgb(0,0,0)" stroke-opacity="1" stroke-width="8" fill="rgb(0,0,0)" fill-opacity="1"></path></g></g></g></g></svg>
</svg>
