<svg xmlns="http://www.w3.org/2000/svg" xmlns:xlink="http://www.w3.org/1999/xlink" x="0" y="0" width="162" height="115" style="
        width:162px;
        height:115px;
        background: transparent;
        fill: none;
">
        
        
        <svg xmlns="http://www.w3.org/2000/svg" class="role-diagram-draw-area"><g class="shapes-region" style="stroke: black; fill: none;"><g class="composite-shape"><defs><!-- react-text: 8139 --> <!-- /react-text --><radialGradient id="_pgfc7f6lyxuu" gradientTransform="matrix(1.32, 0, 0, 1.32, -0.16, -0.16)" cx="0.5" cy="0.5" fx="0.41" fy="0.39"><!-- react-text: 8141 --> <!-- /react-text --><stop offset="0" style="stop-color: rgb(255, 255, 255); stop-opacity: 1;"/><stop offset="1" style="stop-color: rgb(0, 0, 0); stop-opacity: 1;"/></radialGradient></defs><path class="real" d=" M4,66.45 C4,43.24 22.81,24.43 46.01,24.43 C69.22,24.43 88.03,43.24 88.03,66.45 C88.03,89.65 69.22,108.46 46.01,108.46 C22.81,108.46 4,89.65 4,66.45 Z" style="stroke-width: 1; stroke: rgb(0, 0, 0); stroke-opacity: 0.23; fill: url(&quot;#_pgfc7f6lyxuu&quot;); fill-opacity: 1;"/></g><g class="composite-shape"><defs><!-- react-text: 8147 --> <!-- /react-text --><pattern id="_pgfl3o5wvu8d" x="2.5" y="2.5" width="5" height="5" patternUnits="userSpaceOnUse"><path d="M0,0 L0,5" style="stroke: rgb(0, 0, 0); stroke-opacity: 1; stroke-width: 1; fill: none;"/><path d="M5,0 L5,5" style="stroke: rgb(0, 0, 0); stroke-opacity: 1; stroke-width: 1; fill: none;"/><path d="M0,0 L5,0" style="stroke: rgb(0, 0, 0); stroke-opacity: 1; stroke-width: 1; fill: none;"/><path d="M0,5 L5,5" style="stroke: rgb(0, 0, 0); stroke-opacity: 1; stroke-width: 1; fill: none;"/></pattern></defs><path class="real" d=" M64.56,52.37 L73.44,45.7 L80.48,55.06 L71.59,61.74 Z" style="stroke-width: 1; stroke: rgb(0, 0, 0); fill: url(&quot;#_pgfl3o5wvu8d&quot;); fill-opacity: 1;"/></g><g class="arrow-line"><path class="connection real" stroke-dasharray="" d="  M72.52,53.72 L105.76,26.7" style="stroke: rgb(0, 0, 0); stroke-width: 1; fill: none; fill-opacity: 1;"/><g stroke="none" fill="#000" transform="matrix(-0.7759363215537177,0.6308112434743737,-0.6308112434743737,-0.7759363215537177,108.08466176869734,24.806045464712902)" style="stroke: none; fill: rgb(0, 0, 0); stroke-width: 1;"><path d=" M8.93,-4.29 L0,0 L8.93,4.29 Z"/></g></g><g class="arrow-line"><path class="connection real" stroke-dasharray="" d="  M72.52,53.72 L83.06,14.42" style="stroke: rgb(0, 0, 0); stroke-width: 1; fill: none; fill-opacity: 1;"/><g stroke="none" fill="#000" transform="matrix(-0.2589876270196118,0.9658806391323673,-0.9658806391323673,-0.2589876270196118,83.83205385473218,11.520303265313274)" style="stroke: none; fill: rgb(0, 0, 0); stroke-width: 1;"><path d=" M8.93,-4.29 L0,0 L8.93,4.29 Z"/></g></g><g/></g><g/><g/><g/></svg>
        <svg xmlns="http://www.w3.org/2000/svg" xmlns:xlink="http://www.w3.org/1999/xlink" width="160" height="113" style="width:160px;height:113px;font-family:Asana-Math, Asana;background:transparent;"><g><g><g><g transform="matrix(1,0,0,1,102.43438720703125,46.03437805175781)"><path transform="matrix(0.017,0,0,-0.017,0,0)" d="M483 722L471 733C419 707 383 698 311 691L307 670L355 670C379 670 389 663 389 646C389 638 388 629 387 622L359 468C329 477 302 482 277 482C208 482 114 410 68 323C37 265 17 170 17 86C17 21 32 -11 61 -11C88 -11 125 6 159 33C213 77 246 116 313 217L290 126C279 82 274 50 274 24C274 3 283 -9 300 -9C317 -9 341 3 375 28L456 88L446 107L402 76C388 66 372 59 363 59C355 59 349 68 349 82C349 90 350 99 357 128ZM114 59C98 59 89 73 89 98C89 224 135 380 184 418C197 428 216 433 243 433C287 433 316 427 349 410L337 351C300 171 159 59 114 59Z" stroke="rgb(0,0,0)" stroke-opacity="1" stroke-width="8" fill="rgb(0,0,0)" fill-opacity="1"></path></g></g><g><g transform="matrix(1,0,0,1,110.91876220703125,46.03437805175781)"><path transform="matrix(0.017,0,0,-0.017,0,0)" d="M408 700L376 700L106 79C94 50 74 32 52 30L15 27L15 -3C108 0 108 0 124 0C137 0 137 0 245 -3L245 27L208 30C173 33 160 40 160 56L223 229L511 229L557 114C574 72 578 59 578 50C578 39 562 32 537 30L490 27L490 -3C613 0 613 0 629 0C648 0 648 0 756 -3L756 27L722 30C696 34 685 51 650 132ZM240 269L367 567L493 269Z" stroke="rgb(0,0,0)" stroke-opacity="1" stroke-width="24" fill="rgb(0,0,0)" fill-opacity="1"></path></g></g></g></g><g><g><g><g transform="matrix(1,0,0,1,66.081298828125,17.481246948242188)"><path transform="matrix(0.017,0,0,-0.017,0,0)" d="M556 0C556 58 562 112 572 164L537 164C536 155 527 61 499 51C478 44 405 39 315 39C263 39 245 41 216 47L216 327C244 329 274 330 319 330C393 330 420 327 438 318L446 293L451 234L481 234C478 327 478 327 478 345C478 361 478 361 481 461L451 461L446 409C445 400 442 391 438 383C420 375 392 372 326 372C284 372 250 373 216 375L216 642C247 649 264 650 333 650C390 650 446 645 478 636C502 630 505 625 505 602L505 537L540 537C540 597 545 645 556 689C507 691 476 692 432 692C339 692 246 689 200 689C166 689 121 690 22 692L22 662L70 659C116 656 121 648 121 569L121 120C121 41 117 34 70 30L34 27L34 -3C100 -1 129 0 157 0C203 0 319 -3 389 -3C420 -3 420 -3 556 0Z" stroke="rgb(0,0,0)" stroke-opacity="1" stroke-width="24" fill="rgb(0,0,0)" fill-opacity="1"></path></g></g></g></g><g><g><g><g transform="matrix(1,0,0,1,57.706298828125,64.64375305175781)"><path transform="matrix(0.0085,0,0,-0.0085,0,0)" d="M483 722L471 733C419 707 383 698 311 691L307 670L355 670C379 670 389 663 389 646C389 638 388 629 387 622L359 468C329 477 302 482 277 482C208 482 114 410 68 323C37 265 17 170 17 86C17 21 32 -11 61 -11C88 -11 125 6 159 33C213 77 246 116 313 217L290 126C279 82 274 50 274 24C274 3 283 -9 300 -9C317 -9 341 3 375 28L456 88L446 107L402 76C388 66 372 59 363 59C355 59 349 68 349 82C349 90 350 99 357 128ZM114 59C98 59 89 73 89 98C89 224 135 380 184 418C197 428 216 433 243 433C287 433 316 427 349 410L337 351C300 171 159 59 114 59ZM1066 55C1066 39 1051 30 1023 28L979 25L979 -3C1081 0 1081 0 1101 0C1121 0 1121 0 1223 -3L1223 25L1197 28C1150 35 1149 35 1141 80L1054 705L1008 705L635 112C599 56 581 40 547 32L527 27L527 -3C619 0 619 0 639 0C658 0 660 0 746 -3L746 25L694 28C678 29 663 38 663 47C663 55 670 69 689 102L791 277L1037 277L1062 89L1062 86C1062 84 1066 69 1066 55ZM995 601L1032 313L816 313Z" stroke="rgb(0,0,0)" stroke-opacity="1" stroke-width="8" fill="rgb(0,0,0)" fill-opacity="1"></path></g></g></g></g></svg>
</svg>
