<svg xmlns="http://www.w3.org/2000/svg" xmlns:xlink="http://www.w3.org/1999/xlink" x="0" y="0" width="239" height="225" style="
        width:239px;
        height:225px;
        background: transparent;
        fill: none;
">
        
        
        <svg xmlns="http://www.w3.org/2000/svg" class="role-diagram-draw-area"><g class="shapes-region" style="stroke: black; fill: none;"><g class="composite-shape" data-amt="diagram/shapes/plot" transform="matrix(1,0,0,1,19,23.83331298828125)"><g><g><g class="test-xgi"><line x1="5.9708680320022385" y1="0" x2="5.9708680320022385" y2="167" fill="none" stroke="lightgray" stroke-width="0.5"/><line x1="19.723866808012033" y1="0" x2="19.723866808012033" y2="167" fill="none" stroke="lightgray" stroke-width="0.5"/><line x1="33.47686558402182" y1="0" x2="33.47686558402182" y2="167" fill="none" stroke="lightgray" stroke-width="0.5"/><line x1="47.22986436003161" y1="0" x2="47.22986436003161" y2="167" fill="none" stroke="lightgray" stroke-width="0.5"/><line x1="60.98286313604141" y1="0" x2="60.98286313604141" y2="167" fill="none" stroke="lightgray" stroke-width="0.5"/><line x1="74.7358619120512" y1="0" x2="74.7358619120512" y2="167" fill="none" stroke="lightgray" stroke-width="0.5"/><line x1="88.48886068806098" y1="0" x2="88.48886068806098" y2="167" fill="none" stroke="lightgray" stroke-width="0.5"/><line x1="102.24185946407079" y1="0" x2="102.24185946407079" y2="167" fill="none" stroke="lightgray" stroke-width="0.5"/><line x1="115.99485824008057" y1="0" x2="115.99485824008057" y2="167" fill="none" stroke="lightgray" stroke-width="0.5"/><line x1="129.74785701609036" y1="0" x2="129.74785701609036" y2="167" fill="none" stroke="lightgray" stroke-width="0.5"/><line x1="143.50085579210017" y1="0" x2="143.50085579210017" y2="167" fill="none" stroke="lightgray" stroke-width="0.5"/><line x1="157.25385456810997" y1="0" x2="157.25385456810997" y2="167" fill="none" stroke="lightgray" stroke-width="0.5"/><line x1="171.00685334411975" y1="0" x2="171.00685334411975" y2="167" fill="none" stroke="lightgray" stroke-width="0.5"/><line x1="184.75985212012952" y1="0" x2="184.75985212012952" y2="167" fill="none" stroke="lightgray" stroke-width="0.5"/><line x1="198.51285089613933" y1="0" x2="198.51285089613933" y2="167" fill="none" stroke="lightgray" stroke-width="0.5"/><line x1="5.9708680320022385" y1="0" x2="5.9708680320022385" y2="167" fill="none" stroke="lightgray" stroke-width="0.5"/><line x1="5.9708680320022385" y1="0" x2="5.9708680320022385" y2="167" fill="none" stroke="#c3c3c3" stroke-width="1"/><line x1="143.50085579210017" y1="0" x2="143.50085579210017" y2="167" fill="none" stroke="#c3c3c3" stroke-width="1"/></g><g class="test-ygi"><line x1="0" y1="158.78908399528282" x2="207.1666259765625" y2="158.78908399528282" fill="none" stroke="lightgray" stroke-width="0.5"/><line x1="0" y1="152.05817824252884" x2="207.1666259765625" y2="152.05817824252884" fill="none" stroke="lightgray" stroke-width="0.5"/><line x1="0" y1="145.32727248977486" x2="207.1666259765625" y2="145.32727248977486" fill="none" stroke="lightgray" stroke-width="0.5"/><line x1="0" y1="138.59636673702087" x2="207.1666259765625" y2="138.59636673702087" fill="none" stroke="lightgray" stroke-width="0.5"/><line x1="0" y1="131.86546098426692" x2="207.1666259765625" y2="131.86546098426692" fill="none" stroke="lightgray" stroke-width="0.5"/><line x1="0" y1="125.13455523151292" x2="207.1666259765625" y2="125.13455523151292" fill="none" stroke="lightgray" stroke-width="0.5"/><line x1="0" y1="118.40364947875895" x2="207.1666259765625" y2="118.40364947875895" fill="none" stroke="lightgray" stroke-width="0.5"/><line x1="0" y1="111.67274372600497" x2="207.1666259765625" y2="111.67274372600497" fill="none" stroke="lightgray" stroke-width="0.5"/><line x1="0" y1="104.94183797325098" x2="207.1666259765625" y2="104.94183797325098" fill="none" stroke="lightgray" stroke-width="0.5"/><line x1="0" y1="98.21093222049701" x2="207.1666259765625" y2="98.21093222049701" fill="none" stroke="lightgray" stroke-width="0.5"/><line x1="0" y1="91.48002646774304" x2="207.1666259765625" y2="91.48002646774304" fill="none" stroke="lightgray" stroke-width="0.5"/><line x1="0" y1="84.74912071498906" x2="207.1666259765625" y2="84.74912071498906" fill="none" stroke="lightgray" stroke-width="0.5"/><line x1="0" y1="78.01821496223508" x2="207.1666259765625" y2="78.01821496223508" fill="none" stroke="lightgray" stroke-width="0.5"/><line x1="0" y1="71.2873092094811" x2="207.1666259765625" y2="71.2873092094811" fill="none" stroke="lightgray" stroke-width="0.5"/><line x1="0" y1="64.55640345672714" x2="207.1666259765625" y2="64.55640345672714" fill="none" stroke="lightgray" stroke-width="0.5"/><line x1="0" y1="57.82549770397314" x2="207.1666259765625" y2="57.82549770397314" fill="none" stroke="lightgray" stroke-width="0.5"/><line x1="0" y1="51.09459195121916" x2="207.1666259765625" y2="51.09459195121916" fill="none" stroke="lightgray" stroke-width="0.5"/><line x1="0" y1="44.3636861984652" x2="207.1666259765625" y2="44.3636861984652" fill="none" stroke="lightgray" stroke-width="0.5"/><line x1="0" y1="37.632780445711205" x2="207.1666259765625" y2="37.632780445711205" fill="none" stroke="lightgray" stroke-width="0.5"/><line x1="0" y1="30.90187469295722" x2="207.1666259765625" y2="30.90187469295722" fill="none" stroke="lightgray" stroke-width="0.5"/><line x1="0" y1="24.170968940203267" x2="207.1666259765625" y2="24.170968940203267" fill="none" stroke="lightgray" stroke-width="0.5"/><line x1="0" y1="17.440063187449283" x2="207.1666259765625" y2="17.440063187449283" fill="none" stroke="lightgray" stroke-width="0.5"/><line x1="0" y1="10.709157434695328" x2="207.1666259765625" y2="10.709157434695328" fill="none" stroke="lightgray" stroke-width="0.5"/><line x1="0" y1="3.9782516819413445" x2="207.1666259765625" y2="3.9782516819413445" fill="none" stroke="lightgray" stroke-width="0.5"/><line x1="0" y1="158.78908399528282" x2="207.1666259765625" y2="158.78908399528282" fill="none" stroke="lightgray" stroke-width="0.5"/><line x1="0" y1="165.5199897480368" x2="207.1666259765625" y2="165.5199897480368" fill="none" stroke="lightgray" stroke-width="0.5"/><line x1="0" y1="158.78908399528282" x2="207.1666259765625" y2="158.78908399528282" fill="none" stroke="#c3c3c3" stroke-width="1"/><line x1="0" y1="91.48002646774304" x2="207.1666259765625" y2="91.48002646774304" fill="none" stroke="#c3c3c3" stroke-width="1"/><line x1="0" y1="24.170968940203267" x2="207.1666259765625" y2="24.170968940203267" fill="none" stroke="#c3c3c3" stroke-width="1"/></g></g><g><g class="test-xti" style="font-family: Asana-Math, Asana;"><line x1="0" y1="158.78908399528282" x2="203.1666259765625" y2="158.78908399528282" fill="none" stroke="rgb(50,50,50)" stroke-opacity="1" stroke-width="1"/><line x1="5.9708680320022385" y1="156.78908399528282" x2="5.9708680320022385" y2="160.78908399528282" fill="none" stroke="rgb(50,50,50)" stroke-opacity="1" stroke-width="1"/><line x1="19.723866808012033" y1="156.78908399528282" x2="19.723866808012033" y2="160.78908399528282" fill="none" stroke="rgb(50,50,50)" stroke-opacity="1" stroke-width="1"/><line x1="33.47686558402182" y1="156.78908399528282" x2="33.47686558402182" y2="160.78908399528282" fill="none" stroke="rgb(50,50,50)" stroke-opacity="1" stroke-width="1"/><line x1="47.22986436003161" y1="156.78908399528282" x2="47.22986436003161" y2="160.78908399528282" fill="none" stroke="rgb(50,50,50)" stroke-opacity="1" stroke-width="1"/><line x1="60.98286313604141" y1="156.78908399528282" x2="60.98286313604141" y2="160.78908399528282" fill="none" stroke="rgb(50,50,50)" stroke-opacity="1" stroke-width="1"/><line x1="74.7358619120512" y1="156.78908399528282" x2="74.7358619120512" y2="160.78908399528282" fill="none" stroke="rgb(50,50,50)" stroke-opacity="1" stroke-width="1"/><line x1="88.48886068806098" y1="156.78908399528282" x2="88.48886068806098" y2="160.78908399528282" fill="none" stroke="rgb(50,50,50)" stroke-opacity="1" stroke-width="1"/><line x1="102.24185946407079" y1="156.78908399528282" x2="102.24185946407079" y2="160.78908399528282" fill="none" stroke="rgb(50,50,50)" stroke-opacity="1" stroke-width="1"/><line x1="115.99485824008057" y1="156.78908399528282" x2="115.99485824008057" y2="160.78908399528282" fill="none" stroke="rgb(50,50,50)" stroke-opacity="1" stroke-width="1"/><line x1="129.74785701609036" y1="156.78908399528282" x2="129.74785701609036" y2="160.78908399528282" fill="none" stroke="rgb(50,50,50)" stroke-opacity="1" stroke-width="1"/><line x1="143.50085579210017" y1="156.78908399528282" x2="143.50085579210017" y2="160.78908399528282" fill="none" stroke="rgb(50,50,50)" stroke-opacity="1" stroke-width="1"/><line x1="157.25385456810997" y1="156.78908399528282" x2="157.25385456810997" y2="160.78908399528282" fill="none" stroke="rgb(50,50,50)" stroke-opacity="1" stroke-width="1"/><line x1="171.00685334411975" y1="156.78908399528282" x2="171.00685334411975" y2="160.78908399528282" fill="none" stroke="rgb(50,50,50)" stroke-opacity="1" stroke-width="1"/><line x1="184.75985212012952" y1="156.78908399528282" x2="184.75985212012952" y2="160.78908399528282" fill="none" stroke="rgb(50,50,50)" stroke-opacity="1" stroke-width="1"/><line x1="5.9708680320022385" y1="156.78908399528282" x2="5.9708680320022385" y2="160.78908399528282" fill="none" stroke="rgb(50,50,50)" stroke-opacity="1" stroke-width="1"/><line x1="143.50085579210017" y1="154.78908399528282" x2="143.50085579210017" y2="162.78908399528282" fill="none" stroke="rgb(50,50,50)" stroke-opacity="1" stroke-width="1"/><path d="M198.1666259765625,155.18908399528283 L206.1666259765625,158.78908399528282 L198.1666259765625,162.38908399528282 Z" stroke="none" stroke-width="1" fill="rgb(50,50,50)" fill-opacity="1"/></g><g class="test-yti" style="font-family: Asana-Math, Asana;"><line x1="5.970868032002238" y1="4" x2="5.970868032002238" y2="167" fill="none" stroke="rgb(50,50,50)" stroke-opacity="1" stroke-width="1"/><line x1="3.9708680320022376" y1="158.78908399528282" x2="7.970868032002238" y2="158.78908399528282" fill="none" stroke="rgb(50,50,50)" stroke-opacity="1" stroke-width="1"/><line x1="3.9708680320022376" y1="152.05817824252884" x2="7.970868032002238" y2="152.05817824252884" fill="none" stroke="rgb(50,50,50)" stroke-opacity="1" stroke-width="1"/><line x1="3.9708680320022376" y1="145.32727248977486" x2="7.970868032002238" y2="145.32727248977486" fill="none" stroke="rgb(50,50,50)" stroke-opacity="1" stroke-width="1"/><line x1="3.9708680320022376" y1="138.59636673702087" x2="7.970868032002238" y2="138.59636673702087" fill="none" stroke="rgb(50,50,50)" stroke-opacity="1" stroke-width="1"/><line x1="3.9708680320022376" y1="131.86546098426692" x2="7.970868032002238" y2="131.86546098426692" fill="none" stroke="rgb(50,50,50)" stroke-opacity="1" stroke-width="1"/><line x1="3.9708680320022376" y1="125.13455523151292" x2="7.970868032002238" y2="125.13455523151292" fill="none" stroke="rgb(50,50,50)" stroke-opacity="1" stroke-width="1"/><line x1="3.9708680320022376" y1="118.40364947875895" x2="7.970868032002238" y2="118.40364947875895" fill="none" stroke="rgb(50,50,50)" stroke-opacity="1" stroke-width="1"/><line x1="3.9708680320022376" y1="111.67274372600497" x2="7.970868032002238" y2="111.67274372600497" fill="none" stroke="rgb(50,50,50)" stroke-opacity="1" stroke-width="1"/><line x1="3.9708680320022376" y1="104.94183797325098" x2="7.970868032002238" y2="104.94183797325098" fill="none" stroke="rgb(50,50,50)" stroke-opacity="1" stroke-width="1"/><line x1="3.9708680320022376" y1="98.21093222049701" x2="7.970868032002238" y2="98.21093222049701" fill="none" stroke="rgb(50,50,50)" stroke-opacity="1" stroke-width="1"/><line x1="3.9708680320022376" y1="91.48002646774304" x2="7.970868032002238" y2="91.48002646774304" fill="none" stroke="rgb(50,50,50)" stroke-opacity="1" stroke-width="1"/><line x1="3.9708680320022376" y1="84.74912071498906" x2="7.970868032002238" y2="84.74912071498906" fill="none" stroke="rgb(50,50,50)" stroke-opacity="1" stroke-width="1"/><line x1="3.9708680320022376" y1="78.01821496223508" x2="7.970868032002238" y2="78.01821496223508" fill="none" stroke="rgb(50,50,50)" stroke-opacity="1" stroke-width="1"/><line x1="3.9708680320022376" y1="71.2873092094811" x2="7.970868032002238" y2="71.2873092094811" fill="none" stroke="rgb(50,50,50)" stroke-opacity="1" stroke-width="1"/><line x1="3.9708680320022376" y1="64.55640345672714" x2="7.970868032002238" y2="64.55640345672714" fill="none" stroke="rgb(50,50,50)" stroke-opacity="1" stroke-width="1"/><line x1="3.9708680320022376" y1="57.82549770397314" x2="7.970868032002238" y2="57.82549770397314" fill="none" stroke="rgb(50,50,50)" stroke-opacity="1" stroke-width="1"/><line x1="3.9708680320022376" y1="51.09459195121916" x2="7.970868032002238" y2="51.09459195121916" fill="none" stroke="rgb(50,50,50)" stroke-opacity="1" stroke-width="1"/><line x1="3.9708680320022376" y1="44.3636861984652" x2="7.970868032002238" y2="44.3636861984652" fill="none" stroke="rgb(50,50,50)" stroke-opacity="1" stroke-width="1"/><line x1="3.9708680320022376" y1="37.632780445711205" x2="7.970868032002238" y2="37.632780445711205" fill="none" stroke="rgb(50,50,50)" stroke-opacity="1" stroke-width="1"/><line x1="3.9708680320022376" y1="30.90187469295722" x2="7.970868032002238" y2="30.90187469295722" fill="none" stroke="rgb(50,50,50)" stroke-opacity="1" stroke-width="1"/><line x1="3.9708680320022376" y1="24.170968940203267" x2="7.970868032002238" y2="24.170968940203267" fill="none" stroke="rgb(50,50,50)" stroke-opacity="1" stroke-width="1"/><line x1="3.9708680320022376" y1="17.440063187449283" x2="7.970868032002238" y2="17.440063187449283" fill="none" stroke="rgb(50,50,50)" stroke-opacity="1" stroke-width="1"/><line x1="3.9708680320022376" y1="158.78908399528282" x2="7.970868032002238" y2="158.78908399528282" fill="none" stroke="rgb(50,50,50)" stroke-opacity="1" stroke-width="1"/><line x1="3.9708680320022376" y1="165.5199897480368" x2="7.970868032002238" y2="165.5199897480368" fill="none" stroke="rgb(50,50,50)" stroke-opacity="1" stroke-width="1"/><line x1="1.9708680320022376" y1="91.48002646774304" x2="9.970868032002237" y2="91.48002646774304" fill="none" stroke="rgb(50,50,50)" stroke-opacity="1" stroke-width="1"/><line x1="1.9708680320022376" y1="24.170968940203267" x2="9.970868032002237" y2="24.170968940203267" fill="none" stroke="rgb(50,50,50)" stroke-opacity="1" stroke-width="1"/><path d="M2.3708680320022375,9 L5.970868032002238,1 L9.570868032002238,9 Z" stroke="none" stroke-width="1" fill="rgb(50,50,50)" fill-opacity="1"/></g><g class="test-plot-expression"><defs><clipPath id="cp8ziuki90f"><rect x="1" y="1" width="205.1666259765625" height="165"/></clipPath></defs><g clip-path="url(#cp8ziuki90f)"><path d=" M5.97,158.79 L6.46,156.43 L6.94,154.11 L7.43,151.83 L7.92,149.59 L8.40,147.39 L8.89,145.23 L9.38,143.10 L9.86,141.02 L10.35,138.97 L10.84,136.96 L11.33,134.98 L11.81,133.03 L12.30,131.12 L12.79,129.25 L13.27,127.40 L13.76,125.59 L14.25,123.81 L14.73,122.07 L15.22,120.35 L15.71,118.66 L16.19,117.00 L16.68,115.38 L17.17,113.78 L17.65,112.20 L18.14,110.66 L18.63,109.14 L19.11,107.65 L19.60,106.19 L20.09,104.75 L20.57,103.34 L21.06,101.95 L21.55,100.58 L22.03,99.24 L22.52,97.93 L23.01,96.63 L23.49,95.36 L23.98,94.11 L24.47,92.89 L24.95,91.68 L25.44,90.50 L25.93,89.33 L26.41,88.19 L26.90,87.07 L27.39,85.96 L27.88,84.88 L28.36,83.82 L28.85,82.77 L29.34,81.74 L29.82,80.73 L30.31,79.74 L30.80,78.76 L31.28,77.81 L31.77,76.87 L32.26,75.94 L32.74,75.03 L33.23,74.14 L33.72,73.26 L34.20,72.40 L34.69,71.56 L35.18,70.73 L35.66,69.91 L36.15,69.11 L36.64,68.32 L37.12,67.54 L37.61,66.78 L38.10,66.04 L38.58,65.30 L39.07,64.58 L39.56,63.87 L40.04,63.18 L40.53,62.49 L41.02,61.82 L41.50,61.16 L41.99,60.51 L42.48,59.87 L42.96,59.25 L43.45,58.63 L43.94,58.03 L44.43,57.43 L44.91,56.85 L45.40,56.28 L45.89,55.71 L46.37,55.16 L46.86,54.62 L47.35,54.08 L47.83,53.56 L48.32,53.04 L48.81,52.54 L49.29,52.04 L49.78,51.55 L50.27,51.07 L50.75,50.60 L51.24,50.13 L51.73,49.68 L52.21,49.23 L52.70,48.79 L53.19,48.36 L53.67,47.93 L54.16,47.52 L54.65,47.11 L55.13,46.71 L55.62,46.31 L56.11,45.92 L56.59,45.54 L57.08,45.17 L57.57,44.80 L58.05,44.44 L58.54,44.08 L59.03,43.73 L59.51,43.39 L60.00,43.05 L60.49,42.72 L60.98,42.39 L61.46,42.07 L61.95,41.76 L62.44,41.45 L62.92,41.15 L63.41,40.85 L63.90,40.56 L64.38,40.27 L64.87,39.99 L65.36,39.71 L65.84,39.44 L66.33,39.17 L66.82,38.91 L67.30,38.65 L67.79,38.40 L68.28,38.15 L68.76,37.90 L69.25,37.66 L69.74,37.42 L70.22,37.19 L70.71,36.96 L71.20,36.74 L71.68,36.52 L72.17,36.30 L72.66,36.09 L73.14,35.88 L73.63,35.67 L74.12,35.47 L74.60,35.27 L75.09,35.08 L75.58,34.89 L76.06,34.70 L76.55,34.52 L77.04,34.33 L77.53,34.16 L78.01,33.98 L78.50,33.81 L78.99,33.64 L79.47,33.47 L79.96,33.31 L80.45,33.15 L80.93,32.99 L81.42,32.84 L81.91,32.69 L82.39,32.54 L82.88,32.39 L83.37,32.25 L83.85,32.10 L84.34,31.96 L84.83,31.83 L85.31,31.69 L85.80,31.56 L86.29,31.43 L86.77,31.30 L87.26,31.18 L87.75,31.06 L88.23,30.94 L88.72,30.82 L89.21,30.70 L89.69,30.59 L90.18,30.47 L90.67,30.36 L91.15,30.25 L91.64,30.15 L92.13,30.04 L92.61,29.94 L93.10,29.84 L93.59,29.74 L94.08,29.64 L94.56,29.55 L95.05,29.45 L95.54,29.36 L96.02,29.27 L96.51,29.18 L97.00,29.09 L97.48,29.00 L97.97,28.92 L98.46,28.84 L98.94,28.75 L99.43,28.67 L99.92,28.59 L100.40,28.52 L100.89,28.44 L101.38,28.37 L101.86,28.29 L102.35,28.22 L102.84,28.15 L103.32,28.08 L103.81,28.01 L104.30,27.94 L104.78,27.88 L105.27,27.81 L105.76,27.75 L106.24,27.69 L106.73,27.62 L107.22,27.56 L107.70,27.50 L108.19,27.45 L108.68,27.39 L109.16,27.33 L109.65,27.28 L110.14,27.22 L110.63,27.17 L111.11,27.12 L111.60,27.06 L112.09,27.01 L112.57,26.96 L113.06,26.91 L113.55,26.87 L114.03,26.82 L114.52,26.77 L115.01,26.73 L115.49,26.68 L115.98,26.64 L116.47,26.59 L116.95,26.55 L117.44,26.51 L117.93,26.47 L118.41,26.43 L118.90,26.39 L119.39,26.35 L119.87,26.31 L120.36,26.27 L120.85,26.24 L121.33,26.20 L121.82,26.17 L122.31,26.13 L122.79,26.10 L123.28,26.06 L123.77,26.03 L124.25,26.00 L124.74,25.96 L125.23,25.93 L125.71,25.90 L126.20,25.87 L126.69,25.84 L127.18,25.81 L127.66,25.78 L128.15,25.76 L128.64,25.73 L129.12,25.70 L129.61,25.67 L130.10,25.65 L130.58,25.62 L131.07,25.60 L131.56,25.57 L132.04,25.55 L132.53,25.52 L133.02,25.50 L133.50,25.48 L133.99,25.45 L134.48,25.43 L134.96,25.41 L135.45,25.39 L135.94,25.37 L136.42,25.34 L136.91,25.32 L137.40,25.30 L137.88,25.28 L138.37,25.26 L138.86,25.24 L139.34,25.23 L139.83,25.21 L140.32,25.19 L140.80,25.17 L141.29,25.15 L141.78,25.14 L142.26,25.12 L142.75,25.10 L143.24,25.09 L143.73,25.07 L144.21,25.05 L144.70,25.04 L145.19,25.02 L145.67,25.01 L146.16,24.99 L146.65,24.98 L147.13,24.97 L147.62,24.95 L148.11,24.94 L148.59,24.92 L149.08,24.91 L149.57,24.90 L150.05,24.89 L150.54,24.87 L151.03,24.86 L151.51,24.85 L152.00,24.84 L152.49,24.83 L152.97,24.81 L153.46,24.80 L153.95,24.79 L154.43,24.78 L154.92,24.77 L155.41,24.76 L155.89,24.75 L156.38,24.74 L156.87,24.73 L157.35,24.72 L157.84,24.71 L158.33,24.70 L158.81,24.69 L159.30,24.68 L159.79,24.67 L160.28,24.66 L160.76,24.66 L161.25,24.65 L161.74,24.64 L162.22,24.63 L162.71,24.62 L163.20,24.61 L163.68,24.61 L164.17,24.60 L164.66,24.59 L165.14,24.58 L165.63,24.58 L166.12,24.57 L166.60,24.56 L167.09,24.56 L167.58,24.55 L168.06,24.54 L168.55,24.54 L169.04,24.53 L169.52,24.52 L170.01,24.52 L170.50,24.51 L170.98,24.50 L171.47,24.50 L171.96,24.49 L172.44,24.49 L172.93,24.48 L173.42,24.48 L173.90,24.47 L174.39,24.47 L174.88,24.46 L175.36,24.46 L175.85,24.45 L176.34,24.45 L176.83,24.44 L177.31,24.44 L177.80,24.43 L178.29,24.43 L178.77,24.42 L179.26,24.42 L179.75,24.41 L180.23,24.41 L180.72,24.41 L181.21,24.40 L181.69,24.40 L182.18,24.39 L182.67,24.39 L183.15,24.39 L183.64,24.38 L184.13,24.38 L184.61,24.37 L185.10,24.37 L185.59,24.37 L186.07,24.36 L186.56,24.36 L187.05,24.36 L187.53,24.35 L188.02,24.35 L188.51,24.35 L188.99,24.34 L189.48,24.34 L189.97,24.34 L190.45,24.34 L190.94,24.33 L191.43,24.33 L191.91,24.33 L192.40,24.32 L192.89,24.32 L193.38,24.32 L193.86,24.32 L194.35,24.31 L194.84,24.31 L195.32,24.31 L195.81,24.31 L196.30,24.30 L196.78,24.30 L197.27,24.30 L197.76,24.30 L198.24,24.29 L198.73,24.29 L199.22,24.29 L199.70,24.29 L200.19,24.29 L200.68,24.28 L201.16,24.28 L201.65,24.28 L202.14,24.28 L202.62,24.28 L203.11,24.27 L203.60,24.27 L204.08,24.27 L204.57,24.27 L205.06,24.27 L205.54,24.27 L206.03,24.26 L206.52,24.26 L207.00,24.26 L207.17,24.26" style="stroke-width: 2; stroke: rgb(0, 0, 0); stroke-opacity: 1;"/><g><circle cx="5.970868032002238" cy="158.78908399528282" r="2" style="stroke-width: 3; stroke: rgb(0, 0, 0); stroke-opacity: 1; fill: rgb(0, 0, 0); fill-opacity: 1;"/><circle cx="33.47686558402182" cy="73.69420587821885" r="2" style="stroke-width: 3; stroke: rgb(0, 0, 0); stroke-opacity: 1; fill: rgb(0, 0, 0); fill-opacity: 1;"/><circle cx="60.9828631360414" cy="42.389549669961355" r="2" style="stroke-width: 3; stroke: rgb(0, 0, 0); stroke-opacity: 1; fill: rgb(0, 0, 0); fill-opacity: 1;"/><circle cx="88.48886068806098" cy="30.87321023800348" r="2" style="stroke-width: 3; stroke: rgb(0, 0, 0); stroke-opacity: 1; fill: rgb(0, 0, 0); fill-opacity: 1;"/><circle cx="171.00685334411975" cy="24.504653885914763" r="2" style="stroke-width: 3; stroke: rgb(0, 0, 0); stroke-opacity: 1; fill: rgb(0, 0, 0); fill-opacity: 1;"/></g><path d=" M5.97,24.17 L6.46,26.53 L6.94,28.85 L7.43,31.13 L7.92,33.37 L8.40,35.57 L8.89,37.73 L9.38,39.86 L9.86,41.94 L10.35,43.99 L10.84,46.00 L11.33,47.98 L11.81,49.93 L12.30,51.84 L12.79,53.71 L13.27,55.56 L13.76,57.37 L14.25,59.15 L14.73,60.89 L15.22,62.61 L15.71,64.30 L16.19,65.96 L16.68,67.58 L17.17,69.18 L17.65,70.76 L18.14,72.30 L18.63,73.82 L19.11,75.31 L19.60,76.77 L20.09,78.21 L20.57,79.62 L21.06,81.01 L21.55,82.38 L22.03,83.72 L22.52,85.03 L23.01,86.33 L23.49,87.60 L23.98,88.85 L24.47,90.07 L24.95,91.28 L25.44,92.46 L25.93,93.63 L26.41,94.77 L26.90,95.89 L27.39,97.00 L27.88,98.08 L28.36,99.14 L28.85,100.19 L29.34,101.22 L29.82,102.23 L30.31,103.22 L30.80,104.20 L31.28,105.15 L31.77,106.09 L32.26,107.02 L32.74,107.93 L33.23,108.82 L33.72,109.70 L34.20,110.56 L34.69,111.40 L35.18,112.23 L35.66,113.05 L36.15,113.85 L36.64,114.64 L37.12,115.42 L37.61,116.18 L38.10,116.92 L38.58,117.66 L39.07,118.38 L39.56,119.09 L40.04,119.78 L40.53,120.47 L41.02,121.14 L41.50,121.80 L41.99,122.45 L42.48,123.09 L42.96,123.71 L43.45,124.33 L43.94,124.93 L44.43,125.53 L44.91,126.11 L45.40,126.68 L45.89,127.25 L46.37,127.80 L46.86,128.34 L47.35,128.88 L47.83,129.40 L48.32,129.92 L48.81,130.42 L49.29,130.92 L49.78,131.41 L50.27,131.89 L50.75,132.36 L51.24,132.83 L51.73,133.28 L52.21,133.73 L52.70,134.17 L53.19,134.60 L53.67,135.03 L54.16,135.44 L54.65,135.85 L55.13,136.25 L55.62,136.65 L56.11,137.04 L56.59,137.42 L57.08,137.79 L57.57,138.16 L58.05,138.52 L58.54,138.88 L59.03,139.23 L59.51,139.57 L60.00,139.91 L60.49,140.24 L60.98,140.57 L61.46,140.89 L61.95,141.20 L62.44,141.51 L62.92,141.81 L63.41,142.11 L63.90,142.40 L64.38,142.69 L64.87,142.97 L65.36,143.25 L65.84,143.52 L66.33,143.79 L66.82,144.05 L67.30,144.31 L67.79,144.56 L68.28,144.81 L68.76,145.06 L69.25,145.30 L69.74,145.54 L70.22,145.77 L70.71,146.00 L71.20,146.22 L71.68,146.44 L72.17,146.66 L72.66,146.87 L73.14,147.08 L73.63,147.29 L74.12,147.49 L74.60,147.69 L75.09,147.88 L75.58,148.07 L76.06,148.26 L76.55,148.44 L77.04,148.63 L77.53,148.80 L78.01,148.98 L78.50,149.15 L78.99,149.32 L79.47,149.49 L79.96,149.65 L80.45,149.81 L80.93,149.97 L81.42,150.12 L81.91,150.27 L82.39,150.42 L82.88,150.57 L83.37,150.71 L83.85,150.86 L84.34,151.00 L84.83,151.13 L85.31,151.27 L85.80,151.40 L86.29,151.53 L86.77,151.66 L87.26,151.78 L87.75,151.90 L88.23,152.02 L88.72,152.14 L89.21,152.26 L89.69,152.37 L90.18,152.49 L90.67,152.60 L91.15,152.71 L91.64,152.81 L92.13,152.92 L92.61,153.02 L93.10,153.12 L93.59,153.22 L94.08,153.32 L94.56,153.41 L95.05,153.51 L95.54,153.60 L96.02,153.69 L96.51,153.78 L97.00,153.87 L97.48,153.96 L97.97,154.04 L98.46,154.12 L98.94,154.21 L99.43,154.29 L99.92,154.37 L100.40,154.44 L100.89,154.52 L101.38,154.59 L101.86,154.67 L102.35,154.74 L102.84,154.81 L103.32,154.88 L103.81,154.95 L104.30,155.02 L104.78,155.08 L105.27,155.15 L105.76,155.21 L106.24,155.27 L106.73,155.34 L107.22,155.40 L107.70,155.46 L108.19,155.51 L108.68,155.57 L109.16,155.63 L109.65,155.68 L110.14,155.74 L110.63,155.79 L111.11,155.84 L111.60,155.90 L112.09,155.95 L112.57,156.00 L113.06,156.05 L113.55,156.09 L114.03,156.14 L114.52,156.19 L115.01,156.23 L115.49,156.28 L115.98,156.32 L116.47,156.37 L116.95,156.41 L117.44,156.45 L117.93,156.49 L118.41,156.53 L118.90,156.57 L119.39,156.61 L119.87,156.65 L120.36,156.69 L120.85,156.72 L121.33,156.76 L121.82,156.79 L122.31,156.83 L122.79,156.86 L123.28,156.90 L123.77,156.93 L124.25,156.96 L124.74,157.00 L125.23,157.03 L125.71,157.06 L126.20,157.09 L126.69,157.12 L127.18,157.15 L127.66,157.18 L128.15,157.20 L128.64,157.23 L129.12,157.26 L129.61,157.29 L130.10,157.31 L130.58,157.34 L131.07,157.36 L131.56,157.39 L132.04,157.41 L132.53,157.44 L133.02,157.46 L133.50,157.48 L133.99,157.51 L134.48,157.53 L134.96,157.55 L135.45,157.57 L135.94,157.59 L136.42,157.62 L136.91,157.64 L137.40,157.66 L137.88,157.68 L138.37,157.70 L138.86,157.72 L139.34,157.73 L139.83,157.75 L140.32,157.77 L140.80,157.79 L141.29,157.81 L141.78,157.82 L142.26,157.84 L142.75,157.86 L143.24,157.87 L143.73,157.89 L144.21,157.91 L144.70,157.92 L145.19,157.94 L145.67,157.95 L146.16,157.97 L146.65,157.98 L147.13,157.99 L147.62,158.01 L148.11,158.02 L148.59,158.04 L149.08,158.05 L149.57,158.06 L150.05,158.07 L150.54,158.09 L151.03,158.10 L151.51,158.11 L152.00,158.12 L152.49,158.13 L152.97,158.15 L153.46,158.16 L153.95,158.17 L154.43,158.18 L154.92,158.19 L155.41,158.20 L155.89,158.21 L156.38,158.22 L156.87,158.23 L157.35,158.24 L157.84,158.25 L158.33,158.26 L158.81,158.27 L159.30,158.28 L159.79,158.29 L160.28,158.30 L160.76,158.30 L161.25,158.31 L161.74,158.32 L162.22,158.33 L162.71,158.34 L163.20,158.35 L163.68,158.35 L164.17,158.36 L164.66,158.37 L165.14,158.38 L165.63,158.38 L166.12,158.39 L166.60,158.40 L167.09,158.40 L167.58,158.41 L168.06,158.42 L168.55,158.42 L169.04,158.43 L169.52,158.44 L170.01,158.44 L170.50,158.45 L170.98,158.46 L171.47,158.46 L171.96,158.47 L172.44,158.47 L172.93,158.48 L173.42,158.48 L173.90,158.49 L174.39,158.49 L174.88,158.50 L175.36,158.50 L175.85,158.51 L176.34,158.51 L176.83,158.52 L177.31,158.52 L177.80,158.53 L178.29,158.53 L178.77,158.54 L179.26,158.54 L179.75,158.55 L180.23,158.55 L180.72,158.55 L181.21,158.56 L181.69,158.56 L182.18,158.57 L182.67,158.57 L183.15,158.57 L183.64,158.58 L184.13,158.58 L184.61,158.59 L185.10,158.59 L185.59,158.59 L186.07,158.60 L186.56,158.60 L187.05,158.60 L187.53,158.61 L188.02,158.61 L188.51,158.61 L188.99,158.62 L189.48,158.62 L189.97,158.62 L190.45,158.62 L190.94,158.63 L191.43,158.63 L191.91,158.63 L192.40,158.64 L192.89,158.64 L193.38,158.64 L193.86,158.64 L194.35,158.65 L194.84,158.65 L195.32,158.65 L195.81,158.65 L196.30,158.66 L196.78,158.66 L197.27,158.66 L197.76,158.66 L198.24,158.67 L198.73,158.67 L199.22,158.67 L199.70,158.67 L200.19,158.67 L200.68,158.68 L201.16,158.68 L201.65,158.68 L202.14,158.68 L202.62,158.68 L203.11,158.69 L203.60,158.69 L204.08,158.69 L204.57,158.69 L205.06,158.69 L205.54,158.69 L206.03,158.70 L206.52,158.70 L207.00,158.70 L207.17,158.70" style="stroke-width: 2; stroke: rgb(0, 0, 0); stroke-opacity: 1; stroke-dasharray: 7.5, 6;"/></g></g><g class="test-xtl" style="font-family: &quot;Open Sans&quot;, verdana, arial, sans-serif;"><text text-anchor="middle" font-size="11" dominant-baseline="hanging" stroke="none" fill="rgb(50,50,50)" fill-opacity="1" x="143.50085579210017" y="165.78908399528282">10</text><text text-anchor="middle" font-size="11" dominant-baseline="hanging" stroke="none" fill="rgb(50,50,50)" fill-opacity="1" x="-2.0291319679977615" y="163.78908399528282">0</text></g><g class="test-ytl" style="font-family: &quot;Open Sans&quot;, verdana, arial, sans-serif;"><text text-anchor="end" dominant-baseline="middle" font-size="11" stroke="none" fill="rgb(50,50,50)" fill-opacity="1" x="-2.0291319679977624" y="91.48002646774304">5</text><text text-anchor="end" dominant-baseline="middle" font-size="11" stroke="none" fill="rgb(50,50,50)" fill-opacity="1" x="-2.0291319679977624" y="24.170968940203267">10</text></g><rect class="real" x="1" y="1" width="205.1666259765625" height="165" style="fill: transparent; stroke: none;"/></g></g></g><g/></g><g/><g/><g/></svg>
        <svg xmlns="http://www.w3.org/2000/svg" xmlns:xlink="http://www.w3.org/1999/xlink" width="237" height="223" style="width:237px;height:223px;font-family:Asana-Math, Asana;background:transparent;"><g><g><g><g transform="matrix(1,0,0,1,199.25,208)"><path transform="matrix(0.017,0,0,-0.017,0,0)" d="M125 390L69 107C68 99 56 61 56 31C56 6 67 -9 86 -9C121 -9 156 11 234 74L265 99L255 117L210 86C181 66 161 56 150 56C141 56 136 64 136 76C136 102 150 183 179 328L192 390L299 390L310 440C272 436 238 434 200 434C216 528 227 577 245 631L234 646C214 634 187 622 156 610L131 440C87 419 61 408 43 403L41 390Z" stroke="rgb(0,0,0)" stroke-opacity="1" stroke-width="8" fill="rgb(0,0,0)" fill-opacity="1"></path></g></g><g><g transform="matrix(1,0,0,1,209.1302490234375,208)"><path transform="matrix(0.017,0,0,-0.017,0,0)" d="M88 -184C88 -184 182 -183 182 -183C182 -183 282 -184 282 -184L288 -178L288 -152L284 -147L246 -147C219 -147 197 -141 185 -131C176 -122 173 -108 173 -75L173 616C173 649 176 664 185 673C197 683 219 689 246 689L284 689L288 694L288 720L282 726L188 723L88 726C84 717 83 706 83 691C83 665 87 628 87 578L87 -44C87 -112 85 -140 79 -171Z" stroke="rgb(0,0,0)" stroke-opacity="1" stroke-width="8" fill="rgb(0,0,0)" fill-opacity="1"></path></g></g><g><g transform="matrix(1,0,0,1,214.7760009765625,208)"><path transform="matrix(0.017,0,0,-0.017,0,0)" d="M360 128C360 183 323 217 321 220C282 255 255 261 205 270C150 281 104 291 104 340C104 402 176 402 189 402C221 402 274 398 331 364L343 429C291 453 250 461 199 461C174 461 33 461 33 330C33 281 62 249 87 230C118 208 140 204 195 193C231 186 289 174 289 121C289 52 210 52 195 52C114 52 58 89 40 101L28 33C60 17 115 -11 196 -11C334 -11 360 75 360 128Z" stroke="rgb(0,0,0)" stroke-opacity="1" stroke-width="8" fill="rgb(0,0,0)" fill-opacity="1"></path></g></g><g><g transform="matrix(1,0,0,1,221.2708740234375,208)"><path transform="matrix(0.017,0,0,-0.017,0,0)" d="M245 -184L254 -171C248 -140 246 -112 246 -44L246 578C246 628 250 665 250 691C250 706 249 717 245 726L51 726L45 720L45 694L49 689L87 689C114 689 136 683 148 673C157 664 160 649 160 616L160 -75C160 -108 157 -122 148 -131C136 -141 114 -147 87 -147L49 -147L45 -152L45 -178L51 -184Z" stroke="rgb(0,0,0)" stroke-opacity="1" stroke-width="8" fill="rgb(0,0,0)" fill-opacity="1"></path></g></g></g></g><g><g><g><g transform="matrix(1,0,0,1,123,42)"><path transform="matrix(0.017,0,0,-0.017,0,0)" d="M103 664L150 662C174 661 185 653 185 636C185 629 179 576 176 559L104 125C89 36 86 31 46 28L10 25L7 -3L39 -3L133 0L227 -3L259 -3L262 25L210 28C184 30 174 37 174 57C174 63 175 74 176 78L265 613C272 652 277 657 316 661L351 664L354 692L248 689C231 689 213 689 170 690L106 692Z" stroke="rgb(0,0,0)" stroke-opacity="1" stroke-width="8" fill="rgb(0,0,0)" fill-opacity="1"></path></g></g><g><g transform="matrix(1,0,0,1,132.88018798828125,42)"><path transform="matrix(0.017,0,0,-0.017,0,0)" d="M88 -184C88 -184 182 -183 182 -183C182 -183 282 -184 282 -184L288 -178L288 -152L284 -147L246 -147C219 -147 197 -141 185 -131C176 -122 173 -108 173 -75L173 616C173 649 176 664 185 673C197 683 219 689 246 689L284 689L288 694L288 720L282 726L188 723L88 726C84 717 83 706 83 691C83 665 87 628 87 578L87 -44C87 -112 85 -140 79 -171Z" stroke="rgb(0,0,0)" stroke-opacity="1" stroke-width="8" fill="rgb(0,0,0)" fill-opacity="1"></path></g></g><g><g transform="matrix(1,0,0,1,138.5260009765625,42)"><path transform="matrix(0.017,0,0,-0.017,0,0)" d="M437 61L316 584C307 622 293 623 262 623C233 623 217 623 208 585L87 61C73 61 50 62 44 59C33 54 27 43 27 30C27 0 53 0 70 0L172 0C190 0 214 0 214 30C214 61 194 61 158 61L181 165L343 165L366 61C330 61 310 61 310 30C310 0 334 0 352 0L454 0C471 0 497 0 497 30C497 61 477 61 437 61ZM262 540L328 226L196 226Z" stroke="rgb(0,0,0)" stroke-opacity="1" stroke-width="8" fill="rgb(0,0,0)" fill-opacity="1"></path></g></g><g><g transform="matrix(1,0,0,1,147.4375,42)"><path transform="matrix(0.017,0,0,-0.017,0,0)" d="M245 -184L254 -171C248 -140 246 -112 246 -44L246 578C246 628 250 665 250 691C250 706 249 717 245 726L51 726L45 720L45 694L49 689L87 689C114 689 136 683 148 673C157 664 160 649 160 616L160 -75C160 -108 157 -122 148 -131C136 -141 114 -147 87 -147L49 -147L45 -152L45 -178L51 -184Z" stroke="rgb(0,0,0)" stroke-opacity="1" stroke-width="8" fill="rgb(0,0,0)" fill-opacity="1"></path></g></g></g></g><g><g><g><g transform="matrix(1,0,0,1,71,147)"><path transform="matrix(0.017,0,0,-0.017,0,0)" d="M310 96L239 624C237 646 241 661 281 662L323 664L323 692L282 691C245 690 217 689 199 689C181 689 153 690 116 691L75 692L75 664L100 662C144 659 152 651 159 614L247 -8L296 -8L674 611C699 651 707 658 736 662L754 664L754 692L724 691C697 690 674 689 658 689C648 689 621 690 580 691L534 692L534 664L560 662C598 659 617 649 617 630C617 619 613 608 601 588Z" stroke="rgb(0,0,0)" stroke-opacity="1" stroke-width="8" fill="rgb(0,0,0)" fill-opacity="1"></path></g></g><g><g><g><g><g transform="matrix(1,0,0,1,83.765625,150.00418701171876)"><path transform="matrix(0.0119,0,0,-0.0119,0,0)" d="M31 148C26 97 20 62 9 16C47 -2 81 -11 116 -11C165 -11 211 7 262 47C313 87 334 124 334 174C334 228 302 257 228 271L185 279C125 290 106 307 106 348C106 401 151 442 208 442C249 442 287 424 303 397L303 342L326 342C330 377 334 404 345 455C306 474 278 482 245 482C193 482 132 452 84 404C58 377 47 352 47 316C47 260 78 228 144 215L207 203C251 195 267 177 267 138C267 73 221 29 150 29C115 29 84 40 56 64L56 148Z" stroke="rgb(0,0,0)" stroke-opacity="1" stroke-width="8" fill="rgb(0,0,0)" fill-opacity="1"></path></g></g></g></g></g><g><g transform="matrix(1,0,0,1,89.4010009765625,147)"><path transform="matrix(0.017,0,0,-0.017,0,0)" d="" stroke="rgb(0,0,0)" stroke-opacity="1" stroke-width="8" fill="rgb(0,0,0)" fill-opacity="1"></path></g></g><g><g transform="matrix(1,0,0,1,93.6353759765625,147)"><path transform="matrix(0.017,0,0,-0.017,0,0)" d="M88 -184C88 -184 182 -183 182 -183C182 -183 282 -184 282 -184L288 -178L288 -152L284 -147L246 -147C219 -147 197 -141 185 -131C176 -122 173 -108 173 -75L173 616C173 649 176 664 185 673C197 683 219 689 246 689L284 689L288 694L288 720L282 726L188 723L88 726C84 717 83 706 83 691C83 665 87 628 87 578L87 -44C87 -112 85 -140 79 -171Z" stroke="rgb(0,0,0)" stroke-opacity="1" stroke-width="8" fill="rgb(0,0,0)" fill-opacity="1"></path></g></g><g><g transform="matrix(1,0,0,1,99.28125,147)"><path transform="matrix(0.017,0,0,-0.017,0,0)" d="M449 550C485 550 506 550 506 581C506 611 480 611 465 611L363 611C348 611 322 611 322 581C322 550 343 550 378 550L301 244C288 191 269 115 262 72L261 72C256 107 252 124 243 161L146 550C181 550 202 550 202 581C202 611 176 611 161 611L59 611C44 611 18 611 18 581C18 550 39 550 75 550L207 30C217 -8 233 -8 262 -8C289 -8 308 -8 317 29Z" stroke="rgb(0,0,0)" stroke-opacity="1" stroke-width="8" fill="rgb(0,0,0)" fill-opacity="1"></path></g></g><g><g transform="matrix(1,0,0,1,108.19268798828125,147)"><path transform="matrix(0.017,0,0,-0.017,0,0)" d="M245 -184L254 -171C248 -140 246 -112 246 -44L246 578C246 628 250 665 250 691C250 706 249 717 245 726L51 726L45 720L45 694L49 689L87 689C114 689 136 683 148 673C157 664 160 649 160 616L160 -75C160 -108 157 -122 148 -131C136 -141 114 -147 87 -147L49 -147L45 -152L45 -178L51 -184Z" stroke="rgb(0,0,0)" stroke-opacity="1" stroke-width="8" fill="rgb(0,0,0)" fill-opacity="1"></path></g></g></g></g></svg>
</svg>
