<svg xmlns="http://www.w3.org/2000/svg" xmlns:xlink="http://www.w3.org/1999/xlink" x="0" y="0" width="225" height="163.25" style="
        width:225px;
        height:163.25px;
        background: transparent;
        fill: none;
">
        
        
        <svg xmlns="http://www.w3.org/2000/svg" class="role-diagram-draw-area"><g class="shapes-region" style="stroke: black; fill: none;"><g class="arrow-line"><path class="connection real" stroke-dasharray="" d="  M10.25,130 L217.25,130" style="stroke: rgb(0, 0, 0); stroke-width: 1; fill: none; fill-opacity: 1;"/><g stroke="none" fill="#000" transform="matrix(-1,1.2246467991473532e-16,-1.2246467991473532e-16,-1,220.24999999999997,130.00000000000003)" style="stroke: none; fill: rgb(0, 0, 0); stroke-width: 1;"><path d=" M8.93,-4.29 L0,0 L8.93,4.29 Z"/></g></g><g class="arrow-line"><path class="connection real" stroke-dasharray="" d="  M10.25,130 L10.25,13" style="stroke: rgb(0, 0, 0); stroke-width: 1; fill: none; fill-opacity: 1;"/><g stroke="none" fill="#000" transform="matrix(3.061616997868383e-16,1,-1,3.061616997868383e-16,10.25,10)" style="stroke: none; fill: rgb(0, 0, 0); stroke-width: 1;"><path d=" M8.93,-4.29 L0,0 L8.93,4.29 Z"/></g></g><g class="composite-shape"><path class="real" d=" M10.25,30 L211.05,30 L211.05,130 L10.25,130 Z" style="stroke-width: 1; stroke: none; stroke-opacity: 0.36; fill: none; fill-opacity: 1;"/><path class="real" d=" M10.25,30 L10.25,130 M30.25,30 L30.25,130 M50.25,30 L50.25,130 M70.25,30 L70.25,130 M90.25,30 L90.25,130 M110.25,30 L110.25,130 M130.25,30 L130.25,130 M150.25,30 L150.25,130 M170.25,30 L170.25,130 M190.25,30 L190.25,130 M210.25,30 L210.25,130" style="stroke-width: 1; stroke: rgb(155, 155, 155); stroke-opacity: 0.36; fill: none; fill-opacity: 1;"/><path class="real" d=" M10.25,30 L211.05,30 M10.25,50 L211.05,50 M10.25,70 L211.05,70 M10.25,90 L211.05,90 M10.25,110 L211.05,110" style="stroke-width: 1; stroke: rgb(155, 155, 155); stroke-opacity: 0.36; fill: none; fill-opacity: 1;"/><path class="real" d=" " style="stroke-width: 1; stroke: rgb(155, 155, 155); stroke-opacity: 0.36; fill: none; fill-opacity: 1;"/></g><g/></g><g/><g/><g/></svg>
        <svg xmlns="http://www.w3.org/2000/svg" xmlns:xlink="http://www.w3.org/1999/xlink" width="223" height="161.25" style="width:223px;height:161.25px;font-family:Asana-Math, Asana;background:transparent;"><g><g><g><g transform="matrix(1,0,0,1,192.5833282470703,153.33333587646484)"><path transform="matrix(0.017,0,0,-0.017,0,0)" d="M125 390L69 107C68 99 56 61 56 31C56 6 67 -9 86 -9C121 -9 156 11 234 74L265 99L255 117L210 86C181 66 161 56 150 56C141 56 136 64 136 76C136 102 150 183 179 328L192 390L299 390L310 440C272 436 238 434 200 434C216 528 227 577 245 631L234 646C214 634 187 622 156 610L131 440C87 419 61 408 43 403L41 390Z" stroke="rgb(0,0,0)" stroke-opacity="1" stroke-width="8" fill="rgb(0,0,0)" fill-opacity="1"></path></g></g><g><g transform="matrix(1,0,0,1,202.4635467529297,153.33333587646484)"><path transform="matrix(0.017,0,0,-0.017,0,0)" d="M88 -184C88 -184 182 -183 182 -183C182 -183 282 -184 282 -184L288 -178L288 -152L284 -147L246 -147C219 -147 197 -141 185 -131C176 -122 173 -108 173 -75L173 616C173 649 176 664 185 673C197 683 219 689 246 689L284 689L288 694L288 720L282 726L188 723L88 726C84 717 83 706 83 691C83 665 87 628 87 578L87 -44C87 -112 85 -140 79 -171Z" stroke="rgb(0,0,0)" stroke-opacity="1" stroke-width="8" fill="rgb(0,0,0)" fill-opacity="1"></path></g></g><g><g transform="matrix(1,0,0,1,208.10939025878906,153.33333587646484)"><path transform="matrix(0.017,0,0,-0.017,0,0)" d="M360 128C360 183 323 217 321 220C282 255 255 261 205 270C150 281 104 291 104 340C104 402 176 402 189 402C221 402 274 398 331 364L343 429C291 453 250 461 199 461C174 461 33 461 33 330C33 281 62 249 87 230C118 208 140 204 195 193C231 186 289 174 289 121C289 52 210 52 195 52C114 52 58 89 40 101L28 33C60 17 115 -11 196 -11C334 -11 360 75 360 128Z" stroke="rgb(0,0,0)" stroke-opacity="1" stroke-width="8" fill="rgb(0,0,0)" fill-opacity="1"></path></g></g><g><g transform="matrix(1,0,0,1,214.6041717529297,153.33333587646484)"><path transform="matrix(0.017,0,0,-0.017,0,0)" d="M245 -184L254 -171C248 -140 246 -112 246 -44L246 578C246 628 250 665 250 691C250 706 249 717 245 726L51 726L45 720L45 694L49 689L87 689C114 689 136 683 148 673C157 664 160 649 160 616L160 -75C160 -108 157 -122 148 -131C136 -141 114 -147 87 -147L49 -147L45 -152L45 -178L51 -184Z" stroke="rgb(0,0,0)" stroke-opacity="1" stroke-width="8" fill="rgb(0,0,0)" fill-opacity="1"></path></g></g></g></g><g><g><g><g transform="matrix(1,0,0,1,18.583328247070312,20.333335876464844)"><path transform="matrix(0.017,0,0,-0.017,0,0)" d="M103 664L150 662C174 661 185 653 185 636C185 629 179 576 176 559L104 125C89 36 86 31 46 28L10 25L7 -3L39 -3L133 0L227 -3L259 -3L262 25L210 28C184 30 174 37 174 57C174 63 175 74 176 78L265 613C272 652 277 657 316 661L351 664L354 692L248 689C231 689 213 689 170 690L106 692Z" stroke="rgb(0,0,0)" stroke-opacity="1" stroke-width="8" fill="rgb(0,0,0)" fill-opacity="1"></path></g></g><g><g transform="matrix(1,0,0,1,28.463546752929688,20.333335876464844)"><path transform="matrix(0.017,0,0,-0.017,0,0)" d="M88 -184C88 -184 182 -183 182 -183C182 -183 282 -184 282 -184L288 -178L288 -152L284 -147L246 -147C219 -147 197 -141 185 -131C176 -122 173 -108 173 -75L173 616C173 649 176 664 185 673C197 683 219 689 246 689L284 689L288 694L288 720L282 726L188 723L88 726C84 717 83 706 83 691C83 665 87 628 87 578L87 -44C87 -112 85 -140 79 -171Z" stroke="rgb(0,0,0)" stroke-opacity="1" stroke-width="8" fill="rgb(0,0,0)" fill-opacity="1"></path></g></g><g><g transform="matrix(1,0,0,1,34.109375,20.333335876464844)"><path transform="matrix(0.017,0,0,-0.017,0,0)" d="M437 61L316 584C307 622 293 623 262 623C233 623 217 623 208 585L87 61C73 61 50 62 44 59C33 54 27 43 27 30C27 0 53 0 70 0L172 0C190 0 214 0 214 30C214 61 194 61 158 61L181 165L343 165L366 61C330 61 310 61 310 30C310 0 334 0 352 0L454 0C471 0 497 0 497 30C497 61 477 61 437 61ZM262 540L328 226L196 226Z" stroke="rgb(0,0,0)" stroke-opacity="1" stroke-width="8" fill="rgb(0,0,0)" fill-opacity="1"></path></g></g><g><g transform="matrix(1,0,0,1,43.02082824707031,20.333335876464844)"><path transform="matrix(0.017,0,0,-0.017,0,0)" d="M245 -184L254 -171C248 -140 246 -112 246 -44L246 578C246 628 250 665 250 691C250 706 249 717 245 726L51 726L45 720L45 694L49 689L87 689C114 689 136 683 148 673C157 664 160 649 160 616L160 -75C160 -108 157 -122 148 -131C136 -141 114 -147 87 -147L49 -147L45 -152L45 -178L51 -184Z" stroke="rgb(0,0,0)" stroke-opacity="1" stroke-width="8" fill="rgb(0,0,0)" fill-opacity="1"></path></g></g></g></g></svg>
</svg>
