<svg xmlns="http://www.w3.org/2000/svg" xmlns:xlink="http://www.w3.org/1999/xlink" x="0" y="0" width="239" height="225" style="
        width:239px;
        height:225px;
        background: transparent;
        fill: none;
">
        
        
        <svg xmlns="http://www.w3.org/2000/svg" class="role-diagram-draw-area"><g class="shapes-region" style="stroke: black; fill: none;"><g class="composite-shape" data-amt="diagram/shapes/plot" transform="matrix(1,0,0,1,19,23.83331298828125)"><g><g><g class="test-xgi"><line x1="5.970868032002238" y1="0" x2="5.970868032002238" y2="167" fill="none" stroke="lightgray" stroke-width="0.5"/><line x1="24.270868032002234" y1="0" x2="24.270868032002234" y2="167" fill="none" stroke="lightgray" stroke-width="0.5"/><line x1="42.57086803200224" y1="0" x2="42.57086803200224" y2="167" fill="none" stroke="lightgray" stroke-width="0.5"/><line x1="60.870868032002235" y1="0" x2="60.870868032002235" y2="167" fill="none" stroke="lightgray" stroke-width="0.5"/><line x1="79.17086803200225" y1="0" x2="79.17086803200225" y2="167" fill="none" stroke="lightgray" stroke-width="0.5"/><line x1="97.47086803200226" y1="0" x2="97.47086803200226" y2="167" fill="none" stroke="lightgray" stroke-width="0.5"/><line x1="115.77086803200226" y1="0" x2="115.77086803200226" y2="167" fill="none" stroke="lightgray" stroke-width="0.5"/><line x1="134.07086803200224" y1="0" x2="134.07086803200224" y2="167" fill="none" stroke="lightgray" stroke-width="0.5"/><line x1="152.37086803200225" y1="0" x2="152.37086803200225" y2="167" fill="none" stroke="lightgray" stroke-width="0.5"/><line x1="170.67086803200223" y1="0" x2="170.67086803200223" y2="167" fill="none" stroke="lightgray" stroke-width="0.5"/><line x1="188.97086803200227" y1="0" x2="188.97086803200227" y2="167" fill="none" stroke="lightgray" stroke-width="0.5"/><line x1="5.970868032002238" y1="0" x2="5.970868032002238" y2="167" fill="none" stroke="lightgray" stroke-width="0.5"/><line x1="5.970868032002238" y1="0" x2="5.970868032002238" y2="167" fill="none" stroke="#c3c3c3" stroke-width="1"/><line x1="97.47086803200226" y1="0" x2="97.47086803200226" y2="167" fill="none" stroke="#c3c3c3" stroke-width="1"/><line x1="188.97086803200227" y1="0" x2="188.97086803200227" y2="167" fill="none" stroke="#c3c3c3" stroke-width="1"/></g><g class="test-ygi"><line x1="0" y1="158.78908399528282" x2="207.1666259765625" y2="158.78908399528282" fill="none" stroke="lightgray" stroke-width="0.5"/><line x1="0" y1="145.1890839952828" x2="207.1666259765625" y2="145.1890839952828" fill="none" stroke="lightgray" stroke-width="0.5"/><line x1="0" y1="131.5890839952828" x2="207.1666259765625" y2="131.5890839952828" fill="none" stroke="lightgray" stroke-width="0.5"/><line x1="0" y1="117.98908399528281" x2="207.1666259765625" y2="117.98908399528281" fill="none" stroke="lightgray" stroke-width="0.5"/><line x1="0" y1="104.38908399528282" x2="207.1666259765625" y2="104.38908399528282" fill="none" stroke="lightgray" stroke-width="0.5"/><line x1="0" y1="90.78908399528281" x2="207.1666259765625" y2="90.78908399528281" fill="none" stroke="lightgray" stroke-width="0.5"/><line x1="0" y1="77.18908399528281" x2="207.1666259765625" y2="77.18908399528281" fill="none" stroke="lightgray" stroke-width="0.5"/><line x1="0" y1="63.58908399528282" x2="207.1666259765625" y2="63.58908399528282" fill="none" stroke="lightgray" stroke-width="0.5"/><line x1="0" y1="49.989083995282826" x2="207.1666259765625" y2="49.989083995282826" fill="none" stroke="lightgray" stroke-width="0.5"/><line x1="0" y1="36.38908399528282" x2="207.1666259765625" y2="36.38908399528282" fill="none" stroke="lightgray" stroke-width="0.5"/><line x1="0" y1="22.789083995282823" x2="207.1666259765625" y2="22.789083995282823" fill="none" stroke="lightgray" stroke-width="0.5"/><line x1="0" y1="9.189083995282829" x2="207.1666259765625" y2="9.189083995282829" fill="none" stroke="lightgray" stroke-width="0.5"/><line x1="0" y1="158.78908399528282" x2="207.1666259765625" y2="158.78908399528282" fill="none" stroke="lightgray" stroke-width="0.5"/><line x1="0" y1="158.78908399528282" x2="207.1666259765625" y2="158.78908399528282" fill="none" stroke="#c3c3c3" stroke-width="1"/><line x1="0" y1="131.5890839952828" x2="207.1666259765625" y2="131.5890839952828" fill="none" stroke="#c3c3c3" stroke-width="1"/><line x1="0" y1="104.38908399528282" x2="207.1666259765625" y2="104.38908399528282" fill="none" stroke="#c3c3c3" stroke-width="1"/><line x1="0" y1="77.18908399528281" x2="207.1666259765625" y2="77.18908399528281" fill="none" stroke="#c3c3c3" stroke-width="1"/><line x1="0" y1="49.989083995282826" x2="207.1666259765625" y2="49.989083995282826" fill="none" stroke="#c3c3c3" stroke-width="1"/><line x1="0" y1="22.789083995282823" x2="207.1666259765625" y2="22.789083995282823" fill="none" stroke="#c3c3c3" stroke-width="1"/></g></g><g><g class="test-xti" style="font-family: Asana-Math, Asana;"><line x1="0" y1="158.78908399528282" x2="203.1666259765625" y2="158.78908399528282" fill="none" stroke="rgb(50,50,50)" stroke-opacity="1" stroke-width="1"/><line x1="5.970868032002238" y1="156.78908399528282" x2="5.970868032002238" y2="160.78908399528282" fill="none" stroke="rgb(50,50,50)" stroke-opacity="1" stroke-width="1"/><line x1="24.270868032002234" y1="156.78908399528282" x2="24.270868032002234" y2="160.78908399528282" fill="none" stroke="rgb(50,50,50)" stroke-opacity="1" stroke-width="1"/><line x1="42.57086803200224" y1="156.78908399528282" x2="42.57086803200224" y2="160.78908399528282" fill="none" stroke="rgb(50,50,50)" stroke-opacity="1" stroke-width="1"/><line x1="60.870868032002235" y1="156.78908399528282" x2="60.870868032002235" y2="160.78908399528282" fill="none" stroke="rgb(50,50,50)" stroke-opacity="1" stroke-width="1"/><line x1="79.17086803200225" y1="156.78908399528282" x2="79.17086803200225" y2="160.78908399528282" fill="none" stroke="rgb(50,50,50)" stroke-opacity="1" stroke-width="1"/><line x1="97.47086803200226" y1="156.78908399528282" x2="97.47086803200226" y2="160.78908399528282" fill="none" stroke="rgb(50,50,50)" stroke-opacity="1" stroke-width="1"/><line x1="115.77086803200226" y1="156.78908399528282" x2="115.77086803200226" y2="160.78908399528282" fill="none" stroke="rgb(50,50,50)" stroke-opacity="1" stroke-width="1"/><line x1="134.07086803200224" y1="156.78908399528282" x2="134.07086803200224" y2="160.78908399528282" fill="none" stroke="rgb(50,50,50)" stroke-opacity="1" stroke-width="1"/><line x1="152.37086803200225" y1="156.78908399528282" x2="152.37086803200225" y2="160.78908399528282" fill="none" stroke="rgb(50,50,50)" stroke-opacity="1" stroke-width="1"/><line x1="170.67086803200223" y1="156.78908399528282" x2="170.67086803200223" y2="160.78908399528282" fill="none" stroke="rgb(50,50,50)" stroke-opacity="1" stroke-width="1"/><line x1="188.97086803200227" y1="156.78908399528282" x2="188.97086803200227" y2="160.78908399528282" fill="none" stroke="rgb(50,50,50)" stroke-opacity="1" stroke-width="1"/><line x1="5.970868032002238" y1="156.78908399528282" x2="5.970868032002238" y2="160.78908399528282" fill="none" stroke="rgb(50,50,50)" stroke-opacity="1" stroke-width="1"/><line x1="97.47086803200226" y1="154.78908399528282" x2="97.47086803200226" y2="162.78908399528282" fill="none" stroke="rgb(50,50,50)" stroke-opacity="1" stroke-width="1"/><line x1="188.97086803200227" y1="154.78908399528282" x2="188.97086803200227" y2="162.78908399528282" fill="none" stroke="rgb(50,50,50)" stroke-opacity="1" stroke-width="1"/><path d="M198.1666259765625,155.18908399528283 L206.1666259765625,158.78908399528282 L198.1666259765625,162.38908399528282 Z" stroke="none" stroke-width="1" fill="rgb(50,50,50)" fill-opacity="1"/></g><g class="test-yti" style="font-family: Asana-Math, Asana;"><line x1="5.970868032002238" y1="4" x2="5.970868032002238" y2="167" fill="none" stroke="rgb(50,50,50)" stroke-opacity="1" stroke-width="1"/><line x1="1.9708680320022376" y1="131.5890839952828" x2="9.970868032002237" y2="131.5890839952828" fill="none" stroke="rgb(50,50,50)" stroke-opacity="1" stroke-width="1"/><line x1="1.9708680320022376" y1="104.38908399528282" x2="9.970868032002237" y2="104.38908399528282" fill="none" stroke="rgb(50,50,50)" stroke-opacity="1" stroke-width="1"/><line x1="1.9708680320022376" y1="77.18908399528281" x2="9.970868032002237" y2="77.18908399528281" fill="none" stroke="rgb(50,50,50)" stroke-opacity="1" stroke-width="1"/><line x1="1.9708680320022376" y1="49.989083995282826" x2="9.970868032002237" y2="49.989083995282826" fill="none" stroke="rgb(50,50,50)" stroke-opacity="1" stroke-width="1"/><line x1="1.9708680320022376" y1="22.789083995282823" x2="9.970868032002237" y2="22.789083995282823" fill="none" stroke="rgb(50,50,50)" stroke-opacity="1" stroke-width="1"/><path d="M2.3708680320022375,9 L5.970868032002238,1 L9.570868032002238,9 Z" stroke="none" stroke-width="1" fill="rgb(50,50,50)" fill-opacity="1"/></g><g class="test-plot-expression"><defs><clipPath id="cpjt5cw5nq8"><rect x="1" y="1" width="205.1666259765625" height="165"/></clipPath></defs><g clip-path="url(#cpjt5cw5nq8)"><path d=" M5.97,158.79 L6.19,158.46 L6.41,158.13 L6.63,157.80 L6.86,157.48 L7.08,157.15 L7.30,156.82 L7.52,156.50 L7.74,156.17 L7.96,155.84 L8.18,155.52 L8.41,155.19 L8.63,154.87 L8.85,154.55 L9.07,154.22 L9.29,153.90 L9.51,153.58 L9.73,153.25 L9.96,152.93 L10.18,152.61 L10.40,152.29 L10.62,151.97 L10.84,151.65 L11.06,151.33 L11.28,151.01 L11.51,150.69 L11.73,150.37 L11.95,150.05 L12.17,149.73 L12.39,149.41 L12.61,149.10 L12.83,148.78 L13.05,148.46 L13.28,148.14 L13.50,147.83 L13.72,147.51 L13.94,147.20 L14.16,146.88 L14.38,146.57 L14.60,146.25 L14.83,145.94 L15.05,145.63 L15.27,145.31 L15.49,145.00 L15.71,144.69 L15.93,144.38 L16.15,144.07 L16.38,143.76 L16.60,143.45 L16.82,143.14 L17.04,142.83 L17.26,142.52 L17.48,142.21 L17.70,141.90 L17.92,141.59 L18.15,141.28 L18.37,140.97 L18.59,140.67 L18.81,140.36 L19.03,140.05 L19.25,139.75 L19.47,139.44 L19.70,139.14 L19.92,138.83 L20.14,138.53 L20.36,138.22 L20.58,137.92 L20.80,137.61 L21.02,137.31 L21.25,137.01 L21.47,136.71 L21.69,136.40 L21.91,136.10 L22.13,135.80 L22.35,135.50 L22.57,135.20 L22.80,134.90 L23.02,134.60 L23.24,134.30 L23.46,134.00 L23.68,133.70 L23.90,133.40 L24.12,133.10 L24.34,132.81 L24.57,132.51 L24.79,132.21 L25.01,131.91 L25.23,131.62 L25.45,131.32 L25.67,131.03 L25.89,130.73 L26.12,130.44 L26.34,130.14 L26.56,129.85 L26.78,129.55 L27.00,129.26 L27.22,128.97 L27.44,128.67 L27.67,128.38 L27.89,128.09 L28.11,127.80 L28.33,127.51 L28.55,127.22 L28.77,126.93 L28.99,126.63 L29.21,126.34 L29.44,126.06 L29.66,125.77 L29.88,125.48 L30.10,125.19 L30.32,124.90 L30.54,124.61 L30.76,124.32 L30.99,124.04 L31.21,123.75 L31.43,123.46 L31.65,123.18 L31.87,122.89 L32.09,122.61 L32.31,122.32 L32.54,122.04 L32.76,121.75 L32.98,121.47 L33.20,121.19 L33.42,120.90 L33.64,120.62 L33.86,120.34 L34.08,120.05 L34.31,119.77 L34.53,119.49 L34.75,119.21 L34.97,118.93 L35.19,118.65 L35.41,118.37 L35.63,118.09 L35.86,117.81 L36.08,117.53 L36.30,117.25 L36.52,116.97 L36.74,116.69 L36.96,116.41 L37.18,116.14 L37.41,115.86 L37.63,115.58 L37.85,115.31 L38.07,115.03 L38.29,114.75 L38.51,114.48 L38.73,114.20 L38.96,113.93 L39.18,113.65 L39.40,113.38 L39.62,113.10 L39.84,112.83 L40.06,112.56 L40.28,112.28 L40.50,112.01 L40.73,111.74 L40.95,111.47 L41.17,111.20 L41.39,110.93 L41.61,110.65 L41.83,110.38 L42.05,110.11 L42.28,109.84 L42.50,109.57 L42.72,109.30 L42.94,109.04 L43.16,108.77 L43.38,108.50 L43.60,108.23 L43.83,107.96 L44.05,107.70 L44.27,107.43 L44.49,107.16 L44.71,106.89 L44.93,106.63 L45.15,106.36 L45.37,106.10 L45.60,105.83 L45.82,105.57 L46.04,105.30 L46.26,105.04 L46.48,104.78 L46.70,104.51 L46.92,104.25 L47.15,103.99 L47.37,103.72 L47.59,103.46 L47.81,103.20 L48.03,102.94 L48.25,102.68 L48.47,102.41 L48.70,102.15 L48.92,101.89 L49.14,101.63 L49.36,101.37 L49.58,101.11 L49.80,100.86 L50.02,100.60 L50.25,100.34 L50.47,100.08 L50.69,99.82 L50.91,99.56 L51.13,99.31 L51.35,99.05 L51.57,98.79 L51.79,98.54 L52.02,98.28 L52.24,98.03 L52.46,97.77 L52.68,97.52 L52.90,97.26 L53.12,97.01 L53.34,96.75 L53.57,96.50 L53.79,96.24 L54.01,95.99 L54.23,95.74 L54.45,95.49 L54.67,95.23 L54.89,94.98 L55.12,94.73 L55.34,94.48 L55.56,94.23 L55.78,93.98 L56.00,93.73 L56.22,93.48 L56.44,93.23 L56.66,92.98 L56.89,92.73 L57.11,92.48 L57.33,92.23 L57.55,91.98 L57.77,91.73 L57.99,91.49 L58.21,91.24 L58.44,90.99 L58.66,90.74 L58.88,90.50 L59.10,90.25 L59.32,90.01 L59.54,89.76 L59.76,89.51 L59.99,89.27 L60.21,89.02 L60.43,88.78 L60.65,88.54 L60.87,88.29 L61.09,88.05 L61.31,87.80 L61.53,87.56 L61.76,87.32 L61.98,87.08 L62.20,86.83 L62.42,86.59 L62.64,86.35 L62.86,86.11 L63.08,85.87 L63.31,85.63 L63.53,85.39 L63.75,85.15 L63.97,84.91 L64.19,84.67 L64.41,84.43 L64.63,84.19 L64.86,83.95 L65.08,83.71 L65.30,83.48 L65.52,83.24 L65.74,83.00 L65.96,82.76 L66.18,82.53 L66.41,82.29 L66.63,82.05 L66.85,81.82 L67.07,81.58 L67.29,81.35 L67.51,81.11 L67.73,80.88 L67.95,80.64 L68.18,80.41 L68.40,80.17 L68.62,79.94 L68.84,79.70 L69.06,79.47 L69.28,79.24 L69.50,79.01 L69.73,78.77 L69.95,78.54 L70.17,78.31 L70.39,78.08 L70.61,77.85 L70.83,77.62 L71.05,77.39 L71.28,77.15 L71.50,76.92 L71.72,76.69 L71.94,76.47 L72.16,76.24 L72.38,76.01 L72.60,75.78 L72.82,75.55 L73.05,75.32 L73.27,75.09 L73.49,74.87 L73.71,74.64 L73.93,74.41 L74.15,74.18 L74.37,73.96 L74.60,73.73 L74.82,73.51 L75.04,73.28 L75.26,73.05 L75.48,72.83 L75.70,72.60 L75.92,72.38 L76.15,72.16 L76.37,71.93 L76.59,71.71 L76.81,71.48 L77.03,71.26 L77.25,71.04 L77.47,70.81 L77.70,70.59 L77.92,70.37 L78.14,70.15 L78.36,69.93 L78.58,69.71 L78.80,69.48 L79.02,69.26 L79.24,69.04 L79.47,68.82 L79.69,68.60 L79.91,68.38 L80.13,68.16 L80.35,67.94 L80.57,67.72 L80.79,67.51 L81.02,67.29 L81.24,67.07 L81.46,66.85 L81.68,66.63 L81.90,66.42 L82.12,66.20 L82.34,65.98 L82.57,65.77 L82.79,65.55 L83.01,65.33 L83.23,65.12 L83.45,64.90 L83.67,64.69 L83.89,64.47 L84.11,64.26 L84.34,64.04 L84.56,63.83 L84.78,63.61 L85.00,63.40 L85.22,63.19 L85.44,62.97 L85.66,62.76 L85.89,62.55 L86.11,62.33 L86.33,62.12 L86.55,61.91 L86.77,61.70 L86.99,61.49 L87.21,61.28 L87.44,61.07 L87.66,60.85 L87.88,60.64 L88.10,60.43 L88.32,60.22 L88.54,60.01 L88.76,59.80 L88.98,59.60 L89.21,59.39 L89.43,59.18 L89.65,58.97 L89.87,58.76 L90.09,58.55 L90.31,58.35 L90.53,58.14 L90.76,57.93 L90.98,57.72 L91.20,57.52 L91.42,57.31 L91.64,57.11 L91.86,56.90 L92.08,56.69 L92.31,56.49 L92.53,56.28 L92.75,56.08 L92.97,55.87 L93.19,55.67 L93.41,55.47 L93.63,55.26 L93.86,55.06 L94.08,54.85 L94.30,54.65 L94.52,54.45 L94.74,54.25 L94.96,54.04 L95.18,53.84 L95.40,53.64 L95.63,53.44 L95.85,53.24 L96.07,53.03 L96.29,52.83 L96.51,52.63 L96.73,52.43 L96.95,52.23 L97.18,52.03 L97.40,51.83 L97.47,51.77" style="stroke-width: 2; stroke: rgb(0, 0, 0); stroke-opacity: 1;"/><path d=" M97.47,51.77 L97.69,51.89 L97.91,52.02 L98.13,52.15 L98.36,52.28 L98.58,52.41 L98.80,52.54 L99.02,52.67 L99.24,52.80 L99.46,52.92 L99.68,53.05 L99.91,53.18 L100.13,53.31 L100.35,53.44 L100.57,53.56 L100.79,53.69 L101.01,53.82 L101.23,53.94 L101.46,54.07 L101.68,54.20 L101.90,54.32 L102.12,54.45 L102.34,54.58 L102.56,54.70 L102.78,54.83 L103.01,54.95 L103.23,55.08 L103.45,55.20 L103.67,55.33 L103.89,55.45 L104.11,55.58 L104.33,55.70 L104.55,55.83 L104.78,55.95 L105.00,56.08 L105.22,56.20 L105.44,56.33 L105.66,56.45 L105.88,56.57 L106.10,56.70 L106.33,56.82 L106.55,56.94 L106.77,57.07 L106.99,57.19 L107.21,57.31 L107.43,57.44 L107.65,57.56 L107.88,57.68 L108.10,57.80 L108.32,57.92 L108.54,58.05 L108.76,58.17 L108.98,58.29 L109.20,58.41 L109.42,58.53 L109.65,58.65 L109.87,58.78 L110.09,58.90 L110.31,59.02 L110.53,59.14 L110.75,59.26 L110.97,59.38 L111.20,59.50 L111.42,59.62 L111.64,59.74 L111.86,59.86 L112.08,59.98 L112.30,60.10 L112.52,60.22 L112.75,60.34 L112.97,60.45 L113.19,60.57 L113.41,60.69 L113.63,60.81 L113.85,60.93 L114.07,61.05 L114.30,61.17 L114.52,61.28 L114.74,61.40 L114.96,61.52 L115.18,61.64 L115.40,61.75 L115.62,61.87 L115.84,61.99 L116.07,62.11 L116.29,62.22 L116.51,62.34 L116.73,62.46 L116.95,62.57 L117.17,62.69 L117.39,62.81 L117.62,62.92 L117.84,63.04 L118.06,63.15 L118.28,63.27 L118.50,63.38 L118.72,63.50 L118.94,63.61 L119.17,63.73 L119.39,63.84 L119.61,63.96 L119.83,64.07 L120.05,64.19 L120.27,64.30 L120.49,64.42 L120.71,64.53 L120.94,64.65 L121.16,64.76 L121.38,64.87 L121.60,64.99 L121.82,65.10 L122.04,65.21 L122.26,65.33 L122.49,65.44 L122.71,65.55 L122.93,65.66 L123.15,65.78 L123.37,65.89 L123.59,66.00 L123.81,66.11 L124.04,66.23 L124.26,66.34 L124.48,66.45 L124.70,66.56 L124.92,66.67 L125.14,66.78 L125.36,66.90 L125.58,67.01 L125.81,67.12 L126.03,67.23 L126.25,67.34 L126.47,67.45 L126.69,67.56 L126.91,67.67 L127.13,67.78 L127.36,67.89 L127.58,68.00 L127.80,68.11 L128.02,68.22 L128.24,68.33 L128.46,68.44 L128.68,68.55 L128.91,68.66 L129.13,68.77 L129.35,68.87 L129.57,68.98 L129.79,69.09 L130.01,69.20 L130.23,69.31 L130.46,69.42 L130.68,69.53 L130.90,69.63 L131.12,69.74 L131.34,69.85 L131.56,69.96 L131.78,70.06 L132.00,70.17 L132.23,70.28 L132.45,70.38 L132.67,70.49 L132.89,70.60 L133.11,70.71 L133.33,70.81 L133.55,70.92 L133.78,71.02 L134.00,71.13 L134.22,71.24 L134.44,71.34 L134.66,71.45 L134.88,71.55 L135.10,71.66 L135.33,71.76 L135.55,71.87 L135.77,71.97 L135.99,72.08 L136.21,72.18 L136.43,72.29 L136.65,72.39 L136.87,72.50 L137.10,72.60 L137.32,72.71 L137.54,72.81 L137.76,72.91 L137.98,73.02 L138.20,73.12 L138.42,73.23 L138.65,73.33 L138.87,73.43 L139.09,73.54 L139.31,73.64 L139.53,73.74 L139.75,73.84 L139.97,73.95 L140.20,74.05 L140.42,74.15 L140.64,74.25 L140.86,74.36 L141.08,74.46 L141.30,74.56 L141.52,74.66 L141.75,74.76 L141.97,74.87 L142.19,74.97 L142.41,75.07 L142.63,75.17 L142.85,75.27 L143.07,75.37 L143.29,75.47 L143.52,75.57 L143.74,75.67 L143.96,75.77 L144.18,75.87 L144.40,75.97 L144.62,76.08 L144.84,76.18 L145.07,76.27 L145.29,76.37 L145.51,76.47 L145.73,76.57 L145.95,76.67 L146.17,76.77 L146.39,76.87 L146.62,76.97 L146.84,77.07 L147.06,77.17 L147.28,77.27 L147.50,77.37 L147.72,77.46 L147.94,77.56 L148.16,77.66 L148.39,77.76 L148.61,77.86 L148.83,77.95 L149.05,78.05 L149.27,78.15 L149.49,78.25 L149.71,78.34 L149.94,78.44 L150.16,78.54 L150.38,78.64 L150.60,78.73 L150.82,78.83 L151.04,78.93 L151.26,79.02 L151.49,79.12 L151.71,79.22 L151.93,79.31 L152.15,79.41 L152.37,79.50 L152.59,79.60 L152.81,79.70 L153.03,79.79 L153.26,79.89 L153.48,79.98 L153.70,80.08 L153.92,80.17 L154.14,80.27 L154.36,80.36 L154.58,80.46 L154.81,80.55 L155.03,80.65 L155.25,80.74 L155.47,80.84 L155.69,80.93 L155.91,81.02 L156.13,81.12 L156.36,81.21 L156.58,81.31 L156.80,81.40 L157.02,81.49 L157.24,81.59 L157.46,81.68 L157.68,81.77 L157.91,81.87 L158.13,81.96 L158.35,82.05 L158.57,82.14 L158.79,82.24 L159.01,82.33 L159.23,82.42 L159.45,82.51 L159.68,82.61 L159.90,82.70 L160.12,82.79 L160.34,82.88 L160.56,82.97 L160.78,83.07 L161.00,83.16 L161.23,83.25 L161.45,83.34 L161.67,83.43 L161.89,83.52 L162.11,83.61 L162.33,83.70 L162.55,83.80 L162.78,83.89 L163.00,83.98 L163.22,84.07 L163.44,84.16 L163.66,84.25 L163.88,84.34 L164.10,84.43 L164.32,84.52 L164.55,84.61 L164.77,84.70 L164.99,84.79 L165.21,84.88 L165.43,84.97 L165.65,85.05 L165.87,85.14 L166.10,85.23 L166.32,85.32 L166.54,85.41 L166.76,85.50 L166.98,85.59 L167.20,85.68 L167.42,85.76 L167.65,85.85 L167.87,85.94 L168.09,86.03 L168.31,86.12 L168.53,86.21 L168.75,86.29 L168.97,86.38 L169.20,86.47 L169.42,86.56 L169.64,86.64 L169.86,86.73 L170.08,86.82 L170.30,86.90 L170.52,86.99 L170.74,87.08 L170.97,87.16 L171.19,87.25 L171.41,87.34 L171.63,87.42 L171.85,87.51 L172.07,87.60 L172.29,87.68 L172.52,87.77 L172.74,87.85 L172.96,87.94 L173.18,88.03 L173.40,88.11 L173.62,88.20 L173.84,88.28 L174.07,88.37 L174.29,88.45 L174.51,88.54 L174.73,88.62 L174.95,88.71 L175.17,88.79 L175.39,88.88 L175.61,88.96 L175.84,89.05 L176.06,89.13 L176.28,89.21 L176.50,89.30 L176.72,89.38 L176.94,89.47 L177.16,89.55 L177.39,89.63 L177.61,89.72 L177.83,89.80 L178.05,89.88 L178.27,89.97 L178.49,90.05 L178.71,90.13 L178.94,90.22 L179.16,90.30 L179.38,90.38 L179.60,90.47 L179.82,90.55 L180.04,90.63 L180.26,90.71 L180.48,90.79 L180.71,90.88 L180.93,90.96 L181.15,91.04 L181.37,91.12 L181.59,91.21 L181.81,91.29 L182.03,91.37 L182.26,91.45 L182.48,91.53 L182.70,91.61 L182.92,91.69 L183.14,91.77 L183.36,91.86 L183.58,91.94 L183.81,92.02 L184.03,92.10 L184.25,92.18 L184.47,92.26 L184.69,92.34 L184.91,92.42 L185.13,92.50 L185.36,92.58 L185.58,92.66 L185.80,92.74 L186.02,92.82 L186.24,92.90 L186.46,92.98 L186.68,93.06 L186.90,93.14 L187.13,93.22 L187.35,93.30 L187.57,93.38 L187.79,93.46 L188.01,93.53 L188.23,93.61 L188.45,93.69 L188.68,93.77 L188.90,93.85 L188.97,93.88" style="stroke-width: 2; stroke: rgb(0, 0, 0); stroke-opacity: 1;"/></g></g><g class="test-xtl" style="font-family: &quot;Open Sans&quot;, verdana, arial, sans-serif;"><text text-anchor="middle" font-size="11" dominant-baseline="hanging" stroke="none" fill="rgb(50,50,50)" fill-opacity="1" x="97.47086803200226" y="165.78908399528282">5</text><text text-anchor="middle" font-size="11" dominant-baseline="hanging" stroke="none" fill="rgb(50,50,50)" fill-opacity="1" x="188.97086803200227" y="165.78908399528282">10</text><text text-anchor="middle" font-size="11" dominant-baseline="hanging" stroke="none" fill="rgb(50,50,50)" fill-opacity="1" x="-2.0291319679977624" y="163.78908399528282">0</text></g><g class="test-ytl" style="font-family: &quot;Open Sans&quot;, verdana, arial, sans-serif;"><text text-anchor="end" dominant-baseline="middle" font-size="11" stroke="none" fill="rgb(50,50,50)" fill-opacity="1" x="-2.0291319679977624" y="131.5890839952828">1</text><text text-anchor="end" dominant-baseline="middle" font-size="11" stroke="none" fill="rgb(50,50,50)" fill-opacity="1" x="-2.0291319679977624" y="104.38908399528282">2</text><text text-anchor="end" dominant-baseline="middle" font-size="11" stroke="none" fill="rgb(50,50,50)" fill-opacity="1" x="-2.0291319679977624" y="77.18908399528281">3</text><text text-anchor="end" dominant-baseline="middle" font-size="11" stroke="none" fill="rgb(50,50,50)" fill-opacity="1" x="-2.0291319679977624" y="49.989083995282826">4</text><text text-anchor="end" dominant-baseline="middle" font-size="11" stroke="none" fill="rgb(50,50,50)" fill-opacity="1" x="-2.0291319679977624" y="22.789083995282823">5</text></g><rect class="real" x="1" y="1" width="205.1666259765625" height="165" style="fill: transparent; stroke: none;"/></g></g></g><g/></g><g/><g/><g/></svg>
        <svg xmlns="http://www.w3.org/2000/svg" xmlns:xlink="http://www.w3.org/1999/xlink" width="237" height="223" style="width:237px;height:223px;font-family:Asana-Math, Asana;background:transparent;"><g><g><g><g transform="matrix(1,0,0,1,190.25,215)"><path transform="matrix(0.017,0,0,-0.017,0,0)" d="M125 390L69 107C68 99 56 61 56 31C56 6 67 -9 86 -9C121 -9 156 11 234 74L265 99L255 117L210 86C181 66 161 56 150 56C141 56 136 64 136 76C136 102 150 183 179 328L192 390L299 390L310 440C272 436 238 434 200 434C216 528 227 577 245 631L234 646C214 634 187 622 156 610L131 440C87 419 61 408 43 403L41 390Z" stroke="rgb(0,0,0)" stroke-opacity="1" stroke-width="8" fill="rgb(0,0,0)" fill-opacity="1"></path></g></g><g><g transform="matrix(1,0,0,1,200.1302490234375,215)"><path transform="matrix(0.017,0,0,-0.017,0,0)" d="M88 -184C88 -184 182 -183 182 -183C182 -183 282 -184 282 -184L288 -178L288 -152L284 -147L246 -147C219 -147 197 -141 185 -131C176 -122 173 -108 173 -75L173 616C173 649 176 664 185 673C197 683 219 689 246 689L284 689L288 694L288 720L282 726L188 723L88 726C84 717 83 706 83 691C83 665 87 628 87 578L87 -44C87 -112 85 -140 79 -171Z" stroke="rgb(0,0,0)" stroke-opacity="1" stroke-width="8" fill="rgb(0,0,0)" fill-opacity="1"></path></g></g><g><g transform="matrix(1,0,0,1,205.77606201171875,215)"><path transform="matrix(0.017,0,0,-0.017,0,0)" d="M713 298C713 365 697 455 576 455C516 455 464 427 427 373C401 449 331 455 299 455C227 455 180 414 153 378L153 450L81 450L81 0L159 0L159 245C159 313 186 394 260 394C353 394 358 329 358 291L358 0L436 0L436 245C436 313 463 394 537 394C630 394 635 329 635 291L635 0L713 0ZM1153 128C1153 183 1116 217 1114 220C1075 255 1048 261 998 270C943 281 897 291 897 340C897 402 969 402 982 402C1014 402 1067 398 1124 364L1136 429C1084 453 1043 461 992 461C967 461 826 461 826 330C826 281 855 249 880 230C911 208 933 204 988 193C1024 186 1082 174 1082 121C1082 52 1003 52 988 52C907 52 851 89 833 101L821 33C853 17 908 -11 989 -11C1127 -11 1153 75 1153 128Z" stroke="rgb(0,0,0)" stroke-opacity="1" stroke-width="8" fill="rgb(0,0,0)" fill-opacity="1"></path></g></g><g><g transform="matrix(1,0,0,1,225.7552490234375,215)"><path transform="matrix(0.017,0,0,-0.017,0,0)" d="M245 -184L254 -171C248 -140 246 -112 246 -44L246 578C246 628 250 665 250 691C250 706 249 717 245 726L51 726L45 720L45 694L49 689L87 689C114 689 136 683 148 673C157 664 160 649 160 616L160 -75C160 -108 157 -122 148 -131C136 -141 114 -147 87 -147L49 -147L45 -152L45 -178L51 -184Z" stroke="rgb(0,0,0)" stroke-opacity="1" stroke-width="8" fill="rgb(0,0,0)" fill-opacity="1"></path></g></g></g></g><g><g><g><g transform="matrix(1,0,0,1,34,42)"><path transform="matrix(0.017,0,0,-0.017,0,0)" d="M103 664L150 662C174 661 185 653 185 636C185 629 179 576 176 559L104 125C89 36 86 31 46 28L10 25L7 -3L39 -3L133 0L227 -3L259 -3L262 25L210 28C184 30 174 37 174 57C174 63 175 74 176 78L265 613C272 652 277 657 316 661L351 664L354 692L248 689C231 689 213 689 170 690L106 692Z" stroke="rgb(0,0,0)" stroke-opacity="1" stroke-width="8" fill="rgb(0,0,0)" fill-opacity="1"></path></g></g><g><g transform="matrix(1,0,0,1,43.8802490234375,42)"><path transform="matrix(0.017,0,0,-0.017,0,0)" d="M88 -184C88 -184 182 -183 182 -183C182 -183 282 -184 282 -184L288 -178L288 -152L284 -147L246 -147C219 -147 197 -141 185 -131C176 -122 173 -108 173 -75L173 616C173 649 176 664 185 673C197 683 219 689 246 689L284 689L288 694L288 720L282 726L188 723L88 726C84 717 83 706 83 691C83 665 87 628 87 578L87 -44C87 -112 85 -140 79 -171Z" stroke="rgb(0,0,0)" stroke-opacity="1" stroke-width="8" fill="rgb(0,0,0)" fill-opacity="1"></path></g></g><g><g transform="matrix(1,0,0,1,49.52606201171875,42)"><path transform="matrix(0.017,0,0,-0.017,0,0)" d="M437 61L316 584C307 622 293 623 262 623C233 623 217 623 208 585L87 61C73 61 50 62 44 59C33 54 27 43 27 30C27 0 53 0 70 0L172 0C190 0 214 0 214 30C214 61 194 61 158 61L181 165L343 165L366 61C330 61 310 61 310 30C310 0 334 0 352 0L454 0C471 0 497 0 497 30C497 61 477 61 437 61ZM262 540L328 226L196 226Z" stroke="rgb(0,0,0)" stroke-opacity="1" stroke-width="8" fill="rgb(0,0,0)" fill-opacity="1"></path></g></g><g><g transform="matrix(1,0,0,1,58.4375,42)"><path transform="matrix(0.017,0,0,-0.017,0,0)" d="M245 -184L254 -171C248 -140 246 -112 246 -44L246 578C246 628 250 665 250 691C250 706 249 717 245 726L51 726L45 720L45 694L49 689L87 689C114 689 136 683 148 673C157 664 160 649 160 616L160 -75C160 -108 157 -122 148 -131C136 -141 114 -147 87 -147L49 -147L45 -152L45 -178L51 -184Z" stroke="rgb(0,0,0)" stroke-opacity="1" stroke-width="8" fill="rgb(0,0,0)" fill-opacity="1"></path></g></g></g></g></svg>
</svg>
