<svg xmlns="http://www.w3.org/2000/svg" xmlns:xlink="http://www.w3.org/1999/xlink" x="0" y="0" width="225" height="108.25" style="
        width:225px;
        height:108.25px;
        background: transparent;
        fill: none;
">
        
        
        <svg xmlns="http://www.w3.org/2000/svg" class="role-diagram-draw-area"><g class="shapes-region" style="stroke: black; fill: none;"><g class="composite-shape"><g class="real" style="stroke-width: 1; stroke: rgb(0, 0, 0); fill: none; fill-opacity: 1;"><path d=" M50.21,60.07 L50.21,65.47 L57.71,66.67 L42.71,69.07 L57.71,71.47 L42.71,73.87 L57.71,76.27 L42.71,78.67 L57.71,81.07 L42.71,83.47 L50.21,84.67 L50.21,90.07" style="fill: none;"/></g></g><g class="arrow-line"><path class="connection real" stroke-dasharray="" d="  M50,20 L100,20" style="stroke: rgb(0, 0, 0); stroke-width: 1; fill: none; fill-opacity: 1;"/></g><g class="arrow-line"><path class="connection real" stroke-dasharray="" d="  M112,22 L100,40" style="stroke: rgb(0, 0, 0); stroke-width: 1; fill: none; fill-opacity: 1;"/></g><g class="arrow-line"><path class="connection real" stroke-dasharray="" d="  M100,60 L100,100" style="stroke: rgb(0, 0, 0); stroke-width: 1; fill: none; fill-opacity: 1;"/></g><g class="arrow-line"><path class="connection real" stroke-dasharray="" d="  M50,100 L100,100" style="stroke: rgb(0, 0, 0); stroke-width: 1; fill: none; fill-opacity: 1;"/></g><g class="composite-shape"><g class="real" style="stroke-width: 1; stroke: rgb(0, 0, 0); fill: none; fill-opacity: 1;"><path d=" M50,30 L50.04,35.41 C53.99,35.46 57.37,36.19 58.56,37.25 C59.75,38.3 58.5,39.47 55.41,40.19 C53.01,40.74 49.9,40.98 46.87,40.85 C45.69,40.86 44.73,40.59 44.73,40.26 C44.73,39.93 45.68,39.65 46.86,39.64 C49.88,39.47 53,39.67 55.41,40.19 C57.99,40.79 59.45,41.65 59.45,42.56 C59.46,43.47 58.01,44.35 55.45,45 C53.04,45.55 49.93,45.79 46.9,45.66 C45.72,45.67 44.76,45.4 44.76,45.07 C44.76,44.74 45.72,44.46 46.9,44.46 C49.92,44.28 53.03,44.48 55.45,45 C58.02,45.6 59.48,46.46 59.49,47.37 C59.49,48.28 58.04,49.17 55.48,49.81 C53.08,50.36 49.96,50.6 46.94,50.47 C45.76,50.48 44.8,50.21 44.8,49.88 C44.79,49.55 45.75,49.27 46.93,49.27 C49.95,49.09 53.07,49.29 55.48,49.81 C58.58,50.48 59.84,51.63 58.67,52.7 C57.49,53.78 54.12,54.55 50.17,54.66 L50.21,60.07" style="fill: none;"/></g></g><g class="arrow-line"><path class="connection real" stroke-dasharray="" d="  M39.17,11.75 L50,20" style="stroke: rgb(0, 0, 0); stroke-width: 1; fill: none; fill-opacity: 1;"/></g><g class="arrow-line"><path class="connection real" stroke-dasharray="" d="  M10.67,19.75 L10.75,100" style="stroke: rgb(0, 0, 0); stroke-width: 1; fill: none; fill-opacity: 1;"/></g><g class="arrow-line"><path class="connection real" stroke-dasharray="" d="  M10.75,100 L50,100" style="stroke: rgb(0, 0, 0); stroke-width: 1; fill: none; fill-opacity: 1;"/></g><g class="arrow-line"><path class="connection real" stroke-dasharray="" d="  M10.67,19.75 L36.47,19.75" style="stroke: rgb(0, 0, 0); stroke-width: 1; fill: none; fill-opacity: 1;"/></g><g class="arrow-line"><path class="connection real" stroke-dasharray="" d="  M89.75,56.75 L109.75,56.75" style="stroke: rgb(0, 0, 0); stroke-width: 1; fill: none; fill-opacity: 1;"/></g><g class="arrow-line"><path class="connection real" stroke-dasharray="" d="  M94.75,60.75 L104.75,60.75" style="stroke: rgb(0, 0, 0); stroke-width: 2; fill: none; fill-opacity: 1;"/></g><g class="arrow-line"><path class="connection real" stroke-dasharray="" d="  M100,40 L100,57" style="stroke: rgb(0, 0, 0); stroke-width: 1; fill: none; fill-opacity: 1;"/></g><g class="arrow-line"><path class="connection real" stroke-dasharray="" d="  M50.21,90.07 L50.21,100.07" style="stroke: rgb(0, 0, 0); stroke-width: 1; fill: none; fill-opacity: 1;"/></g><g class="arrow-line"><path class="connection real" stroke-dasharray="" d="  M50,20 L50,30" style="stroke: rgb(0, 0, 0); stroke-width: 1; fill: none; fill-opacity: 1;"/></g><g/></g><g/><g/><g/></svg>
        <svg xmlns="http://www.w3.org/2000/svg" xmlns:xlink="http://www.w3.org/1999/xlink" width="223" height="106.25" style="width:223px;height:106.25px;font-family:Asana-Math, Asana;background:transparent;"><g><g><g><g transform="matrix(1,0,0,1,61.33332824707031,82.6)"><path transform="matrix(0.0136,0,0,-0.0136,0,0)" d="M105 664L161 662C185 661 196 653 196 635C196 621 192 589 187 559L112 125C96 34 94 32 54 28L13 25L9 -3L51 -2C98 0 117 0 141 0L238 -3L264 -3L267 25L218 28C191 30 182 38 182 58C182 67 183 76 186 93L287 648C316 654 336 656 363 656C450 656 496 617 496 543C496 448 418 378 314 378L270 378L267 367C401 172 432 124 507 -3C507 -3 592 0 592 0C593 0 607 -1 626 -3L639 -3L639 24C599 29 588 37 559 79L375 354C430 364 459 376 495 402C553 444 584 499 584 560C584 646 520 693 409 691L108 691Z" stroke="rgb(0,0,0)" stroke-opacity="1" stroke-width="8" fill="rgb(0,0,0)" fill-opacity="1"></path></g></g></g></g><g><g><g><g transform="matrix(1,0,0,1,64.33332824707031,46.6)"><path transform="matrix(0.0136,0,0,-0.0136,0,0)" d="M349 664L352 692L238 689C222 689 204 689 161 690L97 692L94 664L141 662C165 661 176 653 176 635L81 55C77 37 65 30 21 23L16 -3L57 -2C88 -1 150 0 170 0C170 0 467 -1 467 -1C467 -1 500 0 500 0C499 25 510 103 523 165L492 165L475 103C466 71 457 54 448 49C435 44 371 39 304 39C255 39 228 40 162 46C165 64 256 605 256 613C263 651 270 658 307 661Z" stroke="rgb(0,0,0)" stroke-opacity="1" stroke-width="8" fill="rgb(0,0,0)" fill-opacity="1"></path></g></g></g></g><g><g><g><g transform="matrix(1,0,0,1,111.33332824707031,61.6)"><path transform="matrix(0.0136,0,0,-0.0136,0,0)" d="M310 96L239 624C237 646 241 661 281 662L323 664L323 692L282 691C245 690 217 689 199 689C181 689 153 690 116 691L75 692L75 664L100 662C144 659 152 651 159 614L247 -8L296 -8L674 611C699 651 707 658 736 662L754 664L754 692L724 691C697 690 674 689 658 689C648 689 621 690 580 691L534 692L534 664L560 662C598 659 617 649 617 630C617 619 613 608 601 588Z" stroke="rgb(0,0,0)" stroke-opacity="1" stroke-width="8" fill="rgb(0,0,0)" fill-opacity="1"></path></g></g><g><g><g><g><g transform="matrix(1,0,0,1,121.54689025878906,64.3325)"><path transform="matrix(0.009519999999999999,0,0,-0.009519999999999999,0,0)" d="M31 148C26 97 20 62 9 16C47 -2 81 -11 116 -11C165 -11 211 7 262 47C313 87 334 124 334 174C334 228 302 257 228 271L185 279C125 290 106 307 106 348C106 401 151 442 208 442C249 442 287 424 303 397L303 342L326 342C330 377 334 404 345 455C306 474 278 482 245 482C193 482 132 452 84 404C58 377 47 352 47 316C47 260 78 228 144 215L207 203C251 195 267 177 267 138C267 73 221 29 150 29C115 29 84 40 56 64L56 148Z" stroke="rgb(0,0,0)" stroke-opacity="1" stroke-width="8" fill="rgb(0,0,0)" fill-opacity="1"></path></g></g></g></g></g></g></g><g><g><g><g transform="matrix(1,0,0,1,85.33332824707031,32.6)"><path transform="matrix(0.0136,0,0,-0.0136,0,0)" d="M108 471C108 386 146 339 230 319L325 296C379 283 406 248 406 191C406 96 335 30 232 30C178 30 140 42 96 73L96 172L66 172C60 117 53 72 42 20C91 -5 144 -18 197 -18C352 -18 485 99 485 234C485 313 442 355 341 377L276 391C210 405 180 442 180 508C180 595 247 658 339 658C388 658 421 645 451 613L451 537L481 537C485 591 492 629 506 672C461 696 421 706 374 706C250 706 108 614 108 471Z" stroke="rgb(0,0,0)" stroke-opacity="1" stroke-width="8" fill="rgb(0,0,0)" fill-opacity="1"></path></g></g><g><g><g><g><g transform="matrix(1,0,0,1,93.29167175292969,35.332499999999996)"><path transform="matrix(0.009519999999999999,0,0,-0.009519999999999999,0,0)" d="M418 -3L418 27L366 30C311 33 301 44 301 96L301 700L60 598L67 548L217 614L217 96C217 44 206 33 152 30L96 27L96 -3C250 0 250 0 261 0C292 0 402 -3 418 -3Z" stroke="rgb(0,0,0)" stroke-opacity="1" stroke-width="8" fill="rgb(0,0,0)" fill-opacity="1"></path></g></g></g></g></g></g></g><g><g><g><g transform="matrix(1,0,0,1,21.333328247070312,12.6)"><path transform="matrix(0.0136,0,0,-0.0136,0,0)" d="M108 471C108 386 146 339 230 319L325 296C379 283 406 248 406 191C406 96 335 30 232 30C178 30 140 42 96 73L96 172L66 172C60 117 53 72 42 20C91 -5 144 -18 197 -18C352 -18 485 99 485 234C485 313 442 355 341 377L276 391C210 405 180 442 180 508C180 595 247 658 339 658C388 658 421 645 451 613L451 537L481 537C485 591 492 629 506 672C461 696 421 706 374 706C250 706 108 614 108 471Z" stroke="rgb(0,0,0)" stroke-opacity="1" stroke-width="8" fill="rgb(0,0,0)" fill-opacity="1"></path></g></g><g><g><g><g><g transform="matrix(1,0,0,1,29.291671752929688,15.3325)"><path transform="matrix(0.009519999999999999,0,0,-0.009519999999999999,0,0)" d="M16 23L16 -3C203 -3 203 0 239 0C275 0 275 -3 468 -3L468 82C353 77 307 81 122 77L304 270C401 373 431 428 431 503C431 618 353 689 226 689C154 689 105 669 56 619L39 483L68 483L81 529C97 587 133 612 200 612C286 612 341 558 341 473C341 398 299 324 186 204Z" stroke="rgb(0,0,0)" stroke-opacity="1" stroke-width="8" fill="rgb(0,0,0)" fill-opacity="1"></path></g></g></g></g></g></g></g></svg>
</svg>
