<svg xmlns="http://www.w3.org/2000/svg" xmlns:xlink="http://www.w3.org/1999/xlink" x="0" y="0" width="316" height="214.33334350585938" style="
        width:316px;
        height:214.33334350585938px;
        background: transparent;
        fill: none;
">
        
        
        <svg xmlns="http://www.w3.org/2000/svg" class="role-diagram-draw-area"><g class="shapes-region" style="stroke: black; fill: none;"><g class="composite-shape"><path class="real" d=" M5,50 C5,46.87 7.54,44.33 10.67,44.33 C13.8,44.33 16.33,46.87 16.33,50 C16.33,53.13 13.8,55.67 10.67,55.67 C7.54,55.67 5,53.13 5,50 Z" style="stroke-width: 1; stroke: rgb(0, 0, 0); fill: none; fill-opacity: 1;"/></g><g class="composite-shape"><path class="real" d=" M11.67,50 C11.67,49.45 11.22,49 10.67,49 C10.11,49 9.67,49.45 9.67,50 C9.67,50.55 10.11,51 10.67,51 C11.22,51 11.67,50.55 11.67,50 Z" style="stroke-width: 1; stroke: rgb(0, 0, 0); fill: rgb(0, 0, 0); fill-opacity: 1;"/></g><g class="composite-shape"><path class="real" d=" M5,70 C5,66.87 7.54,64.33 10.67,64.33 C13.8,64.33 16.33,66.87 16.33,70 C16.33,73.13 13.8,75.67 10.67,75.67 C7.54,75.67 5,73.13 5,70 Z" style="stroke-width: 1; stroke: rgb(0, 0, 0); fill: none; fill-opacity: 1;"/></g><g class="composite-shape"><path class="real" d=" M11.67,70 C11.67,69.45 11.22,69 10.67,69 C10.11,69 9.67,69.45 9.67,70 C9.67,70.55 10.11,71 10.67,71 C11.22,71 11.67,70.55 11.67,70 Z" style="stroke-width: 1; stroke: rgb(0, 0, 0); fill: rgb(0, 0, 0); fill-opacity: 1;"/></g><g class="composite-shape"><path class="real" d=" M25,50 C25,46.87 27.54,44.33 30.67,44.33 C33.8,44.33 36.33,46.87 36.33,50 C36.33,53.13 33.8,55.67 30.67,55.67 C27.54,55.67 25,53.13 25,50 Z" style="stroke-width: 1; stroke: rgb(0, 0, 0); fill: none; fill-opacity: 1;"/></g><g class="composite-shape"><path class="real" d=" M31.67,50 C31.67,49.45 31.22,49 30.67,49 C30.11,49 29.67,49.45 29.67,50 C29.67,50.55 30.11,51 30.67,51 C31.22,51 31.67,50.55 31.67,50 Z" style="stroke-width: 1; stroke: rgb(0, 0, 0); fill: rgb(0, 0, 0); fill-opacity: 1;"/></g><g class="composite-shape"><path class="real" d=" M25,70 C25,66.87 27.54,64.33 30.67,64.33 C33.8,64.33 36.33,66.87 36.33,70 C36.33,73.13 33.8,75.67 30.67,75.67 C27.54,75.67 25,73.13 25,70 Z" style="stroke-width: 1; stroke: rgb(0, 0, 0); fill: none; fill-opacity: 1;"/></g><g class="composite-shape"><path class="real" d=" M31.67,70 C31.67,69.45 31.22,69 30.67,69 C30.11,69 29.67,69.45 29.67,70 C29.67,70.55 30.11,71 30.67,71 C31.22,71 31.67,70.55 31.67,70 Z" style="stroke-width: 1; stroke: rgb(0, 0, 0); fill: rgb(0, 0, 0); fill-opacity: 1;"/></g><g class="composite-shape"><path class="real" d=" M45,50 C45,46.87 47.54,44.33 50.67,44.33 C53.8,44.33 56.33,46.87 56.33,50 C56.33,53.13 53.8,55.67 50.67,55.67 C47.54,55.67 45,53.13 45,50 Z" style="stroke-width: 1; stroke: rgb(0, 0, 0); fill: none; fill-opacity: 1;"/></g><g class="composite-shape"><path class="real" d=" M51.67,50 C51.67,49.45 51.22,49 50.67,49 C50.11,49 49.67,49.45 49.67,50 C49.67,50.55 50.11,51 50.67,51 C51.22,51 51.67,50.55 51.67,50 Z" style="stroke-width: 1; stroke: rgb(0, 0, 0); fill: rgb(0, 0, 0); fill-opacity: 1;"/></g><g class="composite-shape"><path class="real" d=" M45,70 C45,66.87 47.54,64.33 50.67,64.33 C53.8,64.33 56.33,66.87 56.33,70 C56.33,73.13 53.8,75.67 50.67,75.67 C47.54,75.67 45,73.13 45,70 Z" style="stroke-width: 1; stroke: rgb(0, 0, 0); fill: none; fill-opacity: 1;"/></g><g class="composite-shape"><path class="real" d=" M51.67,70 C51.67,69.45 51.22,69 50.67,69 C50.11,69 49.67,69.45 49.67,70 C49.67,70.55 50.11,71 50.67,71 C51.22,71 51.67,70.55 51.67,70 Z" style="stroke-width: 1; stroke: rgb(0, 0, 0); fill: rgb(0, 0, 0); fill-opacity: 1;"/></g><g class="composite-shape"><path class="real" d=" M65,50 C65,46.87 67.54,44.33 70.67,44.33 C73.8,44.33 76.33,46.87 76.33,50 C76.33,53.13 73.8,55.67 70.67,55.67 C67.54,55.67 65,53.13 65,50 Z" style="stroke-width: 1; stroke: rgb(0, 0, 0); fill: none; fill-opacity: 1;"/></g><g class="composite-shape"><path class="real" d=" M71.67,50 C71.67,49.45 71.22,49 70.67,49 C70.11,49 69.67,49.45 69.67,50 C69.67,50.55 70.11,51 70.67,51 C71.22,51 71.67,50.55 71.67,50 Z" style="stroke-width: 1; stroke: rgb(0, 0, 0); fill: rgb(0, 0, 0); fill-opacity: 1;"/></g><g class="composite-shape"><path class="real" d=" M65,70 C65,66.87 67.54,64.33 70.67,64.33 C73.8,64.33 76.33,66.87 76.33,70 C76.33,73.13 73.8,75.67 70.67,75.67 C67.54,75.67 65,73.13 65,70 Z" style="stroke-width: 1; stroke: rgb(0, 0, 0); fill: none; fill-opacity: 1;"/></g><g class="composite-shape"><path class="real" d=" M71.67,70 C71.67,69.45 71.22,69 70.67,69 C70.11,69 69.67,69.45 69.67,70 C69.67,70.55 70.11,71 70.67,71 C71.22,71 71.67,70.55 71.67,70 Z" style="stroke-width: 1; stroke: rgb(0, 0, 0); fill: rgb(0, 0, 0); fill-opacity: 1;"/></g><g class="composite-shape"><path class="real" d=" M85,50 C85,46.87 87.54,44.33 90.67,44.33 C93.8,44.33 96.33,46.87 96.33,50 C96.33,53.13 93.8,55.67 90.67,55.67 C87.54,55.67 85,53.13 85,50 Z" style="stroke-width: 1; stroke: rgb(0, 0, 0); fill: none; fill-opacity: 1;"/></g><g class="composite-shape"><path class="real" d=" M91.67,50 C91.67,49.45 91.22,49 90.67,49 C90.11,49 89.67,49.45 89.67,50 C89.67,50.55 90.11,51 90.67,51 C91.22,51 91.67,50.55 91.67,50 Z" style="stroke-width: 1; stroke: rgb(0, 0, 0); fill: rgb(0, 0, 0); fill-opacity: 1;"/></g><g class="composite-shape"><path class="real" d=" M85,70 C85,66.87 87.54,64.33 90.67,64.33 C93.8,64.33 96.33,66.87 96.33,70 C96.33,73.13 93.8,75.67 90.67,75.67 C87.54,75.67 85,73.13 85,70 Z" style="stroke-width: 1; stroke: rgb(0, 0, 0); fill: none; fill-opacity: 1;"/></g><g class="composite-shape"><path class="real" d=" M91.67,70 C91.67,69.45 91.22,69 90.67,69 C90.11,69 89.67,69.45 89.67,70 C89.67,70.55 90.11,71 90.67,71 C91.22,71 91.67,70.55 91.67,70 Z" style="stroke-width: 1; stroke: rgb(0, 0, 0); fill: rgb(0, 0, 0); fill-opacity: 1;"/></g><g class="composite-shape"><path class="real" d=" M5,90 C5,86.87 7.54,84.33 10.67,84.33 C13.8,84.33 16.33,86.87 16.33,90 C16.33,93.13 13.8,95.67 10.67,95.67 C7.54,95.67 5,93.13 5,90 Z" style="stroke-width: 1; stroke: rgb(0, 0, 0); fill: none; fill-opacity: 1;"/></g><g class="composite-shape"><path class="real" d=" M11.67,90 C11.67,89.45 11.22,89 10.67,89 C10.11,89 9.67,89.45 9.67,90 C9.67,90.55 10.11,91 10.67,91 C11.22,91 11.67,90.55 11.67,90 Z" style="stroke-width: 1; stroke: rgb(0, 0, 0); fill: rgb(0, 0, 0); fill-opacity: 1;"/></g><g class="composite-shape"><path class="real" d=" M5,110 C5,106.87 7.54,104.33 10.67,104.33 C13.8,104.33 16.33,106.87 16.33,110 C16.33,113.13 13.8,115.67 10.67,115.67 C7.54,115.67 5,113.13 5,110 Z" style="stroke-width: 1; stroke: rgb(0, 0, 0); fill: none; fill-opacity: 1;"/></g><g class="composite-shape"><path class="real" d=" M11.67,110 C11.67,109.45 11.22,109 10.67,109 C10.11,109 9.67,109.45 9.67,110 C9.67,110.55 10.11,111 10.67,111 C11.22,111 11.67,110.55 11.67,110 Z" style="stroke-width: 1; stroke: rgb(0, 0, 0); fill: rgb(0, 0, 0); fill-opacity: 1;"/></g><g class="composite-shape"><path class="real" d=" M5,130 C5,126.87 7.54,124.33 10.67,124.33 C13.8,124.33 16.33,126.87 16.33,130 C16.33,133.13 13.8,135.67 10.67,135.67 C7.54,135.67 5,133.13 5,130 Z" style="stroke-width: 1; stroke: rgb(0, 0, 0); fill: none; fill-opacity: 1;"/></g><g class="composite-shape"><path class="real" d=" M11.67,130 C11.67,129.45 11.22,129 10.67,129 C10.11,129 9.67,129.45 9.67,130 C9.67,130.55 10.11,131 10.67,131 C11.22,131 11.67,130.55 11.67,130 Z" style="stroke-width: 1; stroke: rgb(0, 0, 0); fill: rgb(0, 0, 0); fill-opacity: 1;"/></g><g class="composite-shape"><path class="real" d=" M25,90 C25,86.87 27.54,84.33 30.67,84.33 C33.8,84.33 36.33,86.87 36.33,90 C36.33,93.13 33.8,95.67 30.67,95.67 C27.54,95.67 25,93.13 25,90 Z" style="stroke-width: 1; stroke: rgb(0, 0, 0); fill: none; fill-opacity: 1;"/></g><g class="composite-shape"><path class="real" d=" M31.67,90 C31.67,89.45 31.22,89 30.67,89 C30.11,89 29.67,89.45 29.67,90 C29.67,90.55 30.11,91 30.67,91 C31.22,91 31.67,90.55 31.67,90 Z" style="stroke-width: 1; stroke: rgb(0, 0, 0); fill: rgb(0, 0, 0); fill-opacity: 1;"/></g><g class="composite-shape"><path class="real" d=" M25,110 C25,106.87 27.54,104.33 30.67,104.33 C33.8,104.33 36.33,106.87 36.33,110 C36.33,113.13 33.8,115.67 30.67,115.67 C27.54,115.67 25,113.13 25,110 Z" style="stroke-width: 1; stroke: rgb(0, 0, 0); fill: none; fill-opacity: 1;"/></g><g class="composite-shape"><path class="real" d=" M31.67,110 C31.67,109.45 31.22,109 30.67,109 C30.11,109 29.67,109.45 29.67,110 C29.67,110.55 30.11,111 30.67,111 C31.22,111 31.67,110.55 31.67,110 Z" style="stroke-width: 1; stroke: rgb(0, 0, 0); fill: rgb(0, 0, 0); fill-opacity: 1;"/></g><g class="composite-shape"><path class="real" d=" M25,130 C25,126.87 27.54,124.33 30.67,124.33 C33.8,124.33 36.33,126.87 36.33,130 C36.33,133.13 33.8,135.67 30.67,135.67 C27.54,135.67 25,133.13 25,130 Z" style="stroke-width: 1; stroke: rgb(0, 0, 0); fill: none; fill-opacity: 1;"/></g><g class="composite-shape"><path class="real" d=" M31.67,130 C31.67,129.45 31.22,129 30.67,129 C30.11,129 29.67,129.45 29.67,130 C29.67,130.55 30.11,131 30.67,131 C31.22,131 31.67,130.55 31.67,130 Z" style="stroke-width: 1; stroke: rgb(0, 0, 0); fill: rgb(0, 0, 0); fill-opacity: 1;"/></g><g class="composite-shape"><path class="real" d=" M45,90 C45,86.87 47.54,84.33 50.67,84.33 C53.8,84.33 56.33,86.87 56.33,90 C56.33,93.13 53.8,95.67 50.67,95.67 C47.54,95.67 45,93.13 45,90 Z" style="stroke-width: 1; stroke: rgb(0, 0, 0); fill: none; fill-opacity: 1;"/></g><g class="composite-shape"><path class="real" d=" M51.67,90 C51.67,89.45 51.22,89 50.67,89 C50.11,89 49.67,89.45 49.67,90 C49.67,90.55 50.11,91 50.67,91 C51.22,91 51.67,90.55 51.67,90 Z" style="stroke-width: 1; stroke: rgb(0, 0, 0); fill: rgb(0, 0, 0); fill-opacity: 1;"/></g><g class="composite-shape"><path class="real" d=" M45,110 C45,106.87 47.54,104.33 50.67,104.33 C53.8,104.33 56.33,106.87 56.33,110 C56.33,113.13 53.8,115.67 50.67,115.67 C47.54,115.67 45,113.13 45,110 Z" style="stroke-width: 1; stroke: rgb(0, 0, 0); fill: none; fill-opacity: 1;"/></g><g class="composite-shape"><path class="real" d=" M51.67,110 C51.67,109.45 51.22,109 50.67,109 C50.11,109 49.67,109.45 49.67,110 C49.67,110.55 50.11,111 50.67,111 C51.22,111 51.67,110.55 51.67,110 Z" style="stroke-width: 1; stroke: rgb(0, 0, 0); fill: rgb(0, 0, 0); fill-opacity: 1;"/></g><g class="composite-shape"><path class="real" d=" M45,130 C45,126.87 47.54,124.33 50.67,124.33 C53.8,124.33 56.33,126.87 56.33,130 C56.33,133.13 53.8,135.67 50.67,135.67 C47.54,135.67 45,133.13 45,130 Z" style="stroke-width: 1; stroke: rgb(0, 0, 0); fill: none; fill-opacity: 1;"/></g><g class="composite-shape"><path class="real" d=" M51.67,130 C51.67,129.45 51.22,129 50.67,129 C50.11,129 49.67,129.45 49.67,130 C49.67,130.55 50.11,131 50.67,131 C51.22,131 51.67,130.55 51.67,130 Z" style="stroke-width: 1; stroke: rgb(0, 0, 0); fill: rgb(0, 0, 0); fill-opacity: 1;"/></g><g class="composite-shape"><path class="real" d=" M65,90 C65,86.87 67.54,84.33 70.67,84.33 C73.8,84.33 76.33,86.87 76.33,90 C76.33,93.13 73.8,95.67 70.67,95.67 C67.54,95.67 65,93.13 65,90 Z" style="stroke-width: 1; stroke: rgb(0, 0, 0); fill: none; fill-opacity: 1;"/></g><g class="composite-shape"><path class="real" d=" M71.67,90 C71.67,89.45 71.22,89 70.67,89 C70.11,89 69.67,89.45 69.67,90 C69.67,90.55 70.11,91 70.67,91 C71.22,91 71.67,90.55 71.67,90 Z" style="stroke-width: 1; stroke: rgb(0, 0, 0); fill: rgb(0, 0, 0); fill-opacity: 1;"/></g><g class="composite-shape"><path class="real" d=" M65,110 C65,106.87 67.54,104.33 70.67,104.33 C73.8,104.33 76.33,106.87 76.33,110 C76.33,113.13 73.8,115.67 70.67,115.67 C67.54,115.67 65,113.13 65,110 Z" style="stroke-width: 1; stroke: rgb(0, 0, 0); fill: none; fill-opacity: 1;"/></g><g class="composite-shape"><path class="real" d=" M71.67,110 C71.67,109.45 71.22,109 70.67,109 C70.11,109 69.67,109.45 69.67,110 C69.67,110.55 70.11,111 70.67,111 C71.22,111 71.67,110.55 71.67,110 Z" style="stroke-width: 1; stroke: rgb(0, 0, 0); fill: rgb(0, 0, 0); fill-opacity: 1;"/></g><g class="composite-shape"><path class="real" d=" M65,130 C65,126.87 67.54,124.33 70.67,124.33 C73.8,124.33 76.33,126.87 76.33,130 C76.33,133.13 73.8,135.67 70.67,135.67 C67.54,135.67 65,133.13 65,130 Z" style="stroke-width: 1; stroke: rgb(0, 0, 0); fill: none; fill-opacity: 1;"/></g><g class="composite-shape"><path class="real" d=" M71.67,130 C71.67,129.45 71.22,129 70.67,129 C70.11,129 69.67,129.45 69.67,130 C69.67,130.55 70.11,131 70.67,131 C71.22,131 71.67,130.55 71.67,130 Z" style="stroke-width: 1; stroke: rgb(0, 0, 0); fill: rgb(0, 0, 0); fill-opacity: 1;"/></g><g class="composite-shape"><path class="real" d=" M85,90 C85,86.87 87.54,84.33 90.67,84.33 C93.8,84.33 96.33,86.87 96.33,90 C96.33,93.13 93.8,95.67 90.67,95.67 C87.54,95.67 85,93.13 85,90 Z" style="stroke-width: 1; stroke: rgb(0, 0, 0); fill: none; fill-opacity: 1;"/></g><g class="composite-shape"><path class="real" d=" M91.67,90 C91.67,89.45 91.22,89 90.67,89 C90.11,89 89.67,89.45 89.67,90 C89.67,90.55 90.11,91 90.67,91 C91.22,91 91.67,90.55 91.67,90 Z" style="stroke-width: 1; stroke: rgb(0, 0, 0); fill: rgb(0, 0, 0); fill-opacity: 1;"/></g><g class="composite-shape"><path class="real" d=" M85,110 C85,106.87 87.54,104.33 90.67,104.33 C93.8,104.33 96.33,106.87 96.33,110 C96.33,113.13 93.8,115.67 90.67,115.67 C87.54,115.67 85,113.13 85,110 Z" style="stroke-width: 1; stroke: rgb(0, 0, 0); fill: none; fill-opacity: 1;"/></g><g class="composite-shape"><path class="real" d=" M91.67,110 C91.67,109.45 91.22,109 90.67,109 C90.11,109 89.67,109.45 89.67,110 C89.67,110.55 90.11,111 90.67,111 C91.22,111 91.67,110.55 91.67,110 Z" style="stroke-width: 1; stroke: rgb(0, 0, 0); fill: rgb(0, 0, 0); fill-opacity: 1;"/></g><g class="composite-shape"><path class="real" d=" M85,130 C85,126.87 87.54,124.33 90.67,124.33 C93.8,124.33 96.33,126.87 96.33,130 C96.33,133.13 93.8,135.67 90.67,135.67 C87.54,135.67 85,133.13 85,130 Z" style="stroke-width: 1; stroke: rgb(0, 0, 0); fill: none; fill-opacity: 1;"/></g><g class="composite-shape"><path class="real" d=" M91.67,130 C91.67,129.45 91.22,129 90.67,129 C90.11,129 89.67,129.45 89.67,130 C89.67,130.55 90.11,131 90.67,131 C91.22,131 91.67,130.55 91.67,130 Z" style="stroke-width: 1; stroke: rgb(0, 0, 0); fill: rgb(0, 0, 0); fill-opacity: 1;"/></g><g class="composite-shape"><path class="real" d=" M105,50 C105,46.87 107.54,44.33 110.67,44.33 C113.8,44.33 116.33,46.87 116.33,50 C116.33,53.13 113.8,55.67 110.67,55.67 C107.54,55.67 105,53.13 105,50 Z" style="stroke-width: 1; stroke: rgb(0, 0, 0); fill: none; fill-opacity: 1;"/></g><g class="composite-shape"><path class="real" d=" M111.67,50 C111.67,49.45 111.22,49 110.67,49 C110.11,49 109.67,49.45 109.67,50 C109.67,50.55 110.11,51 110.67,51 C111.22,51 111.67,50.55 111.67,50 Z" style="stroke-width: 1; stroke: rgb(0, 0, 0); fill: rgb(0, 0, 0); fill-opacity: 1;"/></g><g class="composite-shape"><path class="real" d=" M105,70 C105,66.87 107.54,64.33 110.67,64.33 C113.8,64.33 116.33,66.87 116.33,70 C116.33,73.13 113.8,75.67 110.67,75.67 C107.54,75.67 105,73.13 105,70 Z" style="stroke-width: 1; stroke: rgb(0, 0, 0); fill: none; fill-opacity: 1;"/></g><g class="composite-shape"><path class="real" d=" M111.67,70 C111.67,69.45 111.22,69 110.67,69 C110.11,69 109.67,69.45 109.67,70 C109.67,70.55 110.11,71 110.67,71 C111.22,71 111.67,70.55 111.67,70 Z" style="stroke-width: 1; stroke: rgb(0, 0, 0); fill: rgb(0, 0, 0); fill-opacity: 1;"/></g><g class="composite-shape"><path class="real" d=" M125,50 C125,46.87 127.54,44.33 130.67,44.33 C133.8,44.33 136.33,46.87 136.33,50 C136.33,53.13 133.8,55.67 130.67,55.67 C127.54,55.67 125,53.13 125,50 Z" style="stroke-width: 1; stroke: rgb(0, 0, 0); fill: none; fill-opacity: 1;"/></g><g class="composite-shape"><path class="real" d=" M131.67,50 C131.67,49.45 131.22,49 130.67,49 C130.11,49 129.67,49.45 129.67,50 C129.67,50.55 130.11,51 130.67,51 C131.22,51 131.67,50.55 131.67,50 Z" style="stroke-width: 1; stroke: rgb(0, 0, 0); fill: rgb(0, 0, 0); fill-opacity: 1;"/></g><g class="composite-shape"><path class="real" d=" M125,70 C125,66.87 127.54,64.33 130.67,64.33 C133.8,64.33 136.33,66.87 136.33,70 C136.33,73.13 133.8,75.67 130.67,75.67 C127.54,75.67 125,73.13 125,70 Z" style="stroke-width: 1; stroke: rgb(0, 0, 0); fill: none; fill-opacity: 1;"/></g><g class="composite-shape"><path class="real" d=" M131.67,70 C131.67,69.45 131.22,69 130.67,69 C130.11,69 129.67,69.45 129.67,70 C129.67,70.55 130.11,71 130.67,71 C131.22,71 131.67,70.55 131.67,70 Z" style="stroke-width: 1; stroke: rgb(0, 0, 0); fill: rgb(0, 0, 0); fill-opacity: 1;"/></g><g class="composite-shape"><path class="real" d=" M105,90 C105,86.87 107.54,84.33 110.67,84.33 C113.8,84.33 116.33,86.87 116.33,90 C116.33,93.13 113.8,95.67 110.67,95.67 C107.54,95.67 105,93.13 105,90 Z" style="stroke-width: 1; stroke: rgb(0, 0, 0); fill: none; fill-opacity: 1;"/></g><g class="composite-shape"><path class="real" d=" M111.67,90 C111.67,89.45 111.22,89 110.67,89 C110.11,89 109.67,89.45 109.67,90 C109.67,90.55 110.11,91 110.67,91 C111.22,91 111.67,90.55 111.67,90 Z" style="stroke-width: 1; stroke: rgb(0, 0, 0); fill: rgb(0, 0, 0); fill-opacity: 1;"/></g><g class="composite-shape"><path class="real" d=" M105,110 C105,106.87 107.54,104.33 110.67,104.33 C113.8,104.33 116.33,106.87 116.33,110 C116.33,113.13 113.8,115.67 110.67,115.67 C107.54,115.67 105,113.13 105,110 Z" style="stroke-width: 1; stroke: rgb(0, 0, 0); fill: none; fill-opacity: 1;"/></g><g class="composite-shape"><path class="real" d=" M111.67,110 C111.67,109.45 111.22,109 110.67,109 C110.11,109 109.67,109.45 109.67,110 C109.67,110.55 110.11,111 110.67,111 C111.22,111 111.67,110.55 111.67,110 Z" style="stroke-width: 1; stroke: rgb(0, 0, 0); fill: rgb(0, 0, 0); fill-opacity: 1;"/></g><g class="composite-shape"><path class="real" d=" M105,130 C105,126.87 107.54,124.33 110.67,124.33 C113.8,124.33 116.33,126.87 116.33,130 C116.33,133.13 113.8,135.67 110.67,135.67 C107.54,135.67 105,133.13 105,130 Z" style="stroke-width: 1; stroke: rgb(0, 0, 0); fill: none; fill-opacity: 1;"/></g><g class="composite-shape"><path class="real" d=" M111.67,130 C111.67,129.45 111.22,129 110.67,129 C110.11,129 109.67,129.45 109.67,130 C109.67,130.55 110.11,131 110.67,131 C111.22,131 111.67,130.55 111.67,130 Z" style="stroke-width: 1; stroke: rgb(0, 0, 0); fill: rgb(0, 0, 0); fill-opacity: 1;"/></g><g class="composite-shape"><path class="real" d=" M125,90 C125,86.87 127.54,84.33 130.67,84.33 C133.8,84.33 136.33,86.87 136.33,90 C136.33,93.13 133.8,95.67 130.67,95.67 C127.54,95.67 125,93.13 125,90 Z" style="stroke-width: 1; stroke: rgb(0, 0, 0); fill: none; fill-opacity: 1;"/></g><g class="composite-shape"><path class="real" d=" M131.67,90 C131.67,89.45 131.22,89 130.67,89 C130.11,89 129.67,89.45 129.67,90 C129.67,90.55 130.11,91 130.67,91 C131.22,91 131.67,90.55 131.67,90 Z" style="stroke-width: 1; stroke: rgb(0, 0, 0); fill: rgb(0, 0, 0); fill-opacity: 1;"/></g><g class="composite-shape"><path class="real" d=" M125,110 C125,106.87 127.54,104.33 130.67,104.33 C133.8,104.33 136.33,106.87 136.33,110 C136.33,113.13 133.8,115.67 130.67,115.67 C127.54,115.67 125,113.13 125,110 Z" style="stroke-width: 1; stroke: rgb(0, 0, 0); fill: none; fill-opacity: 1;"/></g><g class="composite-shape"><path class="real" d=" M131.67,110 C131.67,109.45 131.22,109 130.67,109 C130.11,109 129.67,109.45 129.67,110 C129.67,110.55 130.11,111 130.67,111 C131.22,111 131.67,110.55 131.67,110 Z" style="stroke-width: 1; stroke: rgb(0, 0, 0); fill: rgb(0, 0, 0); fill-opacity: 1;"/></g><g class="composite-shape"><path class="real" d=" M125,130 C125,126.87 127.54,124.33 130.67,124.33 C133.8,124.33 136.33,126.87 136.33,130 C136.33,133.13 133.8,135.67 130.67,135.67 C127.54,135.67 125,133.13 125,130 Z" style="stroke-width: 1; stroke: rgb(0, 0, 0); fill: none; fill-opacity: 1;"/></g><g class="composite-shape"><path class="real" d=" M131.67,130 C131.67,129.45 131.22,129 130.67,129 C130.11,129 129.67,129.45 129.67,130 C129.67,130.55 130.11,131 130.67,131 C131.22,131 131.67,130.55 131.67,130 Z" style="stroke-width: 1; stroke: rgb(0, 0, 0); fill: rgb(0, 0, 0); fill-opacity: 1;"/></g><g class="composite-shape"><path class="real" d=" M5,150 C5,146.87 7.54,144.33 10.67,144.33 C13.8,144.33 16.33,146.87 16.33,150 C16.33,153.13 13.8,155.67 10.67,155.67 C7.54,155.67 5,153.13 5,150 Z" style="stroke-width: 1; stroke: rgb(0, 0, 0); fill: none; fill-opacity: 1;"/></g><g class="composite-shape"><path class="real" d=" M11.67,150 C11.67,149.45 11.22,149 10.67,149 C10.11,149 9.67,149.45 9.67,150 C9.67,150.55 10.11,151 10.67,151 C11.22,151 11.67,150.55 11.67,150 Z" style="stroke-width: 1; stroke: rgb(0, 0, 0); fill: rgb(0, 0, 0); fill-opacity: 1;"/></g><g class="composite-shape"><path class="real" d=" M5,170 C5,166.87 7.54,164.33 10.67,164.33 C13.8,164.33 16.33,166.87 16.33,170 C16.33,173.13 13.8,175.67 10.67,175.67 C7.54,175.67 5,173.13 5,170 Z" style="stroke-width: 1; stroke: rgb(0, 0, 0); fill: none; fill-opacity: 1;"/></g><g class="composite-shape"><path class="real" d=" M11.67,170 C11.67,169.45 11.22,169 10.67,169 C10.11,169 9.67,169.45 9.67,170 C9.67,170.55 10.11,171 10.67,171 C11.22,171 11.67,170.55 11.67,170 Z" style="stroke-width: 1; stroke: rgb(0, 0, 0); fill: rgb(0, 0, 0); fill-opacity: 1;"/></g><g class="composite-shape"><path class="real" d=" M25,150 C25,146.87 27.54,144.33 30.67,144.33 C33.8,144.33 36.33,146.87 36.33,150 C36.33,153.13 33.8,155.67 30.67,155.67 C27.54,155.67 25,153.13 25,150 Z" style="stroke-width: 1; stroke: rgb(0, 0, 0); fill: none; fill-opacity: 1;"/></g><g class="composite-shape"><path class="real" d=" M31.67,150 C31.67,149.45 31.22,149 30.67,149 C30.11,149 29.67,149.45 29.67,150 C29.67,150.55 30.11,151 30.67,151 C31.22,151 31.67,150.55 31.67,150 Z" style="stroke-width: 1; stroke: rgb(0, 0, 0); fill: rgb(0, 0, 0); fill-opacity: 1;"/></g><g class="composite-shape"><path class="real" d=" M25,170 C25,166.87 27.54,164.33 30.67,164.33 C33.8,164.33 36.33,166.87 36.33,170 C36.33,173.13 33.8,175.67 30.67,175.67 C27.54,175.67 25,173.13 25,170 Z" style="stroke-width: 1; stroke: rgb(0, 0, 0); fill: none; fill-opacity: 1;"/></g><g class="composite-shape"><path class="real" d=" M31.67,170 C31.67,169.45 31.22,169 30.67,169 C30.11,169 29.67,169.45 29.67,170 C29.67,170.55 30.11,171 30.67,171 C31.22,171 31.67,170.55 31.67,170 Z" style="stroke-width: 1; stroke: rgb(0, 0, 0); fill: rgb(0, 0, 0); fill-opacity: 1;"/></g><g class="composite-shape"><path class="real" d=" M45,150 C45,146.87 47.54,144.33 50.67,144.33 C53.8,144.33 56.33,146.87 56.33,150 C56.33,153.13 53.8,155.67 50.67,155.67 C47.54,155.67 45,153.13 45,150 Z" style="stroke-width: 1; stroke: rgb(0, 0, 0); fill: none; fill-opacity: 1;"/></g><g class="composite-shape"><path class="real" d=" M51.67,150 C51.67,149.45 51.22,149 50.67,149 C50.11,149 49.67,149.45 49.67,150 C49.67,150.55 50.11,151 50.67,151 C51.22,151 51.67,150.55 51.67,150 Z" style="stroke-width: 1; stroke: rgb(0, 0, 0); fill: rgb(0, 0, 0); fill-opacity: 1;"/></g><g class="composite-shape"><path class="real" d=" M45,170 C45,166.87 47.54,164.33 50.67,164.33 C53.8,164.33 56.33,166.87 56.33,170 C56.33,173.13 53.8,175.67 50.67,175.67 C47.54,175.67 45,173.13 45,170 Z" style="stroke-width: 1; stroke: rgb(0, 0, 0); fill: none; fill-opacity: 1;"/></g><g class="composite-shape"><path class="real" d=" M51.67,170 C51.67,169.45 51.22,169 50.67,169 C50.11,169 49.67,169.45 49.67,170 C49.67,170.55 50.11,171 50.67,171 C51.22,171 51.67,170.55 51.67,170 Z" style="stroke-width: 1; stroke: rgb(0, 0, 0); fill: rgb(0, 0, 0); fill-opacity: 1;"/></g><g class="composite-shape"><path class="real" d=" M65,150 C65,146.87 67.54,144.33 70.67,144.33 C73.8,144.33 76.33,146.87 76.33,150 C76.33,153.13 73.8,155.67 70.67,155.67 C67.54,155.67 65,153.13 65,150 Z" style="stroke-width: 1; stroke: rgb(0, 0, 0); fill: none; fill-opacity: 1;"/></g><g class="composite-shape"><path class="real" d=" M71.67,150 C71.67,149.45 71.22,149 70.67,149 C70.11,149 69.67,149.45 69.67,150 C69.67,150.55 70.11,151 70.67,151 C71.22,151 71.67,150.55 71.67,150 Z" style="stroke-width: 1; stroke: rgb(0, 0, 0); fill: rgb(0, 0, 0); fill-opacity: 1;"/></g><g class="composite-shape"><path class="real" d=" M65,170 C65,166.87 67.54,164.33 70.67,164.33 C73.8,164.33 76.33,166.87 76.33,170 C76.33,173.13 73.8,175.67 70.67,175.67 C67.54,175.67 65,173.13 65,170 Z" style="stroke-width: 1; stroke: rgb(0, 0, 0); fill: none; fill-opacity: 1;"/></g><g class="composite-shape"><path class="real" d=" M71.67,170 C71.67,169.45 71.22,169 70.67,169 C70.11,169 69.67,169.45 69.67,170 C69.67,170.55 70.11,171 70.67,171 C71.22,171 71.67,170.55 71.67,170 Z" style="stroke-width: 1; stroke: rgb(0, 0, 0); fill: rgb(0, 0, 0); fill-opacity: 1;"/></g><g class="composite-shape"><path class="real" d=" M85,150 C85,146.87 87.54,144.33 90.67,144.33 C93.8,144.33 96.33,146.87 96.33,150 C96.33,153.13 93.8,155.67 90.67,155.67 C87.54,155.67 85,153.13 85,150 Z" style="stroke-width: 1; stroke: rgb(0, 0, 0); fill: none; fill-opacity: 1;"/></g><g class="composite-shape"><path class="real" d=" M91.67,150 C91.67,149.45 91.22,149 90.67,149 C90.11,149 89.67,149.45 89.67,150 C89.67,150.55 90.11,151 90.67,151 C91.22,151 91.67,150.55 91.67,150 Z" style="stroke-width: 1; stroke: rgb(0, 0, 0); fill: rgb(0, 0, 0); fill-opacity: 1;"/></g><g class="composite-shape"><path class="real" d=" M85,170 C85,166.87 87.54,164.33 90.67,164.33 C93.8,164.33 96.33,166.87 96.33,170 C96.33,173.13 93.8,175.67 90.67,175.67 C87.54,175.67 85,173.13 85,170 Z" style="stroke-width: 1; stroke: rgb(0, 0, 0); fill: none; fill-opacity: 1;"/></g><g class="composite-shape"><path class="real" d=" M91.67,170 C91.67,169.45 91.22,169 90.67,169 C90.11,169 89.67,169.45 89.67,170 C89.67,170.55 90.11,171 90.67,171 C91.22,171 91.67,170.55 91.67,170 Z" style="stroke-width: 1; stroke: rgb(0, 0, 0); fill: rgb(0, 0, 0); fill-opacity: 1;"/></g><g class="composite-shape"><path class="real" d=" M105,150 C105,146.87 107.54,144.33 110.67,144.33 C113.8,144.33 116.33,146.87 116.33,150 C116.33,153.13 113.8,155.67 110.67,155.67 C107.54,155.67 105,153.13 105,150 Z" style="stroke-width: 1; stroke: rgb(0, 0, 0); fill: none; fill-opacity: 1;"/></g><g class="composite-shape"><path class="real" d=" M111.67,150 C111.67,149.45 111.22,149 110.67,149 C110.11,149 109.67,149.45 109.67,150 C109.67,150.55 110.11,151 110.67,151 C111.22,151 111.67,150.55 111.67,150 Z" style="stroke-width: 1; stroke: rgb(0, 0, 0); fill: rgb(0, 0, 0); fill-opacity: 1;"/></g><g class="composite-shape"><path class="real" d=" M105,170 C105,166.87 107.54,164.33 110.67,164.33 C113.8,164.33 116.33,166.87 116.33,170 C116.33,173.13 113.8,175.67 110.67,175.67 C107.54,175.67 105,173.13 105,170 Z" style="stroke-width: 1; stroke: rgb(0, 0, 0); fill: none; fill-opacity: 1;"/></g><g class="composite-shape"><path class="real" d=" M111.67,170 C111.67,169.45 111.22,169 110.67,169 C110.11,169 109.67,169.45 109.67,170 C109.67,170.55 110.11,171 110.67,171 C111.22,171 111.67,170.55 111.67,170 Z" style="stroke-width: 1; stroke: rgb(0, 0, 0); fill: rgb(0, 0, 0); fill-opacity: 1;"/></g><g class="composite-shape"><path class="real" d=" M125,150 C125,146.87 127.54,144.33 130.67,144.33 C133.8,144.33 136.33,146.87 136.33,150 C136.33,153.13 133.8,155.67 130.67,155.67 C127.54,155.67 125,153.13 125,150 Z" style="stroke-width: 1; stroke: rgb(0, 0, 0); fill: none; fill-opacity: 1;"/></g><g class="composite-shape"><path class="real" d=" M131.67,150 C131.67,149.45 131.22,149 130.67,149 C130.11,149 129.67,149.45 129.67,150 C129.67,150.55 130.11,151 130.67,151 C131.22,151 131.67,150.55 131.67,150 Z" style="stroke-width: 1; stroke: rgb(0, 0, 0); fill: rgb(0, 0, 0); fill-opacity: 1;"/></g><g class="composite-shape"><path class="real" d=" M125,170 C125,166.87 127.54,164.33 130.67,164.33 C133.8,164.33 136.33,166.87 136.33,170 C136.33,173.13 133.8,175.67 130.67,175.67 C127.54,175.67 125,173.13 125,170 Z" style="stroke-width: 1; stroke: rgb(0, 0, 0); fill: none; fill-opacity: 1;"/></g><g class="composite-shape"><path class="real" d=" M131.67,170 C131.67,169.45 131.22,169 130.67,169 C130.11,169 129.67,169.45 129.67,170 C129.67,170.55 130.11,171 130.67,171 C131.22,171 131.67,170.55 131.67,170 Z" style="stroke-width: 1; stroke: rgb(0, 0, 0); fill: rgb(0, 0, 0); fill-opacity: 1;"/></g><g class="composite-shape"><path class="real" d=" M40.67,80 L100.67,80 L100.67,140 L40.67,140 Z" style="stroke-width: 3; stroke: rgb(0, 0, 0); fill: rgb(155, 155, 155); fill-opacity: 0.2;"/></g><g class="composite-shape"><path class="real" d=" M165.33,50 C165.33,46.87 167.87,44.33 171,44.33 C174.13,44.33 176.67,46.87 176.67,50 C176.67,53.13 174.13,55.67 171,55.67 C167.87,55.67 165.33,53.13 165.33,50 Z" style="stroke-width: 1; stroke: rgb(0, 0, 0); fill: none; fill-opacity: 1;"/></g><g class="composite-shape"><path class="real" d=" M172,50 C172,49.45 171.55,49 171,49 C170.45,49 170,49.45 170,50 C170,50.55 170.45,51 171,51 C171.55,51 172,50.55 172,50 Z" style="stroke-width: 1; stroke: rgb(0, 0, 0); fill: rgb(0, 0, 0); fill-opacity: 1;"/></g><g class="composite-shape"><path class="real" d=" M165.33,70 C165.33,66.87 167.87,64.33 171,64.33 C174.13,64.33 176.67,66.87 176.67,70 C176.67,73.13 174.13,75.67 171,75.67 C167.87,75.67 165.33,73.13 165.33,70 Z" style="stroke-width: 1; stroke: rgb(0, 0, 0); fill: none; fill-opacity: 1;"/></g><g class="composite-shape"><path class="real" d=" M172,70 C172,69.45 171.55,69 171,69 C170.45,69 170,69.45 170,70 C170,70.55 170.45,71 171,71 C171.55,71 172,70.55 172,70 Z" style="stroke-width: 1; stroke: rgb(0, 0, 0); fill: rgb(0, 0, 0); fill-opacity: 1;"/></g><g class="composite-shape"><path class="real" d=" M185.33,50 C185.33,46.87 187.87,44.33 191,44.33 C194.13,44.33 196.67,46.87 196.67,50 C196.67,53.13 194.13,55.67 191,55.67 C187.87,55.67 185.33,53.13 185.33,50 Z" style="stroke-width: 1; stroke: rgb(0, 0, 0); fill: none; fill-opacity: 1;"/></g><g class="composite-shape"><path class="real" d=" M192,50 C192,49.45 191.55,49 191,49 C190.45,49 190,49.45 190,50 C190,50.55 190.45,51 191,51 C191.55,51 192,50.55 192,50 Z" style="stroke-width: 1; stroke: rgb(0, 0, 0); fill: rgb(0, 0, 0); fill-opacity: 1;"/></g><g class="composite-shape"><path class="real" d=" M185.33,70 C185.33,66.87 187.87,64.33 191,64.33 C194.13,64.33 196.67,66.87 196.67,70 C196.67,73.13 194.13,75.67 191,75.67 C187.87,75.67 185.33,73.13 185.33,70 Z" style="stroke-width: 1; stroke: rgb(0, 0, 0); fill: none; fill-opacity: 1;"/></g><g class="composite-shape"><path class="real" d=" M192,70 C192,69.45 191.55,69 191,69 C190.45,69 190,69.45 190,70 C190,70.55 190.45,71 191,71 C191.55,71 192,70.55 192,70 Z" style="stroke-width: 1; stroke: rgb(0, 0, 0); fill: rgb(0, 0, 0); fill-opacity: 1;"/></g><g class="composite-shape"><path class="real" d=" M205.33,50 C205.33,46.87 207.87,44.33 211,44.33 C214.13,44.33 216.67,46.87 216.67,50 C216.67,53.13 214.13,55.67 211,55.67 C207.87,55.67 205.33,53.13 205.33,50 Z" style="stroke-width: 1; stroke: rgb(0, 0, 0); fill: none; fill-opacity: 1;"/></g><g class="composite-shape"><path class="real" d=" M212,50 C212,49.45 211.55,49 211,49 C210.45,49 210,49.45 210,50 C210,50.55 210.45,51 211,51 C211.55,51 212,50.55 212,50 Z" style="stroke-width: 1; stroke: rgb(0, 0, 0); fill: rgb(0, 0, 0); fill-opacity: 1;"/></g><g class="composite-shape"><path class="real" d=" M205.33,70 C205.33,66.87 207.87,64.33 211,64.33 C214.13,64.33 216.67,66.87 216.67,70 C216.67,73.13 214.13,75.67 211,75.67 C207.87,75.67 205.33,73.13 205.33,70 Z" style="stroke-width: 1; stroke: rgb(0, 0, 0); fill: none; fill-opacity: 1;"/></g><g class="composite-shape"><path class="real" d=" M212,70 C212,69.45 211.55,69 211,69 C210.45,69 210,69.45 210,70 C210,70.55 210.45,71 211,71 C211.55,71 212,70.55 212,70 Z" style="stroke-width: 1; stroke: rgb(0, 0, 0); fill: rgb(0, 0, 0); fill-opacity: 1;"/></g><g class="composite-shape"><path class="real" d=" M225.33,50 C225.33,46.87 227.87,44.33 231,44.33 C234.13,44.33 236.67,46.87 236.67,50 C236.67,53.13 234.13,55.67 231,55.67 C227.87,55.67 225.33,53.13 225.33,50 Z" style="stroke-width: 1; stroke: rgb(0, 0, 0); fill: none; fill-opacity: 1;"/></g><g class="composite-shape"><path class="real" d=" M232,50 C232,49.45 231.55,49 231,49 C230.45,49 230,49.45 230,50 C230,50.55 230.45,51 231,51 C231.55,51 232,50.55 232,50 Z" style="stroke-width: 1; stroke: rgb(0, 0, 0); fill: rgb(0, 0, 0); fill-opacity: 1;"/></g><g class="composite-shape"><path class="real" d=" M225.33,70 C225.33,66.87 227.87,64.33 231,64.33 C234.13,64.33 236.67,66.87 236.67,70 C236.67,73.13 234.13,75.67 231,75.67 C227.87,75.67 225.33,73.13 225.33,70 Z" style="stroke-width: 1; stroke: rgb(0, 0, 0); fill: none; fill-opacity: 1;"/></g><g class="composite-shape"><path class="real" d=" M232,70 C232,69.45 231.55,69 231,69 C230.45,69 230,69.45 230,70 C230,70.55 230.45,71 231,71 C231.55,71 232,70.55 232,70 Z" style="stroke-width: 1; stroke: rgb(0, 0, 0); fill: rgb(0, 0, 0); fill-opacity: 1;"/></g><g class="composite-shape"><path class="real" d=" M245.33,50 C245.33,46.87 247.87,44.33 251,44.33 C254.13,44.33 256.67,46.87 256.67,50 C256.67,53.13 254.13,55.67 251,55.67 C247.87,55.67 245.33,53.13 245.33,50 Z" style="stroke-width: 1; stroke: rgb(0, 0, 0); fill: none; fill-opacity: 1;"/></g><g class="composite-shape"><path class="real" d=" M252,50 C252,49.45 251.55,49 251,49 C250.45,49 250,49.45 250,50 C250,50.55 250.45,51 251,51 C251.55,51 252,50.55 252,50 Z" style="stroke-width: 1; stroke: rgb(0, 0, 0); fill: rgb(0, 0, 0); fill-opacity: 1;"/></g><g class="composite-shape"><path class="real" d=" M245.33,70 C245.33,66.87 247.87,64.33 251,64.33 C254.13,64.33 256.67,66.87 256.67,70 C256.67,73.13 254.13,75.67 251,75.67 C247.87,75.67 245.33,73.13 245.33,70 Z" style="stroke-width: 1; stroke: rgb(0, 0, 0); fill: none; fill-opacity: 1;"/></g><g class="composite-shape"><path class="real" d=" M252,70 C252,69.45 251.55,69 251,69 C250.45,69 250,69.45 250,70 C250,70.55 250.45,71 251,71 C251.55,71 252,70.55 252,70 Z" style="stroke-width: 1; stroke: rgb(0, 0, 0); fill: rgb(0, 0, 0); fill-opacity: 1;"/></g><g class="composite-shape"><path class="real" d=" M165.33,90 C165.33,86.87 167.87,84.33 171,84.33 C174.13,84.33 176.67,86.87 176.67,90 C176.67,93.13 174.13,95.67 171,95.67 C167.87,95.67 165.33,93.13 165.33,90 Z" style="stroke-width: 1; stroke: rgb(0, 0, 0); fill: none; fill-opacity: 1;"/></g><g class="composite-shape"><path class="real" d=" M172,90 C172,89.45 171.55,89 171,89 C170.45,89 170,89.45 170,90 C170,90.55 170.45,91 171,91 C171.55,91 172,90.55 172,90 Z" style="stroke-width: 1; stroke: rgb(0, 0, 0); fill: rgb(0, 0, 0); fill-opacity: 1;"/></g><g class="composite-shape"><path class="real" d=" M165.33,110 C165.33,106.87 167.87,104.33 171,104.33 C174.13,104.33 176.67,106.87 176.67,110 C176.67,113.13 174.13,115.67 171,115.67 C167.87,115.67 165.33,113.13 165.33,110 Z" style="stroke-width: 1; stroke: rgb(0, 0, 0); fill: none; fill-opacity: 1;"/></g><g class="composite-shape"><path class="real" d=" M172,110 C172,109.45 171.55,109 171,109 C170.45,109 170,109.45 170,110 C170,110.55 170.45,111 171,111 C171.55,111 172,110.55 172,110 Z" style="stroke-width: 1; stroke: rgb(0, 0, 0); fill: rgb(0, 0, 0); fill-opacity: 1;"/></g><g class="composite-shape"><path class="real" d=" M165.33,130 C165.33,126.87 167.87,124.33 171,124.33 C174.13,124.33 176.67,126.87 176.67,130 C176.67,133.13 174.13,135.67 171,135.67 C167.87,135.67 165.33,133.13 165.33,130 Z" style="stroke-width: 1; stroke: rgb(0, 0, 0); fill: none; fill-opacity: 1;"/></g><g class="composite-shape"><path class="real" d=" M172,130 C172,129.45 171.55,129 171,129 C170.45,129 170,129.45 170,130 C170,130.55 170.45,131 171,131 C171.55,131 172,130.55 172,130 Z" style="stroke-width: 1; stroke: rgb(0, 0, 0); fill: rgb(0, 0, 0); fill-opacity: 1;"/></g><g class="composite-shape"><path class="real" d=" M185.33,90 C185.33,86.87 187.87,84.33 191,84.33 C194.13,84.33 196.67,86.87 196.67,90 C196.67,93.13 194.13,95.67 191,95.67 C187.87,95.67 185.33,93.13 185.33,90 Z" style="stroke-width: 1; stroke: rgb(0, 0, 0); fill: none; fill-opacity: 1;"/></g><g class="composite-shape"><path class="real" d=" M192,90 C192,89.45 191.55,89 191,89 C190.45,89 190,89.45 190,90 C190,90.55 190.45,91 191,91 C191.55,91 192,90.55 192,90 Z" style="stroke-width: 1; stroke: rgb(0, 0, 0); fill: rgb(0, 0, 0); fill-opacity: 1;"/></g><g class="composite-shape"><path class="real" d=" M185.33,110 C185.33,106.87 187.87,104.33 191,104.33 C194.13,104.33 196.67,106.87 196.67,110 C196.67,113.13 194.13,115.67 191,115.67 C187.87,115.67 185.33,113.13 185.33,110 Z" style="stroke-width: 1; stroke: rgb(0, 0, 0); fill: none; fill-opacity: 1;"/></g><g class="composite-shape"><path class="real" d=" M192,110 C192,109.45 191.55,109 191,109 C190.45,109 190,109.45 190,110 C190,110.55 190.45,111 191,111 C191.55,111 192,110.55 192,110 Z" style="stroke-width: 1; stroke: rgb(0, 0, 0); fill: rgb(0, 0, 0); fill-opacity: 1;"/></g><g class="composite-shape"><path class="real" d=" M185.33,130 C185.33,126.87 187.87,124.33 191,124.33 C194.13,124.33 196.67,126.87 196.67,130 C196.67,133.13 194.13,135.67 191,135.67 C187.87,135.67 185.33,133.13 185.33,130 Z" style="stroke-width: 1; stroke: rgb(0, 0, 0); fill: none; fill-opacity: 1;"/></g><g class="composite-shape"><path class="real" d=" M192,130 C192,129.45 191.55,129 191,129 C190.45,129 190,129.45 190,130 C190,130.55 190.45,131 191,131 C191.55,131 192,130.55 192,130 Z" style="stroke-width: 1; stroke: rgb(0, 0, 0); fill: rgb(0, 0, 0); fill-opacity: 1;"/></g><g class="composite-shape"><path class="real" d=" M205.33,90 C205.33,86.87 207.87,84.33 211,84.33 C214.13,84.33 216.67,86.87 216.67,90 C216.67,93.13 214.13,95.67 211,95.67 C207.87,95.67 205.33,93.13 205.33,90 Z" style="stroke-width: 1; stroke: rgb(0, 0, 0); fill: none; fill-opacity: 1;"/></g><g class="composite-shape"><path class="real" d=" M212,90 C212,89.45 211.55,89 211,89 C210.45,89 210,89.45 210,90 C210,90.55 210.45,91 211,91 C211.55,91 212,90.55 212,90 Z" style="stroke-width: 1; stroke: rgb(0, 0, 0); fill: rgb(0, 0, 0); fill-opacity: 1;"/></g><g class="composite-shape"><path class="real" d=" M205.33,110 C205.33,106.87 207.87,104.33 211,104.33 C214.13,104.33 216.67,106.87 216.67,110 C216.67,113.13 214.13,115.67 211,115.67 C207.87,115.67 205.33,113.13 205.33,110 Z" style="stroke-width: 1; stroke: rgb(0, 0, 0); fill: none; fill-opacity: 1;"/></g><g class="composite-shape"><path class="real" d=" M212,110 C212,109.45 211.55,109 211,109 C210.45,109 210,109.45 210,110 C210,110.55 210.45,111 211,111 C211.55,111 212,110.55 212,110 Z" style="stroke-width: 1; stroke: rgb(0, 0, 0); fill: rgb(0, 0, 0); fill-opacity: 1;"/></g><g class="composite-shape"><path class="real" d=" M205.33,130 C205.33,126.87 207.87,124.33 211,124.33 C214.13,124.33 216.67,126.87 216.67,130 C216.67,133.13 214.13,135.67 211,135.67 C207.87,135.67 205.33,133.13 205.33,130 Z" style="stroke-width: 1; stroke: rgb(0, 0, 0); fill: none; fill-opacity: 1;"/></g><g class="composite-shape"><path class="real" d=" M212,130 C212,129.45 211.55,129 211,129 C210.45,129 210,129.45 210,130 C210,130.55 210.45,131 211,131 C211.55,131 212,130.55 212,130 Z" style="stroke-width: 1; stroke: rgb(0, 0, 0); fill: rgb(0, 0, 0); fill-opacity: 1;"/></g><g class="composite-shape"><path class="real" d=" M225.33,90 C225.33,86.87 227.87,84.33 231,84.33 C234.13,84.33 236.67,86.87 236.67,90 C236.67,93.13 234.13,95.67 231,95.67 C227.87,95.67 225.33,93.13 225.33,90 Z" style="stroke-width: 1; stroke: rgb(0, 0, 0); fill: none; fill-opacity: 1;"/></g><g class="composite-shape"><path class="real" d=" M232,90 C232,89.45 231.55,89 231,89 C230.45,89 230,89.45 230,90 C230,90.55 230.45,91 231,91 C231.55,91 232,90.55 232,90 Z" style="stroke-width: 1; stroke: rgb(0, 0, 0); fill: rgb(0, 0, 0); fill-opacity: 1;"/></g><g class="composite-shape"><path class="real" d=" M225.33,110 C225.33,106.87 227.87,104.33 231,104.33 C234.13,104.33 236.67,106.87 236.67,110 C236.67,113.13 234.13,115.67 231,115.67 C227.87,115.67 225.33,113.13 225.33,110 Z" style="stroke-width: 1; stroke: rgb(0, 0, 0); fill: none; fill-opacity: 1;"/></g><g class="composite-shape"><path class="real" d=" M232,110 C232,109.45 231.55,109 231,109 C230.45,109 230,109.45 230,110 C230,110.55 230.45,111 231,111 C231.55,111 232,110.55 232,110 Z" style="stroke-width: 1; stroke: rgb(0, 0, 0); fill: rgb(0, 0, 0); fill-opacity: 1;"/></g><g class="composite-shape"><path class="real" d=" M225.33,130 C225.33,126.87 227.87,124.33 231,124.33 C234.13,124.33 236.67,126.87 236.67,130 C236.67,133.13 234.13,135.67 231,135.67 C227.87,135.67 225.33,133.13 225.33,130 Z" style="stroke-width: 1; stroke: rgb(0, 0, 0); fill: none; fill-opacity: 1;"/></g><g class="composite-shape"><path class="real" d=" M232,130 C232,129.45 231.55,129 231,129 C230.45,129 230,129.45 230,130 C230,130.55 230.45,131 231,131 C231.55,131 232,130.55 232,130 Z" style="stroke-width: 1; stroke: rgb(0, 0, 0); fill: rgb(0, 0, 0); fill-opacity: 1;"/></g><g class="composite-shape"><path class="real" d=" M245.33,90 C245.33,86.87 247.87,84.33 251,84.33 C254.13,84.33 256.67,86.87 256.67,90 C256.67,93.13 254.13,95.67 251,95.67 C247.87,95.67 245.33,93.13 245.33,90 Z" style="stroke-width: 1; stroke: rgb(0, 0, 0); fill: none; fill-opacity: 1;"/></g><g class="composite-shape"><path class="real" d=" M252,90 C252,89.45 251.55,89 251,89 C250.45,89 250,89.45 250,90 C250,90.55 250.45,91 251,91 C251.55,91 252,90.55 252,90 Z" style="stroke-width: 1; stroke: rgb(0, 0, 0); fill: rgb(0, 0, 0); fill-opacity: 1;"/></g><g class="composite-shape"><path class="real" d=" M245.33,110 C245.33,106.87 247.87,104.33 251,104.33 C254.13,104.33 256.67,106.87 256.67,110 C256.67,113.13 254.13,115.67 251,115.67 C247.87,115.67 245.33,113.13 245.33,110 Z" style="stroke-width: 1; stroke: rgb(0, 0, 0); fill: none; fill-opacity: 1;"/></g><g class="composite-shape"><path class="real" d=" M252,110 C252,109.45 251.55,109 251,109 C250.45,109 250,109.45 250,110 C250,110.55 250.45,111 251,111 C251.55,111 252,110.55 252,110 Z" style="stroke-width: 1; stroke: rgb(0, 0, 0); fill: rgb(0, 0, 0); fill-opacity: 1;"/></g><g class="composite-shape"><path class="real" d=" M245.33,130 C245.33,126.87 247.87,124.33 251,124.33 C254.13,124.33 256.67,126.87 256.67,130 C256.67,133.13 254.13,135.67 251,135.67 C247.87,135.67 245.33,133.13 245.33,130 Z" style="stroke-width: 1; stroke: rgb(0, 0, 0); fill: none; fill-opacity: 1;"/></g><g class="composite-shape"><path class="real" d=" M252,130 C252,129.45 251.55,129 251,129 C250.45,129 250,129.45 250,130 C250,130.55 250.45,131 251,131 C251.55,131 252,130.55 252,130 Z" style="stroke-width: 1; stroke: rgb(0, 0, 0); fill: rgb(0, 0, 0); fill-opacity: 1;"/></g><g class="composite-shape"><path class="real" d=" M265.33,50 C265.33,46.87 267.87,44.33 271,44.33 C274.13,44.33 276.67,46.87 276.67,50 C276.67,53.13 274.13,55.67 271,55.67 C267.87,55.67 265.33,53.13 265.33,50 Z" style="stroke-width: 1; stroke: rgb(0, 0, 0); fill: none; fill-opacity: 1;"/></g><g class="composite-shape"><path class="real" d=" M272,50 C272,49.45 271.55,49 271,49 C270.45,49 270,49.45 270,50 C270,50.55 270.45,51 271,51 C271.55,51 272,50.55 272,50 Z" style="stroke-width: 1; stroke: rgb(0, 0, 0); fill: rgb(0, 0, 0); fill-opacity: 1;"/></g><g class="composite-shape"><path class="real" d=" M265.33,70 C265.33,66.87 267.87,64.33 271,64.33 C274.13,64.33 276.67,66.87 276.67,70 C276.67,73.13 274.13,75.67 271,75.67 C267.87,75.67 265.33,73.13 265.33,70 Z" style="stroke-width: 1; stroke: rgb(0, 0, 0); fill: none; fill-opacity: 1;"/></g><g class="composite-shape"><path class="real" d=" M272,70 C272,69.45 271.55,69 271,69 C270.45,69 270,69.45 270,70 C270,70.55 270.45,71 271,71 C271.55,71 272,70.55 272,70 Z" style="stroke-width: 1; stroke: rgb(0, 0, 0); fill: rgb(0, 0, 0); fill-opacity: 1;"/></g><g class="composite-shape"><path class="real" d=" M285.33,50 C285.33,46.87 287.87,44.33 291,44.33 C294.13,44.33 296.67,46.87 296.67,50 C296.67,53.13 294.13,55.67 291,55.67 C287.87,55.67 285.33,53.13 285.33,50 Z" style="stroke-width: 1; stroke: rgb(0, 0, 0); fill: none; fill-opacity: 1;"/></g><g class="composite-shape"><path class="real" d=" M292,50 C292,49.45 291.55,49 291,49 C290.45,49 290,49.45 290,50 C290,50.55 290.45,51 291,51 C291.55,51 292,50.55 292,50 Z" style="stroke-width: 1; stroke: rgb(0, 0, 0); fill: rgb(0, 0, 0); fill-opacity: 1;"/></g><g class="composite-shape"><path class="real" d=" M285.33,70 C285.33,66.87 287.87,64.33 291,64.33 C294.13,64.33 296.67,66.87 296.67,70 C296.67,73.13 294.13,75.67 291,75.67 C287.87,75.67 285.33,73.13 285.33,70 Z" style="stroke-width: 1; stroke: rgb(0, 0, 0); fill: none; fill-opacity: 1;"/></g><g class="composite-shape"><path class="real" d=" M292,70 C292,69.45 291.55,69 291,69 C290.45,69 290,69.45 290,70 C290,70.55 290.45,71 291,71 C291.55,71 292,70.55 292,70 Z" style="stroke-width: 1; stroke: rgb(0, 0, 0); fill: rgb(0, 0, 0); fill-opacity: 1;"/></g><g class="composite-shape"><path class="real" d=" M265.33,90 C265.33,86.87 267.87,84.33 271,84.33 C274.13,84.33 276.67,86.87 276.67,90 C276.67,93.13 274.13,95.67 271,95.67 C267.87,95.67 265.33,93.13 265.33,90 Z" style="stroke-width: 1; stroke: rgb(0, 0, 0); fill: none; fill-opacity: 1;"/></g><g class="composite-shape"><path class="real" d=" M272,90 C272,89.45 271.55,89 271,89 C270.45,89 270,89.45 270,90 C270,90.55 270.45,91 271,91 C271.55,91 272,90.55 272,90 Z" style="stroke-width: 1; stroke: rgb(0, 0, 0); fill: rgb(0, 0, 0); fill-opacity: 1;"/></g><g class="composite-shape"><path class="real" d=" M265.33,110 C265.33,106.87 267.87,104.33 271,104.33 C274.13,104.33 276.67,106.87 276.67,110 C276.67,113.13 274.13,115.67 271,115.67 C267.87,115.67 265.33,113.13 265.33,110 Z" style="stroke-width: 1; stroke: rgb(0, 0, 0); fill: none; fill-opacity: 1;"/></g><g class="composite-shape"><path class="real" d=" M272,110 C272,109.45 271.55,109 271,109 C270.45,109 270,109.45 270,110 C270,110.55 270.45,111 271,111 C271.55,111 272,110.55 272,110 Z" style="stroke-width: 1; stroke: rgb(0, 0, 0); fill: rgb(0, 0, 0); fill-opacity: 1;"/></g><g class="composite-shape"><path class="real" d=" M265.33,130 C265.33,126.87 267.87,124.33 271,124.33 C274.13,124.33 276.67,126.87 276.67,130 C276.67,133.13 274.13,135.67 271,135.67 C267.87,135.67 265.33,133.13 265.33,130 Z" style="stroke-width: 1; stroke: rgb(0, 0, 0); fill: none; fill-opacity: 1;"/></g><g class="composite-shape"><path class="real" d=" M272,130 C272,129.45 271.55,129 271,129 C270.45,129 270,129.45 270,130 C270,130.55 270.45,131 271,131 C271.55,131 272,130.55 272,130 Z" style="stroke-width: 1; stroke: rgb(0, 0, 0); fill: rgb(0, 0, 0); fill-opacity: 1;"/></g><g class="composite-shape"><path class="real" d=" M285.33,90 C285.33,86.87 287.87,84.33 291,84.33 C294.13,84.33 296.67,86.87 296.67,90 C296.67,93.13 294.13,95.67 291,95.67 C287.87,95.67 285.33,93.13 285.33,90 Z" style="stroke-width: 1; stroke: rgb(0, 0, 0); fill: none; fill-opacity: 1;"/></g><g class="composite-shape"><path class="real" d=" M292,90 C292,89.45 291.55,89 291,89 C290.45,89 290,89.45 290,90 C290,90.55 290.45,91 291,91 C291.55,91 292,90.55 292,90 Z" style="stroke-width: 1; stroke: rgb(0, 0, 0); fill: rgb(0, 0, 0); fill-opacity: 1;"/></g><g class="composite-shape"><path class="real" d=" M285.33,110 C285.33,106.87 287.87,104.33 291,104.33 C294.13,104.33 296.67,106.87 296.67,110 C296.67,113.13 294.13,115.67 291,115.67 C287.87,115.67 285.33,113.13 285.33,110 Z" style="stroke-width: 1; stroke: rgb(0, 0, 0); fill: none; fill-opacity: 1;"/></g><g class="composite-shape"><path class="real" d=" M292,110 C292,109.45 291.55,109 291,109 C290.45,109 290,109.45 290,110 C290,110.55 290.45,111 291,111 C291.55,111 292,110.55 292,110 Z" style="stroke-width: 1; stroke: rgb(0, 0, 0); fill: rgb(0, 0, 0); fill-opacity: 1;"/></g><g class="composite-shape"><path class="real" d=" M285.33,130 C285.33,126.87 287.87,124.33 291,124.33 C294.13,124.33 296.67,126.87 296.67,130 C296.67,133.13 294.13,135.67 291,135.67 C287.87,135.67 285.33,133.13 285.33,130 Z" style="stroke-width: 1; stroke: rgb(0, 0, 0); fill: none; fill-opacity: 1;"/></g><g class="composite-shape"><path class="real" d=" M292,130 C292,129.45 291.55,129 291,129 C290.45,129 290,129.45 290,130 C290,130.55 290.45,131 291,131 C291.55,131 292,130.55 292,130 Z" style="stroke-width: 1; stroke: rgb(0, 0, 0); fill: rgb(0, 0, 0); fill-opacity: 1;"/></g><g class="composite-shape"><path class="real" d=" M165.33,150 C165.33,146.87 167.87,144.33 171,144.33 C174.13,144.33 176.67,146.87 176.67,150 C176.67,153.13 174.13,155.67 171,155.67 C167.87,155.67 165.33,153.13 165.33,150 Z" style="stroke-width: 1; stroke: rgb(0, 0, 0); fill: none; fill-opacity: 1;"/></g><g class="composite-shape"><path class="real" d=" M172,150 C172,149.45 171.55,149 171,149 C170.45,149 170,149.45 170,150 C170,150.55 170.45,151 171,151 C171.55,151 172,150.55 172,150 Z" style="stroke-width: 1; stroke: rgb(0, 0, 0); fill: rgb(0, 0, 0); fill-opacity: 1;"/></g><g class="composite-shape"><path class="real" d=" M165.33,170 C165.33,166.87 167.87,164.33 171,164.33 C174.13,164.33 176.67,166.87 176.67,170 C176.67,173.13 174.13,175.67 171,175.67 C167.87,175.67 165.33,173.13 165.33,170 Z" style="stroke-width: 1; stroke: rgb(0, 0, 0); fill: none; fill-opacity: 1;"/></g><g class="composite-shape"><path class="real" d=" M172,170 C172,169.45 171.55,169 171,169 C170.45,169 170,169.45 170,170 C170,170.55 170.45,171 171,171 C171.55,171 172,170.55 172,170 Z" style="stroke-width: 1; stroke: rgb(0, 0, 0); fill: rgb(0, 0, 0); fill-opacity: 1;"/></g><g class="composite-shape"><path class="real" d=" M185.33,150 C185.33,146.87 187.87,144.33 191,144.33 C194.13,144.33 196.67,146.87 196.67,150 C196.67,153.13 194.13,155.67 191,155.67 C187.87,155.67 185.33,153.13 185.33,150 Z" style="stroke-width: 1; stroke: rgb(0, 0, 0); fill: none; fill-opacity: 1;"/></g><g class="composite-shape"><path class="real" d=" M192,150 C192,149.45 191.55,149 191,149 C190.45,149 190,149.45 190,150 C190,150.55 190.45,151 191,151 C191.55,151 192,150.55 192,150 Z" style="stroke-width: 1; stroke: rgb(0, 0, 0); fill: rgb(0, 0, 0); fill-opacity: 1;"/></g><g class="composite-shape"><path class="real" d=" M185.33,170 C185.33,166.87 187.87,164.33 191,164.33 C194.13,164.33 196.67,166.87 196.67,170 C196.67,173.13 194.13,175.67 191,175.67 C187.87,175.67 185.33,173.13 185.33,170 Z" style="stroke-width: 1; stroke: rgb(0, 0, 0); fill: none; fill-opacity: 1;"/></g><g class="composite-shape"><path class="real" d=" M192,170 C192,169.45 191.55,169 191,169 C190.45,169 190,169.45 190,170 C190,170.55 190.45,171 191,171 C191.55,171 192,170.55 192,170 Z" style="stroke-width: 1; stroke: rgb(0, 0, 0); fill: rgb(0, 0, 0); fill-opacity: 1;"/></g><g class="composite-shape"><path class="real" d=" M205.33,150 C205.33,146.87 207.87,144.33 211,144.33 C214.13,144.33 216.67,146.87 216.67,150 C216.67,153.13 214.13,155.67 211,155.67 C207.87,155.67 205.33,153.13 205.33,150 Z" style="stroke-width: 1; stroke: rgb(0, 0, 0); fill: none; fill-opacity: 1;"/></g><g class="composite-shape"><path class="real" d=" M212,150 C212,149.45 211.55,149 211,149 C210.45,149 210,149.45 210,150 C210,150.55 210.45,151 211,151 C211.55,151 212,150.55 212,150 Z" style="stroke-width: 1; stroke: rgb(0, 0, 0); fill: rgb(0, 0, 0); fill-opacity: 1;"/></g><g class="composite-shape"><path class="real" d=" M205.33,170 C205.33,166.87 207.87,164.33 211,164.33 C214.13,164.33 216.67,166.87 216.67,170 C216.67,173.13 214.13,175.67 211,175.67 C207.87,175.67 205.33,173.13 205.33,170 Z" style="stroke-width: 1; stroke: rgb(0, 0, 0); fill: none; fill-opacity: 1;"/></g><g class="composite-shape"><path class="real" d=" M212,170 C212,169.45 211.55,169 211,169 C210.45,169 210,169.45 210,170 C210,170.55 210.45,171 211,171 C211.55,171 212,170.55 212,170 Z" style="stroke-width: 1; stroke: rgb(0, 0, 0); fill: rgb(0, 0, 0); fill-opacity: 1;"/></g><g class="composite-shape"><path class="real" d=" M225.33,150 C225.33,146.87 227.87,144.33 231,144.33 C234.13,144.33 236.67,146.87 236.67,150 C236.67,153.13 234.13,155.67 231,155.67 C227.87,155.67 225.33,153.13 225.33,150 Z" style="stroke-width: 1; stroke: rgb(0, 0, 0); fill: none; fill-opacity: 1;"/></g><g class="composite-shape"><path class="real" d=" M232,150 C232,149.45 231.55,149 231,149 C230.45,149 230,149.45 230,150 C230,150.55 230.45,151 231,151 C231.55,151 232,150.55 232,150 Z" style="stroke-width: 1; stroke: rgb(0, 0, 0); fill: rgb(0, 0, 0); fill-opacity: 1;"/></g><g class="composite-shape"><path class="real" d=" M225.33,170 C225.33,166.87 227.87,164.33 231,164.33 C234.13,164.33 236.67,166.87 236.67,170 C236.67,173.13 234.13,175.67 231,175.67 C227.87,175.67 225.33,173.13 225.33,170 Z" style="stroke-width: 1; stroke: rgb(0, 0, 0); fill: none; fill-opacity: 1;"/></g><g class="composite-shape"><path class="real" d=" M232,170 C232,169.45 231.55,169 231,169 C230.45,169 230,169.45 230,170 C230,170.55 230.45,171 231,171 C231.55,171 232,170.55 232,170 Z" style="stroke-width: 1; stroke: rgb(0, 0, 0); fill: rgb(0, 0, 0); fill-opacity: 1;"/></g><g class="composite-shape"><path class="real" d=" M245.33,150 C245.33,146.87 247.87,144.33 251,144.33 C254.13,144.33 256.67,146.87 256.67,150 C256.67,153.13 254.13,155.67 251,155.67 C247.87,155.67 245.33,153.13 245.33,150 Z" style="stroke-width: 1; stroke: rgb(0, 0, 0); fill: none; fill-opacity: 1;"/></g><g class="composite-shape"><path class="real" d=" M252,150 C252,149.45 251.55,149 251,149 C250.45,149 250,149.45 250,150 C250,150.55 250.45,151 251,151 C251.55,151 252,150.55 252,150 Z" style="stroke-width: 1; stroke: rgb(0, 0, 0); fill: rgb(0, 0, 0); fill-opacity: 1;"/></g><g class="composite-shape"><path class="real" d=" M245.33,170 C245.33,166.87 247.87,164.33 251,164.33 C254.13,164.33 256.67,166.87 256.67,170 C256.67,173.13 254.13,175.67 251,175.67 C247.87,175.67 245.33,173.13 245.33,170 Z" style="stroke-width: 1; stroke: rgb(0, 0, 0); fill: none; fill-opacity: 1;"/></g><g class="composite-shape"><path class="real" d=" M252,170 C252,169.45 251.55,169 251,169 C250.45,169 250,169.45 250,170 C250,170.55 250.45,171 251,171 C251.55,171 252,170.55 252,170 Z" style="stroke-width: 1; stroke: rgb(0, 0, 0); fill: rgb(0, 0, 0); fill-opacity: 1;"/></g><g class="composite-shape"><path class="real" d=" M265.33,150 C265.33,146.87 267.87,144.33 271,144.33 C274.13,144.33 276.67,146.87 276.67,150 C276.67,153.13 274.13,155.67 271,155.67 C267.87,155.67 265.33,153.13 265.33,150 Z" style="stroke-width: 1; stroke: rgb(0, 0, 0); fill: none; fill-opacity: 1;"/></g><g class="composite-shape"><path class="real" d=" M272,150 C272,149.45 271.55,149 271,149 C270.45,149 270,149.45 270,150 C270,150.55 270.45,151 271,151 C271.55,151 272,150.55 272,150 Z" style="stroke-width: 1; stroke: rgb(0, 0, 0); fill: rgb(0, 0, 0); fill-opacity: 1;"/></g><g class="composite-shape"><path class="real" d=" M265.33,170 C265.33,166.87 267.87,164.33 271,164.33 C274.13,164.33 276.67,166.87 276.67,170 C276.67,173.13 274.13,175.67 271,175.67 C267.87,175.67 265.33,173.13 265.33,170 Z" style="stroke-width: 1; stroke: rgb(0, 0, 0); fill: none; fill-opacity: 1;"/></g><g class="composite-shape"><path class="real" d=" M272,170 C272,169.45 271.55,169 271,169 C270.45,169 270,169.45 270,170 C270,170.55 270.45,171 271,171 C271.55,171 272,170.55 272,170 Z" style="stroke-width: 1; stroke: rgb(0, 0, 0); fill: rgb(0, 0, 0); fill-opacity: 1;"/></g><g class="composite-shape"><path class="real" d=" M285.33,150 C285.33,146.87 287.87,144.33 291,144.33 C294.13,144.33 296.67,146.87 296.67,150 C296.67,153.13 294.13,155.67 291,155.67 C287.87,155.67 285.33,153.13 285.33,150 Z" style="stroke-width: 1; stroke: rgb(0, 0, 0); fill: none; fill-opacity: 1;"/></g><g class="composite-shape"><path class="real" d=" M292,150 C292,149.45 291.55,149 291,149 C290.45,149 290,149.45 290,150 C290,150.55 290.45,151 291,151 C291.55,151 292,150.55 292,150 Z" style="stroke-width: 1; stroke: rgb(0, 0, 0); fill: rgb(0, 0, 0); fill-opacity: 1;"/></g><g class="composite-shape"><path class="real" d=" M285.33,170 C285.33,166.87 287.87,164.33 291,164.33 C294.13,164.33 296.67,166.87 296.67,170 C296.67,173.13 294.13,175.67 291,175.67 C287.87,175.67 285.33,173.13 285.33,170 Z" style="stroke-width: 1; stroke: rgb(0, 0, 0); fill: none; fill-opacity: 1;"/></g><g class="composite-shape"><path class="real" d=" M292,170 C292,169.45 291.55,169 291,169 C290.45,169 290,169.45 290,170 C290,170.55 290.45,171 291,171 C291.55,171 292,170.55 292,170 Z" style="stroke-width: 1; stroke: rgb(0, 0, 0); fill: rgb(0, 0, 0); fill-opacity: 1;"/></g><g class="composite-shape"><path class="real" d=" M181.94,60.44 L280.94,60.44 L280.94,160.11 L181.94,160.11 Z" style="stroke-width: 3; stroke: rgb(0, 0, 0); fill: rgb(155, 155, 155); fill-opacity: 0.2;"/></g><g/></g><g/><g/><g/></svg>
        <svg xmlns="http://www.w3.org/2000/svg" xmlns:xlink="http://www.w3.org/1999/xlink" width="314" height="212.33334350585938" style="width:314px;height:212.33334350585938px;font-family:Asana-Math, Asana;background:transparent;"><g><g><g><g transform="matrix(1,0,0,1,47.66668701171875,200.33334350585938)"><path transform="matrix(0.017,0,0,-0.017,0,0)" d="M125 390L69 107C68 99 56 61 56 31C56 6 67 -9 86 -9C121 -9 156 11 234 74L265 99L255 117L210 86C181 66 161 56 150 56C141 56 136 64 136 76C136 102 150 183 179 328L192 390L299 390L310 440C272 436 238 434 200 434C216 528 227 577 245 631L234 646C214 634 187 622 156 610L131 440C87 419 61 408 43 403L41 390Z" stroke="rgb(0,0,0)" stroke-opacity="1" stroke-width="8" fill="rgb(0,0,0)" fill-opacity="1"></path></g></g><g><g transform="matrix(1,0,0,1,58.4114990234375,200.33334350585938)"><path transform="matrix(0.017,0,0,-0.017,0,0)" d="M604 347L604 406L65 406L65 347ZM604 134L604 193L65 193L65 134Z" stroke="rgb(0,0,0)" stroke-opacity="1" stroke-width="8" fill="rgb(0,0,0)" fill-opacity="1"></path></g></g><g><g transform="matrix(1,0,0,1,74.86981201171875,200.33334350585938)"><path transform="matrix(0.017,0,0,-0.017,0,0)" d="M263 689C108 689 29 566 29 324C29 207 50 106 85 57C120 8 176 -20 238 -20C389 -20 465 110 465 366C465 585 400 689 263 689ZM245 654C342 654 381 556 381 316C381 103 343 15 251 15C154 15 113 116 113 360C113 571 150 654 245 654Z" stroke="rgb(0,0,0)" stroke-opacity="1" stroke-width="8" fill="rgb(0,0,0)" fill-opacity="1"></path></g></g></g></g><g><g><g><g transform="matrix(1,0,0,1,218,200.66668701171875)"><path transform="matrix(0.017,0,0,-0.017,0,0)" d="M125 390L69 107C68 99 56 61 56 31C56 6 67 -9 86 -9C121 -9 156 11 234 74L265 99L255 117L210 86C181 66 161 56 150 56C141 56 136 64 136 76C136 102 150 183 179 328L192 390L299 390L310 440C272 436 238 434 200 434C216 528 227 577 245 631L234 646C214 634 187 622 156 610L131 440C87 419 61 408 43 403L41 390Z" stroke="rgb(0,0,0)" stroke-opacity="1" stroke-width="8" fill="rgb(0,0,0)" fill-opacity="1"></path></g></g><g><g transform="matrix(1,0,0,1,228.74481201171875,200.66668701171875)"><path transform="matrix(0.017,0,0,-0.017,0,0)" d="M604 347L604 406L65 406L65 347ZM604 134L604 193L65 193L65 134Z" stroke="rgb(0,0,0)" stroke-opacity="1" stroke-width="8" fill="rgb(0,0,0)" fill-opacity="1"></path></g></g><g><g transform="matrix(1,0,0,1,245.203125,200.66668701171875)"><path transform="matrix(0.017,0,0,-0.017,0,0)" d="M-33 6L-28 -4C79 0 185 0 292 0C393 0 494 -1 594 -4L602 6C560 116 534 238 504 354C475 466 442 580 424 697L399 697C336 587 53 127 -33 6ZM482 37L50 37C148 215 249 389 356 564L363 564C408 391 449 215 482 37ZM813 390L757 107C756 99 744 61 744 31C744 6 755 -9 774 -9C809 -9 844 11 922 74L953 99L943 117L898 86C869 66 849 56 838 56C829 56 824 64 824 76C824 102 838 183 867 328L880 390L987 390L998 440C960 436 926 434 888 434C904 528 915 577 933 631L922 646C902 634 875 622 844 610L819 440C775 419 749 408 731 403L729 390Z" stroke="rgb(0,0,0)" stroke-opacity="1" stroke-width="8" fill="rgb(0,0,0)" fill-opacity="1"></path></g></g></g></g><g><g><g><g transform="matrix(1,0,0,1,128,18.328125)"><path transform="matrix(0.017,0,0,-0.017,0,0)" d="M298 -3C508 -3 576 134 576 228C576 279 556 320 518 347C480 375 446 384 369 390C418 400 441 409 469 428C517 461 542 504 542 556C542 644 479 692 363 692L338 692C199 689 199 689 184 689C165 689 165 689 26 692L26 662L62 659C109 655 113 648 113 569L113 95C113 58 105 36 91 30L65 20L65 -3C134 -1 155 0 174 0C199 0 261 -3 298 -3ZM208 362C247 364 256 364 275 364C410 364 473 315 473 208C473 102 404 39 285 39C256 39 233 41 208 47ZM208 644C234 650 257 652 289 652C396 652 443 616 443 533C443 446 383 399 269 399C252 399 239 399 208 401Z" stroke="rgb(0,0,0)" stroke-opacity="1" stroke-width="24" fill="rgb(0,0,0)" fill-opacity="1"></path></g></g><g><g><g><g><g><g><g><text x="138.8802490234375" y="11.43231201171875" style="white-space:pre;stroke:none;fill:rgb(0,0,0);fill-opacity:1;font-size:10.5px;font-family:Arial, Helvetica, sans-serif;font-weight:400;font-style:normal;dominant-baseline:text-before-edge;text-decoration:none solid rgb(0, 0, 0);">ext</text></g></g></g></g></g></g></g></g></g><g><g><g><g transform="matrix(1,0,0,1,112.078125,18.733343505859374)"><path transform="matrix(0.020399999999999998,0,0,-0.020399999999999998,0,0)" d="M652 271C652 445 509 587 335 587C160 587 18 445 18 271C18 96 160 -46 335 -46C509 -46 652 96 652 271ZM604 271C604 122 482 1 335 1C186 1 65 122 65 271C65 419 186 540 335 540C482 540 604 419 604 271ZM393 271C393 301 365 329 334 329C304 329 277 301 277 271C277 241 303 213 334 213C366 213 393 241 393 271Z" stroke="rgb(0,0,0)" stroke-opacity="1" stroke-width="8" fill="rgb(0,0,0)" fill-opacity="1"></path></g></g></g></g><g><g><g><g transform="matrix(1,0,0,1,158,15.9)"><path transform="matrix(0.0119,0,0,-0.0119,0,0)" d="M1235 259C1235 576 977 833 660 833C343 833 86 576 86 259C86 -56 343 -316 660 -316C977 -316 1235 -56 1235 259ZM1181 259C1181 132 1136 15 1045 -88L704 253L1053 601C1138 497 1181 384 1181 259ZM1008 647L658 298L312 645C415 734 532 779 660 779C785 779 902 734 1008 647ZM1001 -131C897 -216 782 -264 660 -264C537 -264 424 -216 320 -133L660 209ZM614 254L273 -89C185 17 140 132 140 259C140 384 183 497 268 601Z" stroke="rgb(0,0,255)" stroke-opacity="1" stroke-width="8" fill="rgb(0,0,255)" fill-opacity="1"></path></g></g></g></g><g><g><g><g transform="matrix(1,0,0,1,175,18.328125)"><path transform="matrix(0.017,0,0,-0.017,0,0)" d="M298 -3C508 -3 576 134 576 228C576 279 556 320 518 347C480 375 446 384 369 390C418 400 441 409 469 428C517 461 542 504 542 556C542 644 479 692 363 692L338 692C199 689 199 689 184 689C165 689 165 689 26 692L26 662L62 659C109 655 113 648 113 569L113 95C113 58 105 36 91 30L65 20L65 -3C134 -1 155 0 174 0C199 0 261 -3 298 -3ZM208 362C247 364 256 364 275 364C410 364 473 315 473 208C473 102 404 39 285 39C256 39 233 41 208 47ZM208 644C234 650 257 652 289 652C396 652 443 616 443 533C443 446 383 399 269 399C252 399 239 399 208 401Z" stroke="rgb(0,0,255)" stroke-opacity="1" stroke-width="24" fill="rgb(0,0,255)" fill-opacity="1"></path></g></g><g><g><g><g><g transform="matrix(1,0,0,1,185.8802490234375,20.998968505859374)"><path transform="matrix(0.0119,0,0,-0.0119,0,0)" d="M188 465L179 469C128 448 76 434 23 428L23 400L60 400C100 400 104 393 104 327L104 102C104 39 101 32 67 30L21 27L21 -3C121 0 121 0 146 0C171 0 171 0 271 -3L271 27L225 30C191 32 188 39 188 102ZM142 687C112 687 86 661 86 631C86 602 112 576 141 576C170 576 197 602 197 631C197 659 170 687 142 687ZM700 -3C761 0 762 0 779 0C793 0 793 0 862 -3L862 27L821 30C787 32 784 38 784 102L784 295C784 412 729 469 617 469C580 469 559 462 538 444L462 378L462 465L453 469C402 448 350 434 297 428L297 400L334 400C374 400 378 393 378 327L378 102C378 39 375 32 341 30L296 27L296 -3C364 -1 391 0 420 0C449 0 476 -1 544 -3L544 27L499 30C465 32 462 39 462 102L462 314C462 359 528 408 589 408C656 408 700 358 700 281ZM1450 -3L1450 27L1404 30C1370 32 1367 39 1367 102L1367 718L1358 726C1314 709 1281 701 1202 689L1202 661L1258 661C1276 661 1283 650 1283 620L1283 437C1255 472 1217 486 1177 486C1054 486 905 351 905 229C905 149 933 70 982 30C1016 1 1063 -12 1128 -12C1148 -12 1171 -8 1176 -4L1287 89L1282 -3C1331 -1 1347 0 1359 0C1377 0 1441 -3 1450 -3ZM1283 350L1283 221C1283 156 1281 146 1268 123C1240 76 1191 45 1144 45C1056 45 993 130 993 249C993 358 1047 422 1137 422C1216 422 1283 366 1283 350Z" stroke="rgb(0,0,255)" stroke-opacity="1" stroke-width="8" fill="rgb(0,0,255)" fill-opacity="1"></path></g></g></g></g></g></g></g><g><g><g><g transform="matrix(1,0,0,1,215.66668701171875,117.14668701171875)"><path transform="matrix(0.024480000000000002,0,0,-0.024480000000000002,0,0)" d="M1235 259C1235 576 977 833 660 833C343 833 86 576 86 259C86 -56 343 -316 660 -316C977 -316 1235 -56 1235 259ZM1181 259C1181 132 1136 15 1045 -88L704 253L1053 601C1138 497 1181 384 1181 259ZM1008 647L658 298L312 645C415 734 532 779 660 779C785 779 902 734 1008 647ZM1001 -131C897 -216 782 -264 660 -264C537 -264 424 -216 320 -133L660 209ZM614 254L273 -89C185 17 140 132 140 259C140 384 183 497 268 601Z" stroke="rgb(0,0,255)" stroke-opacity="1" stroke-width="8" fill="rgb(0,0,255)" fill-opacity="1"></path></g></g></g></g></svg>
</svg>
