<svg xmlns="http://www.w3.org/2000/svg" xmlns:xlink="http://www.w3.org/1999/xlink" x="0" y="0" width="316" height="172" style="
        width:316px;
        height:172px;
        background: transparent;
        fill: none;
">
        
        
        <svg xmlns="http://www.w3.org/2000/svg" class="role-diagram-draw-area"><g class="shapes-region" style="stroke: black; fill: none;"><g class="composite-shape"><path class="real" d=" M12,40.67 C12,37.54 14.54,35 17.67,35 C20.8,35 23.33,37.54 23.33,40.67 C23.33,43.8 20.8,46.33 17.67,46.33 C14.54,46.33 12,43.8 12,40.67 Z" style="stroke-width: 1; stroke: rgb(0, 0, 0); fill: none; fill-opacity: 1;"/></g><g class="composite-shape"><path class="real" d=" M18.67,40.67 C18.67,40.11 18.22,39.67 17.67,39.67 C17.11,39.67 16.67,40.11 16.67,40.67 C16.67,41.22 17.11,41.67 17.67,41.67 C18.22,41.67 18.67,41.22 18.67,40.67 Z" style="stroke-width: 1; stroke: rgb(0, 0, 0); fill: rgb(0, 0, 0); fill-opacity: 1;"/></g><g class="composite-shape"><path class="real" d=" M32,40.67 C32,37.54 34.54,35 37.67,35 C40.8,35 43.33,37.54 43.33,40.67 C43.33,43.8 40.8,46.33 37.67,46.33 C34.54,46.33 32,43.8 32,40.67 Z" style="stroke-width: 1; stroke: rgb(0, 0, 0); fill: none; fill-opacity: 1;"/></g><g class="composite-shape"><path class="real" d=" M38.67,40.67 C38.67,40.11 38.22,39.67 37.67,39.67 C37.11,39.67 36.67,40.11 36.67,40.67 C36.67,41.22 37.11,41.67 37.67,41.67 C38.22,41.67 38.67,41.22 38.67,40.67 Z" style="stroke-width: 1; stroke: rgb(0, 0, 0); fill: rgb(0, 0, 0); fill-opacity: 1;"/></g><g class="composite-shape"><path class="real" d=" M52,40.67 C52,37.54 54.54,35 57.67,35 C60.8,35 63.33,37.54 63.33,40.67 C63.33,43.8 60.8,46.33 57.67,46.33 C54.54,46.33 52,43.8 52,40.67 Z" style="stroke-width: 1; stroke: rgb(0, 0, 0); fill: none; fill-opacity: 1;"/></g><g class="composite-shape"><path class="real" d=" M58.67,40.67 C58.67,40.11 58.22,39.67 57.67,39.67 C57.11,39.67 56.67,40.11 56.67,40.67 C56.67,41.22 57.11,41.67 57.67,41.67 C58.22,41.67 58.67,41.22 58.67,40.67 Z" style="stroke-width: 1; stroke: rgb(0, 0, 0); fill: rgb(0, 0, 0); fill-opacity: 1;"/></g><g class="composite-shape"><path class="real" d=" M72,40.67 C72,37.54 74.54,35 77.67,35 C80.8,35 83.33,37.54 83.33,40.67 C83.33,43.8 80.8,46.33 77.67,46.33 C74.54,46.33 72,43.8 72,40.67 Z" style="stroke-width: 1; stroke: rgb(0, 0, 0); fill: none; fill-opacity: 1;"/></g><g class="composite-shape"><path class="real" d=" M78.67,40.67 C78.67,40.11 78.22,39.67 77.67,39.67 C77.11,39.67 76.67,40.11 76.67,40.67 C76.67,41.22 77.11,41.67 77.67,41.67 C78.22,41.67 78.67,41.22 78.67,40.67 Z" style="stroke-width: 1; stroke: rgb(0, 0, 0); fill: rgb(0, 0, 0); fill-opacity: 1;"/></g><g class="composite-shape"><path class="real" d=" M12,60.67 C12,57.54 14.54,55 17.67,55 C20.8,55 23.33,57.54 23.33,60.67 C23.33,63.8 20.8,66.33 17.67,66.33 C14.54,66.33 12,63.8 12,60.67 Z" style="stroke-width: 1; stroke: rgb(0, 0, 0); fill: none; fill-opacity: 1;"/></g><g class="composite-shape"><path class="real" d=" M18.67,60.67 C18.67,60.11 18.22,59.67 17.67,59.67 C17.11,59.67 16.67,60.11 16.67,60.67 C16.67,61.22 17.11,61.67 17.67,61.67 C18.22,61.67 18.67,61.22 18.67,60.67 Z" style="stroke-width: 1; stroke: rgb(0, 0, 0); fill: rgb(0, 0, 0); fill-opacity: 1;"/></g><g class="composite-shape"><path class="real" d=" M12,80.67 C12,77.54 14.54,75 17.67,75 C20.8,75 23.33,77.54 23.33,80.67 C23.33,83.8 20.8,86.33 17.67,86.33 C14.54,86.33 12,83.8 12,80.67 Z" style="stroke-width: 1; stroke: rgb(0, 0, 0); fill: none; fill-opacity: 1;"/></g><g class="composite-shape"><path class="real" d=" M18.67,80.67 C18.67,80.11 18.22,79.67 17.67,79.67 C17.11,79.67 16.67,80.11 16.67,80.67 C16.67,81.22 17.11,81.67 17.67,81.67 C18.22,81.67 18.67,81.22 18.67,80.67 Z" style="stroke-width: 1; stroke: rgb(0, 0, 0); fill: rgb(0, 0, 0); fill-opacity: 1;"/></g><g class="composite-shape"><path class="real" d=" M12,100.67 C12,97.54 14.54,95 17.67,95 C20.8,95 23.33,97.54 23.33,100.67 C23.33,103.8 20.8,106.33 17.67,106.33 C14.54,106.33 12,103.8 12,100.67 Z" style="stroke-width: 1; stroke: rgb(0, 0, 0); fill: none; fill-opacity: 1;"/></g><g class="composite-shape"><path class="real" d=" M18.67,100.67 C18.67,100.11 18.22,99.67 17.67,99.67 C17.11,99.67 16.67,100.11 16.67,100.67 C16.67,101.22 17.11,101.67 17.67,101.67 C18.22,101.67 18.67,101.22 18.67,100.67 Z" style="stroke-width: 1; stroke: rgb(0, 0, 0); fill: rgb(0, 0, 0); fill-opacity: 1;"/></g><g class="composite-shape"><path class="real" d=" M32,60.67 C32,57.54 34.54,55 37.67,55 C40.8,55 43.33,57.54 43.33,60.67 C43.33,63.8 40.8,66.33 37.67,66.33 C34.54,66.33 32,63.8 32,60.67 Z" style="stroke-width: 1; stroke: rgb(0, 0, 0); fill: none; fill-opacity: 1;"/></g><g class="composite-shape"><path class="real" d=" M38.67,60.67 C38.67,60.11 38.22,59.67 37.67,59.67 C37.11,59.67 36.67,60.11 36.67,60.67 C36.67,61.22 37.11,61.67 37.67,61.67 C38.22,61.67 38.67,61.22 38.67,60.67 Z" style="stroke-width: 1; stroke: rgb(0, 0, 0); fill: rgb(0, 0, 0); fill-opacity: 1;"/></g><g class="composite-shape"><path class="real" d=" M32,80.67 C32,77.54 34.54,75 37.67,75 C40.8,75 43.33,77.54 43.33,80.67 C43.33,83.8 40.8,86.33 37.67,86.33 C34.54,86.33 32,83.8 32,80.67 Z" style="stroke-width: 1; stroke: rgb(0, 0, 0); fill: none; fill-opacity: 1;"/></g><g class="composite-shape"><path class="real" d=" M38.67,80.67 C38.67,80.11 38.22,79.67 37.67,79.67 C37.11,79.67 36.67,80.11 36.67,80.67 C36.67,81.22 37.11,81.67 37.67,81.67 C38.22,81.67 38.67,81.22 38.67,80.67 Z" style="stroke-width: 1; stroke: rgb(0, 0, 0); fill: rgb(0, 0, 0); fill-opacity: 1;"/></g><g class="composite-shape"><path class="real" d=" M32,100.67 C32,97.54 34.54,95 37.67,95 C40.8,95 43.33,97.54 43.33,100.67 C43.33,103.8 40.8,106.33 37.67,106.33 C34.54,106.33 32,103.8 32,100.67 Z" style="stroke-width: 1; stroke: rgb(0, 0, 0); fill: none; fill-opacity: 1;"/></g><g class="composite-shape"><path class="real" d=" M38.67,100.67 C38.67,100.11 38.22,99.67 37.67,99.67 C37.11,99.67 36.67,100.11 36.67,100.67 C36.67,101.22 37.11,101.67 37.67,101.67 C38.22,101.67 38.67,101.22 38.67,100.67 Z" style="stroke-width: 1; stroke: rgb(0, 0, 0); fill: rgb(0, 0, 0); fill-opacity: 1;"/></g><g class="composite-shape"><path class="real" d=" M52,60.67 C52,57.54 54.54,55 57.67,55 C60.8,55 63.33,57.54 63.33,60.67 C63.33,63.8 60.8,66.33 57.67,66.33 C54.54,66.33 52,63.8 52,60.67 Z" style="stroke-width: 1; stroke: rgb(0, 0, 0); fill: none; fill-opacity: 1;"/></g><g class="composite-shape"><path class="real" d=" M58.67,60.67 C58.67,60.11 58.22,59.67 57.67,59.67 C57.11,59.67 56.67,60.11 56.67,60.67 C56.67,61.22 57.11,61.67 57.67,61.67 C58.22,61.67 58.67,61.22 58.67,60.67 Z" style="stroke-width: 1; stroke: rgb(0, 0, 0); fill: rgb(0, 0, 0); fill-opacity: 1;"/></g><g class="composite-shape"><path class="real" d=" M52,80.67 C52,77.54 54.54,75 57.67,75 C60.8,75 63.33,77.54 63.33,80.67 C63.33,83.8 60.8,86.33 57.67,86.33 C54.54,86.33 52,83.8 52,80.67 Z" style="stroke-width: 1; stroke: rgb(0, 0, 0); fill: none; fill-opacity: 1;"/></g><g class="composite-shape"><path class="real" d=" M58.67,80.67 C58.67,80.11 58.22,79.67 57.67,79.67 C57.11,79.67 56.67,80.11 56.67,80.67 C56.67,81.22 57.11,81.67 57.67,81.67 C58.22,81.67 58.67,81.22 58.67,80.67 Z" style="stroke-width: 1; stroke: rgb(0, 0, 0); fill: rgb(0, 0, 0); fill-opacity: 1;"/></g><g class="composite-shape"><path class="real" d=" M52,100.67 C52,97.54 54.54,95 57.67,95 C60.8,95 63.33,97.54 63.33,100.67 C63.33,103.8 60.8,106.33 57.67,106.33 C54.54,106.33 52,103.8 52,100.67 Z" style="stroke-width: 1; stroke: rgb(0, 0, 0); fill: none; fill-opacity: 1;"/></g><g class="composite-shape"><path class="real" d=" M58.67,100.67 C58.67,100.11 58.22,99.67 57.67,99.67 C57.11,99.67 56.67,100.11 56.67,100.67 C56.67,101.22 57.11,101.67 57.67,101.67 C58.22,101.67 58.67,101.22 58.67,100.67 Z" style="stroke-width: 1; stroke: rgb(0, 0, 0); fill: rgb(0, 0, 0); fill-opacity: 1;"/></g><g class="composite-shape"><path class="real" d=" M72,60.67 C72,57.54 74.54,55 77.67,55 C80.8,55 83.33,57.54 83.33,60.67 C83.33,63.8 80.8,66.33 77.67,66.33 C74.54,66.33 72,63.8 72,60.67 Z" style="stroke-width: 1; stroke: rgb(0, 0, 0); fill: none; fill-opacity: 1;"/></g><g class="composite-shape"><path class="real" d=" M78.67,60.67 C78.67,60.11 78.22,59.67 77.67,59.67 C77.11,59.67 76.67,60.11 76.67,60.67 C76.67,61.22 77.11,61.67 77.67,61.67 C78.22,61.67 78.67,61.22 78.67,60.67 Z" style="stroke-width: 1; stroke: rgb(0, 0, 0); fill: rgb(0, 0, 0); fill-opacity: 1;"/></g><g class="composite-shape"><path class="real" d=" M72,80.67 C72,77.54 74.54,75 77.67,75 C80.8,75 83.33,77.54 83.33,80.67 C83.33,83.8 80.8,86.33 77.67,86.33 C74.54,86.33 72,83.8 72,80.67 Z" style="stroke-width: 1; stroke: rgb(0, 0, 0); fill: none; fill-opacity: 1;"/></g><g class="composite-shape"><path class="real" d=" M78.67,80.67 C78.67,80.11 78.22,79.67 77.67,79.67 C77.11,79.67 76.67,80.11 76.67,80.67 C76.67,81.22 77.11,81.67 77.67,81.67 C78.22,81.67 78.67,81.22 78.67,80.67 Z" style="stroke-width: 1; stroke: rgb(0, 0, 0); fill: rgb(0, 0, 0); fill-opacity: 1;"/></g><g class="composite-shape"><path class="real" d=" M72,100.67 C72,97.54 74.54,95 77.67,95 C80.8,95 83.33,97.54 83.33,100.67 C83.33,103.8 80.8,106.33 77.67,106.33 C74.54,106.33 72,103.8 72,100.67 Z" style="stroke-width: 1; stroke: rgb(0, 0, 0); fill: none; fill-opacity: 1;"/></g><g class="composite-shape"><path class="real" d=" M78.67,100.67 C78.67,100.11 78.22,99.67 77.67,99.67 C77.11,99.67 76.67,100.11 76.67,100.67 C76.67,101.22 77.11,101.67 77.67,101.67 C78.22,101.67 78.67,101.22 78.67,100.67 Z" style="stroke-width: 1; stroke: rgb(0, 0, 0); fill: rgb(0, 0, 0); fill-opacity: 1;"/></g><g class="composite-shape"><path class="real" d=" M92,40.67 C92,37.54 94.54,35 97.67,35 C100.8,35 103.33,37.54 103.33,40.67 C103.33,43.8 100.8,46.33 97.67,46.33 C94.54,46.33 92,43.8 92,40.67 Z" style="stroke-width: 1; stroke: rgb(0, 0, 0); fill: none; fill-opacity: 1;"/></g><g class="composite-shape"><path class="real" d=" M98.67,40.67 C98.67,40.11 98.22,39.67 97.67,39.67 C97.11,39.67 96.67,40.11 96.67,40.67 C96.67,41.22 97.11,41.67 97.67,41.67 C98.22,41.67 98.67,41.22 98.67,40.67 Z" style="stroke-width: 1; stroke: rgb(0, 0, 0); fill: rgb(0, 0, 0); fill-opacity: 1;"/></g><g class="composite-shape"><path class="real" d=" M92,60.67 C92,57.54 94.54,55 97.67,55 C100.8,55 103.33,57.54 103.33,60.67 C103.33,63.8 100.8,66.33 97.67,66.33 C94.54,66.33 92,63.8 92,60.67 Z" style="stroke-width: 1; stroke: rgb(0, 0, 0); fill: none; fill-opacity: 1;"/></g><g class="composite-shape"><path class="real" d=" M98.67,60.67 C98.67,60.11 98.22,59.67 97.67,59.67 C97.11,59.67 96.67,60.11 96.67,60.67 C96.67,61.22 97.11,61.67 97.67,61.67 C98.22,61.67 98.67,61.22 98.67,60.67 Z" style="stroke-width: 1; stroke: rgb(0, 0, 0); fill: rgb(0, 0, 0); fill-opacity: 1;"/></g><g class="composite-shape"><path class="real" d=" M92,80.67 C92,77.54 94.54,75 97.67,75 C100.8,75 103.33,77.54 103.33,80.67 C103.33,83.8 100.8,86.33 97.67,86.33 C94.54,86.33 92,83.8 92,80.67 Z" style="stroke-width: 1; stroke: rgb(0, 0, 0); fill: none; fill-opacity: 1;"/></g><g class="composite-shape"><path class="real" d=" M98.67,80.67 C98.67,80.11 98.22,79.67 97.67,79.67 C97.11,79.67 96.67,80.11 96.67,80.67 C96.67,81.22 97.11,81.67 97.67,81.67 C98.22,81.67 98.67,81.22 98.67,80.67 Z" style="stroke-width: 1; stroke: rgb(0, 0, 0); fill: rgb(0, 0, 0); fill-opacity: 1;"/></g><g class="composite-shape"><path class="real" d=" M92,100.67 C92,97.54 94.54,95 97.67,95 C100.8,95 103.33,97.54 103.33,100.67 C103.33,103.8 100.8,106.33 97.67,106.33 C94.54,106.33 92,103.8 92,100.67 Z" style="stroke-width: 1; stroke: rgb(0, 0, 0); fill: none; fill-opacity: 1;"/></g><g class="composite-shape"><path class="real" d=" M98.67,100.67 C98.67,100.11 98.22,99.67 97.67,99.67 C97.11,99.67 96.67,100.11 96.67,100.67 C96.67,101.22 97.11,101.67 97.67,101.67 C98.22,101.67 98.67,101.22 98.67,100.67 Z" style="stroke-width: 1; stroke: rgb(0, 0, 0); fill: rgb(0, 0, 0); fill-opacity: 1;"/></g><g class="composite-shape"><path class="real" d=" M12,120.67 C12,117.54 14.54,115 17.67,115 C20.8,115 23.33,117.54 23.33,120.67 C23.33,123.8 20.8,126.33 17.67,126.33 C14.54,126.33 12,123.8 12,120.67 Z" style="stroke-width: 1; stroke: rgb(0, 0, 0); fill: none; fill-opacity: 1;"/></g><g class="composite-shape"><path class="real" d=" M18.67,120.67 C18.67,120.11 18.22,119.67 17.67,119.67 C17.11,119.67 16.67,120.11 16.67,120.67 C16.67,121.22 17.11,121.67 17.67,121.67 C18.22,121.67 18.67,121.22 18.67,120.67 Z" style="stroke-width: 1; stroke: rgb(0, 0, 0); fill: rgb(0, 0, 0); fill-opacity: 1;"/></g><g class="composite-shape"><path class="real" d=" M32,120.67 C32,117.54 34.54,115 37.67,115 C40.8,115 43.33,117.54 43.33,120.67 C43.33,123.8 40.8,126.33 37.67,126.33 C34.54,126.33 32,123.8 32,120.67 Z" style="stroke-width: 1; stroke: rgb(0, 0, 0); fill: none; fill-opacity: 1;"/></g><g class="composite-shape"><path class="real" d=" M38.67,120.67 C38.67,120.11 38.22,119.67 37.67,119.67 C37.11,119.67 36.67,120.11 36.67,120.67 C36.67,121.22 37.11,121.67 37.67,121.67 C38.22,121.67 38.67,121.22 38.67,120.67 Z" style="stroke-width: 1; stroke: rgb(0, 0, 0); fill: rgb(0, 0, 0); fill-opacity: 1;"/></g><g class="composite-shape"><path class="real" d=" M52,120.67 C52,117.54 54.54,115 57.67,115 C60.8,115 63.33,117.54 63.33,120.67 C63.33,123.8 60.8,126.33 57.67,126.33 C54.54,126.33 52,123.8 52,120.67 Z" style="stroke-width: 1; stroke: rgb(0, 0, 0); fill: none; fill-opacity: 1;"/></g><g class="composite-shape"><path class="real" d=" M58.67,120.67 C58.67,120.11 58.22,119.67 57.67,119.67 C57.11,119.67 56.67,120.11 56.67,120.67 C56.67,121.22 57.11,121.67 57.67,121.67 C58.22,121.67 58.67,121.22 58.67,120.67 Z" style="stroke-width: 1; stroke: rgb(0, 0, 0); fill: rgb(0, 0, 0); fill-opacity: 1;"/></g><g class="composite-shape"><path class="real" d=" M72,120.67 C72,117.54 74.54,115 77.67,115 C80.8,115 83.33,117.54 83.33,120.67 C83.33,123.8 80.8,126.33 77.67,126.33 C74.54,126.33 72,123.8 72,120.67 Z" style="stroke-width: 1; stroke: rgb(0, 0, 0); fill: none; fill-opacity: 1;"/></g><g class="composite-shape"><path class="real" d=" M78.67,120.67 C78.67,120.11 78.22,119.67 77.67,119.67 C77.11,119.67 76.67,120.11 76.67,120.67 C76.67,121.22 77.11,121.67 77.67,121.67 C78.22,121.67 78.67,121.22 78.67,120.67 Z" style="stroke-width: 1; stroke: rgb(0, 0, 0); fill: rgb(0, 0, 0); fill-opacity: 1;"/></g><g class="composite-shape"><path class="real" d=" M92,120.67 C92,117.54 94.54,115 97.67,115 C100.8,115 103.33,117.54 103.33,120.67 C103.33,123.8 100.8,126.33 97.67,126.33 C94.54,126.33 92,123.8 92,120.67 Z" style="stroke-width: 1; stroke: rgb(0, 0, 0); fill: none; fill-opacity: 1;"/></g><g class="composite-shape"><path class="real" d=" M98.67,120.67 C98.67,120.11 98.22,119.67 97.67,119.67 C97.11,119.67 96.67,120.11 96.67,120.67 C96.67,121.22 97.11,121.67 97.67,121.67 C98.22,121.67 98.67,121.22 98.67,120.67 Z" style="stroke-width: 1; stroke: rgb(0, 0, 0); fill: rgb(0, 0, 0); fill-opacity: 1;"/></g><g class="composite-shape"><path class="real" d=" M27.67,50.67 L87.67,50.67 L87.67,110.67 L27.67,110.67 Z" style="stroke-width: 3; stroke: rgb(0, 0, 0); fill: rgb(155, 155, 155); fill-opacity: 0.2;"/></g><g class="grouped-shape"><g class="composite-shape"><path class="real" d=" M128,33.31 C128,31.48 129.51,30 131.37,30 C133.24,30 134.75,31.48 134.75,33.31 C134.75,35.13 133.24,36.61 131.37,36.61 C129.51,36.61 128,35.13 128,33.31 Z" style="stroke-width: 1; stroke: rgb(0, 0, 0); fill: none; fill-opacity: 1;"/></g><g class="composite-shape"><path class="real" d=" M131.97,33.31 C131.97,32.99 131.7,32.72 131.37,32.72 C131.04,32.72 130.78,32.99 130.78,33.31 C130.78,33.63 131.04,33.89 131.37,33.89 C131.7,33.89 131.97,33.63 131.97,33.31 Z" style="stroke-width: 1; stroke: rgb(0, 0, 0); fill: rgb(0, 0, 0); fill-opacity: 1;"/></g><g class="composite-shape"><path class="real" d=" M128,44.98 C128,43.15 129.51,41.67 131.37,41.67 C133.24,41.67 134.75,43.15 134.75,44.98 C134.75,46.81 133.24,48.29 131.37,48.29 C129.51,48.29 128,46.81 128,44.98 Z" style="stroke-width: 1; stroke: rgb(0, 0, 0); fill: none; fill-opacity: 1;"/></g><g class="composite-shape"><path class="real" d=" M131.97,44.98 C131.97,44.66 131.7,44.4 131.37,44.4 C131.04,44.4 130.78,44.66 130.78,44.98 C130.78,45.3 131.04,45.56 131.37,45.56 C131.7,45.56 131.97,45.3 131.97,44.98 Z" style="stroke-width: 1; stroke: rgb(0, 0, 0); fill: rgb(0, 0, 0); fill-opacity: 1;"/></g><g class="composite-shape"><path class="real" d=" M128,56.65 C128,54.83 129.51,53.35 131.37,53.35 C133.24,53.35 134.75,54.83 134.75,56.65 C134.75,58.48 133.24,59.96 131.37,59.96 C129.51,59.96 128,58.48 128,56.65 Z" style="stroke-width: 1; stroke: rgb(0, 0, 0); fill: none; fill-opacity: 1;"/></g><g class="composite-shape"><path class="real" d=" M131.97,56.65 C131.97,56.33 131.7,56.07 131.37,56.07 C131.04,56.07 130.78,56.33 130.78,56.65 C130.78,56.98 131.04,57.24 131.37,57.24 C131.7,57.24 131.97,56.98 131.97,56.65 Z" style="stroke-width: 1; stroke: rgb(0, 0, 0); fill: rgb(0, 0, 0); fill-opacity: 1;"/></g><g class="composite-shape"><path class="real" d=" M139.91,33.31 C139.91,31.48 141.42,30 143.28,30 C145.14,30 146.65,31.48 146.65,33.31 C146.65,35.13 145.14,36.61 143.28,36.61 C141.42,36.61 139.91,35.13 139.91,33.31 Z" style="stroke-width: 1; stroke: rgb(0, 0, 0); fill: none; fill-opacity: 1;"/></g><g class="composite-shape"><path class="real" d=" M143.88,33.31 C143.88,32.99 143.61,32.72 143.28,32.72 C142.95,32.72 142.68,32.99 142.68,33.31 C142.68,33.63 142.95,33.89 143.28,33.89 C143.61,33.89 143.88,33.63 143.88,33.31 Z" style="stroke-width: 1; stroke: rgb(0, 0, 0); fill: rgb(0, 0, 0); fill-opacity: 1;"/></g><g class="composite-shape"><path class="real" d=" M139.91,44.98 C139.91,43.15 141.42,41.67 143.28,41.67 C145.14,41.67 146.65,43.15 146.65,44.98 C146.65,46.81 145.14,48.29 143.28,48.29 C141.42,48.29 139.91,46.81 139.91,44.98 Z" style="stroke-width: 1; stroke: rgb(0, 0, 0); fill: none; fill-opacity: 1;"/></g><g class="composite-shape"><path class="real" d=" M143.88,44.98 C143.88,44.66 143.61,44.4 143.28,44.4 C142.95,44.4 142.68,44.66 142.68,44.98 C142.68,45.3 142.95,45.56 143.28,45.56 C143.61,45.56 143.88,45.3 143.88,44.98 Z" style="stroke-width: 1; stroke: rgb(0, 0, 0); fill: rgb(0, 0, 0); fill-opacity: 1;"/></g><g class="composite-shape"><path class="real" d=" M139.91,56.65 C139.91,54.83 141.42,53.35 143.28,53.35 C145.14,53.35 146.65,54.83 146.65,56.65 C146.65,58.48 145.14,59.96 143.28,59.96 C141.42,59.96 139.91,58.48 139.91,56.65 Z" style="stroke-width: 1; stroke: rgb(0, 0, 0); fill: none; fill-opacity: 1;"/></g><g class="composite-shape"><path class="real" d=" M143.88,56.65 C143.88,56.33 143.61,56.07 143.28,56.07 C142.95,56.07 142.68,56.33 142.68,56.65 C142.68,56.98 142.95,57.24 143.28,57.24 C143.61,57.24 143.88,56.98 143.88,56.65 Z" style="stroke-width: 1; stroke: rgb(0, 0, 0); fill: rgb(0, 0, 0); fill-opacity: 1;"/></g><g class="composite-shape"><path class="real" d=" M151.81,33.31 C151.81,31.48 153.32,30 155.19,30 C157.05,30 158.56,31.48 158.56,33.31 C158.56,35.13 157.05,36.61 155.19,36.61 C153.32,36.61 151.81,35.13 151.81,33.31 Z" style="stroke-width: 1; stroke: rgb(0, 0, 0); fill: none; fill-opacity: 1;"/></g><g class="composite-shape"><path class="real" d=" M155.78,33.31 C155.78,32.99 155.52,32.72 155.19,32.72 C154.86,32.72 154.59,32.99 154.59,33.31 C154.59,33.63 154.86,33.89 155.19,33.89 C155.52,33.89 155.78,33.63 155.78,33.31 Z" style="stroke-width: 1; stroke: rgb(0, 0, 0); fill: rgb(0, 0, 0); fill-opacity: 1;"/></g><g class="composite-shape"><path class="real" d=" M151.81,44.98 C151.81,43.15 153.32,41.67 155.19,41.67 C157.05,41.67 158.56,43.15 158.56,44.98 C158.56,46.81 157.05,48.29 155.19,48.29 C153.32,48.29 151.81,46.81 151.81,44.98 Z" style="stroke-width: 1; stroke: rgb(0, 0, 0); fill: none; fill-opacity: 1;"/></g><g class="composite-shape"><path class="real" d=" M155.78,44.98 C155.78,44.66 155.52,44.4 155.19,44.4 C154.86,44.4 154.59,44.66 154.59,44.98 C154.59,45.3 154.86,45.56 155.19,45.56 C155.52,45.56 155.78,45.3 155.78,44.98 Z" style="stroke-width: 1; stroke: rgb(0, 0, 0); fill: rgb(0, 0, 0); fill-opacity: 1;"/></g><g class="composite-shape"><path class="real" d=" M151.81,56.65 C151.81,54.83 153.32,53.35 155.19,53.35 C157.05,53.35 158.56,54.83 158.56,56.65 C158.56,58.48 157.05,59.96 155.19,59.96 C153.32,59.96 151.81,58.48 151.81,56.65 Z" style="stroke-width: 1; stroke: rgb(0, 0, 0); fill: none; fill-opacity: 1;"/></g><g class="composite-shape"><path class="real" d=" M155.78,56.65 C155.78,56.33 155.52,56.07 155.19,56.07 C154.86,56.07 154.59,56.33 154.59,56.65 C154.59,56.98 154.86,57.24 155.19,57.24 C155.52,57.24 155.78,56.98 155.78,56.65 Z" style="stroke-width: 1; stroke: rgb(0, 0, 0); fill: rgb(0, 0, 0); fill-opacity: 1;"/></g><g class="composite-shape"><path class="real" d=" M163.72,33.31 C163.72,31.48 165.23,30 167.09,30 C168.96,30 170.47,31.48 170.47,33.31 C170.47,35.13 168.96,36.61 167.09,36.61 C165.23,36.61 163.72,35.13 163.72,33.31 Z" style="stroke-width: 1; stroke: rgb(0, 0, 0); fill: none; fill-opacity: 1;"/></g><g class="composite-shape"><path class="real" d=" M167.69,33.31 C167.69,32.99 167.42,32.72 167.09,32.72 C166.76,32.72 166.5,32.99 166.5,33.31 C166.5,33.63 166.76,33.89 167.09,33.89 C167.42,33.89 167.69,33.63 167.69,33.31 Z" style="stroke-width: 1; stroke: rgb(0, 0, 0); fill: rgb(0, 0, 0); fill-opacity: 1;"/></g><g class="composite-shape"><path class="real" d=" M163.72,44.98 C163.72,43.15 165.23,41.67 167.09,41.67 C168.96,41.67 170.47,43.15 170.47,44.98 C170.47,46.81 168.96,48.29 167.09,48.29 C165.23,48.29 163.72,46.81 163.72,44.98 Z" style="stroke-width: 1; stroke: rgb(0, 0, 0); fill: none; fill-opacity: 1;"/></g><g class="composite-shape"><path class="real" d=" M167.69,44.98 C167.69,44.66 167.42,44.4 167.09,44.4 C166.76,44.4 166.5,44.66 166.5,44.98 C166.5,45.3 166.76,45.56 167.09,45.56 C167.42,45.56 167.69,45.3 167.69,44.98 Z" style="stroke-width: 1; stroke: rgb(0, 0, 0); fill: rgb(0, 0, 0); fill-opacity: 1;"/></g><g class="composite-shape"><path class="real" d=" M163.72,56.65 C163.72,54.83 165.23,53.35 167.09,53.35 C168.96,53.35 170.47,54.83 170.47,56.65 C170.47,58.48 168.96,59.96 167.09,59.96 C165.23,59.96 163.72,58.48 163.72,56.65 Z" style="stroke-width: 1; stroke: rgb(0, 0, 0); fill: none; fill-opacity: 1;"/></g><g class="composite-shape"><path class="real" d=" M167.69,56.65 C167.69,56.33 167.42,56.07 167.09,56.07 C166.76,56.07 166.5,56.33 166.5,56.65 C166.5,56.98 166.76,57.24 167.09,57.24 C167.42,57.24 167.69,56.98 167.69,56.65 Z" style="stroke-width: 1; stroke: rgb(0, 0, 0); fill: rgb(0, 0, 0); fill-opacity: 1;"/></g><g class="composite-shape"><path class="real" d=" M175.63,33.31 C175.63,31.48 177.14,30 179,30 C180.86,30 182.37,31.48 182.37,33.31 C182.37,35.13 180.86,36.61 179,36.61 C177.14,36.61 175.63,35.13 175.63,33.31 Z" style="stroke-width: 1; stroke: rgb(0, 0, 0); fill: none; fill-opacity: 1;"/></g><g class="composite-shape"><path class="real" d=" M179.6,33.31 C179.6,32.99 179.33,32.72 179,32.72 C178.67,32.72 178.4,32.99 178.4,33.31 C178.4,33.63 178.67,33.89 179,33.89 C179.33,33.89 179.6,33.63 179.6,33.31 Z" style="stroke-width: 1; stroke: rgb(0, 0, 0); fill: rgb(0, 0, 0); fill-opacity: 1;"/></g><g class="composite-shape"><path class="real" d=" M175.63,44.98 C175.63,43.15 177.14,41.67 179,41.67 C180.86,41.67 182.37,43.15 182.37,44.98 C182.37,46.81 180.86,48.29 179,48.29 C177.14,48.29 175.63,46.81 175.63,44.98 Z" style="stroke-width: 1; stroke: rgb(0, 0, 0); fill: none; fill-opacity: 1;"/></g><g class="composite-shape"><path class="real" d=" M179.6,44.98 C179.6,44.66 179.33,44.4 179,44.4 C178.67,44.4 178.4,44.66 178.4,44.98 C178.4,45.3 178.67,45.56 179,45.56 C179.33,45.56 179.6,45.3 179.6,44.98 Z" style="stroke-width: 1; stroke: rgb(0, 0, 0); fill: rgb(0, 0, 0); fill-opacity: 1;"/></g><g class="composite-shape"><path class="real" d=" M175.63,56.65 C175.63,54.83 177.14,53.35 179,53.35 C180.86,53.35 182.37,54.83 182.37,56.65 C182.37,58.48 180.86,59.96 179,59.96 C177.14,59.96 175.63,58.48 175.63,56.65 Z" style="stroke-width: 1; stroke: rgb(0, 0, 0); fill: none; fill-opacity: 1;"/></g><g class="composite-shape"><path class="real" d=" M179.6,56.65 C179.6,56.33 179.33,56.07 179,56.07 C178.67,56.07 178.4,56.33 178.4,56.65 C178.4,56.98 178.67,57.24 179,57.24 C179.33,57.24 179.6,56.98 179.6,56.65 Z" style="stroke-width: 1; stroke: rgb(0, 0, 0); fill: rgb(0, 0, 0); fill-opacity: 1;"/></g><g class="composite-shape"><path class="real" d=" M187.53,33.31 C187.53,31.48 189.04,30 190.91,30 C192.77,30 194.28,31.48 194.28,33.31 C194.28,35.13 192.77,36.61 190.91,36.61 C189.04,36.61 187.53,35.13 187.53,33.31 Z" style="stroke-width: 1; stroke: rgb(0, 0, 0); fill: none; fill-opacity: 1;"/></g><g class="composite-shape"><path class="real" d=" M191.5,33.31 C191.5,32.99 191.24,32.72 190.91,32.72 C190.58,32.72 190.31,32.99 190.31,33.31 C190.31,33.63 190.58,33.89 190.91,33.89 C191.24,33.89 191.5,33.63 191.5,33.31 Z" style="stroke-width: 1; stroke: rgb(0, 0, 0); fill: rgb(0, 0, 0); fill-opacity: 1;"/></g><g class="composite-shape"><path class="real" d=" M187.53,44.98 C187.53,43.15 189.04,41.67 190.91,41.67 C192.77,41.67 194.28,43.15 194.28,44.98 C194.28,46.81 192.77,48.29 190.91,48.29 C189.04,48.29 187.53,46.81 187.53,44.98 Z" style="stroke-width: 1; stroke: rgb(0, 0, 0); fill: none; fill-opacity: 1;"/></g><g class="composite-shape"><path class="real" d=" M191.5,44.98 C191.5,44.66 191.24,44.4 190.91,44.4 C190.58,44.4 190.31,44.66 190.31,44.98 C190.31,45.3 190.58,45.56 190.91,45.56 C191.24,45.56 191.5,45.3 191.5,44.98 Z" style="stroke-width: 1; stroke: rgb(0, 0, 0); fill: rgb(0, 0, 0); fill-opacity: 1;"/></g><g class="composite-shape"><path class="real" d=" M187.53,56.65 C187.53,54.83 189.04,53.35 190.91,53.35 C192.77,53.35 194.28,54.83 194.28,56.65 C194.28,58.48 192.77,59.96 190.91,59.96 C189.04,59.96 187.53,58.48 187.53,56.65 Z" style="stroke-width: 1; stroke: rgb(0, 0, 0); fill: none; fill-opacity: 1;"/></g><g class="composite-shape"><path class="real" d=" M191.5,56.65 C191.5,56.33 191.24,56.07 190.91,56.07 C190.58,56.07 190.31,56.33 190.31,56.65 C190.31,56.98 190.58,57.24 190.91,57.24 C191.24,57.24 191.5,56.98 191.5,56.65 Z" style="stroke-width: 1; stroke: rgb(0, 0, 0); fill: rgb(0, 0, 0); fill-opacity: 1;"/></g><g class="composite-shape"><path class="real" d=" M128,68.33 C128,66.5 129.51,65.02 131.37,65.02 C133.24,65.02 134.75,66.5 134.75,68.33 C134.75,70.15 133.24,71.63 131.37,71.63 C129.51,71.63 128,70.15 128,68.33 Z" style="stroke-width: 1; stroke: rgb(0, 0, 0); fill: none; fill-opacity: 1;"/></g><g class="composite-shape"><path class="real" d=" M131.97,68.33 C131.97,68 131.7,67.74 131.37,67.74 C131.04,67.74 130.78,68 130.78,68.33 C130.78,68.65 131.04,68.91 131.37,68.91 C131.7,68.91 131.97,68.65 131.97,68.33 Z" style="stroke-width: 1; stroke: rgb(0, 0, 0); fill: rgb(0, 0, 0); fill-opacity: 1;"/></g><g class="composite-shape"><path class="real" d=" M128,80 C128,78.17 129.51,76.69 131.37,76.69 C133.24,76.69 134.75,78.17 134.75,80 C134.75,81.83 133.24,83.31 131.37,83.31 C129.51,83.31 128,81.83 128,80 Z" style="stroke-width: 1; stroke: rgb(0, 0, 0); fill: none; fill-opacity: 1;"/></g><g class="composite-shape"><path class="real" d=" M131.97,80 C131.97,79.68 131.7,79.42 131.37,79.42 C131.04,79.42 130.78,79.68 130.78,80 C130.78,80.32 131.04,80.58 131.37,80.58 C131.7,80.58 131.97,80.32 131.97,80 Z" style="stroke-width: 1; stroke: rgb(0, 0, 0); fill: rgb(0, 0, 0); fill-opacity: 1;"/></g><g class="composite-shape"><path class="real" d=" M128,91.67 C128,89.85 129.51,88.37 131.37,88.37 C133.24,88.37 134.75,89.85 134.75,91.67 C134.75,93.5 133.24,94.98 131.37,94.98 C129.51,94.98 128,93.5 128,91.67 Z" style="stroke-width: 1; stroke: rgb(0, 0, 0); fill: none; fill-opacity: 1;"/></g><g class="composite-shape"><path class="real" d=" M131.97,91.67 C131.97,91.35 131.7,91.09 131.37,91.09 C131.04,91.09 130.78,91.35 130.78,91.67 C130.78,92 131.04,92.26 131.37,92.26 C131.7,92.26 131.97,92 131.97,91.67 Z" style="stroke-width: 1; stroke: rgb(0, 0, 0); fill: rgb(0, 0, 0); fill-opacity: 1;"/></g><g class="composite-shape"><path class="real" d=" M139.91,68.33 C139.91,66.5 141.42,65.02 143.28,65.02 C145.14,65.02 146.65,66.5 146.65,68.33 C146.65,70.15 145.14,71.63 143.28,71.63 C141.42,71.63 139.91,70.15 139.91,68.33 Z" style="stroke-width: 1; stroke: rgb(0, 0, 0); fill: none; fill-opacity: 1;"/></g><g class="composite-shape"><path class="real" d=" M143.88,68.33 C143.88,68 143.61,67.74 143.28,67.74 C142.95,67.74 142.68,68 142.68,68.33 C142.68,68.65 142.95,68.91 143.28,68.91 C143.61,68.91 143.88,68.65 143.88,68.33 Z" style="stroke-width: 1; stroke: rgb(0, 0, 0); fill: rgb(0, 0, 0); fill-opacity: 1;"/></g><g class="composite-shape"><path class="real" d=" M139.91,80 C139.91,78.17 141.42,76.69 143.28,76.69 C145.14,76.69 146.65,78.17 146.65,80 C146.65,81.83 145.14,83.31 143.28,83.31 C141.42,83.31 139.91,81.83 139.91,80 Z" style="stroke-width: 1; stroke: rgb(0, 0, 0); fill: none; fill-opacity: 1;"/></g><g class="composite-shape"><path class="real" d=" M143.88,80 C143.88,79.68 143.61,79.42 143.28,79.42 C142.95,79.42 142.68,79.68 142.68,80 C142.68,80.32 142.95,80.58 143.28,80.58 C143.61,80.58 143.88,80.32 143.88,80 Z" style="stroke-width: 1; stroke: rgb(0, 0, 0); fill: rgb(0, 0, 0); fill-opacity: 1;"/></g><g class="composite-shape"><path class="real" d=" M139.91,91.67 C139.91,89.85 141.42,88.37 143.28,88.37 C145.14,88.37 146.65,89.85 146.65,91.67 C146.65,93.5 145.14,94.98 143.28,94.98 C141.42,94.98 139.91,93.5 139.91,91.67 Z" style="stroke-width: 1; stroke: rgb(0, 0, 0); fill: none; fill-opacity: 1;"/></g><g class="composite-shape"><path class="real" d=" M143.88,91.67 C143.88,91.35 143.61,91.09 143.28,91.09 C142.95,91.09 142.68,91.35 142.68,91.67 C142.68,92 142.95,92.26 143.28,92.26 C143.61,92.26 143.88,92 143.88,91.67 Z" style="stroke-width: 1; stroke: rgb(0, 0, 0); fill: rgb(0, 0, 0); fill-opacity: 1;"/></g><g class="composite-shape"><path class="real" d=" M151.81,68.33 C151.81,66.5 153.32,65.02 155.19,65.02 C157.05,65.02 158.56,66.5 158.56,68.33 C158.56,70.15 157.05,71.63 155.19,71.63 C153.32,71.63 151.81,70.15 151.81,68.33 Z" style="stroke-width: 1; stroke: rgb(0, 0, 0); fill: none; fill-opacity: 1;"/></g><g class="composite-shape"><path class="real" d=" M155.78,68.33 C155.78,68 155.52,67.74 155.19,67.74 C154.86,67.74 154.59,68 154.59,68.33 C154.59,68.65 154.86,68.91 155.19,68.91 C155.52,68.91 155.78,68.65 155.78,68.33 Z" style="stroke-width: 1; stroke: rgb(0, 0, 0); fill: rgb(0, 0, 0); fill-opacity: 1;"/></g><g class="composite-shape"><path class="real" d=" M151.81,80 C151.81,78.17 153.32,76.69 155.19,76.69 C157.05,76.69 158.56,78.17 158.56,80 C158.56,81.83 157.05,83.31 155.19,83.31 C153.32,83.31 151.81,81.83 151.81,80 Z" style="stroke-width: 1; stroke: rgb(0, 0, 0); fill: none; fill-opacity: 1;"/></g><g class="composite-shape"><path class="real" d=" M155.78,80 C155.78,79.68 155.52,79.42 155.19,79.42 C154.86,79.42 154.59,79.68 154.59,80 C154.59,80.32 154.86,80.58 155.19,80.58 C155.52,80.58 155.78,80.32 155.78,80 Z" style="stroke-width: 1; stroke: rgb(0, 0, 0); fill: rgb(0, 0, 0); fill-opacity: 1;"/></g><g class="composite-shape"><path class="real" d=" M151.81,91.67 C151.81,89.85 153.32,88.37 155.19,88.37 C157.05,88.37 158.56,89.85 158.56,91.67 C158.56,93.5 157.05,94.98 155.19,94.98 C153.32,94.98 151.81,93.5 151.81,91.67 Z" style="stroke-width: 1; stroke: rgb(0, 0, 0); fill: none; fill-opacity: 1;"/></g><g class="composite-shape"><path class="real" d=" M155.78,91.67 C155.78,91.35 155.52,91.09 155.19,91.09 C154.86,91.09 154.59,91.35 154.59,91.67 C154.59,92 154.86,92.26 155.19,92.26 C155.52,92.26 155.78,92 155.78,91.67 Z" style="stroke-width: 1; stroke: rgb(0, 0, 0); fill: rgb(0, 0, 0); fill-opacity: 1;"/></g><g class="composite-shape"><path class="real" d=" M163.72,68.33 C163.72,66.5 165.23,65.02 167.09,65.02 C168.96,65.02 170.47,66.5 170.47,68.33 C170.47,70.15 168.96,71.63 167.09,71.63 C165.23,71.63 163.72,70.15 163.72,68.33 Z" style="stroke-width: 1; stroke: rgb(0, 0, 0); fill: none; fill-opacity: 1;"/></g><g class="composite-shape"><path class="real" d=" M167.69,68.33 C167.69,68 167.42,67.74 167.09,67.74 C166.76,67.74 166.5,68 166.5,68.33 C166.5,68.65 166.76,68.91 167.09,68.91 C167.42,68.91 167.69,68.65 167.69,68.33 Z" style="stroke-width: 1; stroke: rgb(0, 0, 0); fill: rgb(0, 0, 0); fill-opacity: 1;"/></g><g class="composite-shape"><path class="real" d=" M163.72,80 C163.72,78.17 165.23,76.69 167.09,76.69 C168.96,76.69 170.47,78.17 170.47,80 C170.47,81.83 168.96,83.31 167.09,83.31 C165.23,83.31 163.72,81.83 163.72,80 Z" style="stroke-width: 1; stroke: rgb(0, 0, 0); fill: none; fill-opacity: 1;"/></g><g class="composite-shape"><path class="real" d=" M167.69,80 C167.69,79.68 167.42,79.42 167.09,79.42 C166.76,79.42 166.5,79.68 166.5,80 C166.5,80.32 166.76,80.58 167.09,80.58 C167.42,80.58 167.69,80.32 167.69,80 Z" style="stroke-width: 1; stroke: rgb(0, 0, 0); fill: rgb(0, 0, 0); fill-opacity: 1;"/></g><g class="composite-shape"><path class="real" d=" M163.72,91.67 C163.72,89.85 165.23,88.37 167.09,88.37 C168.96,88.37 170.47,89.85 170.47,91.67 C170.47,93.5 168.96,94.98 167.09,94.98 C165.23,94.98 163.72,93.5 163.72,91.67 Z" style="stroke-width: 1; stroke: rgb(0, 0, 0); fill: none; fill-opacity: 1;"/></g><g class="composite-shape"><path class="real" d=" M167.69,91.67 C167.69,91.35 167.42,91.09 167.09,91.09 C166.76,91.09 166.5,91.35 166.5,91.67 C166.5,92 166.76,92.26 167.09,92.26 C167.42,92.26 167.69,92 167.69,91.67 Z" style="stroke-width: 1; stroke: rgb(0, 0, 0); fill: rgb(0, 0, 0); fill-opacity: 1;"/></g><g class="composite-shape"><path class="real" d=" M175.63,68.33 C175.63,66.5 177.14,65.02 179,65.02 C180.86,65.02 182.37,66.5 182.37,68.33 C182.37,70.15 180.86,71.63 179,71.63 C177.14,71.63 175.63,70.15 175.63,68.33 Z" style="stroke-width: 1; stroke: rgb(0, 0, 0); fill: none; fill-opacity: 1;"/></g><g class="composite-shape"><path class="real" d=" M179.6,68.33 C179.6,68 179.33,67.74 179,67.74 C178.67,67.74 178.4,68 178.4,68.33 C178.4,68.65 178.67,68.91 179,68.91 C179.33,68.91 179.6,68.65 179.6,68.33 Z" style="stroke-width: 1; stroke: rgb(0, 0, 0); fill: rgb(0, 0, 0); fill-opacity: 1;"/></g><g class="composite-shape"><path class="real" d=" M175.63,80 C175.63,78.17 177.14,76.69 179,76.69 C180.86,76.69 182.37,78.17 182.37,80 C182.37,81.83 180.86,83.31 179,83.31 C177.14,83.31 175.63,81.83 175.63,80 Z" style="stroke-width: 1; stroke: rgb(0, 0, 0); fill: none; fill-opacity: 1;"/></g><g class="composite-shape"><path class="real" d=" M179.6,80 C179.6,79.68 179.33,79.42 179,79.42 C178.67,79.42 178.4,79.68 178.4,80 C178.4,80.32 178.67,80.58 179,80.58 C179.33,80.58 179.6,80.32 179.6,80 Z" style="stroke-width: 1; stroke: rgb(0, 0, 0); fill: rgb(0, 0, 0); fill-opacity: 1;"/></g><g class="composite-shape"><path class="real" d=" M175.63,91.67 C175.63,89.85 177.14,88.37 179,88.37 C180.86,88.37 182.37,89.85 182.37,91.67 C182.37,93.5 180.86,94.98 179,94.98 C177.14,94.98 175.63,93.5 175.63,91.67 Z" style="stroke-width: 1; stroke: rgb(0, 0, 0); fill: none; fill-opacity: 1;"/></g><g class="composite-shape"><path class="real" d=" M179.6,91.67 C179.6,91.35 179.33,91.09 179,91.09 C178.67,91.09 178.4,91.35 178.4,91.67 C178.4,92 178.67,92.26 179,92.26 C179.33,92.26 179.6,92 179.6,91.67 Z" style="stroke-width: 1; stroke: rgb(0, 0, 0); fill: rgb(0, 0, 0); fill-opacity: 1;"/></g><g class="composite-shape"><path class="real" d=" M187.53,68.33 C187.53,66.5 189.04,65.02 190.91,65.02 C192.77,65.02 194.28,66.5 194.28,68.33 C194.28,70.15 192.77,71.63 190.91,71.63 C189.04,71.63 187.53,70.15 187.53,68.33 Z" style="stroke-width: 1; stroke: rgb(0, 0, 0); fill: none; fill-opacity: 1;"/></g><g class="composite-shape"><path class="real" d=" M191.5,68.33 C191.5,68 191.24,67.74 190.91,67.74 C190.58,67.74 190.31,68 190.31,68.33 C190.31,68.65 190.58,68.91 190.91,68.91 C191.24,68.91 191.5,68.65 191.5,68.33 Z" style="stroke-width: 1; stroke: rgb(0, 0, 0); fill: rgb(0, 0, 0); fill-opacity: 1;"/></g><g class="composite-shape"><path class="real" d=" M187.53,80 C187.53,78.17 189.04,76.69 190.91,76.69 C192.77,76.69 194.28,78.17 194.28,80 C194.28,81.83 192.77,83.31 190.91,83.31 C189.04,83.31 187.53,81.83 187.53,80 Z" style="stroke-width: 1; stroke: rgb(0, 0, 0); fill: none; fill-opacity: 1;"/></g><g class="composite-shape"><path class="real" d=" M191.5,80 C191.5,79.68 191.24,79.42 190.91,79.42 C190.58,79.42 190.31,79.68 190.31,80 C190.31,80.32 190.58,80.58 190.91,80.58 C191.24,80.58 191.5,80.32 191.5,80 Z" style="stroke-width: 1; stroke: rgb(0, 0, 0); fill: rgb(0, 0, 0); fill-opacity: 1;"/></g><g class="composite-shape"><path class="real" d=" M187.53,91.67 C187.53,89.85 189.04,88.37 190.91,88.37 C192.77,88.37 194.28,89.85 194.28,91.67 C194.28,93.5 192.77,94.98 190.91,94.98 C189.04,94.98 187.53,93.5 187.53,91.67 Z" style="stroke-width: 1; stroke: rgb(0, 0, 0); fill: none; fill-opacity: 1;"/></g><g class="composite-shape"><path class="real" d=" M191.5,91.67 C191.5,91.35 191.24,91.09 190.91,91.09 C190.58,91.09 190.31,91.35 190.31,91.67 C190.31,92 190.58,92.26 190.91,92.26 C191.24,92.26 191.5,92 191.5,91.67 Z" style="stroke-width: 1; stroke: rgb(0, 0, 0); fill: rgb(0, 0, 0); fill-opacity: 1;"/></g><g class="composite-shape"><path class="real" d=" M199.44,33.31 C199.44,31.48 200.95,30 202.81,30 C204.68,30 206.19,31.48 206.19,33.31 C206.19,35.13 204.68,36.61 202.81,36.61 C200.95,36.61 199.44,35.13 199.44,33.31 Z" style="stroke-width: 1; stroke: rgb(0, 0, 0); fill: none; fill-opacity: 1;"/></g><g class="composite-shape"><path class="real" d=" M203.41,33.31 C203.41,32.99 203.14,32.72 202.81,32.72 C202.48,32.72 202.22,32.99 202.22,33.31 C202.22,33.63 202.48,33.89 202.81,33.89 C203.14,33.89 203.41,33.63 203.41,33.31 Z" style="stroke-width: 1; stroke: rgb(0, 0, 0); fill: rgb(0, 0, 0); fill-opacity: 1;"/></g><g class="composite-shape"><path class="real" d=" M199.44,44.98 C199.44,43.15 200.95,41.67 202.81,41.67 C204.68,41.67 206.19,43.15 206.19,44.98 C206.19,46.81 204.68,48.29 202.81,48.29 C200.95,48.29 199.44,46.81 199.44,44.98 Z" style="stroke-width: 1; stroke: rgb(0, 0, 0); fill: none; fill-opacity: 1;"/></g><g class="composite-shape"><path class="real" d=" M203.41,44.98 C203.41,44.66 203.14,44.4 202.81,44.4 C202.48,44.4 202.22,44.66 202.22,44.98 C202.22,45.3 202.48,45.56 202.81,45.56 C203.14,45.56 203.41,45.3 203.41,44.98 Z" style="stroke-width: 1; stroke: rgb(0, 0, 0); fill: rgb(0, 0, 0); fill-opacity: 1;"/></g><g class="composite-shape"><path class="real" d=" M199.44,56.65 C199.44,54.83 200.95,53.35 202.81,53.35 C204.68,53.35 206.19,54.83 206.19,56.65 C206.19,58.48 204.68,59.96 202.81,59.96 C200.95,59.96 199.44,58.48 199.44,56.65 Z" style="stroke-width: 1; stroke: rgb(0, 0, 0); fill: none; fill-opacity: 1;"/></g><g class="composite-shape"><path class="real" d=" M203.41,56.65 C203.41,56.33 203.14,56.07 202.81,56.07 C202.48,56.07 202.22,56.33 202.22,56.65 C202.22,56.98 202.48,57.24 202.81,57.24 C203.14,57.24 203.41,56.98 203.41,56.65 Z" style="stroke-width: 1; stroke: rgb(0, 0, 0); fill: rgb(0, 0, 0); fill-opacity: 1;"/></g><g class="composite-shape"><path class="real" d=" M211.35,33.31 C211.35,31.48 212.86,30 214.72,30 C216.58,30 218.09,31.48 218.09,33.31 C218.09,35.13 216.58,36.61 214.72,36.61 C212.86,36.61 211.35,35.13 211.35,33.31 Z" style="stroke-width: 1; stroke: rgb(0, 0, 0); fill: none; fill-opacity: 1;"/></g><g class="composite-shape"><path class="real" d=" M215.32,33.31 C215.32,32.99 215.05,32.72 214.72,32.72 C214.39,32.72 214.12,32.99 214.12,33.31 C214.12,33.63 214.39,33.89 214.72,33.89 C215.05,33.89 215.32,33.63 215.32,33.31 Z" style="stroke-width: 1; stroke: rgb(0, 0, 0); fill: rgb(0, 0, 0); fill-opacity: 1;"/></g><g class="composite-shape"><path class="real" d=" M211.35,44.98 C211.35,43.15 212.86,41.67 214.72,41.67 C216.58,41.67 218.09,43.15 218.09,44.98 C218.09,46.81 216.58,48.29 214.72,48.29 C212.86,48.29 211.35,46.81 211.35,44.98 Z" style="stroke-width: 1; stroke: rgb(0, 0, 0); fill: none; fill-opacity: 1;"/></g><g class="composite-shape"><path class="real" d=" M215.32,44.98 C215.32,44.66 215.05,44.4 214.72,44.4 C214.39,44.4 214.12,44.66 214.12,44.98 C214.12,45.3 214.39,45.56 214.72,45.56 C215.05,45.56 215.32,45.3 215.32,44.98 Z" style="stroke-width: 1; stroke: rgb(0, 0, 0); fill: rgb(0, 0, 0); fill-opacity: 1;"/></g><g class="composite-shape"><path class="real" d=" M211.35,56.65 C211.35,54.83 212.86,53.35 214.72,53.35 C216.58,53.35 218.09,54.83 218.09,56.65 C218.09,58.48 216.58,59.96 214.72,59.96 C212.86,59.96 211.35,58.48 211.35,56.65 Z" style="stroke-width: 1; stroke: rgb(0, 0, 0); fill: none; fill-opacity: 1;"/></g><g class="composite-shape"><path class="real" d=" M215.32,56.65 C215.32,56.33 215.05,56.07 214.72,56.07 C214.39,56.07 214.12,56.33 214.12,56.65 C214.12,56.98 214.39,57.24 214.72,57.24 C215.05,57.24 215.32,56.98 215.32,56.65 Z" style="stroke-width: 1; stroke: rgb(0, 0, 0); fill: rgb(0, 0, 0); fill-opacity: 1;"/></g><g class="composite-shape"><path class="real" d=" M223.25,33.31 C223.25,31.48 224.76,30 226.63,30 C228.49,30 230,31.48 230,33.31 C230,35.13 228.49,36.61 226.63,36.61 C224.76,36.61 223.25,35.13 223.25,33.31 Z" style="stroke-width: 1; stroke: rgb(0, 0, 0); fill: none; fill-opacity: 1;"/></g><g class="composite-shape"><path class="real" d=" M227.22,33.31 C227.22,32.99 226.96,32.72 226.63,32.72 C226.3,32.72 226.03,32.99 226.03,33.31 C226.03,33.63 226.3,33.89 226.63,33.89 C226.96,33.89 227.22,33.63 227.22,33.31 Z" style="stroke-width: 1; stroke: rgb(0, 0, 0); fill: rgb(0, 0, 0); fill-opacity: 1;"/></g><g class="composite-shape"><path class="real" d=" M223.25,44.98 C223.25,43.15 224.76,41.67 226.63,41.67 C228.49,41.67 230,43.15 230,44.98 C230,46.81 228.49,48.29 226.63,48.29 C224.76,48.29 223.25,46.81 223.25,44.98 Z" style="stroke-width: 1; stroke: rgb(0, 0, 0); fill: none; fill-opacity: 1;"/></g><g class="composite-shape"><path class="real" d=" M227.22,44.98 C227.22,44.66 226.96,44.4 226.63,44.4 C226.3,44.4 226.03,44.66 226.03,44.98 C226.03,45.3 226.3,45.56 226.63,45.56 C226.96,45.56 227.22,45.3 227.22,44.98 Z" style="stroke-width: 1; stroke: rgb(0, 0, 0); fill: rgb(0, 0, 0); fill-opacity: 1;"/></g><g class="composite-shape"><path class="real" d=" M223.25,56.65 C223.25,54.83 224.76,53.35 226.63,53.35 C228.49,53.35 230,54.83 230,56.65 C230,58.48 228.49,59.96 226.63,59.96 C224.76,59.96 223.25,58.48 223.25,56.65 Z" style="stroke-width: 1; stroke: rgb(0, 0, 0); fill: none; fill-opacity: 1;"/></g><g class="composite-shape"><path class="real" d=" M227.22,56.65 C227.22,56.33 226.96,56.07 226.63,56.07 C226.3,56.07 226.03,56.33 226.03,56.65 C226.03,56.98 226.3,57.24 226.63,57.24 C226.96,57.24 227.22,56.98 227.22,56.65 Z" style="stroke-width: 1; stroke: rgb(0, 0, 0); fill: rgb(0, 0, 0); fill-opacity: 1;"/></g><g class="composite-shape"><path class="real" d=" M199.44,68.33 C199.44,66.5 200.95,65.02 202.81,65.02 C204.68,65.02 206.19,66.5 206.19,68.33 C206.19,70.15 204.68,71.63 202.81,71.63 C200.95,71.63 199.44,70.15 199.44,68.33 Z" style="stroke-width: 1; stroke: rgb(0, 0, 0); fill: none; fill-opacity: 1;"/></g><g class="composite-shape"><path class="real" d=" M203.41,68.33 C203.41,68 203.14,67.74 202.81,67.74 C202.48,67.74 202.22,68 202.22,68.33 C202.22,68.65 202.48,68.91 202.81,68.91 C203.14,68.91 203.41,68.65 203.41,68.33 Z" style="stroke-width: 1; stroke: rgb(0, 0, 0); fill: rgb(0, 0, 0); fill-opacity: 1;"/></g><g class="composite-shape"><path class="real" d=" M199.44,80 C199.44,78.17 200.95,76.69 202.81,76.69 C204.68,76.69 206.19,78.17 206.19,80 C206.19,81.83 204.68,83.31 202.81,83.31 C200.95,83.31 199.44,81.83 199.44,80 Z" style="stroke-width: 1; stroke: rgb(0, 0, 0); fill: none; fill-opacity: 1;"/></g><g class="composite-shape"><path class="real" d=" M203.41,80 C203.41,79.68 203.14,79.42 202.81,79.42 C202.48,79.42 202.22,79.68 202.22,80 C202.22,80.32 202.48,80.58 202.81,80.58 C203.14,80.58 203.41,80.32 203.41,80 Z" style="stroke-width: 1; stroke: rgb(0, 0, 0); fill: rgb(0, 0, 0); fill-opacity: 1;"/></g><g class="composite-shape"><path class="real" d=" M199.44,91.67 C199.44,89.85 200.95,88.37 202.81,88.37 C204.68,88.37 206.19,89.85 206.19,91.67 C206.19,93.5 204.68,94.98 202.81,94.98 C200.95,94.98 199.44,93.5 199.44,91.67 Z" style="stroke-width: 1; stroke: rgb(0, 0, 0); fill: none; fill-opacity: 1;"/></g><g class="composite-shape"><path class="real" d=" M203.41,91.67 C203.41,91.35 203.14,91.09 202.81,91.09 C202.48,91.09 202.22,91.35 202.22,91.67 C202.22,92 202.48,92.26 202.81,92.26 C203.14,92.26 203.41,92 203.41,91.67 Z" style="stroke-width: 1; stroke: rgb(0, 0, 0); fill: rgb(0, 0, 0); fill-opacity: 1;"/></g><g class="composite-shape"><path class="real" d=" M211.35,68.33 C211.35,66.5 212.86,65.02 214.72,65.02 C216.58,65.02 218.09,66.5 218.09,68.33 C218.09,70.15 216.58,71.63 214.72,71.63 C212.86,71.63 211.35,70.15 211.35,68.33 Z" style="stroke-width: 1; stroke: rgb(0, 0, 0); fill: none; fill-opacity: 1;"/></g><g class="composite-shape"><path class="real" d=" M215.32,68.33 C215.32,68 215.05,67.74 214.72,67.74 C214.39,67.74 214.12,68 214.12,68.33 C214.12,68.65 214.39,68.91 214.72,68.91 C215.05,68.91 215.32,68.65 215.32,68.33 Z" style="stroke-width: 1; stroke: rgb(0, 0, 0); fill: rgb(0, 0, 0); fill-opacity: 1;"/></g><g class="composite-shape"><path class="real" d=" M211.35,80 C211.35,78.17 212.86,76.69 214.72,76.69 C216.58,76.69 218.09,78.17 218.09,80 C218.09,81.83 216.58,83.31 214.72,83.31 C212.86,83.31 211.35,81.83 211.35,80 Z" style="stroke-width: 1; stroke: rgb(0, 0, 0); fill: none; fill-opacity: 1;"/></g><g class="composite-shape"><path class="real" d=" M215.32,80 C215.32,79.68 215.05,79.42 214.72,79.42 C214.39,79.42 214.12,79.68 214.12,80 C214.12,80.32 214.39,80.58 214.72,80.58 C215.05,80.58 215.32,80.32 215.32,80 Z" style="stroke-width: 1; stroke: rgb(0, 0, 0); fill: rgb(0, 0, 0); fill-opacity: 1;"/></g><g class="composite-shape"><path class="real" d=" M211.35,91.67 C211.35,89.85 212.86,88.37 214.72,88.37 C216.58,88.37 218.09,89.85 218.09,91.67 C218.09,93.5 216.58,94.98 214.72,94.98 C212.86,94.98 211.35,93.5 211.35,91.67 Z" style="stroke-width: 1; stroke: rgb(0, 0, 0); fill: none; fill-opacity: 1;"/></g><g class="composite-shape"><path class="real" d=" M215.32,91.67 C215.32,91.35 215.05,91.09 214.72,91.09 C214.39,91.09 214.12,91.35 214.12,91.67 C214.12,92 214.39,92.26 214.72,92.26 C215.05,92.26 215.32,92 215.32,91.67 Z" style="stroke-width: 1; stroke: rgb(0, 0, 0); fill: rgb(0, 0, 0); fill-opacity: 1;"/></g><g class="composite-shape"><path class="real" d=" M223.25,68.33 C223.25,66.5 224.76,65.02 226.63,65.02 C228.49,65.02 230,66.5 230,68.33 C230,70.15 228.49,71.63 226.63,71.63 C224.76,71.63 223.25,70.15 223.25,68.33 Z" style="stroke-width: 1; stroke: rgb(0, 0, 0); fill: none; fill-opacity: 1;"/></g><g class="composite-shape"><path class="real" d=" M227.22,68.33 C227.22,68 226.96,67.74 226.63,67.74 C226.3,67.74 226.03,68 226.03,68.33 C226.03,68.65 226.3,68.91 226.63,68.91 C226.96,68.91 227.22,68.65 227.22,68.33 Z" style="stroke-width: 1; stroke: rgb(0, 0, 0); fill: rgb(0, 0, 0); fill-opacity: 1;"/></g><g class="composite-shape"><path class="real" d=" M223.25,80 C223.25,78.17 224.76,76.69 226.63,76.69 C228.49,76.69 230,78.17 230,80 C230,81.83 228.49,83.31 226.63,83.31 C224.76,83.31 223.25,81.83 223.25,80 Z" style="stroke-width: 1; stroke: rgb(0, 0, 0); fill: none; fill-opacity: 1;"/></g><g class="composite-shape"><path class="real" d=" M227.22,80 C227.22,79.68 226.96,79.42 226.63,79.42 C226.3,79.42 226.03,79.68 226.03,80 C226.03,80.32 226.3,80.58 226.63,80.58 C226.96,80.58 227.22,80.32 227.22,80 Z" style="stroke-width: 1; stroke: rgb(0, 0, 0); fill: rgb(0, 0, 0); fill-opacity: 1;"/></g><g class="composite-shape"><path class="real" d=" M223.25,91.67 C223.25,89.85 224.76,88.37 226.63,88.37 C228.49,88.37 230,89.85 230,91.67 C230,93.5 228.49,94.98 226.63,94.98 C224.76,94.98 223.25,93.5 223.25,91.67 Z" style="stroke-width: 1; stroke: rgb(0, 0, 0); fill: none; fill-opacity: 1;"/></g><g class="composite-shape"><path class="real" d=" M227.22,91.67 C227.22,91.35 226.96,91.09 226.63,91.09 C226.3,91.09 226.03,91.35 226.03,91.67 C226.03,92 226.3,92.26 226.63,92.26 C226.96,92.26 227.22,92 227.22,91.67 Z" style="stroke-width: 1; stroke: rgb(0, 0, 0); fill: rgb(0, 0, 0); fill-opacity: 1;"/></g><g class="composite-shape"><path class="real" d=" M128,103.35 C128,101.52 129.51,100.04 131.37,100.04 C133.24,100.04 134.75,101.52 134.75,103.35 C134.75,105.17 133.24,106.65 131.37,106.65 C129.51,106.65 128,105.17 128,103.35 Z" style="stroke-width: 1; stroke: rgb(0, 0, 0); fill: none; fill-opacity: 1;"/></g><g class="composite-shape"><path class="real" d=" M131.97,103.35 C131.97,103.02 131.7,102.76 131.37,102.76 C131.04,102.76 130.78,103.02 130.78,103.35 C130.78,103.67 131.04,103.93 131.37,103.93 C131.7,103.93 131.97,103.67 131.97,103.35 Z" style="stroke-width: 1; stroke: rgb(0, 0, 0); fill: rgb(0, 0, 0); fill-opacity: 1;"/></g><g class="composite-shape"><path class="real" d=" M128,115.02 C128,113.19 129.51,111.71 131.37,111.71 C133.24,111.71 134.75,113.19 134.75,115.02 C134.75,116.85 133.24,118.33 131.37,118.33 C129.51,118.33 128,116.85 128,115.02 Z" style="stroke-width: 1; stroke: rgb(0, 0, 0); fill: none; fill-opacity: 1;"/></g><g class="composite-shape"><path class="real" d=" M131.97,115.02 C131.97,114.7 131.7,114.44 131.37,114.44 C131.04,114.44 130.78,114.7 130.78,115.02 C130.78,115.34 131.04,115.6 131.37,115.6 C131.7,115.6 131.97,115.34 131.97,115.02 Z" style="stroke-width: 1; stroke: rgb(0, 0, 0); fill: rgb(0, 0, 0); fill-opacity: 1;"/></g><g class="composite-shape"><path class="real" d=" M128,126.69 C128,124.87 129.51,123.39 131.37,123.39 C133.24,123.39 134.75,124.87 134.75,126.69 C134.75,128.52 133.24,130 131.37,130 C129.51,130 128,128.52 128,126.69 Z" style="stroke-width: 1; stroke: rgb(0, 0, 0); fill: none; fill-opacity: 1;"/></g><g class="composite-shape"><path class="real" d=" M131.97,126.69 C131.97,126.37 131.7,126.11 131.37,126.11 C131.04,126.11 130.78,126.37 130.78,126.69 C130.78,127.01 131.04,127.28 131.37,127.28 C131.7,127.28 131.97,127.01 131.97,126.69 Z" style="stroke-width: 1; stroke: rgb(0, 0, 0); fill: rgb(0, 0, 0); fill-opacity: 1;"/></g><g class="composite-shape"><path class="real" d=" M139.91,103.35 C139.91,101.52 141.42,100.04 143.28,100.04 C145.14,100.04 146.65,101.52 146.65,103.35 C146.65,105.17 145.14,106.65 143.28,106.65 C141.42,106.65 139.91,105.17 139.91,103.35 Z" style="stroke-width: 1; stroke: rgb(0, 0, 0); fill: none; fill-opacity: 1;"/></g><g class="composite-shape"><path class="real" d=" M143.88,103.35 C143.88,103.02 143.61,102.76 143.28,102.76 C142.95,102.76 142.68,103.02 142.68,103.35 C142.68,103.67 142.95,103.93 143.28,103.93 C143.61,103.93 143.88,103.67 143.88,103.35 Z" style="stroke-width: 1; stroke: rgb(0, 0, 0); fill: rgb(0, 0, 0); fill-opacity: 1;"/></g><g class="composite-shape"><path class="real" d=" M139.91,115.02 C139.91,113.19 141.42,111.71 143.28,111.71 C145.14,111.71 146.65,113.19 146.65,115.02 C146.65,116.85 145.14,118.33 143.28,118.33 C141.42,118.33 139.91,116.85 139.91,115.02 Z" style="stroke-width: 1; stroke: rgb(0, 0, 0); fill: none; fill-opacity: 1;"/></g><g class="composite-shape"><path class="real" d=" M143.88,115.02 C143.88,114.7 143.61,114.44 143.28,114.44 C142.95,114.44 142.68,114.7 142.68,115.02 C142.68,115.34 142.95,115.6 143.28,115.6 C143.61,115.6 143.88,115.34 143.88,115.02 Z" style="stroke-width: 1; stroke: rgb(0, 0, 0); fill: rgb(0, 0, 0); fill-opacity: 1;"/></g><g class="composite-shape"><path class="real" d=" M139.91,126.69 C139.91,124.87 141.42,123.39 143.28,123.39 C145.14,123.39 146.65,124.87 146.65,126.69 C146.65,128.52 145.14,130 143.28,130 C141.42,130 139.91,128.52 139.91,126.69 Z" style="stroke-width: 1; stroke: rgb(0, 0, 0); fill: none; fill-opacity: 1;"/></g><g class="composite-shape"><path class="real" d=" M143.88,126.69 C143.88,126.37 143.61,126.11 143.28,126.11 C142.95,126.11 142.68,126.37 142.68,126.69 C142.68,127.01 142.95,127.28 143.28,127.28 C143.61,127.28 143.88,127.01 143.88,126.69 Z" style="stroke-width: 1; stroke: rgb(0, 0, 0); fill: rgb(0, 0, 0); fill-opacity: 1;"/></g><g class="composite-shape"><path class="real" d=" M151.81,103.35 C151.81,101.52 153.32,100.04 155.19,100.04 C157.05,100.04 158.56,101.52 158.56,103.35 C158.56,105.17 157.05,106.65 155.19,106.65 C153.32,106.65 151.81,105.17 151.81,103.35 Z" style="stroke-width: 1; stroke: rgb(0, 0, 0); fill: none; fill-opacity: 1;"/></g><g class="composite-shape"><path class="real" d=" M155.78,103.35 C155.78,103.02 155.52,102.76 155.19,102.76 C154.86,102.76 154.59,103.02 154.59,103.35 C154.59,103.67 154.86,103.93 155.19,103.93 C155.52,103.93 155.78,103.67 155.78,103.35 Z" style="stroke-width: 1; stroke: rgb(0, 0, 0); fill: rgb(0, 0, 0); fill-opacity: 1;"/></g><g class="composite-shape"><path class="real" d=" M151.81,115.02 C151.81,113.19 153.32,111.71 155.19,111.71 C157.05,111.71 158.56,113.19 158.56,115.02 C158.56,116.85 157.05,118.33 155.19,118.33 C153.32,118.33 151.81,116.85 151.81,115.02 Z" style="stroke-width: 1; stroke: rgb(0, 0, 0); fill: none; fill-opacity: 1;"/></g><g class="composite-shape"><path class="real" d=" M155.78,115.02 C155.78,114.7 155.52,114.44 155.19,114.44 C154.86,114.44 154.59,114.7 154.59,115.02 C154.59,115.34 154.86,115.6 155.19,115.6 C155.52,115.6 155.78,115.34 155.78,115.02 Z" style="stroke-width: 1; stroke: rgb(0, 0, 0); fill: rgb(0, 0, 0); fill-opacity: 1;"/></g><g class="composite-shape"><path class="real" d=" M151.81,126.69 C151.81,124.87 153.32,123.39 155.19,123.39 C157.05,123.39 158.56,124.87 158.56,126.69 C158.56,128.52 157.05,130 155.19,130 C153.32,130 151.81,128.52 151.81,126.69 Z" style="stroke-width: 1; stroke: rgb(0, 0, 0); fill: none; fill-opacity: 1;"/></g><g class="composite-shape"><path class="real" d=" M155.78,126.69 C155.78,126.37 155.52,126.11 155.19,126.11 C154.86,126.11 154.59,126.37 154.59,126.69 C154.59,127.01 154.86,127.28 155.19,127.28 C155.52,127.28 155.78,127.01 155.78,126.69 Z" style="stroke-width: 1; stroke: rgb(0, 0, 0); fill: rgb(0, 0, 0); fill-opacity: 1;"/></g><g class="composite-shape"><path class="real" d=" M163.72,103.35 C163.72,101.52 165.23,100.04 167.09,100.04 C168.96,100.04 170.47,101.52 170.47,103.35 C170.47,105.17 168.96,106.65 167.09,106.65 C165.23,106.65 163.72,105.17 163.72,103.35 Z" style="stroke-width: 1; stroke: rgb(0, 0, 0); fill: none; fill-opacity: 1;"/></g><g class="composite-shape"><path class="real" d=" M167.69,103.35 C167.69,103.02 167.42,102.76 167.09,102.76 C166.76,102.76 166.5,103.02 166.5,103.35 C166.5,103.67 166.76,103.93 167.09,103.93 C167.42,103.93 167.69,103.67 167.69,103.35 Z" style="stroke-width: 1; stroke: rgb(0, 0, 0); fill: rgb(0, 0, 0); fill-opacity: 1;"/></g><g class="composite-shape"><path class="real" d=" M163.72,115.02 C163.72,113.19 165.23,111.71 167.09,111.71 C168.96,111.71 170.47,113.19 170.47,115.02 C170.47,116.85 168.96,118.33 167.09,118.33 C165.23,118.33 163.72,116.85 163.72,115.02 Z" style="stroke-width: 1; stroke: rgb(0, 0, 0); fill: none; fill-opacity: 1;"/></g><g class="composite-shape"><path class="real" d=" M167.69,115.02 C167.69,114.7 167.42,114.44 167.09,114.44 C166.76,114.44 166.5,114.7 166.5,115.02 C166.5,115.34 166.76,115.6 167.09,115.6 C167.42,115.6 167.69,115.34 167.69,115.02 Z" style="stroke-width: 1; stroke: rgb(0, 0, 0); fill: rgb(0, 0, 0); fill-opacity: 1;"/></g><g class="composite-shape"><path class="real" d=" M163.72,126.69 C163.72,124.87 165.23,123.39 167.09,123.39 C168.96,123.39 170.47,124.87 170.47,126.69 C170.47,128.52 168.96,130 167.09,130 C165.23,130 163.72,128.52 163.72,126.69 Z" style="stroke-width: 1; stroke: rgb(0, 0, 0); fill: none; fill-opacity: 1;"/></g><g class="composite-shape"><path class="real" d=" M167.69,126.69 C167.69,126.37 167.42,126.11 167.09,126.11 C166.76,126.11 166.5,126.37 166.5,126.69 C166.5,127.01 166.76,127.28 167.09,127.28 C167.42,127.28 167.69,127.01 167.69,126.69 Z" style="stroke-width: 1; stroke: rgb(0, 0, 0); fill: rgb(0, 0, 0); fill-opacity: 1;"/></g><g class="composite-shape"><path class="real" d=" M175.63,103.35 C175.63,101.52 177.14,100.04 179,100.04 C180.86,100.04 182.37,101.52 182.37,103.35 C182.37,105.17 180.86,106.65 179,106.65 C177.14,106.65 175.63,105.17 175.63,103.35 Z" style="stroke-width: 1; stroke: rgb(0, 0, 0); fill: none; fill-opacity: 1;"/></g><g class="composite-shape"><path class="real" d=" M179.6,103.35 C179.6,103.02 179.33,102.76 179,102.76 C178.67,102.76 178.4,103.02 178.4,103.35 C178.4,103.67 178.67,103.93 179,103.93 C179.33,103.93 179.6,103.67 179.6,103.35 Z" style="stroke-width: 1; stroke: rgb(0, 0, 0); fill: rgb(0, 0, 0); fill-opacity: 1;"/></g><g class="composite-shape"><path class="real" d=" M175.63,115.02 C175.63,113.19 177.14,111.71 179,111.71 C180.86,111.71 182.37,113.19 182.37,115.02 C182.37,116.85 180.86,118.33 179,118.33 C177.14,118.33 175.63,116.85 175.63,115.02 Z" style="stroke-width: 1; stroke: rgb(0, 0, 0); fill: none; fill-opacity: 1;"/></g><g class="composite-shape"><path class="real" d=" M179.6,115.02 C179.6,114.7 179.33,114.44 179,114.44 C178.67,114.44 178.4,114.7 178.4,115.02 C178.4,115.34 178.67,115.6 179,115.6 C179.33,115.6 179.6,115.34 179.6,115.02 Z" style="stroke-width: 1; stroke: rgb(0, 0, 0); fill: rgb(0, 0, 0); fill-opacity: 1;"/></g><g class="composite-shape"><path class="real" d=" M175.63,126.69 C175.63,124.87 177.14,123.39 179,123.39 C180.86,123.39 182.37,124.87 182.37,126.69 C182.37,128.52 180.86,130 179,130 C177.14,130 175.63,128.52 175.63,126.69 Z" style="stroke-width: 1; stroke: rgb(0, 0, 0); fill: none; fill-opacity: 1;"/></g><g class="composite-shape"><path class="real" d=" M179.6,126.69 C179.6,126.37 179.33,126.11 179,126.11 C178.67,126.11 178.4,126.37 178.4,126.69 C178.4,127.01 178.67,127.28 179,127.28 C179.33,127.28 179.6,127.01 179.6,126.69 Z" style="stroke-width: 1; stroke: rgb(0, 0, 0); fill: rgb(0, 0, 0); fill-opacity: 1;"/></g><g class="composite-shape"><path class="real" d=" M187.53,103.35 C187.53,101.52 189.04,100.04 190.91,100.04 C192.77,100.04 194.28,101.52 194.28,103.35 C194.28,105.17 192.77,106.65 190.91,106.65 C189.04,106.65 187.53,105.17 187.53,103.35 Z" style="stroke-width: 1; stroke: rgb(0, 0, 0); fill: none; fill-opacity: 1;"/></g><g class="composite-shape"><path class="real" d=" M191.5,103.35 C191.5,103.02 191.24,102.76 190.91,102.76 C190.58,102.76 190.31,103.02 190.31,103.35 C190.31,103.67 190.58,103.93 190.91,103.93 C191.24,103.93 191.5,103.67 191.5,103.35 Z" style="stroke-width: 1; stroke: rgb(0, 0, 0); fill: rgb(0, 0, 0); fill-opacity: 1;"/></g><g class="composite-shape"><path class="real" d=" M187.53,115.02 C187.53,113.19 189.04,111.71 190.91,111.71 C192.77,111.71 194.28,113.19 194.28,115.02 C194.28,116.85 192.77,118.33 190.91,118.33 C189.04,118.33 187.53,116.85 187.53,115.02 Z" style="stroke-width: 1; stroke: rgb(0, 0, 0); fill: none; fill-opacity: 1;"/></g><g class="composite-shape"><path class="real" d=" M191.5,115.02 C191.5,114.7 191.24,114.44 190.91,114.44 C190.58,114.44 190.31,114.7 190.31,115.02 C190.31,115.34 190.58,115.6 190.91,115.6 C191.24,115.6 191.5,115.34 191.5,115.02 Z" style="stroke-width: 1; stroke: rgb(0, 0, 0); fill: rgb(0, 0, 0); fill-opacity: 1;"/></g><g class="composite-shape"><path class="real" d=" M187.53,126.69 C187.53,124.87 189.04,123.39 190.91,123.39 C192.77,123.39 194.28,124.87 194.28,126.69 C194.28,128.52 192.77,130 190.91,130 C189.04,130 187.53,128.52 187.53,126.69 Z" style="stroke-width: 1; stroke: rgb(0, 0, 0); fill: none; fill-opacity: 1;"/></g><g class="composite-shape"><path class="real" d=" M191.5,126.69 C191.5,126.37 191.24,126.11 190.91,126.11 C190.58,126.11 190.31,126.37 190.31,126.69 C190.31,127.01 190.58,127.28 190.91,127.28 C191.24,127.28 191.5,127.01 191.5,126.69 Z" style="stroke-width: 1; stroke: rgb(0, 0, 0); fill: rgb(0, 0, 0); fill-opacity: 1;"/></g><g class="composite-shape"><path class="real" d=" M199.44,103.35 C199.44,101.52 200.95,100.04 202.81,100.04 C204.68,100.04 206.19,101.52 206.19,103.35 C206.19,105.17 204.68,106.65 202.81,106.65 C200.95,106.65 199.44,105.17 199.44,103.35 Z" style="stroke-width: 1; stroke: rgb(0, 0, 0); fill: none; fill-opacity: 1;"/></g><g class="composite-shape"><path class="real" d=" M203.41,103.35 C203.41,103.02 203.14,102.76 202.81,102.76 C202.48,102.76 202.22,103.02 202.22,103.35 C202.22,103.67 202.48,103.93 202.81,103.93 C203.14,103.93 203.41,103.67 203.41,103.35 Z" style="stroke-width: 1; stroke: rgb(0, 0, 0); fill: rgb(0, 0, 0); fill-opacity: 1;"/></g><g class="composite-shape"><path class="real" d=" M199.44,115.02 C199.44,113.19 200.95,111.71 202.81,111.71 C204.68,111.71 206.19,113.19 206.19,115.02 C206.19,116.85 204.68,118.33 202.81,118.33 C200.95,118.33 199.44,116.85 199.44,115.02 Z" style="stroke-width: 1; stroke: rgb(0, 0, 0); fill: none; fill-opacity: 1;"/></g><g class="composite-shape"><path class="real" d=" M203.41,115.02 C203.41,114.7 203.14,114.44 202.81,114.44 C202.48,114.44 202.22,114.7 202.22,115.02 C202.22,115.34 202.48,115.6 202.81,115.6 C203.14,115.6 203.41,115.34 203.41,115.02 Z" style="stroke-width: 1; stroke: rgb(0, 0, 0); fill: rgb(0, 0, 0); fill-opacity: 1;"/></g><g class="composite-shape"><path class="real" d=" M199.44,126.69 C199.44,124.87 200.95,123.39 202.81,123.39 C204.68,123.39 206.19,124.87 206.19,126.69 C206.19,128.52 204.68,130 202.81,130 C200.95,130 199.44,128.52 199.44,126.69 Z" style="stroke-width: 1; stroke: rgb(0, 0, 0); fill: none; fill-opacity: 1;"/></g><g class="composite-shape"><path class="real" d=" M203.41,126.69 C203.41,126.37 203.14,126.11 202.81,126.11 C202.48,126.11 202.22,126.37 202.22,126.69 C202.22,127.01 202.48,127.28 202.81,127.28 C203.14,127.28 203.41,127.01 203.41,126.69 Z" style="stroke-width: 1; stroke: rgb(0, 0, 0); fill: rgb(0, 0, 0); fill-opacity: 1;"/></g><g class="composite-shape"><path class="real" d=" M211.35,103.35 C211.35,101.52 212.86,100.04 214.72,100.04 C216.58,100.04 218.09,101.52 218.09,103.35 C218.09,105.17 216.58,106.65 214.72,106.65 C212.86,106.65 211.35,105.17 211.35,103.35 Z" style="stroke-width: 1; stroke: rgb(0, 0, 0); fill: none; fill-opacity: 1;"/></g><g class="composite-shape"><path class="real" d=" M215.32,103.35 C215.32,103.02 215.05,102.76 214.72,102.76 C214.39,102.76 214.12,103.02 214.12,103.35 C214.12,103.67 214.39,103.93 214.72,103.93 C215.05,103.93 215.32,103.67 215.32,103.35 Z" style="stroke-width: 1; stroke: rgb(0, 0, 0); fill: rgb(0, 0, 0); fill-opacity: 1;"/></g><g class="composite-shape"><path class="real" d=" M211.35,115.02 C211.35,113.19 212.86,111.71 214.72,111.71 C216.58,111.71 218.09,113.19 218.09,115.02 C218.09,116.85 216.58,118.33 214.72,118.33 C212.86,118.33 211.35,116.85 211.35,115.02 Z" style="stroke-width: 1; stroke: rgb(0, 0, 0); fill: none; fill-opacity: 1;"/></g><g class="composite-shape"><path class="real" d=" M215.32,115.02 C215.32,114.7 215.05,114.44 214.72,114.44 C214.39,114.44 214.12,114.7 214.12,115.02 C214.12,115.34 214.39,115.6 214.72,115.6 C215.05,115.6 215.32,115.34 215.32,115.02 Z" style="stroke-width: 1; stroke: rgb(0, 0, 0); fill: rgb(0, 0, 0); fill-opacity: 1;"/></g><g class="composite-shape"><path class="real" d=" M211.35,126.69 C211.35,124.87 212.86,123.39 214.72,123.39 C216.58,123.39 218.09,124.87 218.09,126.69 C218.09,128.52 216.58,130 214.72,130 C212.86,130 211.35,128.52 211.35,126.69 Z" style="stroke-width: 1; stroke: rgb(0, 0, 0); fill: none; fill-opacity: 1;"/></g><g class="composite-shape"><path class="real" d=" M215.32,126.69 C215.32,126.37 215.05,126.11 214.72,126.11 C214.39,126.11 214.12,126.37 214.12,126.69 C214.12,127.01 214.39,127.28 214.72,127.28 C215.05,127.28 215.32,127.01 215.32,126.69 Z" style="stroke-width: 1; stroke: rgb(0, 0, 0); fill: rgb(0, 0, 0); fill-opacity: 1;"/></g><g class="composite-shape"><path class="real" d=" M223.25,103.35 C223.25,101.52 224.76,100.04 226.63,100.04 C228.49,100.04 230,101.52 230,103.35 C230,105.17 228.49,106.65 226.63,106.65 C224.76,106.65 223.25,105.17 223.25,103.35 Z" style="stroke-width: 1; stroke: rgb(0, 0, 0); fill: none; fill-opacity: 1;"/></g><g class="composite-shape"><path class="real" d=" M227.22,103.35 C227.22,103.02 226.96,102.76 226.63,102.76 C226.3,102.76 226.03,103.02 226.03,103.35 C226.03,103.67 226.3,103.93 226.63,103.93 C226.96,103.93 227.22,103.67 227.22,103.35 Z" style="stroke-width: 1; stroke: rgb(0, 0, 0); fill: rgb(0, 0, 0); fill-opacity: 1;"/></g><g class="composite-shape"><path class="real" d=" M223.25,115.02 C223.25,113.19 224.76,111.71 226.63,111.71 C228.49,111.71 230,113.19 230,115.02 C230,116.85 228.49,118.33 226.63,118.33 C224.76,118.33 223.25,116.85 223.25,115.02 Z" style="stroke-width: 1; stroke: rgb(0, 0, 0); fill: none; fill-opacity: 1;"/></g><g class="composite-shape"><path class="real" d=" M227.22,115.02 C227.22,114.7 226.96,114.44 226.63,114.44 C226.3,114.44 226.03,114.7 226.03,115.02 C226.03,115.34 226.3,115.6 226.63,115.6 C226.96,115.6 227.22,115.34 227.22,115.02 Z" style="stroke-width: 1; stroke: rgb(0, 0, 0); fill: rgb(0, 0, 0); fill-opacity: 1;"/></g><g class="composite-shape"><path class="real" d=" M223.25,126.69 C223.25,124.87 224.76,123.39 226.63,123.39 C228.49,123.39 230,124.87 230,126.69 C230,128.52 228.49,130 226.63,130 C224.76,130 223.25,128.52 223.25,126.69 Z" style="stroke-width: 1; stroke: rgb(0, 0, 0); fill: none; fill-opacity: 1;"/></g><g class="composite-shape"><path class="real" d=" M227.22,126.69 C227.22,126.37 226.96,126.11 226.63,126.11 C226.3,126.11 226.03,126.37 226.03,126.69 C226.03,127.01 226.3,127.28 226.63,127.28 C226.96,127.28 227.22,127.01 227.22,126.69 Z" style="stroke-width: 1; stroke: rgb(0, 0, 0); fill: rgb(0, 0, 0); fill-opacity: 1;"/></g></g><g class="composite-shape"><path class="real" d=" M149,49.33 L209,49.33 L209,109.33 L149,109.33 Z" style="stroke-width: 3; stroke: rgb(0, 0, 0); fill: rgb(155, 155, 155); fill-opacity: 0.2;"/></g><g/></g><g/><g/><g/></svg>
        <svg xmlns="http://www.w3.org/2000/svg" xmlns:xlink="http://www.w3.org/1999/xlink" width="314" height="170" style="width:314px;height:170px;font-family:Asana-Math, Asana;background:transparent;"><g><g><g><g transform="matrix(1,0,0,1,39.333343505859375,156.33334350585938)"><path transform="matrix(0.017,0,0,-0.017,0,0)" d="M125 390L69 107C68 99 56 61 56 31C56 6 67 -9 86 -9C121 -9 156 11 234 74L265 99L255 117L210 86C181 66 161 56 150 56C141 56 136 64 136 76C136 102 150 183 179 328L192 390L299 390L310 440C272 436 238 434 200 434C216 528 227 577 245 631L234 646C214 634 187 622 156 610L131 440C87 419 61 408 43 403L41 390Z" stroke="rgb(0,0,0)" stroke-opacity="1" stroke-width="8" fill="rgb(0,0,0)" fill-opacity="1"></path></g></g><g><g transform="matrix(1,0,0,1,50.078125,156.33334350585938)"><path transform="matrix(0.017,0,0,-0.017,0,0)" d="M604 347L604 406L65 406L65 347ZM604 134L604 193L65 193L65 134Z" stroke="rgb(0,0,0)" stroke-opacity="1" stroke-width="8" fill="rgb(0,0,0)" fill-opacity="1"></path></g></g><g><g transform="matrix(1,0,0,1,66.5364990234375,156.33334350585938)"><path transform="matrix(0.017,0,0,-0.017,0,0)" d="M263 689C108 689 29 566 29 324C29 207 50 106 85 57C120 8 176 -20 238 -20C389 -20 465 110 465 366C465 585 400 689 263 689ZM245 654C342 654 381 556 381 316C381 103 343 15 251 15C154 15 113 116 113 360C113 571 150 654 245 654Z" stroke="rgb(0,0,0)" stroke-opacity="1" stroke-width="8" fill="rgb(0,0,0)" fill-opacity="1"></path></g></g></g></g><g><g><g><g transform="matrix(1,0,0,1,162.3333740234375,156.33334350585938)"><path transform="matrix(0.017,0,0,-0.017,0,0)" d="M125 390L69 107C68 99 56 61 56 31C56 6 67 -9 86 -9C121 -9 156 11 234 74L265 99L255 117L210 86C181 66 161 56 150 56C141 56 136 64 136 76C136 102 150 183 179 328L192 390L299 390L310 440C272 436 238 434 200 434C216 528 227 577 245 631L234 646C214 634 187 622 156 610L131 440C87 419 61 408 43 403L41 390Z" stroke="rgb(0,0,0)" stroke-opacity="1" stroke-width="8" fill="rgb(0,0,0)" fill-opacity="1"></path></g></g><g><g transform="matrix(1,0,0,1,173.078125,156.33334350585938)"><path transform="matrix(0.017,0,0,-0.017,0,0)" d="M604 347L604 406L65 406L65 347ZM604 134L604 193L65 193L65 134Z" stroke="rgb(0,0,0)" stroke-opacity="1" stroke-width="8" fill="rgb(0,0,0)" fill-opacity="1"></path></g></g><g><g transform="matrix(1,0,0,1,189.5364990234375,156.33334350585938)"><path transform="matrix(0.017,0,0,-0.017,0,0)" d="M-33 6L-28 -4C79 0 185 0 292 0C393 0 494 -1 594 -4L602 6C560 116 534 238 504 354C475 466 442 580 424 697L399 697C336 587 53 127 -33 6ZM482 37L50 37C148 215 249 389 356 564L363 564C408 391 449 215 482 37ZM813 390L757 107C756 99 744 61 744 31C744 6 755 -9 774 -9C809 -9 844 11 922 74L953 99L943 117L898 86C869 66 849 56 838 56C829 56 824 64 824 76C824 102 838 183 867 328L880 390L987 390L998 440C960 436 926 434 888 434C904 528 915 577 933 631L922 646C902 634 875 622 844 610L819 440C775 419 749 408 731 403L729 390Z" stroke="rgb(0,0,0)" stroke-opacity="1" stroke-width="8" fill="rgb(0,0,0)" fill-opacity="1"></path></g></g></g></g><g><g><g><g transform="matrix(1,0,0,1,171.3333740234375,82.9)"><path transform="matrix(0.0119,0,0,-0.0119,0,0)" d="M1235 259C1235 576 977 833 660 833C343 833 86 576 86 259C86 -56 343 -316 660 -316C977 -316 1235 -56 1235 259ZM1181 259C1181 132 1136 15 1045 -88L704 253L1053 601C1138 497 1181 384 1181 259ZM1008 647L658 298L312 645C415 734 532 779 660 779C785 779 902 734 1008 647ZM1001 -131C897 -216 782 -264 660 -264C537 -264 424 -216 320 -133L660 209ZM614 254L273 -89C185 17 140 132 140 259C140 384 183 497 268 601Z" stroke="rgb(0,0,255)" stroke-opacity="1" stroke-width="8" fill="rgb(0,0,255)" fill-opacity="1"></path></g></g></g></g><g><g><g><g transform="matrix(1,0,0,1,92.3333740234375,16.333343505859375)"><path transform="matrix(0.017,0,0,-0.017,0,0)" d="M298 -3C508 -3 576 134 576 228C576 279 556 320 518 347C480 375 446 384 369 390C418 400 441 409 469 428C517 461 542 504 542 556C542 644 479 692 363 692L338 692C199 689 199 689 184 689C165 689 165 689 26 692L26 662L62 659C109 655 113 648 113 569L113 95C113 58 105 36 91 30L65 20L65 -3C134 -1 155 0 174 0C199 0 261 -3 298 -3ZM208 362C247 364 256 364 275 364C410 364 473 315 473 208C473 102 404 39 285 39C256 39 233 41 208 47ZM208 644C234 650 257 652 289 652C396 652 443 616 443 533C443 446 383 399 269 399C252 399 239 399 208 401Z" stroke="rgb(0,0,0)" stroke-opacity="1" stroke-width="24" fill="rgb(0,0,0)" fill-opacity="1"></path></g></g><g><g><g><g><g><g><g><text x="103.21356201171875" y="9.4375" style="white-space:pre;stroke:none;fill:rgb(0,0,0);fill-opacity:1;font-size:10.5px;font-family:Arial, Helvetica, sans-serif;font-weight:400;font-style:normal;dominant-baseline:text-before-edge;text-decoration:none solid rgb(0, 0, 0);">ext</text></g></g></g></g></g></g></g></g></g><g><g><g><g transform="matrix(1,0,0,1,76.4114990234375,16.733343505859374)"><path transform="matrix(0.020399999999999998,0,0,-0.020399999999999998,0,0)" d="M652 271C652 445 509 587 335 587C160 587 18 445 18 271C18 96 160 -46 335 -46C509 -46 652 96 652 271ZM604 271C604 122 482 1 335 1C186 1 65 122 65 271C65 419 186 540 335 540C482 540 604 419 604 271ZM393 271C393 301 365 329 334 329C304 329 277 301 277 271C277 241 303 213 334 213C366 213 393 241 393 271Z" stroke="rgb(0,0,0)" stroke-opacity="1" stroke-width="8" fill="rgb(0,0,0)" fill-opacity="1"></path></g></g></g></g><g><g><g><g transform="matrix(1,0,0,1,122.3333740234375,13.9)"><path transform="matrix(0.0119,0,0,-0.0119,0,0)" d="M1235 259C1235 576 977 833 660 833C343 833 86 576 86 259C86 -56 343 -316 660 -316C977 -316 1235 -56 1235 259ZM1181 259C1181 132 1136 15 1045 -88L704 253L1053 601C1138 497 1181 384 1181 259ZM1008 647L658 298L312 645C415 734 532 779 660 779C785 779 902 734 1008 647ZM1001 -131C897 -216 782 -264 660 -264C537 -264 424 -216 320 -133L660 209ZM614 254L273 -89C185 17 140 132 140 259C140 384 183 497 268 601Z" stroke="rgb(0,0,255)" stroke-opacity="1" stroke-width="8" fill="rgb(0,0,255)" fill-opacity="1"></path></g></g></g></g><g><g><g><g transform="matrix(1,0,0,1,139.3333740234375,16.333343505859375)"><path transform="matrix(0.017,0,0,-0.017,0,0)" d="M298 -3C508 -3 576 134 576 228C576 279 556 320 518 347C480 375 446 384 369 390C418 400 441 409 469 428C517 461 542 504 542 556C542 644 479 692 363 692L338 692C199 689 199 689 184 689C165 689 165 689 26 692L26 662L62 659C109 655 113 648 113 569L113 95C113 58 105 36 91 30L65 20L65 -3C134 -1 155 0 174 0C199 0 261 -3 298 -3ZM208 362C247 364 256 364 275 364C410 364 473 315 473 208C473 102 404 39 285 39C256 39 233 41 208 47ZM208 644C234 650 257 652 289 652C396 652 443 616 443 533C443 446 383 399 269 399C252 399 239 399 208 401Z" stroke="rgb(0,0,255)" stroke-opacity="1" stroke-width="24" fill="rgb(0,0,255)" fill-opacity="1"></path></g></g><g><g><g><g><g transform="matrix(1,0,0,1,150.21356201171875,19.004156494140624)"><path transform="matrix(0.0119,0,0,-0.0119,0,0)" d="M188 465L179 469C128 448 76 434 23 428L23 400L60 400C100 400 104 393 104 327L104 102C104 39 101 32 67 30L21 27L21 -3C121 0 121 0 146 0C171 0 171 0 271 -3L271 27L225 30C191 32 188 39 188 102ZM142 687C112 687 86 661 86 631C86 602 112 576 141 576C170 576 197 602 197 631C197 659 170 687 142 687ZM700 -3C761 0 762 0 779 0C793 0 793 0 862 -3L862 27L821 30C787 32 784 38 784 102L784 295C784 412 729 469 617 469C580 469 559 462 538 444L462 378L462 465L453 469C402 448 350 434 297 428L297 400L334 400C374 400 378 393 378 327L378 102C378 39 375 32 341 30L296 27L296 -3C364 -1 391 0 420 0C449 0 476 -1 544 -3L544 27L499 30C465 32 462 39 462 102L462 314C462 359 528 408 589 408C656 408 700 358 700 281ZM1450 -3L1450 27L1404 30C1370 32 1367 39 1367 102L1367 718L1358 726C1314 709 1281 701 1202 689L1202 661L1258 661C1276 661 1283 650 1283 620L1283 437C1255 472 1217 486 1177 486C1054 486 905 351 905 229C905 149 933 70 982 30C1016 1 1063 -12 1128 -12C1148 -12 1171 -8 1176 -4L1287 89L1282 -3C1331 -1 1347 0 1359 0C1377 0 1441 -3 1450 -3ZM1283 350L1283 221C1283 156 1281 146 1268 123C1240 76 1191 45 1144 45C1056 45 993 130 993 249C993 358 1047 422 1137 422C1216 422 1283 366 1283 350Z" stroke="rgb(0,0,255)" stroke-opacity="1" stroke-width="8" fill="rgb(0,0,255)" fill-opacity="1"></path></g></g></g></g></g></g></g></svg>
</svg>
