<svg xmlns="http://www.w3.org/2000/svg" xmlns:xlink="http://www.w3.org/1999/xlink" x="0" y="0" width="263.99554443359375" height="103.99553680419922" style="
        width:263.99554443359375px;
        height:103.99553680419922px;
        background: transparent;
        fill: none;
">
        
        
        <svg xmlns="http://www.w3.org/2000/svg" class="role-diagram-draw-area"><g class="shapes-region" style="stroke: black; fill: none;"><g class="composite-shape"><path class="real" d=" M20,20 L170,20 L170,90 L20,90 Z" style="stroke-width: 3; stroke: rgb(0, 0, 0); fill: rgb(155, 155, 155); fill-opacity: 0.2;"/></g><g/></g><g/><g/><g/></svg>
        <svg xmlns="http://www.w3.org/2000/svg" xmlns:xlink="http://www.w3.org/1999/xlink" width="261.9977722167969" height="101.99777221679688" style="width:261.9977722167969px;height:101.99777221679688px;font-family:Asana-Math, Asana;background:transparent;"><g><g><g><g transform="matrix(1,0,0,1,227.99664306640625,34.63951110839844)"><path transform="matrix(0.017,0,0,-0.017,0,0)" d="M298 -3C508 -3 576 134 576 228C576 279 556 320 518 347C480 375 446 384 369 390C418 400 441 409 469 428C517 461 542 504 542 556C542 644 479 692 363 692L338 692C199 689 199 689 184 689C165 689 165 689 26 692L26 662L62 659C109 655 113 648 113 569L113 95C113 58 105 36 91 30L65 20L65 -3C134 -1 155 0 174 0C199 0 261 -3 298 -3ZM208 362C247 364 256 364 275 364C410 364 473 315 473 208C473 102 404 39 285 39C256 39 233 41 208 47ZM208 644C234 650 257 652 289 652C396 652 443 616 443 533C443 446 383 399 269 399C252 399 239 399 208 401Z" stroke="rgb(0,0,0)" stroke-opacity="1" stroke-width="24" fill="rgb(0,0,0)" fill-opacity="1"></path></g></g><g><g><g><g><g><g><g><text x="238.87835693359375" y="27.885040283203125" style="white-space:pre;stroke:none;fill:rgb(0,0,0);fill-opacity:1;font-size:10.5px;font-family:Arial, Helvetica, sans-serif;font-weight:400;font-style:normal;dominant-baseline:text-before-edge;text-decoration:none solid rgb(0, 0, 0);">ext</text></g></g></g></g></g></g></g></g></g><g><g><g><g transform="matrix(1,0,0,1,199.99444580078125,35.638397216796875)"><path transform="matrix(0.017,0,0,-0.017,0,0)" d="M1235 259C1235 576 977 833 660 833C343 833 86 576 86 259C86 -56 343 -316 660 -316C977 -316 1235 -56 1235 259ZM1181 259C1181 132 1136 15 1045 -88L704 253L1053 601C1138 497 1181 384 1181 259ZM1008 647L658 298L312 645C415 734 532 779 660 779C785 779 902 734 1008 647ZM1001 -131C897 -216 782 -264 660 -264C537 -264 424 -216 320 -133L660 209ZM614 254L273 -89C185 17 140 132 140 259C140 384 183 497 268 601Z" stroke="rgb(0,0,0)" stroke-opacity="1" stroke-width="8" fill="rgb(0,0,0)" fill-opacity="1"></path></g></g></g></g></svg>
</svg>
