<svg xmlns="http://www.w3.org/2000/svg" xmlns:xlink="http://www.w3.org/1999/xlink" x="0" y="0" width="321" height="186" style="
        width:321px;
        height:186px;
        background: transparent;
        fill: none;
">
        
        
        <svg xmlns="http://www.w3.org/2000/svg" class="role-diagram-draw-area"><g class="shapes-region" style="stroke: black; fill: none;"><g class="composite-shape"><path class="real" d=" M65,92.17 C65,64.55 67.24,42.17 70,42.17 C72.76,42.17 75,64.55 75,92.17 C75,119.78 72.76,142.17 70,142.17 C67.24,142.17 65,119.78 65,92.17 Z" style="stroke-width: 2; stroke: rgb(128, 128, 128); stroke-opacity: 1; fill: none; fill-opacity: 1;"/></g><g class="composite-shape"><path class="real" d=" M70.49,142.15 C70.27,142.46 70.04,142.63 69.81,142.63 C67.09,142.63 64.88,120.1 64.88,92.31 C64.88,64.53 67.09,42 69.81,42 C70.05,42 70.28,42.16 70.5,42.48 L69.81,92.31 Z" style="stroke-width: 2; stroke: none; fill: none; fill-opacity: 1;"/><path class="real" d=" M70.49,142.15 C70.27,142.46 70.04,142.63 69.81,142.63 C67.09,142.63 64.88,120.1 64.88,92.31 C64.88,64.53 67.09,42 69.81,42 C70.05,42 70.28,42.16 70.5,42.48" style="stroke-width: 2; stroke: rgb(0, 0, 0); fill: none; fill-opacity: 1;"/></g><g class="arrow-line"><path class="connection real" stroke-dasharray="" d="  M102,93 L102,126" style="stroke: rgb(0, 0, 0); stroke-width: 2; fill: none; fill-opacity: 1;"/></g><g class="arrow-line"><path class="connection real" stroke-dasharray="" d="  M209.6,92.9 L209.6,125.9" style="stroke: rgb(0, 0, 0); stroke-width: 2; fill: none; fill-opacity: 1;"/></g><g class="arrow-line"><path class="connection real" stroke-dasharray="" d="  M102,126 L102,147" style="stroke: rgb(0, 0, 0); stroke-width: 1; fill: none; fill-opacity: 1;"/><g><g stroke="none" fill="#000" transform="matrix(-1.8369701987210297e-16,-1,1,-1.8369701987210297e-16,102,139.7)" style="stroke: none; fill: rgb(0, 0, 0); stroke-width: 1;"><path d=" M6.25,-3 L0,0 L6.25,3 Z"/></g></g></g><g class="arrow-line"><path class="connection real" stroke-dasharray="" d="  M209.6,125.9 L210,147.67" style="stroke: rgb(0, 0, 0); stroke-width: 1; fill: none; fill-opacity: 1;"/><g><g stroke="none" fill="#000" transform="matrix(0.018499434734501725,0.9998288708146529,-0.9998288708146529,0.018499434734501725,209.71062693058278,132.08271249537646)" style="stroke: none; fill: rgb(0, 0, 0); stroke-width: 1;"><path d=" M6.25,-3 L0,0 L6.25,3 Z"/></g></g></g><g class="arrow-line"><path class="connection real" stroke-dasharray="" d="  M102,147.67 L138,147.67" style="stroke: rgb(0, 0, 0); stroke-width: 1; fill: none; fill-opacity: 1;"/></g><g class="arrow-line"><path class="connection real" stroke-dasharray="" d="  M210,147.67 L190,147.67" style="stroke: rgb(0, 0, 0); stroke-width: 1; fill: none; fill-opacity: 1;"/></g><g class="composite-shape"><g class="real" style="stroke-width: 1; stroke: rgb(0, 0, 0); fill: none; fill-opacity: 1;"><path d=" M166,147.67 L170.68,147.67 L171.72,141.17 L173.8,154.17 L175.88,141.17 L177.96,154.17 L180.04,141.17 L182.12,154.17 L184.2,141.17 L186.28,154.17 L187.32,147.67 L192,147.67" style="fill: none;"/></g></g><g class="arrow-line"><path class="connection real" stroke-dasharray="" d="  M166,147.67 L141,147.67" style="stroke: rgb(0, 0, 0); stroke-width: 1; fill: none; fill-opacity: 1;"/></g><g class="arrow-line"><path class="connection real" stroke-dasharray="" d="  M21.85,14.39 C83.85,92.31 241.1,90.54 300,12" style="stroke: rgb(0, 0, 0); stroke-width: 1; fill: none; fill-opacity: 1;"/><g stroke="none" fill="#000" transform="matrix(0.6026510221676312,0.7980048530430809,-0.7980048530430809,0.6026510221676312,20,12)" style="stroke: none; fill: rgb(0, 0, 0); stroke-width: 1;"><path d=" M8.93,-4.29 L0,0 L8.93,4.29 Z"/></g></g><g class="arrow-line"><path class="connection real" stroke-dasharray="" d="  M21.84,169.61 C83.4,91.52 226.74,92.8 300,172" style="stroke: rgb(0, 0, 0); stroke-width: 1; fill: none; fill-opacity: 1;"/><g stroke="none" fill="#000" transform="matrix(0.6008388569104952,-0.7993701695875882,0.7993701695875882,0.6008388569104952,20,172)" style="stroke: none; fill: rgb(0, 0, 0); stroke-width: 1;"><path d=" M8.93,-4.29 L0,0 L8.93,4.29 Z"/></g></g><g class="composite-shape"><path class="real" d=" M36,92 C36,64.39 38.24,42 41,42 C43.76,42 46,64.39 46,92 C46,119.61 43.76,142 41,142 C38.24,142 36,119.61 36,92 Z" style="stroke-width: 2; stroke: rgb(128, 128, 128); stroke-opacity: 1; fill: none; fill-opacity: 1;"/></g><g class="grouped-shape"><g class="arrow-line"><path class="connection real" stroke-dasharray="" d="  M141,138 L141,158" style="stroke: rgb(0, 0, 0); stroke-width: 1; fill: none; fill-opacity: 1;"/></g><g class="arrow-line"><path class="connection real" stroke-dasharray="" d="  M137,143 L137,153" style="stroke: rgb(0, 0, 0); stroke-width: 2; fill: none; fill-opacity: 1;"/></g></g><g class="composite-shape"><path class="real" d=" M41.49,141.99 C41.27,142.3 41.04,142.46 40.81,142.46 C38.09,142.46 35.88,119.93 35.88,92.15 C35.88,64.36 38.09,41.83 40.81,41.83 C41.05,41.83 41.28,42 41.5,42.32 L40.81,92.15 Z" style="stroke-width: 2; stroke: none; fill: none; fill-opacity: 1;"/><path class="real" d=" M41.49,141.99 C41.27,142.3 41.04,142.46 40.81,142.46 C38.09,142.46 35.88,119.93 35.88,92.15 C35.88,64.36 38.09,41.83 40.81,41.83 C41.05,41.83 41.28,42 41.5,42.32" style="stroke-width: 2; stroke: rgb(0, 0, 0); fill: none; fill-opacity: 1;"/></g><g class="arrow-line"><path class="connection real" stroke-dasharray="" d="  M22.53,129.8 C66.98,94.6 260.8,93.45 300,132" style="stroke: rgb(0, 0, 0); stroke-width: 1; fill: none; fill-opacity: 1;"/><g stroke="none" fill="#000" transform="matrix(0.7223639620597557,-0.6915130557822692,0.6915130557822692,0.7223639620597557,20,132)" style="stroke: none; fill: rgb(0, 0, 0); stroke-width: 1;"><path d=" M8.93,-4.29 L0,0 L8.93,4.29 Z"/></g></g><g class="arrow-line"><path class="connection real" stroke-dasharray="" d="  M22.48,56.45 C66.05,95.57 261.78,92.87 300,54" style="stroke: rgb(0, 0, 0); stroke-width: 1; fill: none; fill-opacity: 1;"/><g stroke="none" fill="#000" transform="matrix(0.6737866842192909,0.7389259125032587,-0.7389259125032587,0.6737866842192909,20,54)" style="stroke: none; fill: rgb(0, 0, 0); stroke-width: 1;"><path d=" M8.93,-4.29 L0,0 L8.93,4.29 Z"/></g></g><g class="composite-shape"><path class="real" d=" M102.02,93.55 C102.01,92.6 102,91.64 102,90.67 C102,72.26 104.86,57.33 108.39,57.33 C108.78,57.33 109.16,57.51 109.52,57.86 L108.39,90.67 Z" style="stroke-width: 2; stroke: none; fill: none; fill-opacity: 1;"/><path class="real" d=" M102.02,93.55 C102.01,92.6 102,91.64 102,90.67 C102,72.26 104.86,57.33 108.39,57.33 C108.78,57.33 109.16,57.51 109.52,57.86" style="stroke-width: 2; stroke: rgb(0, 0, 0); fill: none; fill-opacity: 1;"/></g><g class="composite-shape"><path class="real" d=" M114.25,120.15 C113.39,122.4 112.42,123.67 111.39,123.67 C107.86,123.67 105,108.74 105,90.33 C105,71.92 107.86,57 111.39,57 C112.24,57 113.05,57.87 113.8,59.45 L111.39,90.33 Z" style="stroke-width: 2; stroke: none; fill: none; fill-opacity: 1;"/><path class="real" d=" M114.25,120.15 C113.39,122.4 112.42,123.67 111.39,123.67 C107.86,123.67 105,108.74 105,90.33 C105,71.92 107.86,57 111.39,57 C112.24,57 113.05,57.87 113.8,59.45" style="stroke-width: 2; stroke: rgb(0, 0, 0); fill: none; fill-opacity: 1;"/></g><g class="composite-shape"><path class="real" d=" M117.25,120.15 C116.39,122.4 115.42,123.67 114.39,123.67 C110.86,123.67 108,108.74 108,90.33 C108,71.92 110.86,57 114.39,57 C115.36,57 116.28,58.13 117.1,60.15 L114.39,90.33 Z" style="stroke-width: 2; stroke: none; fill: none; fill-opacity: 1;"/><path class="real" d=" M117.25,120.15 C116.39,122.4 115.42,123.67 114.39,123.67 C110.86,123.67 108,108.74 108,90.33 C108,71.92 110.86,57 114.39,57 C115.36,57 116.28,58.13 117.1,60.15" style="stroke-width: 2; stroke: rgb(0, 0, 0); fill: none; fill-opacity: 1;"/></g><g class="composite-shape"><path class="real" d=" M120.25,120.15 C119.39,122.4 118.42,123.67 117.39,123.67 C113.86,123.67 111,108.74 111,90.33 C111,71.92 113.86,57 117.39,57 C118.36,57 119.28,58.13 120.1,60.15 L117.39,90.33 Z" style="stroke-width: 2; stroke: none; fill: none; fill-opacity: 1;"/><path class="real" d=" M120.25,120.15 C119.39,122.4 118.42,123.67 117.39,123.67 C113.86,123.67 111,108.74 111,90.33 C111,71.92 113.86,57 117.39,57 C118.36,57 119.28,58.13 120.1,60.15" style="stroke-width: 2; stroke: rgb(0, 0, 0); fill: none; fill-opacity: 1;"/></g><g class="composite-shape"><path class="real" d=" M123.25,120.15 C122.39,122.4 121.42,123.67 120.39,123.67 C116.86,123.67 114,108.74 114,90.33 C114,71.92 116.86,57 120.39,57 C121.36,57 122.28,58.13 123.1,60.15 L120.39,90.33 Z" style="stroke-width: 2; stroke: none; fill: none; fill-opacity: 1;"/><path class="real" d=" M123.25,120.15 C122.39,122.4 121.42,123.67 120.39,123.67 C116.86,123.67 114,108.74 114,90.33 C114,71.92 116.86,57 120.39,57 C121.36,57 122.28,58.13 123.1,60.15" style="stroke-width: 2; stroke: rgb(0, 0, 0); fill: none; fill-opacity: 1;"/></g><g class="composite-shape"><path class="real" d=" M126.25,120.15 C125.39,122.4 124.42,123.67 123.39,123.67 C119.86,123.67 117,108.74 117,90.33 C117,71.92 119.86,57 123.39,57 C124.36,57 125.28,58.13 126.1,60.15 L123.39,90.33 Z" style="stroke-width: 2; stroke: none; fill: none; fill-opacity: 1;"/><path class="real" d=" M126.25,120.15 C125.39,122.4 124.42,123.67 123.39,123.67 C119.86,123.67 117,108.74 117,90.33 C117,71.92 119.86,57 123.39,57 C124.36,57 125.28,58.13 126.1,60.15" style="stroke-width: 2; stroke: rgb(0, 0, 0); fill: none; fill-opacity: 1;"/></g><g class="composite-shape"><path class="real" d=" M129.25,120.15 C128.39,122.4 127.42,123.67 126.39,123.67 C122.86,123.67 120,108.74 120,90.33 C120,71.92 122.86,57 126.39,57 C127.36,57 128.28,58.13 129.1,60.15 L126.39,90.33 Z" style="stroke-width: 2; stroke: none; fill: none; fill-opacity: 1;"/><path class="real" d=" M129.25,120.15 C128.39,122.4 127.42,123.67 126.39,123.67 C122.86,123.67 120,108.74 120,90.33 C120,71.92 122.86,57 126.39,57 C127.36,57 128.28,58.13 129.1,60.15" style="stroke-width: 2; stroke: rgb(0, 0, 0); fill: none; fill-opacity: 1;"/></g><g class="composite-shape"><path class="real" d=" M132.25,120.15 C131.39,122.4 130.42,123.67 129.39,123.67 C125.86,123.67 123,108.74 123,90.33 C123,71.92 125.86,57 129.39,57 C130.36,57 131.28,58.13 132.1,60.15 L129.39,90.33 Z" style="stroke-width: 2; stroke: none; fill: none; fill-opacity: 1;"/><path class="real" d=" M132.25,120.15 C131.39,122.4 130.42,123.67 129.39,123.67 C125.86,123.67 123,108.74 123,90.33 C123,71.92 125.86,57 129.39,57 C130.36,57 131.28,58.13 132.1,60.15" style="stroke-width: 2; stroke: rgb(0, 0, 0); fill: none; fill-opacity: 1;"/></g><g class="composite-shape"><path class="real" d=" M135.25,120.15 C134.39,122.4 133.42,123.67 132.39,123.67 C128.86,123.67 126,108.74 126,90.33 C126,71.92 128.86,57 132.39,57 C133.36,57 134.28,58.13 135.1,60.15 L132.39,90.33 Z" style="stroke-width: 2; stroke: none; fill: none; fill-opacity: 1;"/><path class="real" d=" M135.25,120.15 C134.39,122.4 133.42,123.67 132.39,123.67 C128.86,123.67 126,108.74 126,90.33 C126,71.92 128.86,57 132.39,57 C133.36,57 134.28,58.13 135.1,60.15" style="stroke-width: 2; stroke: rgb(0, 0, 0); fill: none; fill-opacity: 1;"/></g><g class="composite-shape"><path class="real" d=" M138.25,120.15 C137.39,122.4 136.42,123.67 135.39,123.67 C131.86,123.67 129,108.74 129,90.33 C129,71.92 131.86,57 135.39,57 C136.36,57 137.28,58.13 138.1,60.15 L135.39,90.33 Z" style="stroke-width: 2; stroke: none; fill: none; fill-opacity: 1;"/><path class="real" d=" M138.25,120.15 C137.39,122.4 136.42,123.67 135.39,123.67 C131.86,123.67 129,108.74 129,90.33 C129,71.92 131.86,57 135.39,57 C136.36,57 137.28,58.13 138.1,60.15" style="stroke-width: 2; stroke: rgb(0, 0, 0); fill: none; fill-opacity: 1;"/></g><g class="composite-shape"><path class="real" d=" M141.25,120.15 C140.39,122.4 139.42,123.67 138.39,123.67 C134.86,123.67 132,108.74 132,90.33 C132,71.92 134.86,57 138.39,57 C139.36,57 140.28,58.13 141.1,60.15 L138.39,90.33 Z" style="stroke-width: 2; stroke: none; fill: none; fill-opacity: 1;"/><path class="real" d=" M141.25,120.15 C140.39,122.4 139.42,123.67 138.39,123.67 C134.86,123.67 132,108.74 132,90.33 C132,71.92 134.86,57 138.39,57 C139.36,57 140.28,58.13 141.1,60.15" style="stroke-width: 2; stroke: rgb(0, 0, 0); fill: none; fill-opacity: 1;"/></g><g class="composite-shape"><path class="real" d=" M144.25,120.15 C143.39,122.4 142.42,123.67 141.39,123.67 C137.86,123.67 135,108.74 135,90.33 C135,71.92 137.86,57 141.39,57 C142.36,57 143.28,58.13 144.1,60.15 L141.39,90.33 Z" style="stroke-width: 2; stroke: none; fill: none; fill-opacity: 1;"/><path class="real" d=" M144.25,120.15 C143.39,122.4 142.42,123.67 141.39,123.67 C137.86,123.67 135,108.74 135,90.33 C135,71.92 137.86,57 141.39,57 C142.36,57 143.28,58.13 144.1,60.15" style="stroke-width: 2; stroke: rgb(0, 0, 0); fill: none; fill-opacity: 1;"/></g><g class="composite-shape"><path class="real" d=" M147.25,120.15 C146.39,122.4 145.42,123.67 144.39,123.67 C140.86,123.67 138,108.74 138,90.33 C138,71.92 140.86,57 144.39,57 C145.36,57 146.28,58.13 147.1,60.15 L144.39,90.33 Z" style="stroke-width: 2; stroke: none; fill: none; fill-opacity: 1;"/><path class="real" d=" M147.25,120.15 C146.39,122.4 145.42,123.67 144.39,123.67 C140.86,123.67 138,108.74 138,90.33 C138,71.92 140.86,57 144.39,57 C145.36,57 146.28,58.13 147.1,60.15" style="stroke-width: 2; stroke: rgb(0, 0, 0); fill: none; fill-opacity: 1;"/></g><g class="composite-shape"><path class="real" d=" M150.25,120.15 C149.39,122.4 148.42,123.67 147.39,123.67 C143.86,123.67 141,108.74 141,90.33 C141,71.92 143.86,57 147.39,57 C148.36,57 149.28,58.13 150.1,60.15 L147.39,90.33 Z" style="stroke-width: 2; stroke: none; fill: none; fill-opacity: 1;"/><path class="real" d=" M150.25,120.15 C149.39,122.4 148.42,123.67 147.39,123.67 C143.86,123.67 141,108.74 141,90.33 C141,71.92 143.86,57 147.39,57 C148.36,57 149.28,58.13 150.1,60.15" style="stroke-width: 2; stroke: rgb(0, 0, 0); fill: none; fill-opacity: 1;"/></g><g class="composite-shape"><path class="real" d=" M153.25,120.15 C152.39,122.4 151.42,123.67 150.39,123.67 C146.86,123.67 144,108.74 144,90.33 C144,71.92 146.86,57 150.39,57 C151.36,57 152.28,58.13 153.1,60.15 L150.39,90.33 Z" style="stroke-width: 2; stroke: none; fill: none; fill-opacity: 1;"/><path class="real" d=" M153.25,120.15 C152.39,122.4 151.42,123.67 150.39,123.67 C146.86,123.67 144,108.74 144,90.33 C144,71.92 146.86,57 150.39,57 C151.36,57 152.28,58.13 153.1,60.15" style="stroke-width: 2; stroke: rgb(0, 0, 0); fill: none; fill-opacity: 1;"/></g><g class="composite-shape"><path class="real" d=" M156.25,120.15 C155.39,122.4 154.42,123.67 153.39,123.67 C149.86,123.67 147,108.74 147,90.33 C147,71.92 149.86,57 153.39,57 C154.36,57 155.28,58.13 156.1,60.15 L153.39,90.33 Z" style="stroke-width: 2; stroke: none; fill: none; fill-opacity: 1;"/><path class="real" d=" M156.25,120.15 C155.39,122.4 154.42,123.67 153.39,123.67 C149.86,123.67 147,108.74 147,90.33 C147,71.92 149.86,57 153.39,57 C154.36,57 155.28,58.13 156.1,60.15" style="stroke-width: 2; stroke: rgb(0, 0, 0); fill: none; fill-opacity: 1;"/></g><g class="composite-shape"><path class="real" d=" M159.25,120.15 C158.39,122.4 157.42,123.67 156.39,123.67 C152.86,123.67 150,108.74 150,90.33 C150,71.92 152.86,57 156.39,57 C157.36,57 158.28,58.13 159.1,60.15 L156.39,90.33 Z" style="stroke-width: 2; stroke: none; fill: none; fill-opacity: 1;"/><path class="real" d=" M159.25,120.15 C158.39,122.4 157.42,123.67 156.39,123.67 C152.86,123.67 150,108.74 150,90.33 C150,71.92 152.86,57 156.39,57 C157.36,57 158.28,58.13 159.1,60.15" style="stroke-width: 2; stroke: rgb(0, 0, 0); fill: none; fill-opacity: 1;"/></g><g class="composite-shape"><path class="real" d=" M162.25,120.15 C161.39,122.4 160.42,123.67 159.39,123.67 C155.86,123.67 153,108.74 153,90.33 C153,71.92 155.86,57 159.39,57 C160.36,57 161.28,58.13 162.1,60.15 L159.39,90.33 Z" style="stroke-width: 2; stroke: none; fill: none; fill-opacity: 1;"/><path class="real" d=" M162.25,120.15 C161.39,122.4 160.42,123.67 159.39,123.67 C155.86,123.67 153,108.74 153,90.33 C153,71.92 155.86,57 159.39,57 C160.36,57 161.28,58.13 162.1,60.15" style="stroke-width: 2; stroke: rgb(0, 0, 0); fill: none; fill-opacity: 1;"/></g><g class="composite-shape"><path class="real" d=" M165.25,120.15 C164.39,122.4 163.42,123.67 162.39,123.67 C158.86,123.67 156,108.74 156,90.33 C156,71.92 158.86,57 162.39,57 C163.36,57 164.28,58.13 165.1,60.15 L162.39,90.33 Z" style="stroke-width: 2; stroke: none; fill: none; fill-opacity: 1;"/><path class="real" d=" M165.25,120.15 C164.39,122.4 163.42,123.67 162.39,123.67 C158.86,123.67 156,108.74 156,90.33 C156,71.92 158.86,57 162.39,57 C163.36,57 164.28,58.13 165.1,60.15" style="stroke-width: 2; stroke: rgb(0, 0, 0); fill: none; fill-opacity: 1;"/></g><g class="composite-shape"><path class="real" d=" M168.25,120.15 C167.39,122.4 166.42,123.67 165.39,123.67 C161.86,123.67 159,108.74 159,90.33 C159,71.92 161.86,57 165.39,57 C166.36,57 167.28,58.13 168.1,60.15 L165.39,90.33 Z" style="stroke-width: 2; stroke: none; fill: none; fill-opacity: 1;"/><path class="real" d=" M168.25,120.15 C167.39,122.4 166.42,123.67 165.39,123.67 C161.86,123.67 159,108.74 159,90.33 C159,71.92 161.86,57 165.39,57 C166.36,57 167.28,58.13 168.1,60.15" style="stroke-width: 2; stroke: rgb(0, 0, 0); fill: none; fill-opacity: 1;"/></g><g class="composite-shape"><path class="real" d=" M171.25,120.15 C170.39,122.4 169.42,123.67 168.39,123.67 C164.86,123.67 162,108.74 162,90.33 C162,71.92 164.86,57 168.39,57 C169.36,57 170.28,58.13 171.1,60.15 L168.39,90.33 Z" style="stroke-width: 2; stroke: none; fill: none; fill-opacity: 1;"/><path class="real" d=" M171.25,120.15 C170.39,122.4 169.42,123.67 168.39,123.67 C164.86,123.67 162,108.74 162,90.33 C162,71.92 164.86,57 168.39,57 C169.36,57 170.28,58.13 171.1,60.15" style="stroke-width: 2; stroke: rgb(0, 0, 0); fill: none; fill-opacity: 1;"/></g><g class="composite-shape"><path class="real" d=" M174.25,120.15 C173.39,122.4 172.42,123.67 171.39,123.67 C167.86,123.67 165,108.74 165,90.33 C165,71.92 167.86,57 171.39,57 C172.36,57 173.28,58.13 174.1,60.15 L171.39,90.33 Z" style="stroke-width: 2; stroke: none; fill: none; fill-opacity: 1;"/><path class="real" d=" M174.25,120.15 C173.39,122.4 172.42,123.67 171.39,123.67 C167.86,123.67 165,108.74 165,90.33 C165,71.92 167.86,57 171.39,57 C172.36,57 173.28,58.13 174.1,60.15" style="stroke-width: 2; stroke: rgb(0, 0, 0); fill: none; fill-opacity: 1;"/></g><g class="composite-shape"><path class="real" d=" M177.25,120.15 C176.39,122.4 175.42,123.67 174.39,123.67 C170.86,123.67 168,108.74 168,90.33 C168,71.92 170.86,57 174.39,57 C175.36,57 176.28,58.13 177.1,60.15 L174.39,90.33 Z" style="stroke-width: 2; stroke: none; fill: none; fill-opacity: 1;"/><path class="real" d=" M177.25,120.15 C176.39,122.4 175.42,123.67 174.39,123.67 C170.86,123.67 168,108.74 168,90.33 C168,71.92 170.86,57 174.39,57 C175.36,57 176.28,58.13 177.1,60.15" style="stroke-width: 2; stroke: rgb(0, 0, 0); fill: none; fill-opacity: 1;"/></g><g class="composite-shape"><path class="real" d=" M180.25,120.15 C179.39,122.4 178.42,123.67 177.39,123.67 C173.86,123.67 171,108.74 171,90.33 C171,71.92 173.86,57 177.39,57 C178.36,57 179.28,58.13 180.1,60.15 L177.39,90.33 Z" style="stroke-width: 2; stroke: none; fill: none; fill-opacity: 1;"/><path class="real" d=" M180.25,120.15 C179.39,122.4 178.42,123.67 177.39,123.67 C173.86,123.67 171,108.74 171,90.33 C171,71.92 173.86,57 177.39,57 C178.36,57 179.28,58.13 180.1,60.15" style="stroke-width: 2; stroke: rgb(0, 0, 0); fill: none; fill-opacity: 1;"/></g><g class="composite-shape"><path class="real" d=" M183.25,120.15 C182.39,122.4 181.42,123.67 180.39,123.67 C176.86,123.67 174,108.74 174,90.33 C174,71.92 176.86,57 180.39,57 C181.36,57 182.28,58.13 183.1,60.15 L180.39,90.33 Z" style="stroke-width: 2; stroke: none; fill: none; fill-opacity: 1;"/><path class="real" d=" M183.25,120.15 C182.39,122.4 181.42,123.67 180.39,123.67 C176.86,123.67 174,108.74 174,90.33 C174,71.92 176.86,57 180.39,57 C181.36,57 182.28,58.13 183.1,60.15" style="stroke-width: 2; stroke: rgb(0, 0, 0); fill: none; fill-opacity: 1;"/></g><g class="composite-shape"><path class="real" d=" M186.25,120.15 C185.39,122.4 184.42,123.67 183.39,123.67 C179.86,123.67 177,108.74 177,90.33 C177,71.92 179.86,57 183.39,57 C184.36,57 185.28,58.13 186.1,60.15 L183.39,90.33 Z" style="stroke-width: 2; stroke: none; fill: none; fill-opacity: 1;"/><path class="real" d=" M186.25,120.15 C185.39,122.4 184.42,123.67 183.39,123.67 C179.86,123.67 177,108.74 177,90.33 C177,71.92 179.86,57 183.39,57 C184.36,57 185.28,58.13 186.1,60.15" style="stroke-width: 2; stroke: rgb(0, 0, 0); fill: none; fill-opacity: 1;"/></g><g class="composite-shape"><path class="real" d=" M189.25,120.15 C188.39,122.4 187.42,123.67 186.39,123.67 C182.86,123.67 180,108.74 180,90.33 C180,71.92 182.86,57 186.39,57 C187.36,57 188.28,58.13 189.1,60.15 L186.39,90.33 Z" style="stroke-width: 2; stroke: none; fill: none; fill-opacity: 1;"/><path class="real" d=" M189.25,120.15 C188.39,122.4 187.42,123.67 186.39,123.67 C182.86,123.67 180,108.74 180,90.33 C180,71.92 182.86,57 186.39,57 C187.36,57 188.28,58.13 189.1,60.15" style="stroke-width: 2; stroke: rgb(0, 0, 0); fill: none; fill-opacity: 1;"/></g><g class="composite-shape"><path class="real" d=" M192.25,120.15 C191.39,122.4 190.42,123.67 189.39,123.67 C185.86,123.67 183,108.74 183,90.33 C183,71.92 185.86,57 189.39,57 C190.36,57 191.28,58.13 192.1,60.15 L189.39,90.33 Z" style="stroke-width: 2; stroke: none; fill: none; fill-opacity: 1;"/><path class="real" d=" M192.25,120.15 C191.39,122.4 190.42,123.67 189.39,123.67 C185.86,123.67 183,108.74 183,90.33 C183,71.92 185.86,57 189.39,57 C190.36,57 191.28,58.13 192.1,60.15" style="stroke-width: 2; stroke: rgb(0, 0, 0); fill: none; fill-opacity: 1;"/></g><g class="composite-shape"><path class="real" d=" M195.25,120.15 C194.39,122.4 193.42,123.67 192.39,123.67 C188.86,123.67 186,108.74 186,90.33 C186,71.92 188.86,57 192.39,57 C193.36,57 194.28,58.13 195.1,60.15 L192.39,90.33 Z" style="stroke-width: 2; stroke: none; fill: none; fill-opacity: 1;"/><path class="real" d=" M195.25,120.15 C194.39,122.4 193.42,123.67 192.39,123.67 C188.86,123.67 186,108.74 186,90.33 C186,71.92 188.86,57 192.39,57 C193.36,57 194.28,58.13 195.1,60.15" style="stroke-width: 2; stroke: rgb(0, 0, 0); fill: none; fill-opacity: 1;"/></g><g class="composite-shape"><path class="real" d=" M202.38,122.96 C199.66,119.81 197.61,106.4 197.61,90.33 C197.61,71.92 200.3,57 203.61,57 C206.93,57 209.61,71.92 209.61,90.33 C209.61,91.2 209.61,92.05 209.6,92.9 L203.61,90.33 Z" style="stroke-width: 2; stroke: none; fill: none; fill-opacity: 1;"/><path class="real" d=" M202.38,122.96 C199.66,119.81 197.61,106.4 197.61,90.33 C197.61,71.92 200.3,57 203.61,57 C206.93,57 209.61,71.92 209.61,90.33 C209.61,91.2 209.61,92.05 209.6,92.9" style="stroke-width: 2; stroke: rgb(0, 0, 0); fill: none; fill-opacity: 1;"/></g><g class="composite-shape"><path class="real" d=" M189.39,90.33 C189.39,72.11 191.9,57.33 195,57.33 C198.1,57.33 200.61,72.11 200.61,90.33 C200.61,108.56 198.1,123.33 195,123.33 C191.9,123.33 189.39,108.56 189.39,90.33 Z" style="stroke-width: 2; stroke: rgb(0, 0, 0); fill: none; fill-opacity: 1;"/></g><g class="composite-shape"><path class="real" d=" M192.39,90.33 C192.39,72.11 194.9,57.33 198,57.33 C201.1,57.33 203.61,72.11 203.61,90.33 C203.61,108.56 201.1,123.33 198,123.33 C194.9,123.33 192.39,108.56 192.39,90.33 Z" style="stroke-width: 2; stroke: rgb(0, 0, 0); fill: none; fill-opacity: 1;"/></g><g class="composite-shape"><path class="real" d=" M194.77,90.67 C194.77,72.44 197.29,57.67 200.39,57.67 C203.49,57.67 206,72.44 206,90.67 C206,108.89 203.49,123.67 200.39,123.67 C197.29,123.67 194.77,108.89 194.77,90.67 Z" style="stroke-width: 2; stroke: rgb(0, 0, 0); fill: none; fill-opacity: 1;"/></g><g class="arrow-line"><path class="connection real" stroke-dasharray="" d="  M23,92 L300,92" style="stroke: rgb(0, 0, 0); stroke-width: 1; fill: none; fill-opacity: 1;"/><g stroke="none" fill="#000" transform="matrix(1,0,0,1,20,92)" style="stroke: none; fill: rgb(0, 0, 0); stroke-width: 1;"><path d=" M8.93,-4.29 L0,0 L8.93,4.29 Z"/></g></g><g class="arrow-line"><path class="connection real" stroke-dasharray="" d="  M66,92.17 L86,92.17" style="stroke: rgb(0, 0, 255); stroke-opacity: 1; stroke-width: 2; fill: none; fill-opacity: 1;"/><g stroke="none" fill="rgb(0,0,255)" fill-opacity="1" transform="matrix(-1,1.2246467991473532e-16,-1.2246467991473532e-16,-1,89.99999999999999,92.16666698455812)" style="stroke: none; fill: rgb(0, 0, 255); stroke-width: 2;"><path d=" M11.61,-5.58 L0,0 L11.61,5.58 Z"/></g></g><g class="arrow-line"><path class="connection real" stroke-dasharray="" d="  M64,92.17 L53,92" style="stroke: rgb(0, 0, 255); stroke-opacity: 1; stroke-width: 2; fill: none; fill-opacity: 1;"/></g><g class="arrow-line"><path class="connection real" stroke-dasharray="" d="  M66,59 L65.33,67.01" style="stroke: rgb(0, 0, 255); stroke-opacity: 1; stroke-width: 2; fill: none; fill-opacity: 1;"/><g stroke="none" fill="rgb(0,0,255)" fill-opacity="1" transform="matrix(0.08298213974238393,-0.9965510345605866,0.9965510345605866,0.08298213974238393,65,71)" style="stroke: none; fill: rgb(0, 0, 255); stroke-width: 2;"><path d=" M11.61,-5.58 L0,0 L11.61,5.58 Z"/></g></g><g/></g><g/><g/><g/></svg>
        <svg xmlns="http://www.w3.org/2000/svg" xmlns:xlink="http://www.w3.org/1999/xlink" width="319" height="184" style="width:319px;height:184px;font-family:Asana-Math, Asana;background:transparent;"><g><g><g><g transform="matrix(1,0,0,1,6.333333333333332,42.6)"><path transform="matrix(0.0136,0,0,-0.0136,0,0)" d="M125 390L69 107C68 99 56 61 56 31C56 6 67 -9 86 -9C121 -9 156 11 234 74L265 99L255 117L210 86C181 66 161 56 150 56C141 56 136 64 136 76C136 102 150 183 179 328L192 390L299 390L310 440C272 436 238 434 200 434C216 528 227 577 245 631L234 646C214 634 187 622 156 610L131 440C87 419 61 408 43 403L41 390Z" stroke="rgb(0,0,0)" stroke-opacity="1" stroke-width="8" fill="rgb(0,0,0)" fill-opacity="1"></path></g></g><g><g transform="matrix(1,0,0,1,14.927083333333336,42.6)"><path transform="matrix(0.0136,0,0,-0.0136,0,0)" d="M604 347L604 406L65 406L65 347ZM604 134L604 193L65 193L65 134Z" stroke="rgb(0,0,0)" stroke-opacity="1" stroke-width="8" fill="rgb(0,0,0)" fill-opacity="1"></path></g></g><g><g transform="matrix(1,0,0,1,28.09375,42.6)"><path transform="matrix(0.0136,0,0,-0.0136,0,0)" d="M263 689C108 689 29 566 29 324C29 207 50 106 85 57C120 8 176 -20 238 -20C389 -20 465 110 465 366C465 585 400 689 263 689ZM245 654C342 654 381 556 381 316C381 103 343 15 251 15C154 15 113 116 113 360C113 571 150 654 245 654Z" stroke="rgb(0,0,0)" stroke-opacity="1" stroke-width="8" fill="rgb(0,0,0)" fill-opacity="1"></path></g></g></g></g><g><g><g><g transform="matrix(1,0,0,1,75.33333333333333,43.6)"><path transform="matrix(0.0136,0,0,-0.0136,0,0)" d="M125 390L69 107C68 99 56 61 56 31C56 6 67 -9 86 -9C121 -9 156 11 234 74L265 99L255 117L210 86C181 66 161 56 150 56C141 56 136 64 136 76C136 102 150 183 179 328L192 390L299 390L310 440C272 436 238 434 200 434C216 528 227 577 245 631L234 646C214 634 187 622 156 610L131 440C87 419 61 408 43 403L41 390Z" stroke="rgb(0,0,0)" stroke-opacity="1" stroke-width="8" fill="rgb(0,0,0)" fill-opacity="1"></path></g></g><g><g transform="matrix(1,0,0,1,83.92708333333333,43.6)"><path transform="matrix(0.0136,0,0,-0.0136,0,0)" d="M604 347L604 406L65 406L65 347ZM604 134L604 193L65 193L65 134Z" stroke="rgb(0,0,0)" stroke-opacity="1" stroke-width="8" fill="rgb(0,0,0)" fill-opacity="1"></path></g></g><g><g transform="matrix(1,0,0,1,97.09375,43.6)"><path transform="matrix(0.0136,0,0,-0.0136,0,0)" d="M-33 6L-28 -4C79 0 185 0 292 0C393 0 494 -1 594 -4L602 6C560 116 534 238 504 354C475 466 442 580 424 697L399 697C336 587 53 127 -33 6ZM482 37L50 37C148 215 249 389 356 564L363 564C408 391 449 215 482 37ZM813 390L757 107C756 99 744 61 744 31C744 6 755 -9 774 -9C809 -9 844 11 922 74L953 99L943 117L898 86C869 66 849 56 838 56C829 56 824 64 824 76C824 102 838 183 867 328L880 390L987 390L998 440C960 436 926 434 888 434C904 528 915 577 933 631L922 646C902 634 875 622 844 610L819 440C775 419 749 408 731 403L729 390Z" stroke="rgb(0,0,0)" stroke-opacity="1" stroke-width="8" fill="rgb(0,0,0)" fill-opacity="1"></path></g></g></g></g><g><g><g><g transform="matrix(1,0,0,1,66.33333333333333,105.6)"><path transform="matrix(0.0136,0,0,-0.0136,0,0)" d="M298 -3C508 -3 576 134 576 228C576 279 556 320 518 347C480 375 446 384 369 390C418 400 441 409 469 428C517 461 542 504 542 556C542 644 479 692 363 692L338 692C199 689 199 689 184 689C165 689 165 689 26 692L26 662L62 659C109 655 113 648 113 569L113 95C113 58 105 36 91 30L65 20L65 -3C134 -1 155 0 174 0C199 0 261 -3 298 -3ZM208 362C247 364 256 364 275 364C410 364 473 315 473 208C473 102 404 39 285 39C256 39 233 41 208 47ZM208 644C234 650 257 652 289 652C396 652 443 616 443 533C443 446 383 399 269 399C252 399 239 399 208 401Z" stroke="rgb(0,0,255)" stroke-opacity="1" stroke-width="24" fill="rgb(0,0,255)" fill-opacity="1"></path></g></g><g><g><g><g><g transform="matrix(1,0,0,1,75.03645833333333,107.99916666666668)"><path transform="matrix(0.009519999999999999,0,0,-0.009519999999999999,0,0)" d="M188 465L179 469C128 448 76 434 23 428L23 400L60 400C100 400 104 393 104 327L104 102C104 39 101 32 67 30L21 27L21 -3C121 0 121 0 146 0C171 0 171 0 271 -3L271 27L225 30C191 32 188 39 188 102ZM142 687C112 687 86 661 86 631C86 602 112 576 141 576C170 576 197 602 197 631C197 659 170 687 142 687ZM700 -3C761 0 762 0 779 0C793 0 793 0 862 -3L862 27L821 30C787 32 784 38 784 102L784 295C784 412 729 469 617 469C580 469 559 462 538 444L462 378L462 465L453 469C402 448 350 434 297 428L297 400L334 400C374 400 378 393 378 327L378 102C378 39 375 32 341 30L296 27L296 -3C364 -1 391 0 420 0C449 0 476 -1 544 -3L544 27L499 30C465 32 462 39 462 102L462 314C462 359 528 408 589 408C656 408 700 358 700 281ZM1450 -3L1450 27L1404 30C1370 32 1367 39 1367 102L1367 718L1358 726C1314 709 1281 701 1202 689L1202 661L1258 661C1276 661 1283 650 1283 620L1283 437C1255 472 1217 486 1177 486C1054 486 905 351 905 229C905 149 933 70 982 30C1016 1 1063 -12 1128 -12C1148 -12 1171 -8 1176 -4L1287 89L1282 -3C1331 -1 1347 0 1359 0C1377 0 1441 -3 1450 -3ZM1283 350L1283 221C1283 156 1281 146 1268 123C1240 76 1191 45 1144 45C1056 45 993 130 993 249C993 358 1047 422 1137 422C1216 422 1283 366 1283 350Z" stroke="rgb(0,0,255)" stroke-opacity="1" stroke-width="8" fill="rgb(0,0,255)" fill-opacity="1"></path></g></g></g></g></g></g></g></svg>
</svg>
