<svg xmlns="http://www.w3.org/2000/svg" xmlns:xlink="http://www.w3.org/1999/xlink" x="0" y="0" width="410" height="96.98828125" style="
        width:410px;
        height:96.98828125px;
        background: transparent;
        fill: none;
">
        
        
        <svg xmlns="http://www.w3.org/2000/svg" class="role-diagram-draw-area"><g class="shapes-region" style="stroke: black; fill: none;"><g class="grouped-shape"><g class="composite-shape"><path class="real" d=" M20,20 L170,20 L170,80 L20,80 Z" style="stroke-width: 1; stroke: none; stroke-opacity: 0.1; fill: none; fill-opacity: 1;"/><path class="real" d=" M20,20 L20,80 M30,20 L30,80 M40,20 L40,80 M50,20 L50,80 M60,20 L60,80 M70,20 L70,80 M80,20 L80,80 M90,20 L90,80 M100,20 L100,80 M110,20 L110,80 M120,20 L120,80 M130,20 L130,80 M140,20 L140,80 M150,20 L150,80 M160,20 L160,80" style="stroke-width: 1; stroke: rgb(0, 0, 0); stroke-opacity: 0.1; fill: none; fill-opacity: 1;"/><path class="real" d=" M20,20 L170,20 M20,30 L170,30 M20,40 L170,40 M20,50 L170,50 M20,60 L170,60 M20,70 L170,70" style="stroke-width: 1; stroke: rgb(0, 0, 0); stroke-opacity: 0.1; fill: none; fill-opacity: 1;"/><path class="real" d=" " style="stroke-width: 1; stroke: rgb(0, 0, 0); stroke-opacity: 0.1; fill: none; fill-opacity: 1;"/></g><g class="arrow-line"><path class="connection real" stroke-dasharray="" d="  M20,80 L170,80" style="stroke: rgb(0, 0, 0); stroke-opacity: 0.1; stroke-width: 1; fill: none; fill-opacity: 1;"/></g><g class="arrow-line"><path class="connection real" stroke-dasharray="" d="  M170,80 L170,20" style="stroke: rgb(0, 0, 0); stroke-opacity: 0.1; stroke-width: 1; fill: none; fill-opacity: 1;"/></g></g><g class="arrow-line"><path class="connection real" stroke-dasharray="" d="  M30,20 L30,80" style="stroke: rgb(0, 0, 0); stroke-width: 1; fill: none; fill-opacity: 1;"/></g><g class="arrow-line"><path class="connection real" stroke-dasharray="" d="  M20,70 L167,70" style="stroke: rgb(0, 0, 0); stroke-width: 1; fill: none; fill-opacity: 1;"/><g stroke="none" fill="#000" transform="matrix(-1,1.2246467991473532e-16,-1.2246467991473532e-16,-1,170,70.00000000000001)" style="stroke: none; fill: rgb(0, 0, 0); stroke-width: 1;"><path d=" M6.25,-3 L0,0 L6.25,3 Z"/></g></g><g class="composite-shape"><path class="real" d=" M30,40 C30,38.9 30.9,38 32,38 C33.1,38 34,38.9 34,40 C34,41.1 33.1,42 32,42 C30.9,42 30,41.1 30,40 Z" style="stroke-width: 1; stroke: rgb(0, 0, 0); fill: rgb(0, 0, 0); fill-opacity: 1;"/></g><g class="composite-shape"><path class="real" d=" M53,40 C53,38.9 53.9,38 55,38 C56.1,38 57,38.9 57,40 C57,41.1 56.1,42 55,42 C53.9,42 53,41.1 53,40 Z" style="stroke-width: 1; stroke: rgb(0, 0, 0); fill: rgb(0, 0, 0); fill-opacity: 1;"/></g><g class="composite-shape"><path class="real" d=" M78,40 C78,38.9 78.9,38 80,38 C81.1,38 82,38.9 82,40 C82,41.1 81.1,42 80,42 C78.9,42 78,41.1 78,40 Z" style="stroke-width: 1; stroke: rgb(0, 0, 0); fill: rgb(0, 0, 0); fill-opacity: 1;"/></g><g class="composite-shape"><path class="real" d=" M128,40 C128,38.9 128.9,38 130,38 C131.1,38 132,38.9 132,40 C132,41.1 131.1,42 130,42 C128.9,42 128,41.1 128,40 Z" style="stroke-width: 1; stroke: rgb(0, 0, 0); fill: rgb(0, 0, 0); fill-opacity: 1;"/></g><g class="arrow-line"><path class="connection real" stroke-dasharray="" d="  M80,63 L80,74" style="stroke: rgb(0, 0, 0); stroke-width: 1; fill: none; fill-opacity: 1;"/></g><g class="arrow-line"><path class="connection real" stroke-dasharray="" d="  M24,40 L34,40" style="stroke: rgb(0, 0, 0); stroke-width: 1; fill: none; fill-opacity: 1;"/></g><g class="arrow-line"><path class="connection real" stroke-dasharray="" d="  M34,40 L170,40" style="stroke: rgb(0, 0, 0); stroke-width: 1; fill: none; fill-opacity: 1;"/></g><g/></g><g/><g/><g/></svg>
        <svg xmlns="http://www.w3.org/2000/svg" xmlns:xlink="http://www.w3.org/1999/xlink" width="408" height="94.98828125" style="width:408px;height:94.98828125px;font-family:Asana-Math, Asana;background:transparent;"><g><g><g><g transform="matrix(1,0,0,1,22,11.65)"><path transform="matrix(0.0119,0,0,-0.0119,0,0)" d="M151 -172C151 -95 175 -59 228 -59C257 -59 285 -67 324 -88L469 -164C529 -195 547 -201 587 -201C662 -201 698 -158 708 -61L683 -61C677 -115 655 -140 615 -140C598 -140 579 -135 553 -125L317 -29C292 -19 274 -15 251 -15C177 -15 126 -66 126 -142C126 -144 126 -151 127 -159ZM748 425C748 603 644 706 464 706C227 706 53 523 53 272C53 83 147 -18 323 -18C595 -18 748 207 748 425ZM660 409C660 221 571 24 360 24C216 24 141 110 141 277C141 425 199 664 433 664C549 664 660 610 660 409Z" stroke="rgb(0,0,0)" stroke-opacity="1" stroke-width="8" fill="rgb(0,0,0)" fill-opacity="1"></path></g></g><g><g><g><g><g transform="matrix(1,0,0,1,31.60546875,13.751875)"><path transform="matrix(0.00833,0,0,-0.00833,0,0)" d="M250 -20C315 -20 405 18 417 36L437 70L424 80C360 42 337 33 294 33C229 33 175 62 147 111C128 144 121 172 119 230C140 227 170 226 204 226C290 226 399 234 446 244C447 258 448 267 448 279C448 394 374 469 262 469C225 469 180 464 140 440C58 392 26 323 26 219C26 25 161 -20 250 -20ZM359 267C335 264 284 261 233 261C190 261 147 264 121 270C121 317 125 339 138 365C159 409 202 436 250 436C283 436 309 423 327 396C349 363 356 334 359 267ZM888 -3C949 0 950 0 967 0C981 0 981 0 1050 -3L1050 27L1009 30C975 32 972 38 972 102L972 295C972 412 917 469 805 469C768 469 747 462 726 444L650 378L650 465L641 469C590 448 538 434 485 428L485 400L522 400C562 400 566 393 566 327L566 102C566 39 563 32 529 30L484 27L484 -3C552 -1 579 0 608 0C637 0 664 -1 732 -3L732 27L687 30C653 32 650 39 650 102L650 314C650 359 716 408 777 408C844 408 888 358 888 281ZM1458 311C1458 357 1463 398 1472 434C1440 478 1397 497 1352 497C1228 497 1084 361 1084 224C1084 219 1085 215 1085 210C1085 75 1180 -20 1314 -20C1366 -20 1441 -1 1451 14L1472 46L1462 61C1425 41 1393 32 1357 32C1246 32 1173 118 1173 250C1173 357 1223 417 1313 417C1357 417 1405 397 1423 372L1430 311ZM1525 661L1581 661C1599 661 1606 650 1606 620L1606 102C1606 39 1603 32 1569 30L1523 27L1523 -3C1623 0 1623 0 1648 0C1673 0 1673 0 1773 -3L1773 27L1727 30C1693 32 1690 39 1690 102L1690 718L1681 726C1637 709 1604 701 1525 689Z" stroke="rgb(0,0,0)" stroke-opacity="1" stroke-width="8" fill="rgb(0,0,0)" fill-opacity="1"></path></g></g></g></g></g></g></g><g><g><g><g transform="matrix(1,0,0,1,174,72.65)"><path transform="matrix(0.0119,0,0,-0.0119,0,0)" d="M368 365C371 403 376 435 384 476C373 481 369 482 364 482C333 482 302 458 266 407C227 351 188 291 172 256L204 408C208 425 210 438 210 450C210 470 202 482 187 482C166 482 128 461 54 408L26 388L33 368L65 389C93 407 104 412 113 412C123 412 130 403 130 390C130 332 87 126 47 -2L57 -9C72 -4 88 -1 111 4L124 6L150 126C168 209 191 262 235 319C269 363 296 384 318 384C333 384 343 379 354 365Z" stroke="rgb(0,0,0)" stroke-opacity="1" stroke-width="8" fill="rgb(0,0,0)" fill-opacity="1"></path></g></g></g></g><g><g><g><g transform="matrix(1,0,0,1,77,87.65)"><path transform="matrix(0.0119,0,0,-0.0119,0,0)" d="M236 722L224 733C179 711 138 697 64 691L60 670L108 670C126 670 142 667 142 647C142 641 142 632 140 622L98 388C78 272 36 80 10 2L17 -9L86 7C94 64 108 164 148 236C193 317 296 414 338 414C349 414 360 407 360 393C360 375 355 342 345 303L294 107C288 85 281 55 281 31C281 6 291 -9 312 -9C344 -9 412 41 471 85L461 103L435 86C412 71 386 56 374 56C367 56 361 65 361 76C361 88 364 101 368 116L432 372C438 398 443 423 443 447C443 464 437 482 411 482C376 482 299 437 231 374C198 343 172 308 144 273L140 275Z" stroke="rgb(0,0,0)" stroke-opacity="1" stroke-width="8" fill="rgb(0,0,0)" fill-opacity="1"></path></g></g></g></g><g><g><g><g transform="matrix(1,0,0,1,2,43.65)"><path transform="matrix(0.0119,0,0,-0.0119,0,0)" d="M209 656L209 648C211 643 213 639 218 637C235 642 266 653 282 653C334 653 343 500 347 460C219 320 120 161 25 -2L35 -16C60 -5 85 4 111 13C154 159 261 308 353 428C361 365 384 13 401 -6C456 -42 528 44 570 74L570 87L558 87L558 88C541 77 512 55 491 55C452 55 444 188 439 219C424 326 399 672 383 689C347 728 251 667 209 656ZM854 722L842 733C797 711 756 697 682 691L678 670L726 670C744 670 760 667 760 647C760 641 760 632 758 622L716 388C696 272 654 80 628 2L635 -9L704 7C712 64 726 164 766 236C811 317 914 414 956 414C967 414 978 407 978 393C978 375 973 342 963 303L912 107C906 85 899 55 899 31C899 6 909 -9 930 -9C962 -9 1030 41 1089 85L1079 103L1053 86C1030 71 1004 56 992 56C985 56 979 65 979 76C979 88 982 101 986 116L1050 372C1056 398 1061 423 1061 447C1061 464 1055 482 1029 482C994 482 917 437 849 374C816 343 790 308 762 273L758 275Z" stroke="rgb(0,0,0)" stroke-opacity="1" stroke-width="8" fill="rgb(0,0,0)" fill-opacity="1"></path></g></g></g></g></svg>
</svg>
