<svg xmlns="http://www.w3.org/2000/svg" xmlns:xlink="http://www.w3.org/1999/xlink" x="0" y="0" width="441.0000305175781" height="88.98661041259766" style="
        width:441.0000305175781px;
        height:88.98661041259766px;
        background: transparent;
        fill: none;
">
        
        
        <svg xmlns="http://www.w3.org/2000/svg" class="role-diagram-draw-area"><g class="shapes-region" style="stroke: black; fill: none;"><g class="grouped-shape"><g class="composite-shape"><path class="real" d=" M10,20 L160,20 L160,80 L10,80 Z" style="stroke-width: 1; stroke: none; stroke-opacity: 0.1; fill: none; fill-opacity: 1;"/><path class="real" d=" M10,20 L10,80 M20,20 L20,80 M30,20 L30,80 M40,20 L40,80 M50,20 L50,80 M60,20 L60,80 M70,20 L70,80 M80,20 L80,80 M90,20 L90,80 M100,20 L100,80 M110,20 L110,80 M120,20 L120,80 M130,20 L130,80 M140,20 L140,80 M150,20 L150,80" style="stroke-width: 1; stroke: rgb(0, 0, 0); stroke-opacity: 0.1; fill: none; fill-opacity: 1;"/><path class="real" d=" M10,20 L160,20 M10,30 L160,30 M10,40 L160,40 M10,50 L160,50 M10,60 L160,60 M10,70 L160,70" style="stroke-width: 1; stroke: rgb(0, 0, 0); stroke-opacity: 0.1; fill: none; fill-opacity: 1;"/><path class="real" d=" " style="stroke-width: 1; stroke: rgb(0, 0, 0); stroke-opacity: 0.1; fill: none; fill-opacity: 1;"/></g><g class="arrow-line"><path class="connection real" stroke-dasharray="" d="  M10,80 L160,80" style="stroke: rgb(0, 0, 0); stroke-opacity: 0.1; stroke-width: 1; fill: none; fill-opacity: 1;"/></g><g class="arrow-line"><path class="connection real" stroke-dasharray="" d="  M160,80 L160,20" style="stroke: rgb(0, 0, 0); stroke-opacity: 0.1; stroke-width: 1; fill: none; fill-opacity: 1;"/></g></g><g class="arrow-line"><path class="connection real" stroke-dasharray="" d="  M20,23 L20,80" style="stroke: rgb(0, 0, 0); stroke-width: 1; fill: none; fill-opacity: 1;"/><g stroke="none" fill="#000" transform="matrix(6.123233995736766e-17,1,-1,6.123233995736766e-17,20,20)" style="stroke: none; fill: rgb(0, 0, 0); stroke-width: 1;"><path d=" M5.36,-2.57 L0,0 L5.36,2.57 Z"/></g></g><g class="arrow-line"><path class="connection real" stroke-dasharray="" d="  M10,70 L156,70" style="stroke: rgb(0, 0, 0); stroke-opacity: 1; stroke-width: 1; fill: none; fill-opacity: 1;"/><g stroke="none" fill="rgb(0,0,0)" fill-opacity="1" transform="matrix(-1,1.2246467991473532e-16,-1.2246467991473532e-16,-1,159,70.00000000000001)" style="stroke: none; fill: rgb(0, 0, 0); stroke-width: 1;"><path d=" M5.36,-2.57 L0,0 L5.36,2.57 Z"/></g></g><g class="composite-shape"><path class="real" d=" M18,70 C18,68.9 18.9,68 20,68 C21.1,68 22,68.9 22,70 C22,71.1 21.1,72 20,72 C18.9,72 18,71.1 18,70 Z" style="stroke-width: 1; stroke: rgb(0, 0, 0); fill: rgb(0, 0, 0); fill-opacity: 1;"/></g><g class="arrow-line"><path class="connection real" stroke-dasharray="" d="  M22,70 C54,69.43 91,53.43 120,30" style="stroke: rgb(0, 0, 0); stroke-width: 1; fill: none; fill-opacity: 1;"/></g><g/></g><g/><g/><g/></svg>
        <svg xmlns="http://www.w3.org/2000/svg" xmlns:xlink="http://www.w3.org/1999/xlink" width="439.0000305175781" height="86.98661041259766" style="width:439.0000305175781px;height:86.98661041259766px;font-family:Asana-Math, Asana;background:transparent;"><g><g><g><g transform="matrix(1,0,0,1,12.000030517578125,13.02054443359375)"><path transform="matrix(0.0119,0,0,-0.0119,0,0)" d="M151 -172C151 -95 175 -59 228 -59C257 -59 285 -67 324 -88L469 -164C529 -195 547 -201 587 -201C662 -201 698 -158 708 -61L683 -61C677 -115 655 -140 615 -140C598 -140 579 -135 553 -125L317 -29C292 -19 274 -15 251 -15C177 -15 126 -66 126 -142C126 -144 126 -151 127 -159ZM748 425C748 603 644 706 464 706C227 706 53 523 53 272C53 83 147 -18 323 -18C595 -18 748 207 748 425ZM660 409C660 221 571 24 360 24C216 24 141 110 141 277C141 425 199 664 433 664C549 664 660 610 660 409Z" stroke="rgb(0,0,0)" stroke-opacity="1" stroke-width="8" fill="rgb(0,0,0)" fill-opacity="1"></path></g></g><g><g><g><g><g transform="matrix(1,0,0,1,21.602691650390625,15.120191650390625)"><path transform="matrix(0.00833,0,0,-0.00833,0,0)" d="M250 -20C315 -20 405 18 417 36L437 70L424 80C360 42 337 33 294 33C229 33 175 62 147 111C128 144 121 172 119 230C140 227 170 226 204 226C290 226 399 234 446 244C447 258 448 267 448 279C448 394 374 469 262 469C225 469 180 464 140 440C58 392 26 323 26 219C26 25 161 -20 250 -20ZM359 267C335 264 284 261 233 261C190 261 147 264 121 270C121 317 125 339 138 365C159 409 202 436 250 436C283 436 309 423 327 396C349 363 356 334 359 267ZM888 -3C949 0 950 0 967 0C981 0 981 0 1050 -3L1050 27L1009 30C975 32 972 38 972 102L972 295C972 412 917 469 805 469C768 469 747 462 726 444L650 378L650 465L641 469C590 448 538 434 485 428L485 400L522 400C562 400 566 393 566 327L566 102C566 39 563 32 529 30L484 27L484 -3C552 -1 579 0 608 0C637 0 664 -1 732 -3L732 27L687 30C653 32 650 39 650 102L650 314C650 359 716 408 777 408C844 408 888 358 888 281ZM1458 311C1458 357 1463 398 1472 434C1440 478 1397 497 1352 497C1228 497 1084 361 1084 224C1084 219 1085 215 1085 210C1085 75 1180 -20 1314 -20C1366 -20 1441 -1 1451 14L1472 46L1462 61C1425 41 1393 32 1357 32C1246 32 1173 118 1173 250C1173 357 1223 417 1313 417C1357 417 1405 397 1423 372L1430 311ZM1525 661L1581 661C1599 661 1606 650 1606 620L1606 102C1606 39 1603 32 1569 30L1523 27L1523 -3C1623 0 1623 0 1648 0C1673 0 1673 0 1773 -3L1773 27L1727 30C1693 32 1690 39 1690 102L1690 718L1681 726C1637 709 1604 701 1525 689Z" stroke="rgb(0,0,0)" stroke-opacity="1" stroke-width="8" fill="rgb(0,0,0)" fill-opacity="1"></path></g></g></g></g></g><g><g transform="matrix(1,0,0,1,40.80804443359375,13.02054443359375)"><path transform="matrix(0.0119,0,0,-0.0119,0,0)" d="M604 347L604 406L65 406L65 347ZM604 134L604 193L65 193L65 134Z" stroke="rgb(0,0,0)" stroke-opacity="1" stroke-width="8" fill="rgb(0,0,0)" fill-opacity="1"></path></g></g><g><g transform="matrix(1,0,0,1,52.325897216796875,13.02054443359375)"><path transform="matrix(0.0119,0,0,-0.0119,0,0)" d="M171 -15C331 -15 431 100 434 257C436 343 410 361 345 404L345 407C398 407 457 403 511 411C518 431 521 451 524 474C485 453 364 467 313 457C150 424 28 329 28 153C28 48 59 -15 171 -15ZM367 267C367 168 329 13 203 13C111 13 103 112 104 182C105 292 143 412 274 412C359 412 367 328 367 267ZM1077 42C1021 42 1016 125 1017 166C1018 251 1046 333 1089 405L1151 418C1154 435 1160 452 1165 467C1011 461 852 463 697 466C632 467 618 389 599 340C598 332 611 331 615 328L615 332C658 395 682 405 757 405L780 405C740 266 713 129 650 -2L650 -12C670 -6 705 1 722 13C763 141 792 274 820 405L1047 405C990 318 949 213 947 108C947 59 962 -15 1023 -15C1064 -15 1120 25 1150 51L1150 66L1138 66L1138 67C1120 56 1100 42 1077 42ZM1573 365C1576 403 1581 435 1589 476C1578 481 1574 482 1569 482C1538 482 1507 458 1471 407C1432 351 1393 291 1377 256L1409 408C1413 425 1415 438 1415 450C1415 470 1407 482 1392 482C1371 482 1333 461 1259 408L1231 388L1238 368L1270 389C1298 407 1309 412 1318 412C1328 412 1335 403 1335 390C1335 332 1292 126 1252 -2L1262 -9C1277 -4 1293 -1 1316 4L1329 6L1355 126C1373 209 1396 262 1440 319C1474 363 1501 384 1523 384C1538 384 1548 379 1559 365Z" stroke="rgb(0,0,0)" stroke-opacity="1" stroke-width="8" fill="rgb(0,0,0)" fill-opacity="1"></path></g></g><g><g><g><g><g transform="matrix(1,0,0,1,71.96878051757812,8.33)"><path transform="matrix(0.00833,0,0,-0.00833,0,0)" d="M16 23L16 -3C203 -3 203 0 239 0C275 0 275 -3 468 -3L468 82C353 77 307 81 122 77L304 270C401 373 431 428 431 503C431 618 353 689 226 689C154 689 105 669 56 619L39 483L68 483L81 529C97 587 133 612 200 612C286 612 341 558 341 473C341 398 299 324 186 204Z" stroke="rgb(0,0,0)" stroke-opacity="1" stroke-width="8" fill="rgb(0,0,0)" fill-opacity="1"></path></g></g></g></g></g></g></g><g><g><g><g transform="matrix(1,0,0,1,162.00003051757812,73.9)"><path transform="matrix(0.0119,0,0,-0.0119,0,0)" d="M368 365C371 403 376 435 384 476C373 481 369 482 364 482C333 482 302 458 266 407C227 351 188 291 172 256L204 408C208 425 210 438 210 450C210 470 202 482 187 482C166 482 128 461 54 408L26 388L33 368L65 389C93 407 104 412 113 412C123 412 130 403 130 390C130 332 87 126 47 -2L57 -9C72 -4 88 -1 111 4L124 6L150 126C168 209 191 262 235 319C269 363 296 384 318 384C333 384 343 379 354 365Z" stroke="rgb(0,0,0)" stroke-opacity="1" stroke-width="8" fill="rgb(0,0,0)" fill-opacity="1"></path></g></g></g></g></svg>
</svg>
