<svg xmlns="http://www.w3.org/2000/svg" xmlns:xlink="http://www.w3.org/1999/xlink" x="0" y="0" width="315" height="97.98661041259766" style="
        width:315px;
        height:97.98661041259766px;
        background: transparent;
        fill: none;
">
        
        
        <svg xmlns="http://www.w3.org/2000/svg" class="role-diagram-draw-area"><g class="shapes-region" style="stroke: black; fill: none;"><g class="grouped-shape"><g class="composite-shape"><path class="real" d=" M50,20 L200,20 L200,80 L50,80 Z" style="stroke-width: 1; stroke: none; stroke-opacity: 0.1; fill: none; fill-opacity: 1;"/><path class="real" d=" M50,20 L50,80 M60,20 L60,80 M70,20 L70,80 M80,20 L80,80 M90,20 L90,80 M100,20 L100,80 M110,20 L110,80 M120,20 L120,80 M130,20 L130,80 M140,20 L140,80 M150,20 L150,80 M160,20 L160,80 M170,20 L170,80 M180,20 L180,80 M190,20 L190,80" style="stroke-width: 1; stroke: rgb(0, 0, 0); stroke-opacity: 0.1; fill: none; fill-opacity: 1;"/><path class="real" d=" M50,20 L200,20 M50,30 L200,30 M50,40 L200,40 M50,50 L200,50 M50,60 L200,60 M50,70 L200,70" style="stroke-width: 1; stroke: rgb(0, 0, 0); stroke-opacity: 0.1; fill: none; fill-opacity: 1;"/><path class="real" d=" " style="stroke-width: 1; stroke: rgb(0, 0, 0); stroke-opacity: 0.1; fill: none; fill-opacity: 1;"/></g><g class="arrow-line"><path class="connection real" stroke-dasharray="" d="  M50,80 L200,80" style="stroke: rgb(0, 0, 0); stroke-opacity: 0.1; stroke-width: 1; fill: none; fill-opacity: 1;"/></g><g class="arrow-line"><path class="connection real" stroke-dasharray="" d="  M200,80 L200,20" style="stroke: rgb(0, 0, 0); stroke-opacity: 0.1; stroke-width: 1; fill: none; fill-opacity: 1;"/></g></g><g class="arrow-line"><path class="connection real" stroke-dasharray="" d="  M60,23 L60,80" style="stroke: rgb(0, 0, 0); stroke-width: 1; fill: none; fill-opacity: 1;"/><g stroke="none" fill="#000" transform="matrix(6.123233995736766e-17,1,-1,6.123233995736766e-17,60,20)" style="stroke: none; fill: rgb(0, 0, 0); stroke-width: 1;"><path d=" M5.36,-2.57 L0,0 L5.36,2.57 Z"/></g></g><g class="arrow-line"><path class="connection real" stroke-dasharray="" d="  M50,70 L196,70" style="stroke: rgb(0, 0, 0); stroke-opacity: 1; stroke-width: 1; fill: none; fill-opacity: 1;"/><g stroke="none" fill="rgb(0,0,0)" fill-opacity="1" transform="matrix(-1,1.2246467991473532e-16,-1.2246467991473532e-16,-1,199,70)" style="stroke: none; fill: rgb(0, 0, 0); stroke-width: 1;"><path d=" M5.36,-2.57 L0,0 L5.36,2.57 Z"/></g></g><g class="arrow-line"><path class="connection real" stroke-dasharray="" d="  M100,64 L100,75" style="stroke: rgb(0, 0, 0); stroke-width: 1; fill: none; fill-opacity: 1;"/></g><g class="composite-shape"><path class="real" d=" M78,64 C78,62.9 78.9,62 80,62 C81.1,62 82,62.9 82,64 C82,65.1 81.1,66 80,66 C78.9,66 78,65.1 78,64 Z" style="stroke-width: 1; stroke: rgb(0, 0, 0); fill: rgb(0, 0, 0); fill-opacity: 1;"/></g><g class="composite-shape"><path class="real" d=" M58,70 C58,68.9 58.9,68 60,68 C61.1,68 62,68.9 62,70 C62,71.1 61.1,72 60,72 C58.9,72 58,71.1 58,70 Z" style="stroke-width: 1; stroke: rgb(0, 0, 0); fill: rgb(0, 0, 0); fill-opacity: 1;"/></g><g class="composite-shape"><path class="real" d=" M98,30 C98,28.9 98.9,28 100,28 C101.1,28 102,28.9 102,30 C102,31.1 101.1,32 100,32 C98.9,32 98,31.1 98,30 Z" style="stroke-width: 1; stroke: rgb(0, 0, 0); fill: rgb(0, 0, 0); fill-opacity: 1;"/></g><g class="composite-shape"><path class="real" d=" M138,30 C138,28.9 138.9,28 140,28 C141.1,28 142,28.9 142,30 C142,31.1 141.1,32 140,32 C138.9,32 138,31.1 138,30 Z" style="stroke-width: 1; stroke: rgb(0, 0, 0); fill: rgb(0, 0, 0); fill-opacity: 1;"/></g><g class="arrow-line"><path class="connection real" stroke-dasharray="" d="  M59,70 C81.07,68.03 94,56.01 100,30" style="stroke: rgb(0, 0, 0); stroke-width: 1; fill: none; fill-opacity: 1;"/></g><g class="arrow-line"><path class="connection real" stroke-dasharray="" d="  M100,30 L190,30" style="stroke: rgb(0, 0, 0); stroke-width: 1; fill: none; fill-opacity: 1;"/></g><g class="arrow-line"><path class="connection real" stroke-dasharray="" d="  M63,30 L56,29.98" style="stroke: rgb(0, 0, 0); stroke-width: 1; fill: none; fill-opacity: 1;"/></g><g class="arrow-line"><path class="connection real" stroke-dasharray="" d="  M140,64 L140,75" style="stroke: rgb(0, 0, 0); stroke-width: 1; fill: none; fill-opacity: 1;"/></g><g/></g><g/><g/><g/></svg>
        <svg xmlns="http://www.w3.org/2000/svg" xmlns:xlink="http://www.w3.org/1999/xlink" width="313" height="95.98661041259766" style="width:313px;height:95.98661041259766px;font-family:Asana-Math, Asana;background:transparent;"><g><g><g><g transform="matrix(1,0,0,1,52,11.9)"><path transform="matrix(0.0119,0,0,-0.0119,0,0)" d="M151 -172C151 -95 175 -59 228 -59C257 -59 285 -67 324 -88L469 -164C529 -195 547 -201 587 -201C662 -201 698 -158 708 -61L683 -61C677 -115 655 -140 615 -140C598 -140 579 -135 553 -125L317 -29C292 -19 274 -15 251 -15C177 -15 126 -66 126 -142C126 -144 126 -151 127 -159ZM748 425C748 603 644 706 464 706C227 706 53 523 53 272C53 83 147 -18 323 -18C595 -18 748 207 748 425ZM660 409C660 221 571 24 360 24C216 24 141 110 141 277C141 425 199 664 433 664C549 664 660 610 660 409Z" stroke="rgb(0,0,0)" stroke-opacity="1" stroke-width="8" fill="rgb(0,0,0)" fill-opacity="1"></path></g></g><g><g><g><g><g transform="matrix(1,0,0,1,61.602691650390625,13.999647216796875)"><path transform="matrix(0.00833,0,0,-0.00833,0,0)" d="M250 -20C315 -20 405 18 417 36L437 70L424 80C360 42 337 33 294 33C229 33 175 62 147 111C128 144 121 172 119 230C140 227 170 226 204 226C290 226 399 234 446 244C447 258 448 267 448 279C448 394 374 469 262 469C225 469 180 464 140 440C58 392 26 323 26 219C26 25 161 -20 250 -20ZM359 267C335 264 284 261 233 261C190 261 147 264 121 270C121 317 125 339 138 365C159 409 202 436 250 436C283 436 309 423 327 396C349 363 356 334 359 267ZM888 -3C949 0 950 0 967 0C981 0 981 0 1050 -3L1050 27L1009 30C975 32 972 38 972 102L972 295C972 412 917 469 805 469C768 469 747 462 726 444L650 378L650 465L641 469C590 448 538 434 485 428L485 400L522 400C562 400 566 393 566 327L566 102C566 39 563 32 529 30L484 27L484 -3C552 -1 579 0 608 0C637 0 664 -1 732 -3L732 27L687 30C653 32 650 39 650 102L650 314C650 359 716 408 777 408C844 408 888 358 888 281ZM1458 311C1458 357 1463 398 1472 434C1440 478 1397 497 1352 497C1228 497 1084 361 1084 224C1084 219 1085 215 1085 210C1085 75 1180 -20 1314 -20C1366 -20 1441 -1 1451 14L1472 46L1462 61C1425 41 1393 32 1357 32C1246 32 1173 118 1173 250C1173 357 1223 417 1313 417C1357 417 1405 397 1423 372L1430 311ZM1525 661L1581 661C1599 661 1606 650 1606 620L1606 102C1606 39 1603 32 1569 30L1523 27L1523 -3C1623 0 1623 0 1648 0C1673 0 1673 0 1773 -3L1773 27L1727 30C1693 32 1690 39 1690 102L1690 718L1681 726C1637 709 1604 701 1525 689Z" stroke="rgb(0,0,0)" stroke-opacity="1" stroke-width="8" fill="rgb(0,0,0)" fill-opacity="1"></path></g></g></g></g></g></g></g><g><g><g><g transform="matrix(1,0,0,1,96,89.90003051757813)"><path transform="matrix(0.0119,0,0,-0.0119,0,0)" d="M105 664L161 662C185 661 196 653 196 635C196 621 192 589 187 559L112 125C96 34 94 32 54 28L13 25L9 -3L51 -2C98 0 117 0 141 0L238 -3L264 -3L267 25L218 28C191 30 182 38 182 58C182 67 183 76 186 93L287 648C316 654 336 656 363 656C450 656 496 617 496 543C496 448 418 378 314 378L270 378L267 367C401 172 432 124 507 -3C507 -3 592 0 592 0C593 0 607 -1 626 -3L639 -3L639 24C599 29 588 37 559 79L375 354C430 364 459 376 495 402C553 444 584 499 584 560C584 646 520 693 409 691L108 691Z" stroke="rgb(0,0,0)" stroke-opacity="1" stroke-width="8" fill="rgb(0,0,0)" fill-opacity="1"></path></g></g></g></g><g><g><g><g transform="matrix(1,0,0,1,202,77.90003051757813)"><path transform="matrix(0.0119,0,0,-0.0119,0,0)" d="M368 365C371 403 376 435 384 476C373 481 369 482 364 482C333 482 302 458 266 407C227 351 188 291 172 256L204 408C208 425 210 438 210 450C210 470 202 482 187 482C166 482 128 461 54 408L26 388L33 368L65 389C93 407 104 412 113 412C123 412 130 403 130 390C130 332 87 126 47 -2L57 -9C72 -4 88 -1 111 4L124 6L150 126C168 209 191 262 235 319C269 363 296 384 318 384C333 384 343 379 354 365Z" stroke="rgb(0,0,0)" stroke-opacity="1" stroke-width="8" fill="rgb(0,0,0)" fill-opacity="1"></path></g></g></g></g><g><g><g><g transform="matrix(1,0,0,1,10,33.18125)"><path transform="matrix(0.0119,0,0,-0.0119,0,0)" d="M386 473C267 473 146 396 119 277C79 98 60 -97 34 -284C62 -283 92 -277 118 -266C116 -222 115 -145 145 29C169 -5 206 -15 247 -15C424 -15 522 168 525 325C527 420 482 473 386 473ZM347 441C426 441 446 380 445 311C444 203 398 11 260 11C182 11 164 72 166 138C168 243 210 441 347 441Z" stroke="rgb(0,0,0)" stroke-opacity="1" stroke-width="8" fill="rgb(0,0,0)" fill-opacity="1"></path></g></g><g><g><g><g><g transform="matrix(1,0,0,1,17.924102783203125,24.9)"><path transform="matrix(0.0119,0,0,-0.0119,0,0)" d="M280 181L280 106C280 46 269 32 220 30L158 27L158 -3C291 0 291 0 315 0C339 0 339 0 472 -3L472 27L424 30C375 33 364 46 364 106L364 181C423 181 444 180 472 177L472 248L364 245L365 697L285 667L2 204L2 181ZM280 245L65 245L280 597Z" stroke="rgb(0,0,0)" stroke-opacity="1" stroke-width="8" fill="rgb(0,0,0)" fill-opacity="1"></path></g></g></g></g><g><g><g><g transform="matrix(1,0,0,1,17.924102783203125,42.4625)"><path transform="matrix(0.0119,0,0,-0.0119,0,0)" d="M462 224C462 345 355 366 308 374C388 436 418 482 418 541C418 630 344 689 233 689C165 689 120 670 72 622L43 498L74 498L92 554C103 588 166 622 218 622C283 622 336 569 336 506C336 431 277 368 206 368C198 368 187 369 174 370L159 371L147 318L154 312C192 329 211 334 238 334C321 334 369 281 369 190C369 88 308 21 215 21C169 21 128 36 98 64C74 86 61 109 42 163L15 153C36 92 44 56 50 6C103 -12 147 -20 184 -20C307 -20 462 87 462 224Z" stroke="rgb(0,0,0)" stroke-opacity="1" stroke-width="8" fill="rgb(0,0,0)" fill-opacity="1"></path></g></g></g></g><line style="fill:none;stroke-width:1px;stroke:rgb(0, 0, 0);" x1="17.924102783203125" y1="30.30804443359375" x2="23.86606740951538" y2="30.30804443359375"></line></g><g><g transform="matrix(1,0,0,1,25.053558349609375,33.18125)"><path transform="matrix(0.0119,0,0,-0.0119,0,0)" d="M525 42C469 42 464 125 465 166C466 251 494 333 537 405L599 418C602 435 608 452 613 467C459 461 300 463 145 466C80 467 66 389 47 340C46 332 59 331 63 328L63 332C106 395 130 405 205 405L228 405C188 266 161 129 98 -2L98 -12C118 -6 153 1 170 13C211 141 240 274 268 405L495 405C438 318 397 213 395 108C395 59 410 -15 471 -15C512 -15 568 25 598 51L598 66L586 66L586 67C568 56 548 42 525 42ZM758 664L814 662C838 661 849 653 849 635C849 621 845 589 840 559L765 125C749 34 747 32 707 28L666 25L662 -3L704 -2C751 0 770 0 794 0L891 -3L917 -3L920 25L871 28C844 30 835 38 835 58C835 67 836 76 839 93L940 648C969 654 989 656 1016 656C1103 656 1149 617 1149 543C1149 448 1071 378 967 378L923 378L920 367C1054 172 1085 124 1160 -3C1160 -3 1245 0 1245 0C1246 0 1260 -1 1279 -3L1292 -3L1292 24C1252 29 1241 37 1212 79L1028 354C1083 364 1112 376 1148 402C1206 444 1237 499 1237 560C1237 646 1173 693 1062 691L761 691Z" stroke="rgb(0,0,0)" stroke-opacity="1" stroke-width="8" fill="rgb(0,0,0)" fill-opacity="1"></path></g></g><g><g><g><g><g transform="matrix(1,0,0,1,41.43304443359375,28.490736083984373)"><path transform="matrix(0.00833,0,0,-0.00833,0,0)" d="M462 224C462 345 355 366 308 374C388 436 418 482 418 541C418 630 344 689 233 689C165 689 120 670 72 622L43 498L74 498L92 554C103 588 166 622 218 622C283 622 336 569 336 506C336 431 277 368 206 368C198 368 187 369 174 370L159 371L147 318L154 312C192 329 211 334 238 334C321 334 369 281 369 190C369 88 308 21 215 21C169 21 128 36 98 64C74 86 61 109 42 163L15 153C36 92 44 56 50 6C103 -12 147 -20 184 -20C307 -20 462 87 462 224Z" stroke="rgb(0,0,0)" stroke-opacity="1" stroke-width="8" fill="rgb(0,0,0)" fill-opacity="1"></path></g></g></g></g></g></g></g><g><g><g><g transform="matrix(1,0,0,1,134,87.90003051757813)"><path transform="matrix(0.0119,0,0,-0.0119,0,0)" d="M16 23L16 -3C203 -3 203 0 239 0C275 0 275 -3 468 -3L468 82C353 77 307 81 122 77L304 270C401 373 431 428 431 503C431 618 353 689 226 689C154 689 105 669 56 619L39 483L68 483L81 529C97 587 133 612 200 612C286 612 341 558 341 473C341 398 299 324 186 204ZM604 664L660 662C684 661 695 653 695 635C695 621 691 589 686 559L611 125C595 34 593 32 553 28L512 25L508 -3L550 -2C597 0 616 0 640 0L737 -3L763 -3L766 25L717 28C690 30 681 38 681 58C681 67 682 76 685 93L786 648C815 654 835 656 862 656C949 656 995 617 995 543C995 448 917 378 813 378L769 378L766 367C900 172 931 124 1006 -3C1006 -3 1091 0 1091 0C1092 0 1106 -1 1125 -3L1138 -3L1138 24C1098 29 1087 37 1058 79L874 354C929 364 958 376 994 402C1052 444 1083 499 1083 560C1083 646 1019 693 908 691L607 691Z" stroke="rgb(0,0,0)" stroke-opacity="1" stroke-width="8" fill="rgb(0,0,0)" fill-opacity="1"></path></g></g></g></g></svg>
</svg>
