<svg xmlns="http://www.w3.org/2000/svg" xmlns:xlink="http://www.w3.org/1999/xlink" x="0" y="0" width="436.0000305175781" height="151.99107360839844" style="
        width:436.0000305175781px;
        height:151.99107360839844px;
        background: transparent;
        fill: none;
">
        
        
        <svg xmlns="http://www.w3.org/2000/svg" class="role-diagram-draw-area"><g class="shapes-region" style="stroke: black; fill: none;"><g class="composite-shape"><path class="real" d=" M29.42,59.14 L79.82,58.69 C74.52,58.74 70.3,67.72 70.4,78.74 C70.5,89.77 74.87,98.67 80.17,98.62 L29.78,99.07 C24.48,99.11 20.1,90.22 20,79.19 C19.9,68.17 24.12,59.19 29.42,59.14 Z" style="stroke-width: 1; stroke: rgb(0, 0, 0); fill: rgb(155, 155, 155); fill-opacity: 1;"/></g><g class="composite-shape"><path class="real" d=" M128.44,119.24 L66.95,119.24 C57.8,119.24 50.39,101.09 50.39,78.69 C50.39,56.3 57.8,38.15 66.95,38.15 L128.44,38.15 M145,78.69 C145,101.09 137.58,119.24 128.44,119.24 C119.3,119.24 111.89,101.09 111.89,78.69 C111.89,56.3 119.3,38.15 128.44,38.15 C137.58,38.15 145,56.3 145,78.69" style="stroke-width: 1; stroke: rgb(0, 0, 0); fill: rgb(74, 144, 226); fill-opacity: 1;"/></g><g class="grouped-shape"><g class="composite-shape"><path class="real" d=" M260,50 L410,50 L410,110 L260,110 Z" style="stroke-width: 1; stroke: none; stroke-opacity: 0.1; fill: none; fill-opacity: 1;"/><path class="real" d=" M260,50 L260,110 M270,50 L270,110 M280,50 L280,110 M290,50 L290,110 M300,50 L300,110 M310,50 L310,110 M320,50 L320,110 M330,50 L330,110 M340,50 L340,110 M350,50 L350,110 M360,50 L360,110 M370,50 L370,110 M380,50 L380,110 M390,50 L390,110 M400,50 L400,110" style="stroke-width: 1; stroke: rgb(0, 0, 0); stroke-opacity: 0.1; fill: none; fill-opacity: 1;"/><path class="real" d=" M260,50 L410,50 M260,60 L410,60 M260,70 L410,70 M260,80 L410,80 M260,90 L410,90 M260,100 L410,100" style="stroke-width: 1; stroke: rgb(0, 0, 0); stroke-opacity: 0.1; fill: none; fill-opacity: 1;"/><path class="real" d=" " style="stroke-width: 1; stroke: rgb(0, 0, 0); stroke-opacity: 0.1; fill: none; fill-opacity: 1;"/></g><g class="arrow-line"><path class="connection real" stroke-dasharray="" d="  M260,110 L410,110" style="stroke: rgb(0, 0, 0); stroke-opacity: 0.1; stroke-width: 1; fill: none; fill-opacity: 1;"/></g><g class="arrow-line"><path class="connection real" stroke-dasharray="" d="  M410,110 L410,50" style="stroke: rgb(0, 0, 0); stroke-opacity: 0.1; stroke-width: 1; fill: none; fill-opacity: 1;"/></g></g><g class="arrow-line"><path class="connection real" stroke-dasharray="" d="  M270,53 L270,110" style="stroke: rgb(0, 0, 0); stroke-width: 1; fill: none; fill-opacity: 1;"/><g stroke="none" fill="#000" transform="matrix(6.123233995736766e-17,1,-1,6.123233995736766e-17,270,50)" style="stroke: none; fill: rgb(0, 0, 0); stroke-width: 1;"><path d=" M5.36,-2.57 L0,0 L5.36,2.57 Z"/></g></g><g class="arrow-line"><path class="connection real" stroke-dasharray="" d="  M260,100 L406,100" style="stroke: rgb(0, 0, 0); stroke-opacity: 1; stroke-width: 1; fill: none; fill-opacity: 1;"/><g stroke="none" fill="rgb(0,0,0)" fill-opacity="1" transform="matrix(-1,1.2246467991473532e-16,-1.2246467991473532e-16,-1,409,100)" style="stroke: none; fill: rgb(0, 0, 0); stroke-width: 1;"><path d=" M5.36,-2.57 L0,0 L5.36,2.57 Z"/></g></g><g class="arrow-line"><path class="connection real" stroke-dasharray="" d="  M310,94 L310,105" style="stroke: rgb(0, 0, 0); stroke-width: 1; fill: none; fill-opacity: 1;"/></g><g class="arrow-line"><path class="connection real" stroke-dasharray="" d="  M63,130 L127,130" style="stroke: rgb(0, 0, 0); stroke-width: 1; fill: none; fill-opacity: 1;"/><g stroke="none" fill="#000" transform="matrix(-1,1.2246467991473532e-16,-1.2246467991473532e-16,-1,129.99999999999997,130.00000000000003)" style="stroke: none; fill: rgb(0, 0, 0); stroke-width: 1;"><path d=" M6.25,-3 L0,0 L6.25,3 Z"/></g><g stroke="none" fill="#000" transform="matrix(1,0,0,1,60,130)" style="stroke: none; fill: rgb(0, 0, 0); stroke-width: 1;"><path d=" M6.25,-3 L0,0 L6.25,3 Z"/></g></g><g class="arrow-line"><path class="connection real" stroke-dasharray="" d="  M23,30 L167,30" style="stroke: rgb(0, 0, 0); stroke-width: 1; fill: none; fill-opacity: 1;"/><g stroke="none" fill="#000" transform="matrix(-1,1.2246467991473532e-16,-1.2246467991473532e-16,-1,170,30)" style="stroke: none; fill: rgb(0, 0, 0); stroke-width: 1;"><path d=" M6.25,-3 L0,0 L6.25,3 Z"/></g><g stroke="none" fill="#000" transform="matrix(1,0,0,1,20,30)" style="stroke: none; fill: rgb(0, 0, 0); stroke-width: 1;"><path d=" M6.25,-3 L0,0 L6.25,3 Z"/></g></g><g class="arrow-line"><path class="connection real" stroke-dasharray="" d="  M121.71,45.92 L129.29,77.08" style="stroke: rgb(0, 0, 0); stroke-width: 1; fill: none; fill-opacity: 1;"/><g stroke="none" fill="#000" transform="matrix(-0.23632941169393817,-0.971672994977424,0.971672994977424,-0.23632941169393817,130,80)" style="stroke: none; fill: rgb(0, 0, 0); stroke-width: 1;"><path d=" M6.25,-3 L0,0 L6.25,3 Z"/></g><g stroke="none" fill="#000" transform="matrix(0.23632941169393784,0.9716729949774241,-0.9716729949774241,0.23632941169393784,120.99999999999999,43)" style="stroke: none; fill: rgb(0, 0, 0); stroke-width: 1;"><path d=" M6.25,-3 L0,0 L6.25,3 Z"/></g></g><g class="composite-shape"><path class="real" d=" M167.03,98 L129.98,98 C124.47,98 120,89.05 120,78 C120,66.95 124.47,58 129.98,58 L167.03,58 M177,78 C177,89.05 172.53,98 167.03,98 C161.52,98 157.05,89.05 157.05,78 C157.05,66.95 161.52,58 167.03,58 C172.53,58 177,66.95 177,78" style="stroke-width: 1; stroke: rgb(0, 0, 0); fill: rgb(155, 155, 155); fill-opacity: 1;"/></g><g class="arrow-line"><path class="connection real" stroke-dasharray="" d="  M168,77 L169.65,62.98" style="stroke: rgb(0, 0, 0); stroke-width: 1; fill: none; fill-opacity: 1;"/><g stroke="none" fill="#000" transform="matrix(-0.11684407630014187,0.9931502715267043,-0.9931502715267043,-0.11684407630014187,170,60)" style="stroke: none; fill: rgb(0, 0, 0); stroke-width: 1;"><path d=" M6.25,-3 L0,0 L6.25,3 Z"/></g></g><g/></g><g/><g/><g/></svg>
        <svg xmlns="http://www.w3.org/2000/svg" xmlns:xlink="http://www.w3.org/1999/xlink" width="434.0000305175781" height="149.99107360839844" style="width:434.0000305175781px;height:149.99107360839844px;font-family:Asana-Math, Asana;background:transparent;"><g><g><g><g transform="matrix(1,0,0,1,262,41.90001525878906)"><path transform="matrix(0.0119,0,0,-0.0119,0,0)" d="M151 -172C151 -95 175 -59 228 -59C257 -59 285 -67 324 -88L469 -164C529 -195 547 -201 587 -201C662 -201 698 -158 708 -61L683 -61C677 -115 655 -140 615 -140C598 -140 579 -135 553 -125L317 -29C292 -19 274 -15 251 -15C177 -15 126 -66 126 -142C126 -144 126 -151 127 -159ZM748 425C748 603 644 706 464 706C227 706 53 523 53 272C53 83 147 -18 323 -18C595 -18 748 207 748 425ZM660 409C660 221 571 24 360 24C216 24 141 110 141 277C141 425 199 664 433 664C549 664 660 610 660 409Z" stroke="rgb(0,0,0)" stroke-opacity="1" stroke-width="8" fill="rgb(0,0,0)" fill-opacity="1"></path></g></g><g><g><g><g><g transform="matrix(1,0,0,1,271.60272216796875,43.99964721679687)"><path transform="matrix(0.00833,0,0,-0.00833,0,0)" d="M250 -20C315 -20 405 18 417 36L437 70L424 80C360 42 337 33 294 33C229 33 175 62 147 111C128 144 121 172 119 230C140 227 170 226 204 226C290 226 399 234 446 244C447 258 448 267 448 279C448 394 374 469 262 469C225 469 180 464 140 440C58 392 26 323 26 219C26 25 161 -20 250 -20ZM359 267C335 264 284 261 233 261C190 261 147 264 121 270C121 317 125 339 138 365C159 409 202 436 250 436C283 436 309 423 327 396C349 363 356 334 359 267ZM888 -3C949 0 950 0 967 0C981 0 981 0 1050 -3L1050 27L1009 30C975 32 972 38 972 102L972 295C972 412 917 469 805 469C768 469 747 462 726 444L650 378L650 465L641 469C590 448 538 434 485 428L485 400L522 400C562 400 566 393 566 327L566 102C566 39 563 32 529 30L484 27L484 -3C552 -1 579 0 608 0C637 0 664 -1 732 -3L732 27L687 30C653 32 650 39 650 102L650 314C650 359 716 408 777 408C844 408 888 358 888 281ZM1458 311C1458 357 1463 398 1472 434C1440 478 1397 497 1352 497C1228 497 1084 361 1084 224C1084 219 1085 215 1085 210C1085 75 1180 -20 1314 -20C1366 -20 1441 -1 1451 14L1472 46L1462 61C1425 41 1393 32 1357 32C1246 32 1173 118 1173 250C1173 357 1223 417 1313 417C1357 417 1405 397 1423 372L1430 311ZM1525 661L1581 661C1599 661 1606 650 1606 620L1606 102C1606 39 1603 32 1569 30L1523 27L1523 -3C1623 0 1623 0 1648 0C1673 0 1673 0 1773 -3L1773 27L1727 30C1693 32 1690 39 1690 102L1690 718L1681 726C1637 709 1604 701 1525 689Z" stroke="rgb(0,0,0)" stroke-opacity="1" stroke-width="8" fill="rgb(0,0,0)" fill-opacity="1"></path></g></g></g></g></g></g></g><g><g><g><g transform="matrix(1,0,0,1,434.00006103515625,103.9)"><path transform="matrix(0.0119,0,0,-0.0119,0,0)" d="M368 365C371 403 376 435 384 476C373 481 369 482 364 482C333 482 302 458 266 407C227 351 188 291 172 256L204 408C208 425 210 438 210 450C210 470 202 482 187 482C166 482 128 461 54 408L26 388L33 368L65 389C93 407 104 412 113 412C123 412 130 403 130 390C130 332 87 126 47 -2L57 -9C72 -4 88 -1 111 4L124 6L150 126C168 209 191 262 235 319C269 363 296 384 318 384C333 384 343 379 354 365Z" stroke="rgb(0,0,0)" stroke-opacity="1" stroke-width="8" fill="rgb(0,0,0)" fill-opacity="1"></path></g></g></g></g><g><g><g><g transform="matrix(1,0,0,1,307,117.9)"><path transform="matrix(0.0119,0,0,-0.0119,0,0)" d="M105 664L161 662C185 661 196 653 196 635C196 621 192 589 187 559L112 125C96 34 94 32 54 28L13 25L9 -3L51 -2C98 0 117 0 141 0L238 -3L264 -3L267 25L218 28C191 30 182 38 182 58C182 67 183 76 186 93L287 648C316 654 336 656 363 656C450 656 496 617 496 543C496 448 418 378 314 378L270 378L267 367C401 172 432 124 507 -3C507 -3 592 0 592 0C593 0 607 -1 626 -3L639 -3L639 24C599 29 588 37 559 79L375 354C430 364 459 376 495 402C553 444 584 499 584 560C584 646 520 693 409 691L108 691Z" stroke="rgb(0,0,0)" stroke-opacity="1" stroke-width="8" fill="rgb(0,0,0)" fill-opacity="1"></path></g></g></g></g><g><g><g><g transform="matrix(1,0,0,1,96.00003051757812,142.9)"><path transform="matrix(0.0119,0,0,-0.0119,0,0)" d="M236 722L224 733C179 711 138 697 64 691L60 670L108 670C126 670 142 667 142 647C142 641 142 632 140 622L98 388C78 272 36 80 10 2L17 -9L86 7C94 64 108 164 148 236C193 317 296 414 338 414C349 414 360 407 360 393C360 375 355 342 345 303L294 107C288 85 281 55 281 31C281 6 291 -9 312 -9C344 -9 412 41 471 85L461 103L435 86C412 71 386 56 374 56C367 56 361 65 361 76C361 88 364 101 368 116L432 372C438 398 443 423 443 447C443 464 437 482 411 482C376 482 299 437 231 374C198 343 172 308 144 273L140 275Z" stroke="rgb(0,0,0)" stroke-opacity="1" stroke-width="8" fill="rgb(0,0,0)" fill-opacity="1"></path></g></g></g></g><g><g><g><g transform="matrix(1,0,0,1,88.00003051757812,21.90001525878906)"><path transform="matrix(0.0119,0,0,-0.0119,0,0)" d="M221 385L263 613C270 652 277 658 314 661L356 664L359 692L335 692L245 689C229 689 211 689 168 690L104 692L101 664L148 662C172 661 183 653 183 635C183 621 179 590 174 559L100 125C83 33 82 32 42 28L1 25L-3 -3L39 -2C87 -1 110 0 129 0L226 -3L252 -3L255 25L206 28C179 30 170 37 170 58C170 67 171 74 174 93L216 340L277 341C339 342 381 343 400 343C419 343 460 342 523 341L584 340L544 125C535 76 528 48 523 42C519 34 508 30 486 28L436 25L432 -3L488 -2C532 -1 562 0 573 0C589 0 620 -1 663 -2L705 -3L708 25L650 28C624 29 614 37 614 58C614 67 615 76 618 93L710 613C717 652 723 657 761 661L797 664L800 692L784 692L693 689C678 689 657 689 613 690L550 692L547 664L595 662C619 661 630 653 630 635C630 621 626 589 621 559L591 385Z" stroke="rgb(0,0,0)" stroke-opacity="1" stroke-width="8" fill="rgb(0,0,0)" fill-opacity="1"></path></g></g></g></g><g><g><g><g transform="matrix(1,0,0,1,159.00003051757812,81.90001525878907)"><path transform="matrix(0.0119,0,0,-0.0119,0,0)" d="M105 664L161 662C185 661 196 653 196 635C196 621 192 589 187 559L112 125C96 34 94 32 54 28L13 25L9 -3L51 -2C98 0 117 0 141 0L238 -3L264 -3L267 25L218 28C191 30 182 38 182 58C182 67 183 76 186 93L287 648C316 654 336 656 363 656C450 656 496 617 496 543C496 448 418 378 314 378L270 378L267 367C401 172 432 124 507 -3C507 -3 592 0 592 0C593 0 607 -1 626 -3L639 -3L639 24C599 29 588 37 559 79L375 354C430 364 459 376 495 402C553 444 584 499 584 560C584 646 520 693 409 691L108 691Z" stroke="rgb(0,0,0)" stroke-opacity="1" stroke-width="8" fill="rgb(0,0,0)" fill-opacity="1"></path></g></g></g></g><g><g><g><g transform="matrix(1,0,0,1,127.43753051757812,53.047323608398436)"><path transform="matrix(0.0119,0,0,-0.0119,0,0)" d="M368 365C371 403 376 435 384 476C373 481 369 482 364 482C333 482 302 458 266 407C227 351 188 291 172 256L204 408C208 425 210 438 210 450C210 470 202 482 187 482C166 482 128 461 54 408L26 388L33 368L65 389C93 407 104 412 113 412C123 412 130 403 130 390C130 332 87 126 47 -2L57 -9C72 -4 88 -1 111 4L124 6L150 126C168 209 191 262 235 319C269 363 296 384 318 384C333 384 343 379 354 365Z" stroke="rgb(0,0,0)" stroke-opacity="1" stroke-width="8" fill="rgb(0,0,0)" fill-opacity="1"></path></g></g></g></g><g><g><g><g transform="matrix(1,0,0,1,412.00006103515625,107.9)"><path transform="matrix(0.0119,0,0,-0.0119,0,0)" d="M368 365C371 403 376 435 384 476C373 481 369 482 364 482C333 482 302 458 266 407C227 351 188 291 172 256L204 408C208 425 210 438 210 450C210 470 202 482 187 482C166 482 128 461 54 408L26 388L33 368L65 389C93 407 104 412 113 412C123 412 130 403 130 390C130 332 87 126 47 -2L57 -9C72 -4 88 -1 111 4L124 6L150 126C168 209 191 262 235 319C269 363 296 384 318 384C333 384 343 379 354 365Z" stroke="rgb(0,0,0)" stroke-opacity="1" stroke-width="8" fill="rgb(0,0,0)" fill-opacity="1"></path></g></g></g></g></svg>
</svg>
