<svg xmlns="http://www.w3.org/2000/svg" xmlns:xlink="http://www.w3.org/1999/xlink" x="0" y="0" width="248" height="144.25" style="
        width:248px;
        height:144.25px;
        background: transparent;
        fill: none;
">
        
        
        <svg xmlns="http://www.w3.org/2000/svg" class="role-diagram-draw-area"><g class="shapes-region" style="stroke: black; fill: none;"><g class="arrow-line"><path class="connection real" stroke-dasharray="" d="  M10.25,130 L217.25,130" style="stroke: rgb(0, 0, 0); stroke-width: 1; fill: none; fill-opacity: 1;"/><g stroke="none" fill="#000" transform="matrix(-1,1.2246467991473532e-16,-1.2246467991473532e-16,-1,220.24999999999997,130.00000000000003)" style="stroke: none; fill: rgb(0, 0, 0); stroke-width: 1;"><path d=" M8.93,-4.29 L0,0 L8.93,4.29 Z"/></g></g><g class="arrow-line"><path class="connection real" stroke-dasharray="" d="  M10.25,130 L10.25,13" style="stroke: rgb(0, 0, 0); stroke-width: 1; fill: none; fill-opacity: 1;"/><g stroke="none" fill="#000" transform="matrix(3.061616997868383e-16,1,-1,3.061616997868383e-16,10.25,10)" style="stroke: none; fill: rgb(0, 0, 0); stroke-width: 1;"><path d=" M8.93,-4.29 L0,0 L8.93,4.29 Z"/></g></g><g class="composite-shape"><path class="real" d=" M10.25,30 L211.05,30 L211.05,130 L10.25,130 Z" style="stroke-width: 1; stroke: none; stroke-opacity: 0.36; fill: none; fill-opacity: 1;"/><path class="real" d=" M10.25,30 L10.25,130 M30.25,30 L30.25,130 M50.25,30 L50.25,130 M70.25,30 L70.25,130 M90.25,30 L90.25,130 M110.25,30 L110.25,130 M130.25,30 L130.25,130 M150.25,30 L150.25,130 M170.25,30 L170.25,130 M190.25,30 L190.25,130 M210.25,30 L210.25,130" style="stroke-width: 1; stroke: rgb(155, 155, 155); stroke-opacity: 0.36; fill: none; fill-opacity: 1;"/><path class="real" d=" M10.25,30 L211.05,30 M10.25,50 L211.05,50 M10.25,70 L211.05,70 M10.25,90 L211.05,90 M10.25,110 L211.05,110" style="stroke-width: 1; stroke: rgb(155, 155, 155); stroke-opacity: 0.36; fill: none; fill-opacity: 1;"/><path class="real" d=" " style="stroke-width: 1; stroke: rgb(155, 155, 155); stroke-opacity: 0.36; fill: none; fill-opacity: 1;"/></g><g/></g><g/><g/><g/></svg>
        <svg xmlns="http://www.w3.org/2000/svg" xmlns:xlink="http://www.w3.org/1999/xlink" width="246" height="142.25" style="width:246px;height:142.25px;font-family:Asana-Math, Asana;background:transparent;"></svg>
</svg>
