<svg xmlns="http://www.w3.org/2000/svg" xmlns:xlink="http://www.w3.org/1999/xlink" x="0" y="0" width="203" height="145" style="
        width:203px;
        height:145px;
        background: transparent;
        fill: none;
">
        
        
        <svg xmlns="http://www.w3.org/2000/svg" class="role-diagram-draw-area"><g class="shapes-region" style="stroke: black; fill: none;"><g class="arrow-line"><path class="connection real" stroke-dasharray="" d="  M50,10 L210,10" style="stroke: rgb(155, 155, 155); stroke-opacity: 1; stroke-width: 1; fill: none; fill-opacity: 1;"/><g><g stroke="none" fill="rgb(155,155,155)" fill-opacity="1" transform="matrix(-1,1.2246467991473532e-16,-1.2246467991473532e-16,-1,130,10.000000000000002)" style="stroke: none; fill: rgb(155, 155, 155); stroke-width: 1;"><path d=" M8.93,-4.29 L0,0 L8.93,4.29 Z"/></g></g></g><g class="arrow-line"><path class="connection real" stroke-dasharray="" d="  M50,50 L210,50" style="stroke: rgb(155, 155, 155); stroke-opacity: 1; stroke-width: 1; fill: none; fill-opacity: 1;"/><g><g stroke="none" fill="rgb(155,155,155)" fill-opacity="1" transform="matrix(-1,1.2246467991473532e-16,-1.2246467991473532e-16,-1,130,50)" style="stroke: none; fill: rgb(155, 155, 155); stroke-width: 1;"><path d=" M8.93,-4.29 L0,0 L8.93,4.29 Z"/></g></g></g><g class="arrow-line"><path class="connection real" stroke-dasharray="" d="  M50,90 L210,90" style="stroke: rgb(155, 155, 155); stroke-opacity: 1; stroke-width: 1; fill: none; fill-opacity: 1;"/><g><g stroke="none" fill="rgb(155,155,155)" fill-opacity="1" transform="matrix(-1,1.2246467991473532e-16,-1.2246467991473532e-16,-1,130,90.00000000000001)" style="stroke: none; fill: rgb(155, 155, 155); stroke-width: 1;"><path d=" M8.93,-4.29 L0,0 L8.93,4.29 Z"/></g></g></g><g class="arrow-line"><path class="connection real" stroke-dasharray="" d="  M50,130 L210,130" style="stroke: rgb(155, 155, 155); stroke-opacity: 1; stroke-width: 1; fill: none; fill-opacity: 1;"/><g><g stroke="none" fill="rgb(155,155,155)" fill-opacity="1" transform="matrix(-1,1.2246467991473532e-16,-1.2246467991473532e-16,-1,129.99999999999997,130.00000000000003)" style="stroke: none; fill: rgb(155, 155, 155); stroke-width: 1;"><path d=" M8.93,-4.29 L0,0 L8.93,4.29 Z"/></g></g></g><g class="composite-shape"><path class="real" d=" M63.64,70.68 C63.64,68.84 62.16,67.36 60.32,67.36 C58.49,67.36 57,68.84 57,70.68 C57,72.51 58.49,74 60.32,74 C62.16,74 63.64,72.51 63.64,70.68 Z" style="stroke-width: 1; stroke: rgb(0, 0, 0); fill: none; fill-opacity: 1;"/></g><g class="composite-shape"><path class="real" d=" M164,70.68 C164,68.84 162.51,67.36 160.68,67.36 C158.84,67.36 157.36,68.84 157.36,70.68 C157.36,72.51 158.84,74 160.68,74 C162.51,74 164,72.51 164,70.68 Z" style="stroke-width: 1; stroke: rgb(0, 0, 0); fill: none; fill-opacity: 1;"/></g><g class="composite-shape"><path class="real" d=" M63.64,110.68 C63.64,108.84 62.16,107.36 60.32,107.36 C58.49,107.36 57,108.84 57,110.68 C57,112.51 58.49,114 60.32,114 C62.16,114 63.64,112.51 63.64,110.68 Z" style="stroke-width: 1; stroke: rgb(0, 0, 0); fill: none; fill-opacity: 1;"/></g><g class="arrow-line"><path class="connection real" stroke-dasharray="" d="  M40,72 L40,108" style="stroke: rgb(0, 0, 0); stroke-width: 1; fill: none; fill-opacity: 1;"/><g stroke="#000" transform="matrix(-1.8369701987210297e-16,-1,1,-1.8369701987210297e-16,40,110)" style="stroke: rgb(0, 0, 0); stroke-width: 1;"><path d=" M10.93,-3.29 Q4.96,-0.45 0,0 Q4.96,0.45 10.93,3.29"/></g><g stroke="#000" transform="matrix(6.123233995736766e-17,1,-1,6.123233995736766e-17,40,70)" style="stroke: rgb(0, 0, 0); stroke-width: 1;"><path d=" M10.93,-3.29 Q4.96,-0.45 0,0 Q4.96,0.45 10.93,3.29"/></g></g><g class="arrow-line"><path class="connection real" stroke-dasharray="" d="  M158,40 L62,40" style="stroke: rgb(0, 0, 0); stroke-width: 1; fill: none; fill-opacity: 1;"/><g stroke="#000" transform="matrix(1,-2.4492935982947064e-16,2.4492935982947064e-16,1,60,40)" style="stroke: rgb(0, 0, 0); stroke-width: 1;"><path d=" M10.93,-3.29 Q4.96,-0.45 0,0 Q4.96,0.45 10.93,3.29"/></g><g stroke="#000" transform="matrix(-1,1.2246467991473532e-16,-1.2246467991473532e-16,-1,160,39.99999999999999)" style="stroke: rgb(0, 0, 0); stroke-width: 1;"><path d=" M10.93,-3.29 Q4.96,-0.45 0,0 Q4.96,0.45 10.93,3.29"/></g></g><g/></g><g/><g/><g/></svg>
        <svg xmlns="http://www.w3.org/2000/svg" xmlns:xlink="http://www.w3.org/1999/xlink" width="201" height="143" style="width:201px;height:143px;font-family:Asana-Math, Asana;background:transparent;"><g><g><g><text x="5" y="82.40000915527344" style="white-space:pre;stroke:none;fill:rgb(0,0,0);fill-opacity:1;font-size:15px;font-family:&quot;Times New Roman&quot;, Times, serif;font-weight:400;font-style:normal;dominant-baseline:text-before-edge;text-decoration:none solid rgb(0, 0, 0);">1 m</text></g></g></g><g><g><g><text x="99" y="22.400009155273438" style="white-space:pre;stroke:none;fill:rgb(0,0,0);fill-opacity:1;font-size:15px;font-family:&quot;Times New Roman&quot;, Times, serif;font-weight:400;font-style:normal;dominant-baseline:text-before-edge;text-decoration:none solid rgb(0, 0, 0);">2 m</text></g></g></g><g><g><g><g transform="matrix(1,0,0,1,63.31878662109375,81.5562530517578)"><path transform="matrix(0.0136,0,0,-0.0136,0,0)" d="M567 55C567 39 552 30 524 28L480 25L480 -3C582 0 582 0 602 0C622 0 622 0 724 -3L724 25L698 28C651 35 650 35 642 80L555 705L509 705L136 112C100 56 82 40 48 32L28 27L28 -3C120 0 120 0 140 0C159 0 161 0 247 -3L247 25L195 28C179 29 164 38 164 47C164 55 171 69 190 102L292 277L538 277L563 89L563 86C563 84 567 69 567 55ZM496 601L533 313L317 313Z" stroke="rgb(0,0,0)" stroke-opacity="1" stroke-width="8" fill="rgb(0,0,0)" fill-opacity="1"></path></g></g></g></g><g><g><g><g transform="matrix(1,0,0,1,164.67498779296875,83.5562530517578)"><path transform="matrix(0.0136,0,0,-0.0136,0,0)" d="M543 227C543 337 459 353 377 365C434 385 459 397 490 425C536 464 559 511 559 562C559 644 501 692 401 692C399 692 389 692 374 691L311 690C299 689 263 689 251 689C232 689 201 690 152 691L100 692L97 664L150 662C174 661 185 653 185 635C185 621 181 589 176 559L89 55C85 37 73 30 31 23L26 -3L63 -2C90 0 105 0 117 0C128 0 154 -1 180 -2L217 -3L237 -4C256 -5 269 -6 277 -6C392 -6 543 87 543 227ZM166 41L217 340L302 340C405 340 455 298 455 211C455 108 382 34 282 34C228 34 207 38 166 41ZM352 655C433 655 473 619 473 544C473 439 399 376 275 376L223 376L272 650C288 650 329 655 352 655Z" stroke="rgb(0,0,0)" stroke-opacity="1" stroke-width="8" fill="rgb(0,0,0)" fill-opacity="1"></path></g></g></g></g><g><g><g><g transform="matrix(1,0,0,1,63.31878662109375,124.87499389648437)"><path transform="matrix(0.0136,0,0,-0.0136,0,0)" d="M316 -3C388 -3 437 8 489 34C645 114 741 265 741 431C741 529 711 599 650 642C604 675 519 693 424 692L220 689L210 689C201 689 198 689 97 692L94 664L147 662C171 661 182 653 182 635C182 621 178 589 173 559L86 55C81 31 56 29 33 23L28 -3L121 0L176 0C211 0 282 -3 316 -3ZM384 655C566 655 649 579 649 415C649 225 549 41 329 41C285 41 236 46 168 56C168 68 169 75 172 93L268 650C291 650 349 655 384 655Z" stroke="rgb(0,0,0)" stroke-opacity="1" stroke-width="8" fill="rgb(0,0,0)" fill-opacity="1"></path></g></g></g></g></svg>
</svg>
